<svg width="349" height="208" viewBox="0 0 349 208" fill="none" xmlns="http://www.w3.org/2000/svg">
<path fill-rule="evenodd" clip-rule="evenodd" d="M144.976 3.4917C171.435 3.5141 198.101 3.5141 224.976 3.4917C224.976 9.1584 224.976 14.825 224.976 20.4917C198.309 20.4917 171.643 20.4917 144.976 20.4917C144.976 14.825 144.976 9.1584 144.976 3.4917Z" fill="#263454"/>
<path fill-rule="evenodd" clip-rule="evenodd" d="M144.976 3.49173C171.804 2.49383 198.804 2.16053 225.976 2.49173C225.976 8.82503 225.976 15.1584 225.976 21.4917C198.804 21.8227 171.804 21.4897 144.976 20.4917C171.643 20.4917 198.309 20.4917 224.976 20.4917C224.976 14.825 224.976 9.15843 224.976 3.49173C198.101 3.51413 171.435 3.51413 144.976 3.49173Z" fill="#05132B"/>
<path opacity="0.118" fill-rule="evenodd" clip-rule="evenodd" d="M245.976 21.4917C239.309 21.4917 232.643 21.4917 225.976 21.4917C225.976 15.1584 225.976 8.825 225.976 2.4917C226.593 2.381 227.093 2.0477 227.476 1.4917C227.975 7.4825 228.142 13.4825 227.976 19.4917C234.318 19.3257 240.651 19.4917 246.976 19.9917C246.42 20.3747 246.087 20.8747 245.976 21.4917Z" fill="#C2CCEA"/>
<path opacity="0.504" fill-rule="evenodd" clip-rule="evenodd" d="M225.976 2.4917C198.804 2.1605 171.804 2.4938 144.976 3.4917C144.976 9.1584 144.976 14.825 144.976 20.4917C171.804 21.4897 198.804 21.8227 225.976 21.4917C225.976 21.8247 225.976 22.1587 225.976 22.4917C219.309 22.4917 212.643 22.4917 205.976 22.4917C185.643 22.4917 165.309 22.4917 144.976 22.4917C145.3 29.3457 144.967 36.0127 143.976 42.4917C143.976 36.1587 143.976 29.8247 143.976 23.4917C137.309 23.4917 130.643 23.4917 123.976 23.4917C124.299 30.0137 123.966 36.3467 122.976 42.4917C123.288 35.5697 122.955 28.7357 121.976 21.9917C129.224 22.4187 136.558 22.5857 143.976 22.4917C143.891 14.9778 143.891 7.6445 143.976 0.491699C171.437 1.1502 198.77 1.8168 225.976 2.4917Z" fill="#7C84A1"/>
<path fill-rule="evenodd" clip-rule="evenodd" d="M205.976 22.4917C212.643 22.4917 219.309 22.4917 225.976 22.4917C225.976 29.1587 225.976 35.8247 225.976 42.4917C220.976 42.4917 215.976 42.4917 210.976 42.4917C209.309 42.4917 207.643 42.4917 205.976 42.4917C205.976 39.8247 205.976 37.1587 205.976 34.4917C205.976 30.4917 205.976 26.4917 205.976 22.4917Z" fill="#A7B0C1"/>
<path fill-rule="evenodd" clip-rule="evenodd" d="M225.976 21.4917C232.643 21.4917 239.309 21.4917 245.976 21.4917C245.976 28.4917 245.976 35.4917 245.976 42.4917C239.309 42.4917 232.643 42.4917 225.976 42.4917C225.976 35.8247 225.976 29.1587 225.976 22.4917C225.976 22.1587 225.976 21.8247 225.976 21.4917Z" fill="#24304A"/>
<path opacity="0.01" fill-rule="evenodd" clip-rule="evenodd" d="M266.976 41.4917C268.309 42.1587 268.309 42.1587 266.976 41.4917Z" fill="#717792"/>
<path fill-rule="evenodd" clip-rule="evenodd" d="M185.976 31.4918C185.976 35.1588 185.976 38.8248 185.976 42.4918C178.976 42.4918 171.976 42.4918 164.976 42.4918C164.976 49.4918 164.976 56.4918 164.976 63.4918C156.309 63.4918 147.643 63.4918 138.976 63.4918C138.976 63.1588 138.976 62.8248 138.976 62.4918C140.471 62.5768 141.471 61.9108 141.976 60.4918C140.865 59.3808 140.198 58.0468 139.976 56.4918C141.069 49.4628 144.736 44.2958 150.976 40.9918C150.643 40.6588 150.309 40.3248 149.976 39.9918C152.782 37.1858 155.616 34.3518 158.476 31.4918C167.729 30.3198 176.896 30.3198 185.976 31.4918Z" fill="#EAE4D9"/>
<path fill-rule="evenodd" clip-rule="evenodd" d="M205.976 22.4917C205.976 26.4917 205.976 30.4917 205.976 34.4917C204.317 33.1577 202.984 31.4907 201.976 29.4917C198.721 28.8747 195.721 27.7087 192.976 25.9917C190.666 25.4947 188.333 25.3287 185.976 25.4917C185.976 27.4917 185.976 29.4917 185.976 31.4917C176.896 30.3197 167.729 30.3197 158.476 31.4917C155.616 34.3517 152.782 37.1857 149.976 39.9917C150.309 40.3247 150.643 40.6587 150.976 40.9917C144.736 44.2957 141.069 49.4627 139.976 56.4917C140.198 58.0467 140.865 59.3807 141.976 60.4917C141.471 61.9107 140.471 62.5767 138.976 62.4917C135.309 62.4917 131.643 62.4917 127.976 62.4917C128.305 68.1977 127.971 73.8637 126.976 79.4917C125.977 67.5097 125.644 55.5097 125.976 43.4917C128.861 43.7977 131.528 43.4647 133.976 42.4917C137.309 42.4917 140.643 42.4917 143.976 42.4917C144.967 36.0127 145.3 29.3457 144.976 22.4917C165.309 22.4917 185.643 22.4917 205.976 22.4917Z" fill="#E0E0E8"/>
<path fill-rule="evenodd" clip-rule="evenodd" d="M143.976 42.4917C140.643 42.4917 137.309 42.4917 133.976 42.4917C130.976 42.4917 127.976 42.4917 124.976 42.4917C124.976 49.4917 124.976 56.4917 124.976 63.4917C121.976 63.4917 118.976 63.4917 115.976 63.4917C112.081 62.7667 108.081 62.1007 103.976 61.4917C103.976 55.1587 103.976 48.8247 103.976 42.4917C110.309 42.4917 116.643 42.4917 122.976 42.4917C123.966 36.3467 124.299 30.0137 123.976 23.4917C130.643 23.4917 137.309 23.4917 143.976 23.4917C143.976 29.8247 143.976 36.1587 143.976 42.4917Z" fill="#23304D"/>
<path opacity="0.235" fill-rule="evenodd" clip-rule="evenodd" d="M103.976 42.4917C103.976 48.8247 103.976 55.1587 103.976 61.4917C103.976 62.1587 103.643 62.4917 102.976 62.4917C101.883 55.5417 101.716 48.5417 102.476 41.4917C102.859 42.0477 103.359 42.3807 103.976 42.4917Z" fill="#AFBCE4"/>
<path fill-rule="evenodd" clip-rule="evenodd" d="M245.976 42.4917C252.976 42.4917 259.976 42.4917 266.976 42.4917C266.976 49.1587 266.976 55.8247 266.976 62.4917C273.309 62.4917 279.643 62.4917 285.976 62.4917C285.976 69.1587 285.976 75.8247 285.976 82.4917C292.643 82.4917 299.309 82.4917 305.976 82.4917C305.976 89.1587 305.976 95.8247 305.976 102.492C292.643 102.492 279.309 102.492 265.976 102.492C265.976 96.1587 265.976 89.8247 265.976 83.4917C259.309 83.4917 252.643 83.4917 245.976 83.4917C245.976 69.8247 245.976 56.1587 245.976 42.4917Z" fill="#1D3256"/>
<path fill-rule="evenodd" clip-rule="evenodd" d="M205.976 34.4917C205.976 37.1587 205.976 39.8247 205.976 42.4917C207.643 42.4917 209.309 42.4917 210.976 42.4917C211.429 43.4497 212.095 44.2837 212.976 44.9917C211.852 45.2407 210.852 45.7407 209.976 46.4917C211.238 49.4187 212.905 52.0847 214.976 54.4917C213.602 56.9587 214.269 58.7927 216.976 59.9917C215.643 60.6587 215.643 61.3247 216.976 61.9917C213.118 63.9557 210.118 66.9557 207.976 70.9917C206.683 71.4817 205.349 71.6487 203.976 71.4917C205.716 69.7787 206.549 67.1117 206.476 63.4917C204.712 66.1707 203.045 68.8377 201.476 71.4917C201.143 71.1587 200.809 70.8247 200.476 70.4917C195.767 72.7177 192.767 76.3837 191.476 81.4917C188.627 85.1177 185.46 86.4517 181.976 85.4917C183.967 82.8207 183.967 79.9877 181.976 76.9917C179.588 76.1267 178.088 76.9597 177.476 79.4917C175.464 78.9627 173.964 77.2957 172.976 74.4917C171.626 76.0117 170.293 76.6787 168.976 76.4917C169.801 77.3777 170.801 77.7107 171.976 77.4917C172.298 79.7137 171.631 81.5477 169.976 82.9917C170.433 83.4057 170.767 83.9057 170.976 84.4917C168.123 86.0167 167.123 88.1827 167.976 90.9917C166.043 91.7747 164.543 91.2747 163.476 89.4917C163.227 90.6157 162.727 91.6157 161.976 92.4917C161.721 90.6487 161.554 88.6487 161.476 86.4917C160.476 87.8247 159.476 89.1587 158.476 90.4917C157.511 88.7317 156.344 88.3977 154.976 89.4917C156.111 91.7907 157.444 93.9577 158.976 95.9917C157.6 98.5347 156.433 98.7007 155.476 96.4917C153.989 97.2447 153.822 98.0777 154.976 98.9917C152.732 101.295 151.066 100.962 149.976 97.9917C149.309 97.3247 148.643 97.3247 147.976 97.9917C149.483 98.8287 149.983 99.9957 149.476 101.492C148.465 100.655 147.298 100.322 145.976 100.492C146.295 102.742 145.795 104.742 144.476 106.492C143.751 104.043 142.751 101.709 141.476 99.4917C142.085 102.798 142.751 106.131 143.476 109.492C142.553 108.233 141.719 106.9 140.976 105.492C140.922 106.679 140.589 108.012 139.976 109.492C139.225 108.616 138.725 107.616 138.476 106.492C137.756 108.104 137.922 109.604 138.976 110.992C137.841 111.741 136.841 111.575 135.976 110.492C136.802 109.541 136.968 108.541 136.476 107.492C134.412 108.583 132.245 108.75 129.976 107.992C132.131 107.897 134.131 107.063 135.976 105.492C135.402 103.933 134.736 102.433 133.976 100.992C134.309 100.659 134.643 100.325 134.976 99.9917C133.36 99.3767 132.027 98.3767 130.976 96.9917C134.175 94.6277 137.508 92.4617 140.976 90.4917C140.309 89.8247 139.643 89.1587 138.976 88.4917C140.424 87.6377 141.757 86.6377 142.976 85.4917C144.443 85.7147 145.943 86.0477 147.476 86.4917C148.093 85.5427 147.927 84.7097 146.976 83.9917C147.833 83.3027 148.499 82.4697 148.976 81.4917C146.902 80.4617 144.736 78.7947 142.476 76.4917C141.872 78.6777 140.706 78.8437 138.976 76.9917C140.148 76.5727 141.148 75.9067 141.976 74.9917C139.75 71.3597 137.417 67.8597 134.976 64.4917C136.165 63.5627 137.498 63.2297 138.976 63.4917C147.643 63.4917 156.309 63.4917 164.976 63.4917C164.976 56.4917 164.976 49.4917 164.976 42.4917C171.976 42.4917 178.976 42.4917 185.976 42.4917C185.976 38.8247 185.976 35.1587 185.976 31.4917C185.976 29.4917 185.976 27.4917 185.976 25.4917C188.333 25.3287 190.666 25.4947 192.976 25.9917C195.721 27.7087 198.721 28.8747 201.976 29.4917C202.984 31.4907 204.317 33.1577 205.976 34.4917Z" fill="#C5C7C5"/>
<path fill-rule="evenodd" clip-rule="evenodd" d="M225.976 43.4916C228.663 43.3276 231.33 43.4946 233.976 43.9916C235.723 47.3246 238.056 50.1586 240.976 52.4916C242.133 55.7756 242.3 59.1096 241.476 62.4916C239.733 64.2186 237.9 64.8856 235.976 64.4916C236.866 68.9396 236.866 73.1056 235.976 76.9916C233.844 77.9096 233.177 79.2426 233.976 80.9916C232.739 81.2236 231.739 81.7236 230.976 82.4916C229.434 83.2926 227.768 83.6256 225.976 83.4916C225.976 70.1586 225.976 56.8246 225.976 43.4916Z" fill="#9EABBC"/>
<path opacity="0.012" fill-rule="evenodd" clip-rule="evenodd" d="M42.9758 62.4917C42.3088 61.1587 42.3088 61.1587 42.9758 62.4917Z" fill="#8695B9"/>
<path opacity="0.016" fill-rule="evenodd" clip-rule="evenodd" d="M286.976 61.4917C288.309 62.1587 288.309 62.1587 286.976 61.4917Z" fill="#A4AED0"/>
<path fill-rule="evenodd" clip-rule="evenodd" d="M103.976 61.4917C108.081 62.1007 112.081 62.7667 115.976 63.4917C112.309 63.4917 108.643 63.4917 104.976 63.4917C104.919 69.8427 104.586 76.1767 103.976 82.4917C96.7886 82.1667 89.7886 82.5007 82.9756 83.4917C69.9756 83.4917 56.9756 83.4917 43.9756 83.4917C43.9756 76.4917 43.9756 69.4917 43.9756 62.4917C63.6426 62.4917 83.3086 62.4917 102.976 62.4917C103.643 62.4917 103.976 62.1587 103.976 61.4917Z" fill="#1E335A"/>
<path fill-rule="evenodd" clip-rule="evenodd" d="M133.976 42.4917C131.528 43.4647 128.861 43.7977 125.976 43.4917C125.644 55.5097 125.977 67.5097 126.976 79.4917C127.971 73.8637 128.305 68.1977 127.976 62.4917C131.643 62.4917 135.309 62.4917 138.976 62.4917C138.976 62.8247 138.976 63.1587 138.976 63.4917C137.498 63.2297 136.165 63.5627 134.976 64.4917C137.417 67.8597 139.75 71.3597 141.976 74.9917C141.148 75.9067 140.148 76.5727 138.976 76.9917C140.706 78.8437 141.872 78.6777 142.476 76.4917C144.736 78.7947 146.902 80.4617 148.976 81.4917C148.499 82.4697 147.833 83.3027 146.976 83.9917C147.927 84.7097 148.093 85.5427 147.476 86.4917C145.943 86.0477 144.443 85.7147 142.976 85.4917C141.757 86.6377 140.424 87.6377 138.976 88.4917C139.643 89.1587 140.309 89.8247 140.976 90.4917C137.508 92.4617 134.175 94.6277 130.976 96.9917C132.027 98.3767 133.36 99.3767 134.976 99.9917C134.643 100.325 134.309 100.659 133.976 100.992C134.736 102.433 135.402 103.933 135.976 105.492C134.131 107.063 132.131 107.897 129.976 107.992C132.245 108.75 134.412 108.583 136.476 107.492C136.968 108.541 136.802 109.541 135.976 110.492C136.841 111.575 137.841 111.741 138.976 110.992C137.922 109.604 137.756 108.104 138.476 106.492C138.725 107.616 139.225 108.616 139.976 109.492C140.589 108.012 140.922 106.679 140.976 105.492C141.719 106.9 142.553 108.233 143.476 109.492C142.751 106.131 142.085 102.798 141.476 99.4917C142.751 101.709 143.751 104.043 144.476 106.492C145.795 104.742 146.295 102.742 145.976 100.492C147.298 100.322 148.465 100.655 149.476 101.492C149.983 99.9957 149.483 98.8287 147.976 97.9917C148.643 97.3247 149.309 97.3247 149.976 97.9917C151.066 100.962 152.732 101.295 154.976 98.9917C153.822 98.0777 153.989 97.2447 155.476 96.4917C156.433 98.7007 157.6 98.5347 158.976 95.9917C157.444 93.9577 156.111 91.7907 154.976 89.4917C156.344 88.3977 157.511 88.7317 158.476 90.4917C159.476 89.1587 160.476 87.8247 161.476 86.4917C161.554 88.6487 161.721 90.6487 161.976 92.4917C162.727 91.6157 163.227 90.6157 163.476 89.4917C164.543 91.2747 166.043 91.7747 167.976 90.9917C167.123 88.1827 168.123 86.0167 170.976 84.4917C170.767 83.9057 170.433 83.4057 169.976 82.9917C171.631 81.5477 172.298 79.7137 171.976 77.4917C170.801 77.7107 169.801 77.3777 168.976 76.4917C170.293 76.6787 171.626 76.0117 172.976 74.4917C173.964 77.2957 175.464 78.9627 177.476 79.4917C178.088 76.9597 179.588 76.1267 181.976 76.9917C183.967 79.9877 183.967 82.8207 181.976 85.4917C185.46 86.4517 188.627 85.1177 191.476 81.4917C192.767 76.3837 195.767 72.7177 200.476 70.4917C200.809 70.8247 201.143 71.1587 201.476 71.4917C203.045 68.8377 204.712 66.1707 206.476 63.4917C206.549 67.1117 205.716 69.7787 203.976 71.4917C205.349 71.6487 206.683 71.4817 207.976 70.9917C210.118 66.9557 213.118 63.9557 216.976 61.9917C215.643 61.3247 215.643 60.6587 216.976 59.9917C214.269 58.7927 213.602 56.9587 214.976 54.4917C212.905 52.0847 211.238 49.4187 209.976 46.4917C210.852 45.7407 211.852 45.2407 212.976 44.9917C212.095 44.2837 211.429 43.4497 210.976 42.4917C215.976 42.4917 220.976 42.4917 225.976 42.4917C225.976 42.8247 225.976 43.1587 225.976 43.4917C225.976 56.8247 225.976 70.1587 225.976 83.4917C218.976 83.4917 211.976 83.4917 204.976 83.4917C204.976 90.1587 204.976 96.8247 204.976 103.492C201.976 103.492 198.976 103.492 195.976 103.492C186.304 103.326 176.637 103.492 166.976 103.992C165.998 110.402 165.665 116.902 165.976 123.492C158.976 123.492 151.976 123.492 144.976 123.492C144.976 129.825 144.976 136.159 144.976 142.492C138.367 143.415 131.7 143.748 124.976 143.492C124.976 136.825 124.976 130.159 124.976 123.492C118.309 123.492 111.643 123.492 104.976 123.492C105.602 130.576 104.935 137.242 102.976 143.492C96.6426 143.492 90.3086 143.492 83.9756 143.492C83.8116 150.194 84.1446 156.861 84.9756 163.492C76.3426 164.369 67.6756 164.703 58.9756 164.492C54.3086 164.492 49.6426 164.492 44.9756 164.492C44.6496 158.375 44.1496 152.042 43.4756 145.492C43.0926 144.936 42.5926 144.603 41.9756 144.492C39.5136 141.528 36.8466 138.695 33.9756 135.992C34.5206 132.312 34.8546 128.646 34.9756 124.992C34.3086 124.659 33.6426 124.325 32.9756 123.992C33.1016 122.018 33.2676 119.851 33.4756 117.492C35.8426 112.669 38.6766 108.336 41.9756 104.492C43.9316 110.404 44.5986 116.737 43.9756 123.492C50.6426 123.492 57.3086 123.492 63.9756 123.492C63.9756 116.492 63.9756 109.492 63.9756 102.492C59.2646 102.274 54.5976 102.607 49.9756 103.492C48.1186 102.725 46.4516 101.725 44.9756 100.492C44.6426 100.492 44.3086 100.492 43.9756 100.492C42.9866 95.0167 42.6536 89.3497 42.9756 83.4917C42.9756 76.4917 42.9756 69.4917 42.9756 62.4917C43.3086 62.4917 43.6426 62.4917 43.9756 62.4917C43.9756 69.4917 43.9756 76.4917 43.9756 83.4917C43.5786 88.9507 44.0786 94.2837 45.4756 99.4917C45.6066 96.6207 46.7726 94.2867 48.9756 92.4917C59.1336 87.3147 68.8006 87.8147 77.9756 93.9917C79.1426 95.1587 80.3086 96.3247 81.4756 97.4917C82.4496 95.1137 83.1166 95.4477 83.4756 98.4917C83.6506 93.9727 84.1506 89.6387 84.9756 85.4917C84.9756 91.4917 84.9756 97.4917 84.9756 103.492C91.6426 103.492 98.3086 103.492 104.976 103.492C104.976 96.8247 104.976 90.1587 104.976 83.4917C111.643 83.4917 118.309 83.4917 124.976 83.4917C124.976 76.8247 124.976 70.1587 124.976 63.4917C124.976 56.4917 124.976 49.4917 124.976 42.4917C127.976 42.4917 130.976 42.4917 133.976 42.4917Z" fill="#C3C9CC"/>
<path fill-rule="evenodd" clip-rule="evenodd" d="M225.976 43.4917C225.976 43.1587 225.976 42.8247 225.976 42.4917C232.643 42.4917 239.309 42.4917 245.976 42.4917C245.976 56.1587 245.976 69.8247 245.976 83.4917C245.693 84.2807 245.193 84.9477 244.476 85.4917C241.063 82.9777 237.229 81.9777 232.976 82.4917C232.309 82.4917 231.643 82.4917 230.976 82.4917C231.739 81.7237 232.739 81.2237 233.976 80.9917C233.177 79.2427 233.844 77.9097 235.976 76.9917C236.866 73.1057 236.866 68.9397 235.976 64.4917C237.9 64.8857 239.733 64.2187 241.476 62.4917C242.3 59.1097 242.133 55.7757 240.976 52.4917C238.056 50.1587 235.723 47.3247 233.976 43.9917C231.33 43.4947 228.663 43.3277 225.976 43.4917Z" fill="#98AAC9"/>
<path fill-rule="evenodd" clip-rule="evenodd" d="M115.976 63.4917C118.976 63.4917 121.976 63.4917 124.976 63.4917C124.976 70.1587 124.976 76.8247 124.976 83.4917C118.309 83.4917 111.643 83.4917 104.976 83.4917C98.3086 83.4917 91.6426 83.4917 84.9756 83.4917C84.3086 83.4917 83.6426 83.4917 82.9756 83.4917C89.7886 82.5007 96.7886 82.1667 103.976 82.4917C104.586 76.1767 104.919 69.8427 104.976 63.4917C108.643 63.4917 112.309 63.4917 115.976 63.4917Z" fill="#455572"/>
<path opacity="0.061" fill-rule="evenodd" clip-rule="evenodd" d="M285.976 62.4917C286.309 62.4917 286.643 62.4917 286.976 62.4917C286.81 68.8337 286.976 75.1667 287.476 81.4917C294.075 80.1657 300.575 80.1657 306.976 81.4917C306.309 81.4917 305.976 81.8247 305.976 82.4917C299.309 82.4917 292.643 82.4917 285.976 82.4917C285.976 75.8247 285.976 69.1587 285.976 62.4917Z" fill="#ACB9DD"/>
<path opacity="0.012" fill-rule="evenodd" clip-rule="evenodd" d="M306.976 81.4917C308.309 82.1587 308.309 82.1587 306.976 81.4917Z" fill="#CFD7EF"/>
<path fill-rule="evenodd" clip-rule="evenodd" d="M232.976 82.4917C237.229 81.9777 241.063 82.9777 244.476 85.4917C245.193 84.9477 245.693 84.2807 245.976 83.4917C252.643 83.4917 259.309 83.4917 265.976 83.4917C265.976 89.8247 265.976 96.1587 265.976 102.492C279.309 102.492 292.643 102.492 305.976 102.492C305.976 95.8247 305.976 89.1587 305.976 82.4917C306.309 82.4917 306.643 82.4917 306.976 82.4917C306.72 89.4657 307.053 96.4657 307.976 103.492C307.976 103.825 307.976 104.159 307.976 104.492C306.986 110.637 306.653 116.97 306.976 123.492C313.643 123.492 320.309 123.492 326.976 123.492C326.976 117.159 326.976 110.825 326.976 104.492C327.309 104.492 327.643 104.492 327.976 104.492C327.976 110.825 327.976 117.159 327.976 123.492C327.976 123.825 327.976 124.159 327.976 124.492C327.643 124.492 327.309 124.492 326.976 124.492C320.634 124.326 314.301 124.492 307.976 124.992C314.156 125.285 319.156 127.285 322.976 130.992C321.976 131.325 320.976 131.659 319.976 131.992C321.05 132.731 321.717 133.731 321.976 134.992C318.442 140.261 318.108 145.261 320.976 149.992C320.526 151.277 319.859 152.444 318.976 153.492C321.643 154.825 321.643 156.159 318.976 157.492C319.185 158.078 319.519 158.578 319.976 158.992C318.451 160.001 316.784 160.501 314.976 160.492C315.232 162.784 314.899 164.951 313.976 166.992C315.099 168.036 316.432 168.702 317.976 168.992C316.867 170.805 317.534 171.638 319.976 171.492C320.125 172.544 319.959 173.544 319.476 174.492C317.082 173.856 314.582 173.856 311.976 174.492C311.979 169.4 311.146 169.4 309.476 174.492C307.964 172.035 306.63 172.035 305.476 174.492C302.423 173.418 299.256 173.418 295.976 174.492C295.546 176.559 294.046 178.226 291.476 179.492C290.397 177.598 289.063 177.265 287.476 178.492C286.623 176.867 285.623 176.534 284.476 177.492C280.321 174.914 276.155 174.914 271.976 177.492C265.297 176.29 258.797 176.956 252.476 179.492C249.698 178.589 246.865 177.923 243.976 177.492C238.56 178.978 233.06 179.978 227.476 180.492C226.326 179.568 225.326 179.568 224.476 180.492C222.373 178.124 219.706 176.791 216.476 176.492C213.663 177.931 210.663 178.598 207.476 178.492C202.962 178.115 198.462 177.615 193.976 176.992C193.143 176.159 192.309 175.325 191.476 174.492C187.703 175.509 183.87 175.509 179.976 174.492C180.018 172.143 178.851 170.81 176.476 170.492C176.127 171.465 175.294 172.298 173.976 172.992C168.923 173.209 163.923 173.709 158.976 174.492C156.523 171.904 154.357 172.238 152.476 175.492C152.143 174.492 151.809 173.492 151.476 172.492C150.809 173.825 150.143 173.825 149.476 172.492C145.862 174.147 142.029 175.48 137.976 176.492C135.854 176.369 133.687 176.369 131.476 176.492C128.309 174.458 124.975 174.125 121.476 175.492C120.384 174.696 119.217 174.029 117.976 173.492C115.868 173.734 113.701 174.068 111.476 174.492C109.866 172.503 108.033 172.17 105.976 173.492C104.976 172.825 103.976 172.159 102.976 171.492C101.378 172.477 99.7106 172.643 97.9756 171.992C99.3776 170.65 99.0446 169.816 96.9756 169.492C92.4126 170.568 88.0796 172.235 83.9756 174.492C82.2306 174.516 80.3966 174.182 78.4756 173.492C77.4756 174.159 76.4756 174.825 75.4756 175.492C70.0706 175.328 64.5706 175.328 58.9756 175.492C57.8286 175.174 56.9946 174.508 56.4756 173.492C54.2856 174.576 52.6196 173.909 51.4756 171.492C51.0616 171.949 50.5616 172.283 49.9756 172.492C48.0066 168.631 46.3396 168.631 44.9756 172.492C44.9756 169.825 44.9756 167.159 44.9756 164.492C49.6426 164.492 54.3086 164.492 58.9756 164.492C72.1756 165.64 85.3426 165.64 98.4756 164.492C101.062 164.494 103.062 165.494 104.476 167.492C104.809 167.159 105.143 166.825 105.476 166.492C108.596 167.565 111.763 168.565 114.976 169.492C117.474 168.871 119.808 169.537 121.976 171.492C126.369 170.008 130.869 170.342 135.476 172.492C135.793 170.691 136.46 170.358 137.476 171.492C138.476 170.825 139.476 170.159 140.476 169.492C142.565 169.737 144.565 169.737 146.476 169.492C152.499 165.178 158.832 164.511 165.476 167.492C165.959 166.544 166.125 165.544 165.976 164.492C167.62 164.278 169.12 164.612 170.476 165.492C171.917 164.732 173.417 164.066 174.976 163.492C178.72 165.113 182.22 167.113 185.476 169.492C185.809 168.825 186.143 168.159 186.476 167.492C187.476 168.492 188.476 169.492 189.476 170.492C189.89 170.035 190.39 169.701 190.976 169.492C190.965 170.433 191.465 171.1 192.476 171.492C192.976 171.159 193.476 170.825 193.976 170.492C192.643 169.372 192.143 168.039 192.476 166.492C196.125 167.823 199.792 169.156 203.476 170.492C205.669 170.141 207.502 169.141 208.976 167.492C209.692 168.303 210.526 168.97 211.476 169.492C212.814 168.486 214.147 167.486 215.476 166.492C217.783 168.6 220.116 169.933 222.476 170.492C224.22 169.956 226.053 169.622 227.976 169.492C229.224 170.032 230.391 170.699 231.476 171.492C232.511 168.206 234.011 167.872 235.976 170.492C235.965 169.551 236.465 168.884 237.476 168.492C237.857 169.474 238.69 170.14 239.976 170.492C241.339 169.794 242.505 169.794 243.476 170.492C243.809 169.825 244.143 169.159 244.476 168.492C249.212 169 254.546 169.667 260.476 170.492C263.536 170.767 265.536 169.434 266.476 166.492C267.983 167.527 269.483 167.36 270.976 165.992C269.418 165.782 268.085 165.282 266.976 164.492C272.985 164.658 278.985 164.491 284.976 163.992C285.91 157.317 286.91 150.65 287.976 143.992C293.967 143.493 299.967 143.326 305.976 143.492C306.305 130.315 305.971 117.315 304.976 104.492C285.483 103.495 265.816 103.162 245.976 103.492C244.064 101.12 242.898 101.787 242.476 105.492C241.476 106.492 240.476 107.492 239.476 108.492C238.671 106.091 237.838 106.258 236.976 108.992C237.309 109.325 237.643 109.659 237.976 109.992C236.51 110.627 235.176 111.461 233.976 112.492C232.756 111.281 231.589 111.281 230.476 112.492C229.459 109.964 228.292 109.964 226.976 112.492C221.282 112.895 215.616 112.228 209.976 110.492C211.117 109.567 211.117 108.733 209.976 107.992C213.073 106.926 215.74 105.259 217.976 102.992C216.498 101.799 215.164 101.299 213.976 101.492C214.789 100.178 215.789 99.0107 216.976 97.9917C216.643 97.6587 216.309 97.3247 215.976 96.9917C218.558 96.0957 220.892 94.7627 222.976 92.9917C222.643 91.9917 222.309 90.9917 221.976 89.9917C225.378 86.8907 229.045 84.3907 232.976 82.4917Z" fill="#7F97B3"/>
<path fill-rule="evenodd" clip-rule="evenodd" d="M42.9755 83.4917C42.6535 89.3497 42.9865 95.0167 43.9755 100.492C37.7255 102.451 31.0595 103.118 23.9755 102.492C23.9755 96.1587 23.9755 89.8247 23.9755 83.4917C22.8615 81.6387 23.5275 81.1387 25.9755 81.9917C25.6425 82.3247 25.3085 82.6587 24.9755 82.9917C30.9665 83.4907 36.9665 83.6577 42.9755 83.4917Z" fill="#262E47"/>
<path fill-rule="evenodd" clip-rule="evenodd" d="M43.9755 83.4917C56.9755 83.4917 69.9755 83.4917 82.9755 83.4917C83.6425 83.4917 84.3085 83.4917 84.9755 83.4917C84.9755 84.1587 84.9755 84.8247 84.9755 85.4917C84.1505 89.6387 83.6505 93.9727 83.4755 98.4917C83.1165 95.4477 82.4495 95.1137 81.4755 97.4917C80.3085 96.3247 79.1425 95.1587 77.9755 93.9917C68.8005 87.8147 59.1335 87.3147 48.9755 92.4917C46.7725 94.2867 45.6065 96.6207 45.4755 99.4917C44.0785 94.2837 43.5785 88.9507 43.9755 83.4917Z" fill="#D8DCED"/>
<path fill-rule="evenodd" clip-rule="evenodd" d="M84.9756 83.4917C91.6426 83.4917 98.3086 83.4917 104.976 83.4917C104.976 90.1587 104.976 96.8247 104.976 103.492C98.3086 103.492 91.6426 103.492 84.9756 103.492C84.9756 97.4917 84.9756 91.4917 84.9756 85.4917C84.9756 84.8247 84.9756 84.1587 84.9756 83.4917Z" fill="#8693A5"/>
<path opacity="0.118" fill-rule="evenodd" clip-rule="evenodd" d="M22.9756 102.492C22.9756 102.825 22.9756 103.159 22.9756 103.492C16.6426 103.492 10.3086 103.492 3.97559 103.492C3.86459 102.875 3.53159 102.375 2.97559 101.992C9.72259 101.2 16.3896 101.366 22.9756 102.492Z" fill="#B2B9D5"/>
<path opacity="0.012" fill-rule="evenodd" clip-rule="evenodd" d="M307.976 102.492C309.309 103.159 309.309 103.159 307.976 102.492Z" fill="#27344E"/>
<path opacity="0.013" fill-rule="evenodd" clip-rule="evenodd" d="M315.975 104.492C314.308 104.492 312.642 104.492 310.975 104.492C309.832 102.891 310.499 102.225 312.975 102.492C314.505 102.632 315.505 103.299 315.975 104.492Z" fill="#BDC7E6"/>
<path opacity="0.01" fill-rule="evenodd" clip-rule="evenodd" d="M324.976 104.492C323.309 104.492 321.643 104.492 319.976 104.492C320.267 103.343 321.1 102.676 322.476 102.492C323.852 102.676 324.685 103.343 324.976 104.492Z" fill="#D0D5EF"/>
<path opacity="0.016" fill-rule="evenodd" clip-rule="evenodd" d="M327.976 103.492C329.309 104.159 329.309 104.159 327.976 103.492Z" fill="#9CA0B6"/>
<path fill-rule="evenodd" clip-rule="evenodd" d="M44.9756 100.492C46.4516 101.725 48.1186 102.725 49.9756 103.492C54.5976 102.607 59.2646 102.274 63.9756 102.492C63.9756 109.492 63.9756 116.492 63.9756 123.492C57.3086 123.492 50.6426 123.492 43.9756 123.492C44.5986 116.737 43.9316 110.404 41.9756 104.492C35.9756 104.492 29.9756 104.492 23.9756 104.492C30.7886 103.501 37.7886 103.167 44.9756 103.492C44.9756 102.492 44.9756 101.492 44.9756 100.492Z" fill="#EDE9DF"/>
<path fill-rule="evenodd" clip-rule="evenodd" d="M245.976 103.492C265.816 103.162 285.483 103.495 304.976 104.492C298.939 104.163 292.939 104.496 286.976 105.492C287.802 108.612 288.469 111.779 288.976 114.992C288.044 124.129 287.711 133.295 287.976 142.492C280.956 142.494 273.956 142.827 266.976 143.492C266.976 146.825 266.976 150.159 266.976 153.492C265.98 153.406 265.147 153.74 264.476 154.492C264.108 153.082 263.275 152.082 261.976 151.492C260.765 152.266 260.765 153.099 261.976 153.992C259.852 155.574 257.686 155.741 255.476 154.492C254.457 155.679 253.29 156.679 251.976 157.492C250.708 156.564 249.375 156.397 247.976 156.992C248.643 157.325 249.309 157.659 249.976 157.992C248.643 158.325 247.309 158.659 245.976 158.992C248.071 159.548 248.238 160.048 246.476 160.492C242.147 158.327 237.647 156.661 232.976 155.492C229.495 155.298 226.995 155.965 225.476 157.492C224.309 157.325 223.143 157.159 221.976 156.992C222.643 156.659 223.309 156.325 223.976 155.992C221.282 154.504 218.948 154.671 216.976 156.492C217.411 155.03 216.578 154.03 214.476 153.492C214.095 154.474 213.262 155.14 211.976 155.492C206.644 154.288 204.811 150.955 206.476 145.492C208.048 149.517 209.215 149.35 209.976 144.992C209.643 144.659 209.309 144.325 208.976 143.992C212.545 143.145 213.878 141.145 212.976 137.992C214.782 136.186 216.616 134.352 218.476 132.492C220.974 133.113 223.308 132.447 225.476 130.492C226.219 128.551 226.052 126.718 224.976 124.992C232.155 124.821 239.155 124.321 245.976 123.492C245.976 116.825 245.976 110.159 245.976 103.492Z" fill="#C4CACD"/>
<path fill-rule="evenodd" clip-rule="evenodd" d="M326.976 104.492C326.976 110.825 326.976 117.159 326.976 123.492C320.309 123.492 313.643 123.492 306.976 123.492C306.653 116.97 306.986 110.637 307.976 104.492C308.976 104.492 309.976 104.492 310.976 104.492C312.643 104.492 314.309 104.492 315.976 104.492C317.309 104.492 318.643 104.492 319.976 104.492C321.643 104.492 323.309 104.492 324.976 104.492C325.872 103.486 326.538 103.486 326.976 104.492Z" fill="#22324E"/>
<path opacity="0.063" fill-rule="evenodd" clip-rule="evenodd" d="M347.976 123.492C347.309 123.492 346.976 123.825 346.976 124.492C340.643 124.492 334.309 124.492 327.976 124.492C327.976 124.159 327.976 123.825 327.976 123.492C334.742 122.183 341.408 122.183 347.976 123.492Z" fill="#C4CEEC"/>
<path fill-rule="evenodd" clip-rule="evenodd" d="M195.976 103.492C193.189 104.469 190.189 104.802 186.976 104.492C186.858 117.645 185.524 130.645 182.976 143.492C176.976 143.492 170.976 143.492 164.976 143.492C164.463 149.35 165.13 155.017 166.976 160.492C166.309 161.492 165.643 162.492 164.976 163.492C151.508 165.232 138.175 165.566 124.976 164.492C131.643 164.492 138.309 164.492 144.976 164.492C144.976 157.159 144.976 149.825 144.976 142.492C144.976 136.159 144.976 129.825 144.976 123.492C151.976 123.492 158.976 123.492 165.976 123.492C165.665 116.902 165.998 110.402 166.976 103.992C176.637 103.492 186.304 103.326 195.976 103.492Z" fill="#96A9BA"/>
<path fill-rule="evenodd" clip-rule="evenodd" d="M304.976 104.492C305.971 117.315 306.305 130.315 305.976 143.492C299.967 143.326 293.967 143.493 287.976 143.992C286.91 150.65 285.91 157.317 284.976 163.992C278.985 164.491 272.985 164.658 266.976 164.492C266.976 160.825 266.976 157.159 266.976 153.492C266.976 150.159 266.976 146.825 266.976 143.492C273.956 142.827 280.956 142.494 287.976 142.492C287.711 133.295 288.044 124.129 288.976 114.992C288.469 111.779 287.802 108.612 286.976 105.492C292.939 104.496 298.939 104.163 304.976 104.492Z" fill="#A0AFC0"/>
<path fill-rule="evenodd" clip-rule="evenodd" d="M23.9756 104.492C29.9756 104.492 35.9756 104.492 41.9756 104.492C38.6766 108.336 35.8426 112.669 33.4756 117.492C33.2676 119.851 33.1016 122.018 32.9756 123.992C33.6426 124.325 34.3086 124.659 34.9756 124.992C34.8546 128.646 34.5206 132.312 33.9756 135.992C36.8466 138.695 39.5136 141.528 41.9756 144.492C35.9916 145.066 29.9916 145.399 23.9756 145.492C23.9756 131.825 23.9756 118.159 23.9756 104.492Z" fill="#C9CEDB"/>
<path fill-rule="evenodd" clip-rule="evenodd" d="M144.976 142.492C144.976 149.825 144.976 157.159 144.976 164.492C138.309 164.492 131.643 164.492 124.976 164.492C124.976 157.492 124.976 150.492 124.976 143.492C131.7 143.748 138.367 143.415 144.976 142.492Z" fill="#E0E6E7"/>
<path fill-rule="evenodd" clip-rule="evenodd" d="M326.976 124.492C327.309 124.492 327.643 124.492 327.976 124.492C334.309 124.492 340.643 124.492 346.976 124.492C346.976 144.492 346.976 164.492 346.976 184.492C340.309 184.492 333.643 184.492 326.976 184.492C326.976 164.492 326.976 144.492 326.976 124.492Z" fill="#1E3252"/>
<path fill-rule="evenodd" clip-rule="evenodd" d="M245.976 123.492C239.155 124.321 232.155 124.821 224.976 124.992C226.052 126.718 226.219 128.551 225.476 130.492C223.308 132.447 220.974 133.113 218.476 132.492C216.616 134.352 214.782 136.186 212.976 137.992C213.878 141.145 212.545 143.145 208.976 143.992C209.309 144.325 209.643 144.659 209.976 144.992C209.215 149.35 208.048 149.517 206.476 145.492C204.811 150.955 206.644 154.288 211.976 155.492C213.262 155.14 214.095 154.474 214.476 153.492C216.578 154.03 217.411 155.03 216.976 156.492C218.948 154.671 221.282 154.504 223.976 155.992C223.309 156.325 222.643 156.659 221.976 156.992C223.143 157.159 224.309 157.325 225.476 157.492C226.995 155.965 229.495 155.298 232.976 155.492C237.647 156.661 242.147 158.327 246.476 160.492C248.238 160.048 248.071 159.548 245.976 158.992C247.309 158.659 248.643 158.325 249.976 157.992C249.309 157.659 248.643 157.325 247.976 156.992C249.375 156.397 250.708 156.564 251.976 157.492C253.29 156.679 254.457 155.679 255.476 154.492C257.686 155.741 259.852 155.574 261.976 153.992C260.765 153.099 260.765 152.266 261.976 151.492C263.275 152.082 264.108 153.082 264.476 154.492C265.147 153.74 265.98 153.406 266.976 153.492C266.976 157.159 266.976 160.825 266.976 164.492C239.643 164.492 212.309 164.492 184.976 164.492C184.976 158.159 184.976 151.825 184.976 145.492C191.729 143.793 198.562 143.127 205.476 143.492C205.976 136.834 206.142 130.167 205.976 123.492C219.309 123.492 232.643 123.492 245.976 123.492Z" fill="#BDC9D2"/>
<path opacity="0.103" fill-rule="evenodd" clip-rule="evenodd" d="M347.976 123.492C349.309 144.159 349.309 164.825 347.976 185.492C347.976 184.825 347.643 184.492 346.976 184.492C346.976 164.492 346.976 144.492 346.976 124.492C347.643 124.492 347.976 124.159 347.976 123.492Z" fill="#BCC4E3"/>
<path fill-rule="evenodd" clip-rule="evenodd" d="M230.976 82.4917C231.643 82.4917 232.309 82.4917 232.976 82.4917C229.045 84.3907 225.378 86.8907 221.976 89.9917C222.309 90.9917 222.643 91.9917 222.976 92.9917C220.892 94.7627 218.558 96.0957 215.976 96.9917C216.309 97.3247 216.643 97.6587 216.976 97.9917C215.789 99.0107 214.789 100.178 213.976 101.492C215.164 101.299 216.498 101.799 217.976 102.992C215.74 105.259 213.073 106.926 209.976 107.992C211.117 108.733 211.117 109.567 209.976 110.492C215.616 112.228 221.282 112.895 226.976 112.492C228.292 109.964 229.459 109.964 230.476 112.492C231.589 111.281 232.756 111.281 233.976 112.492C235.176 111.461 236.51 110.627 237.976 109.992C237.643 109.659 237.309 109.325 236.976 108.992C237.838 106.258 238.671 106.091 239.476 108.492C240.476 107.492 241.476 106.492 242.476 105.492C242.898 101.787 244.064 101.12 245.976 103.492C245.976 110.159 245.976 116.825 245.976 123.492C232.643 123.492 219.309 123.492 205.976 123.492C206.142 130.167 205.976 136.834 205.476 143.492C198.562 143.127 191.729 143.793 184.976 145.492C184.976 151.825 184.976 158.159 184.976 164.492C212.309 164.492 239.643 164.492 266.976 164.492C268.085 165.282 269.418 165.782 270.976 165.992C269.483 167.36 267.983 167.527 266.476 166.492C265.536 169.434 263.536 170.767 260.476 170.492C254.546 169.667 249.212 169 244.476 168.492C244.143 169.159 243.809 169.825 243.476 170.492C242.505 169.794 241.339 169.794 239.976 170.492C238.69 170.14 237.857 169.474 237.476 168.492C236.465 168.884 235.965 169.551 235.976 170.492C234.011 167.872 232.511 168.206 231.476 171.492C230.391 170.699 229.224 170.032 227.976 169.492C226.053 169.622 224.22 169.956 222.476 170.492C220.116 169.933 217.783 168.6 215.476 166.492C214.147 167.486 212.814 168.486 211.476 169.492C210.526 168.97 209.692 168.303 208.976 167.492C207.502 169.141 205.669 170.141 203.476 170.492C199.792 169.156 196.125 167.823 192.476 166.492C192.143 168.039 192.643 169.372 193.976 170.492C193.476 170.825 192.976 171.159 192.476 171.492C191.465 171.1 190.965 170.433 190.976 169.492C190.39 169.701 189.89 170.035 189.476 170.492C188.476 169.492 187.476 168.492 186.476 167.492C186.143 168.159 185.809 168.825 185.476 169.492C182.22 167.113 178.72 165.113 174.976 163.492C173.417 164.066 171.917 164.732 170.476 165.492C169.12 164.612 167.62 164.278 165.976 164.492C166.125 165.544 165.959 166.544 165.476 167.492C158.832 164.511 152.499 165.178 146.476 169.492C144.565 169.737 142.565 169.737 140.476 169.492C139.476 170.159 138.476 170.825 137.476 171.492C136.46 170.358 135.793 170.691 135.476 172.492C130.869 170.342 126.369 170.008 121.976 171.492C119.808 169.537 117.474 168.871 114.976 169.492C111.763 168.565 108.596 167.565 105.476 166.492C105.143 166.825 104.809 167.159 104.476 167.492C103.062 165.494 101.062 164.494 98.4756 164.492C85.3426 165.64 72.1756 165.64 58.9756 164.492C67.6756 164.703 76.3426 164.369 84.9756 163.492C84.1446 156.861 83.8116 150.194 83.9756 143.492C90.3086 143.492 96.6426 143.492 102.976 143.492C103.938 150.404 104.271 157.404 103.976 164.492C110.976 164.492 117.976 164.492 124.976 164.492C138.175 165.566 151.508 165.232 164.976 163.492C165.643 162.492 166.309 161.492 166.976 160.492C165.13 155.017 164.463 149.35 164.976 143.492C170.976 143.492 176.976 143.492 182.976 143.492C185.524 130.645 186.858 117.645 186.976 104.492C190.189 104.802 193.189 104.469 195.976 103.492C198.976 103.492 201.976 103.492 204.976 103.492C204.976 96.8247 204.976 90.1587 204.976 83.4917C211.976 83.4917 218.976 83.4917 225.976 83.4917C227.768 83.6257 229.434 83.2927 230.976 82.4917Z" fill="#879BAF"/>
<path fill-rule="evenodd" clip-rule="evenodd" d="M124.976 143.492C124.976 150.492 124.976 157.492 124.976 164.492C117.976 164.492 110.976 164.492 103.976 164.492C104.271 157.404 103.938 150.404 102.976 143.492C104.935 137.242 105.602 130.576 104.976 123.492C111.643 123.492 118.309 123.492 124.976 123.492C124.976 130.159 124.976 136.825 124.976 143.492Z" fill="#A4B1BC"/>
<path fill-rule="evenodd" clip-rule="evenodd" d="M41.9756 144.492C42.5926 144.603 43.0926 144.936 43.4756 145.492C44.1496 152.042 44.6496 158.375 44.9756 164.492C37.9756 164.492 30.9756 164.492 23.9756 164.492C23.9756 158.159 23.9756 151.825 23.9756 145.492C29.9916 145.399 35.9916 145.066 41.9756 144.492Z" fill="#A5B1C9"/>
<path opacity="0.012" fill-rule="evenodd" clip-rule="evenodd" d="M3.97559 164.492C10.4976 164.169 16.8306 164.502 22.9756 165.492C16.3896 166.618 9.72259 166.784 2.97559 165.992C3.53159 165.609 3.86459 165.109 3.97559 164.492Z" fill="#C8D1EE"/>
<path opacity="0.513" fill-rule="evenodd" clip-rule="evenodd" d="M23.9758 83.4917C23.9758 89.8247 23.9758 96.1587 23.9758 102.492C31.0598 103.118 37.7258 102.451 43.9758 100.492C44.3088 100.492 44.6428 100.492 44.9758 100.492C44.9758 101.492 44.9758 102.492 44.9758 103.492C37.7888 103.167 30.7888 103.501 23.9758 104.492C23.9758 118.159 23.9758 131.825 23.9758 145.492C23.9758 151.825 23.9758 158.159 23.9758 164.492C30.9758 164.492 37.9758 164.492 44.9758 164.492C44.9758 167.159 44.9758 169.825 44.9758 172.492C45.2348 176.232 44.9018 179.898 43.9758 183.492C115.306 184.492 186.64 184.825 257.976 184.492C186.811 185.491 115.478 185.825 43.9758 185.492C43.9758 191.825 43.9758 198.159 43.9758 204.492C43.6428 204.492 43.3088 204.492 42.9758 204.492C42.3088 204.492 41.9758 204.825 41.9758 205.492C40.9028 204.741 40.7358 203.741 41.4758 202.492C41.8088 202.825 42.1428 203.159 42.4758 203.492C43.1428 198.492 43.1428 193.492 42.4758 188.492C41.5868 189.88 41.0868 189.714 40.9758 187.992C41.3808 187.047 42.0478 186.38 42.9758 185.992C35.8028 185.585 28.8028 185.418 21.9758 185.492C22.9378 178.884 23.2708 172.218 22.9758 165.492C16.8308 164.502 10.4978 164.169 3.97584 164.492C3.07884 163.394 2.24584 163.394 1.47584 164.492C0.808836 163.492 0.808836 162.492 1.47584 161.492C1.80884 161.825 2.14284 162.159 2.47584 162.492C2.64384 142.654 3.14384 122.988 3.97584 103.492C3.97584 123.492 3.97584 143.492 3.97584 163.492C10.3088 163.492 16.6428 163.492 22.9758 163.492C22.9758 143.492 22.9758 123.492 22.9758 103.492C22.9758 103.159 22.9758 102.825 22.9758 102.492C22.6528 95.9697 22.9858 89.6367 23.9758 83.4917Z" fill="#7B8AAB"/>
<path fill-rule="evenodd" clip-rule="evenodd" d="M23.9756 165.492C30.6426 165.492 37.3086 165.492 43.9756 165.492C44.1286 171.861 43.7956 178.195 42.9756 184.492C36.6426 184.492 30.3086 184.492 23.9756 184.492C23.9756 178.159 23.9756 171.825 23.9756 165.492Z" fill="#1D2D4A"/>
<path fill-rule="evenodd" clip-rule="evenodd" d="M3.97559 103.492C10.3086 103.492 16.6426 103.492 22.9756 103.492C22.9756 123.492 22.9756 143.492 22.9756 163.492C16.6426 163.492 10.3086 163.492 3.97559 163.492C3.97559 143.492 3.97559 123.492 3.97559 103.492Z" fill="#08162D"/>
<path fill-rule="evenodd" clip-rule="evenodd" d="M4.97559 104.492C10.5686 104.185 16.0686 104.519 21.4756 105.492C21.9756 124.489 22.1426 143.489 21.9756 162.492C16.3086 162.492 10.6426 162.492 4.97559 162.492C4.97559 143.159 4.97559 123.825 4.97559 104.492Z" fill="#253351"/>
<path fill-rule="evenodd" clip-rule="evenodd" d="M326.976 124.492C326.976 144.492 326.976 164.492 326.976 184.492C304.043 184.377 281.043 184.377 257.976 184.492C186.64 184.825 115.306 184.492 43.9756 183.492C44.9016 179.898 45.2346 176.232 44.9756 172.492C46.3396 168.631 48.0066 168.631 49.9756 172.492C50.5616 172.283 51.0616 171.949 51.4756 171.492C52.6196 173.909 54.2856 174.576 56.4756 173.492C56.9946 174.508 57.8286 175.174 58.9756 175.492C64.5706 175.328 70.0706 175.328 75.4756 175.492C76.4756 174.825 77.4756 174.159 78.4756 173.492C80.3966 174.182 82.2306 174.516 83.9756 174.492C88.0796 172.235 92.4126 170.568 96.9756 169.492C99.0446 169.816 99.3776 170.65 97.9756 171.992C99.7106 172.643 101.378 172.477 102.976 171.492C103.976 172.159 104.976 172.825 105.976 173.492C108.033 172.17 109.866 172.503 111.476 174.492C113.701 174.068 115.868 173.734 117.976 173.492C119.217 174.029 120.384 174.696 121.476 175.492C124.975 174.125 128.309 174.458 131.476 176.492C133.687 176.369 135.854 176.369 137.976 176.492C142.029 175.48 145.862 174.147 149.476 172.492C150.143 173.825 150.809 173.825 151.476 172.492C151.809 173.492 152.143 174.492 152.476 175.492C154.357 172.238 156.523 171.904 158.976 174.492C163.923 173.709 168.923 173.209 173.976 172.992C175.294 172.298 176.127 171.465 176.476 170.492C178.851 170.81 180.018 172.143 179.976 174.492C183.87 175.509 187.703 175.509 191.476 174.492C192.309 175.325 193.143 176.159 193.976 176.992C198.462 177.615 202.962 178.115 207.476 178.492C210.663 178.598 213.663 177.931 216.476 176.492C219.706 176.791 222.373 178.124 224.476 180.492C225.326 179.568 226.326 179.568 227.476 180.492C233.06 179.978 238.56 178.978 243.976 177.492C246.865 177.923 249.698 178.589 252.476 179.492C258.797 176.956 265.297 176.29 271.976 177.492C276.155 174.914 280.321 174.914 284.476 177.492C285.623 176.534 286.623 176.867 287.476 178.492C289.063 177.265 290.397 177.598 291.476 179.492C294.046 178.226 295.546 176.559 295.976 174.492C299.256 173.418 302.423 173.418 305.476 174.492C306.63 172.035 307.964 172.035 309.476 174.492C311.146 169.4 311.979 169.4 311.976 174.492C314.582 173.856 317.082 173.856 319.476 174.492C319.959 173.544 320.125 172.544 319.976 171.492C317.534 171.638 316.867 170.805 317.976 168.992C316.432 168.702 315.099 168.036 313.976 166.992C314.899 164.951 315.232 162.784 314.976 160.492C316.784 160.501 318.451 160.001 319.976 158.992C319.519 158.578 319.185 158.078 318.976 157.492C321.643 156.159 321.643 154.825 318.976 153.492C319.859 152.444 320.526 151.277 320.976 149.992C318.108 145.261 318.442 140.261 321.976 134.992C321.717 133.731 321.05 132.731 319.976 131.992C320.976 131.659 321.976 131.325 322.976 130.992C319.156 127.285 314.156 125.285 307.976 124.992C314.301 124.492 320.634 124.326 326.976 124.492Z" fill="#839CBF"/>
<path opacity="0.016" fill-rule="evenodd" clip-rule="evenodd" d="M346.976 185.492C347.309 185.492 347.643 185.492 347.976 185.492C347.791 186.162 347.457 186.162 346.976 185.492Z" fill="#B0B7CA"/>
<path fill-rule="evenodd" clip-rule="evenodd" d="M326.976 184.492C326.976 191.492 326.976 198.492 326.976 205.492C303.643 205.492 280.309 205.492 256.976 205.492C186.145 204.493 115.145 204.159 43.9756 204.492C43.9756 198.159 43.9756 191.825 43.9756 185.492C115.478 185.825 186.811 185.491 257.976 184.492C281.043 184.377 304.043 184.377 326.976 184.492Z" fill="#1E3455"/>
<path opacity="0.416" fill-rule="evenodd" clip-rule="evenodd" d="M326.976 184.492C333.643 184.492 340.309 184.492 346.976 184.492C346.976 184.825 346.976 185.159 346.976 185.492C340.643 185.492 334.309 185.492 327.976 185.492C328.072 192.74 328.072 199.74 327.976 206.492C327.976 205.825 327.643 205.492 326.976 205.492C326.976 198.492 326.976 191.492 326.976 184.492Z" fill="#97A4C5"/>
<path opacity="0.039" fill-rule="evenodd" clip-rule="evenodd" d="M42.9756 205.492C42.9756 205.159 42.9756 204.825 42.9756 204.492C43.3086 204.492 43.6426 204.492 43.9756 204.492C115.145 204.159 186.145 204.493 256.976 205.492C253.313 205.143 250.646 205.81 248.976 207.492C247.651 205.924 245.318 205.257 241.976 205.492C175.565 206.466 109.232 206.466 42.9756 205.492Z" fill="#B1BCDC"/>
<path opacity="0.016" fill-rule="evenodd" clip-rule="evenodd" d="M41.9756 205.492C42.3086 205.492 42.6426 205.492 42.9756 205.492C42.7906 206.162 42.4566 206.162 41.9756 205.492Z" fill="#C0C6DE"/>
<path opacity="0.286" fill-rule="evenodd" clip-rule="evenodd" d="M256.976 205.492C280.309 205.492 303.643 205.492 326.976 205.492C327.643 205.492 327.976 205.825 327.976 206.492C304.555 206.235 281.055 206.568 257.476 207.492C255.792 207.309 255.626 206.642 256.976 205.492Z" fill="#ACB9DD"/>
</svg>
