<svg width="326" height="207" viewBox="0 0 326 207" fill="none" xmlns="http://www.w3.org/2000/svg">
<path opacity="0.159" fill-rule="evenodd" clip-rule="evenodd" d="M324.661 22.5514C323.331 22.5514 321.991 22.5514 320.661 22.5514C320.661 22.2184 320.661 21.8844 320.661 21.5514C321.661 21.5514 322.661 21.5514 323.661 21.5514C323.661 15.2184 323.661 8.88443 323.661 2.55143C271.331 2.55143 218.991 2.55143 166.661 2.55143C151.331 2.55143 135.991 2.55143 120.661 2.55143C120.55 1.93443 120.217 1.43443 119.661 1.05143C188.641 0.917428 257.301 0.917428 325.661 1.05143C324.681 8.13043 324.351 15.2964 324.661 22.5514Z" fill="#A9BEFB"/>
<path fill-rule="evenodd" clip-rule="evenodd" d="M166.661 2.55151C218.991 2.55151 271.331 2.55151 323.661 2.55151C323.661 8.88451 323.661 15.2185 323.661 21.5515C322.661 21.5515 321.661 21.5515 320.661 21.5515C269.661 21.5515 218.661 21.5515 167.661 21.5515C166.791 15.2625 166.451 8.92951 166.661 2.55151Z" fill="#2C56A6"/>
<path fill-rule="evenodd" clip-rule="evenodd" d="M120.661 2.55151C135.991 2.55151 151.331 2.55151 166.661 2.55151C166.451 8.92951 166.791 15.2625 167.661 21.5515C218.661 21.5515 269.661 21.5515 320.661 21.5515C320.661 21.8845 320.661 22.2185 320.661 22.5515C253.991 22.5515 187.331 22.5515 120.661 22.5515C120.661 15.8845 120.661 9.21851 120.661 2.55151Z" fill="#4A89DF"/>
<path opacity="0.016" fill-rule="evenodd" clip-rule="evenodd" d="M120.661 22.5515C119.994 23.2185 119.994 23.2185 120.661 22.5515Z" fill="#85BDFF"/>
<path opacity="0.016" fill-rule="evenodd" clip-rule="evenodd" d="M324.661 22.5515C325.991 23.2185 325.991 23.2185 324.661 22.5515Z" fill="#A0BBF7"/>
<path fill-rule="evenodd" clip-rule="evenodd" d="M163.661 43.5515C203.661 43.5515 243.661 43.5515 283.661 43.5515C283.661 49.8845 283.661 56.2185 283.661 62.5515C241.991 62.5515 200.331 62.5515 158.661 62.5515C159.371 61.6475 160.371 61.3145 161.661 61.5515C201.661 61.5515 241.661 61.5515 281.661 61.5515C281.661 55.8845 281.661 50.2185 281.661 44.5515C243.461 44.2275 205.301 44.5605 167.161 45.5515C165.701 45.2435 164.531 44.5765 163.661 43.5515Z" fill="#0B397D"/>
<path fill-rule="evenodd" clip-rule="evenodd" d="M19.6611 43.5515C19.9941 43.5515 20.3281 43.5515 20.6611 43.5515C20.6611 49.5515 20.6611 55.5515 20.6611 61.5515C49.0021 61.8845 77.3361 61.5515 105.661 60.5515C106.789 59.7895 107.956 59.1225 109.161 58.5515C109.248 53.5635 109.081 48.5635 108.661 43.5515C116.994 43.5515 125.328 43.5515 133.661 43.5515C143.171 44.2185 152.831 44.8845 162.661 45.5515C161.321 46.7395 160.651 48.2395 160.661 50.0515C161.471 53.8435 161.801 57.6765 161.661 61.5515C160.371 61.3145 159.371 61.6475 158.661 62.5515C112.328 62.5515 65.9941 62.5515 19.6611 62.5515C19.6611 56.2185 19.6611 49.8845 19.6611 43.5515Z" fill="#3470C5"/>
<path fill-rule="evenodd" clip-rule="evenodd" d="M133.661 43.5515C143.661 43.5515 153.661 43.5515 163.661 43.5515C164.531 44.5765 165.701 45.2435 167.161 45.5515C205.301 44.5605 243.461 44.2275 281.661 44.5515C281.661 50.2185 281.661 55.8845 281.661 61.5515C241.661 61.5515 201.661 61.5515 161.661 61.5515C161.801 57.6765 161.471 53.8435 160.661 50.0515C160.651 48.2395 161.321 46.7395 162.661 45.5515C152.831 44.8845 143.171 44.2185 133.661 43.5515Z" fill="#2E53A0"/>
<path fill-rule="evenodd" clip-rule="evenodd" d="M20.6611 43.5515C49.9941 43.5515 79.3281 43.5515 108.661 43.5515C109.081 48.5635 109.248 53.5635 109.161 58.5515C107.956 59.1225 106.789 59.7895 105.661 60.5515C77.3361 61.5515 49.0021 61.8845 20.6611 61.5515C20.6611 55.5515 20.6611 49.5515 20.6611 43.5515Z" fill="#4089DE"/>
<path opacity="0.169" fill-rule="evenodd" clip-rule="evenodd" d="M19.661 43.5515C19.661 49.8845 19.661 56.2185 19.661 62.5515C18.994 62.5515 18.661 62.8845 18.661 63.5515C17.506 56.7305 17.34 49.7305 18.161 42.5515C18.544 43.1075 19.044 43.4405 19.661 43.5515Z" fill="#B1D3FF"/>
<path opacity="0.533" fill-rule="evenodd" clip-rule="evenodd" d="M19.6611 63.5515C19.6611 63.2185 19.6611 62.8845 19.6611 62.5515C65.9941 62.5515 112.328 62.5515 158.661 62.5515C200.331 62.5515 241.991 62.5515 283.661 62.5515C283.661 56.2185 283.661 49.8845 283.661 43.5515C243.661 43.5515 203.661 43.5515 163.661 43.5515C153.661 43.5515 143.661 43.5515 133.661 43.5515C125.328 43.5515 116.994 43.5515 108.661 43.5515C79.3281 43.5515 49.9941 43.5515 20.6611 43.5515C20.3281 43.5515 19.9941 43.5515 19.6611 43.5515C107.867 42.8825 196.201 42.2155 284.661 41.5515C284.991 41.8845 285.331 42.2185 285.661 42.5515C284.331 49.5515 284.331 56.5515 285.661 63.5515C284.811 65.3345 283.481 65.8345 281.661 65.0515C281.991 64.7185 282.331 64.3845 282.661 64.0515C254.491 63.8845 226.331 63.7185 198.161 63.5515C169.241 63.5675 140.411 64.2345 111.661 65.5515C109.788 65.5695 109.455 65.0695 110.661 64.0515C80.3291 63.5515 49.9961 63.3845 19.6611 63.5515Z" fill="#7DA0EE"/>
<path opacity="0.016" fill-rule="evenodd" clip-rule="evenodd" d="M18.6611 63.5515C18.9941 63.5515 19.3281 63.5515 19.6611 63.5515C19.4761 64.2215 19.1421 64.2215 18.6611 63.5515Z" fill="#A7C6FE"/>
<path opacity="0.012" fill-rule="evenodd" clip-rule="evenodd" d="M41.6614 83.5513C40.9944 82.2183 40.9944 82.2183 41.6614 83.5513Z" fill="#6BA4FF"/>
<path opacity="0.998" fill-rule="evenodd" clip-rule="evenodd" d="M41.6613 83.5515C63.3283 83.5515 84.9943 83.5515 106.661 83.5515C106.943 88.9785 106.61 94.3115 105.661 99.5515C98.6913 98.7815 91.5253 97.7815 84.1613 96.5515C83.1613 97.2185 82.1613 97.8845 81.1613 98.5515C75.5583 97.4265 69.8913 97.4265 64.1613 98.5515C60.5743 97.7645 57.2413 97.0985 54.1613 96.5515C53.2333 98.3865 52.0673 98.7195 50.6613 97.5515C48.7363 100.224 46.0693 101.224 42.6613 100.552C42.6613 101.552 42.6613 102.552 42.6613 103.552C41.6703 97.0725 41.3373 90.4055 41.6613 83.5515Z" fill="#3D87E7"/>
<path opacity="0.027" fill-rule="evenodd" clip-rule="evenodd" d="M323.661 93.5515C323.661 90.2185 323.661 86.8845 323.661 83.5515C323.721 83.0085 324.051 82.6755 324.661 82.5515C324.991 84.3845 325.331 86.2185 325.661 88.0515C325.611 90.3465 324.951 92.1805 323.661 93.5515Z" fill="#D0DAFF"/>
<path fill-rule="evenodd" clip-rule="evenodd" d="M106.661 83.5515C175.991 83.5515 245.331 83.5515 314.661 83.5515C314.661 83.8845 314.661 84.2185 314.661 84.5515C313.991 84.5515 313.331 84.5515 312.661 84.5515C273.331 84.5515 233.991 84.5515 194.661 84.5515C181.661 84.3845 168.661 84.5515 155.661 85.0515C157.061 86.3205 158.731 86.8205 160.661 86.5515C160.521 88.3135 160.851 89.9805 161.661 91.5515C160.341 93.0365 158.841 94.3695 157.161 95.5515C150.231 97.1885 143.401 97.8545 136.661 97.5515C136.661 98.8845 136.661 100.219 136.661 101.552C131.871 100.955 127.531 101.622 123.661 103.552C117.661 103.552 111.661 103.552 105.661 103.552C104.898 102.784 103.898 102.284 102.661 102.052C104.103 101.675 105.103 100.842 105.661 99.5515C106.61 94.3115 106.943 88.9785 106.661 83.5515Z" fill="#3462B9"/>
<path fill-rule="evenodd" clip-rule="evenodd" d="M105.661 99.5515C105.103 100.842 104.103 101.675 102.661 102.052C103.898 102.284 104.898 102.784 105.661 103.552C84.6611 103.552 63.6611 103.552 42.6611 103.552C42.6611 102.552 42.6611 101.552 42.6611 100.552C46.0691 101.224 48.7361 100.224 50.6611 97.5515C52.0671 98.7195 53.2331 98.3865 54.1611 96.5515C57.2411 97.0985 60.5741 97.7645 64.1611 98.5515C69.8911 97.4265 75.5581 97.4265 81.1611 98.5515C82.1611 97.8845 83.1611 97.2185 84.1611 96.5515C91.5251 97.7815 98.6911 98.7815 105.661 99.5515Z" fill="#4982CE"/>
<path fill-rule="evenodd" clip-rule="evenodd" d="M194.661 84.5517C190.801 85.3787 186.801 86.2127 182.661 87.0517C183.371 88.3947 183.041 89.7277 181.661 91.0517C182.901 93.2917 184.731 94.7917 187.161 95.5517C189.121 95.3907 191.121 95.0577 193.161 94.5517C195.431 96.6977 197.931 97.0317 200.661 95.5517C201.811 95.8697 202.641 96.5357 203.161 97.5517C205.981 97.1287 208.811 96.7957 211.661 96.5517C216.391 98.8437 221.061 98.8437 225.661 96.5517C227.261 97.5367 228.921 97.7027 230.661 97.0517C229.461 96.3977 229.461 95.8977 230.661 95.5517C232.331 96.2187 233.991 96.8847 235.661 97.5517C240.171 97.4107 245.001 97.4107 250.161 97.5517C250.491 98.2187 250.831 98.8847 251.161 99.5517C253.491 98.2187 255.831 98.2187 258.161 99.5517C260.151 98.3797 262.151 97.3797 264.161 96.5517C267.851 98.0687 271.351 97.7357 274.661 95.5517C283.261 95.5937 291.921 95.7597 300.661 96.0517C299.271 96.9407 299.441 97.4407 301.161 97.5517C303.091 96.4917 304.751 95.1587 306.161 93.5517C306.831 94.2187 307.491 94.8847 308.161 95.5517C309.671 94.0437 311.331 92.7107 313.161 91.5517C312.951 89.3007 312.791 86.9667 312.661 84.5517C313.331 84.5517 313.991 84.5517 314.661 84.5517C315.401 84.4207 316.071 84.5877 316.661 85.0517C316.391 87.5277 316.061 90.0277 315.661 92.5517C313.391 93.7707 311.561 95.4367 310.161 97.5517C307.781 98.7977 305.611 99.6307 303.661 100.052C275.871 100.505 247.871 101.005 219.661 101.552C206.991 101.385 194.331 101.219 181.661 101.052C180.391 99.8307 178.891 98.9977 177.161 98.5517C170.841 98.5537 164.511 98.5537 158.161 98.5517C151.071 100.068 143.901 101.068 136.661 101.552C136.661 100.219 136.661 98.8847 136.661 97.5517C143.401 97.8547 150.231 97.1887 157.161 95.5517C158.841 94.3697 160.341 93.0367 161.661 91.5517C160.851 89.9807 160.521 88.3137 160.661 86.5517C158.731 86.8207 157.061 86.3207 155.661 85.0517C168.661 84.5517 181.661 84.3847 194.661 84.5517Z" fill="#31519B"/>
<path fill-rule="evenodd" clip-rule="evenodd" d="M194.661 84.5515C233.991 84.5515 273.331 84.5515 312.661 84.5515C312.791 86.9665 312.951 89.3005 313.161 91.5515C311.331 92.7105 309.671 94.0435 308.161 95.5515C307.491 94.8845 306.831 94.2185 306.161 93.5515C304.751 95.1585 303.091 96.4915 301.161 97.5515C299.441 97.4405 299.271 96.9405 300.661 96.0515C291.921 95.7595 283.261 95.5935 274.661 95.5515C271.351 97.7355 267.851 98.0685 264.161 96.5515C262.151 97.3795 260.151 98.3795 258.161 99.5515C255.831 98.2185 253.491 98.2185 251.161 99.5515C250.831 98.8845 250.491 98.2185 250.161 97.5515C245.001 97.4105 240.171 97.4105 235.661 97.5515C233.991 96.8845 232.331 96.2185 230.661 95.5515C229.461 95.8975 229.461 96.3975 230.661 97.0515C228.921 97.7025 227.261 97.5365 225.661 96.5515C221.061 98.8435 216.391 98.8435 211.661 96.5515C208.811 96.7955 205.981 97.1285 203.161 97.5515C202.641 96.5355 201.811 95.8695 200.661 95.5515C197.931 97.0315 195.431 96.6975 193.161 94.5515C191.121 95.0575 189.121 95.3905 187.161 95.5515C184.731 94.7915 182.901 93.2915 181.661 91.0515C183.041 89.7275 183.371 88.3945 182.661 87.0515C186.801 86.2125 190.801 85.3785 194.661 84.5515Z" fill="#2D56AD"/>
<path fill-rule="evenodd" clip-rule="evenodd" d="M314.661 84.5515C314.661 84.2185 314.661 83.8845 314.661 83.5515C317.661 83.5515 320.661 83.5515 323.661 83.5515C323.661 86.8845 323.661 90.2185 323.661 93.5515C323.501 96.2385 323.661 98.9055 324.161 101.552C325.181 100.346 325.681 100.679 325.661 102.552C325.491 103.219 325.331 103.885 325.161 104.552C324.491 103.8 323.661 103.466 322.661 103.552C256.331 103.552 189.991 103.552 123.661 103.552C127.531 101.622 131.871 100.955 136.661 101.552C143.901 101.068 151.071 100.068 158.161 98.5515C164.511 98.5535 170.841 98.5535 177.161 98.5515C178.891 98.9975 180.391 99.8305 181.661 101.052C194.331 101.219 206.991 101.385 219.661 101.552C247.871 101.005 275.871 100.505 303.661 100.052C305.611 99.6305 307.781 98.7975 310.161 97.5515C311.561 95.4365 313.391 93.7705 315.661 92.5515C316.061 90.0275 316.391 87.5275 316.661 85.0515C316.071 84.5875 315.401 84.4205 314.661 84.5515Z" fill="#2F4A89"/>
<path opacity="0.017" fill-rule="evenodd" clip-rule="evenodd" d="M42.6611 103.552C63.6611 103.552 84.6611 103.552 105.661 103.552C111.661 103.552 117.661 103.552 123.661 103.552C189.991 103.552 256.331 103.552 322.661 103.552C322.771 104.169 323.101 104.669 323.661 105.052C229.661 105.719 135.661 105.719 41.6611 105.052C42.2171 104.669 42.5501 104.169 42.6611 103.552Z" fill="#CDD9FE"/>
<path fill-rule="evenodd" clip-rule="evenodd" d="M123.661 145.552C150.331 145.552 176.991 145.552 203.661 145.552C208.031 153.072 206.031 155.072 197.661 151.552C195.131 152.842 192.631 152.842 190.161 151.552C188.991 152.942 187.491 153.782 185.661 154.052C182.821 154.502 179.981 155.002 177.161 155.552C167.551 153.452 157.881 153.782 148.161 156.552C145.531 155.732 142.871 155.062 140.161 154.552C135.191 155.232 130.351 155.232 125.661 154.552C124.232 151.742 123.566 148.742 123.661 145.552Z" fill="#215EC4"/>
<path opacity="0.068" fill-rule="evenodd" clip-rule="evenodd" d="M304.661 165.552C304.661 159.222 304.661 152.882 304.661 146.552C305.281 146.442 305.781 146.112 306.161 145.552C306.831 152.552 306.831 159.552 306.161 166.552C305.781 165.992 305.281 165.662 304.661 165.552Z" fill="#C2D6FC"/>
<path fill-rule="evenodd" clip-rule="evenodd" d="M52.6611 145.552C76.3281 145.552 99.9941 145.552 123.661 145.552C123.566 148.742 124.232 151.742 125.661 154.552C124.807 155.682 124.807 157.012 125.661 158.552C124.328 158.552 123.661 159.222 123.661 160.552C120.205 159.252 116.705 159.252 113.161 160.552C110.637 159.952 108.137 159.282 105.661 158.552C103.122 159.172 100.622 159.832 98.1611 160.552C97.8281 159.882 97.4941 159.222 97.1611 158.552C92.5461 159.002 87.8801 159.332 83.1611 159.552C79.7751 158.962 76.4411 158.302 73.1611 157.552C70.5281 159.212 67.6951 159.712 64.6611 159.052C58.3081 156.832 52.3081 154.672 46.6611 152.552C47.6511 149.242 49.6511 146.902 52.6611 145.552Z" fill="#2F84E8"/>
<path opacity="0.475" fill-rule="evenodd" clip-rule="evenodd" d="M23.661 145.552C23.661 145.882 23.661 146.222 23.661 146.552C16.328 146.552 8.99399 146.552 1.66099 146.552C1.66099 152.882 1.66099 159.222 1.66099 165.552C1.32799 165.552 0.993988 165.552 0.660988 165.552C0.571988 158.372 0.571988 151.372 0.660988 144.552C8.27099 145.522 15.938 145.852 23.661 145.552Z" fill="#94CCFE"/>
<path fill-rule="evenodd" clip-rule="evenodd" d="M203.661 145.552C217.661 145.552 231.661 145.552 245.661 145.552C244.481 149.122 243.151 152.622 241.661 156.052C229.211 156.192 216.871 157.352 204.661 159.552C203.461 159.202 203.461 158.702 204.661 158.052C200.811 156.382 196.811 155.212 192.661 154.552C182.501 158.132 172.331 159.132 162.161 157.552C159.591 158.472 156.921 159.132 154.161 159.552C146.541 159.172 139.041 159.172 131.661 159.552C129.781 158.712 127.781 158.382 125.661 158.552C124.807 157.012 124.807 155.682 125.661 154.552C130.351 155.232 135.191 155.232 140.161 154.552C142.871 155.062 145.531 155.732 148.161 156.552C157.881 153.782 167.551 153.452 177.161 155.552C179.981 155.002 182.821 154.502 185.661 154.052C187.491 153.782 188.991 152.942 190.161 151.552C192.631 152.842 195.131 152.842 197.661 151.552C206.031 155.072 208.031 153.072 203.661 145.552Z" fill="#255DBA"/>
<path fill-rule="evenodd" clip-rule="evenodd" d="M23.6611 145.552C33.3281 145.552 42.9941 145.552 52.6611 145.552C49.6511 146.902 47.6511 149.242 46.6611 152.552C52.3081 154.672 58.3081 156.832 64.6611 159.052C67.6951 159.712 70.5281 159.212 73.1611 157.552C76.4411 158.302 79.7751 158.962 83.1611 159.552C87.8801 159.332 92.5461 159.002 97.1611 158.552C97.4941 159.222 97.8281 159.882 98.1611 160.552C100.622 159.832 103.122 159.172 105.661 158.552C108.137 159.282 110.637 159.952 113.161 160.552C116.705 159.252 120.205 159.252 123.661 160.552C123.123 162.172 122.79 163.832 122.661 165.552C84.3281 165.552 45.9941 165.552 7.66113 165.552C7.77213 164.932 8.10513 164.432 8.66113 164.052C15.3481 163.002 22.0141 162.832 28.6611 163.552C30.5501 163.612 32.2171 163.112 33.6611 162.052C27.5541 161.542 21.8881 160.542 16.6611 159.052C17.1181 158.642 17.4521 158.142 17.6611 157.552C16.0371 156.182 15.5371 154.512 16.1611 152.552C18.2951 149.902 20.7951 147.902 23.6611 146.552C23.6611 146.222 23.6611 145.882 23.6611 145.552Z" fill="#3E88D8"/>
<path fill-rule="evenodd" clip-rule="evenodd" d="M245.661 145.552C265.501 145.222 285.171 145.552 304.661 146.552C287.651 146.222 270.651 146.552 253.661 147.552C262.801 148.002 271.801 149.172 280.661 151.052C279.331 151.382 277.991 151.722 276.661 152.052C278.661 152.382 280.661 152.722 282.661 153.052C281.491 153.552 280.661 154.382 280.161 155.552C276.531 153.682 273.871 154.682 272.161 158.552C271.831 158.222 271.491 157.882 271.161 157.552C268.121 160.132 265.121 160.132 262.161 157.552C259.471 159.732 256.471 161.402 253.161 162.552C247.031 160.062 240.871 160.062 234.661 162.552C224.991 161.222 215.331 161.222 205.661 162.552C203.541 161.362 201.201 160.692 198.661 160.552C190.361 161.402 182.191 162.072 174.161 162.552C172.171 161.392 170.001 160.722 167.661 160.552C164.731 161.042 161.901 161.042 159.161 160.552C157.401 162.712 155.561 162.882 153.661 161.052C148.941 160.272 144.271 160.442 139.661 161.552C137.061 160.572 134.401 159.902 131.661 159.552C139.041 159.172 146.541 159.172 154.161 159.552C156.921 159.132 159.591 158.472 162.161 157.552C172.331 159.132 182.501 158.132 192.661 154.552C196.811 155.212 200.811 156.382 204.661 158.052C203.461 158.702 203.461 159.202 204.661 159.552C216.871 157.352 229.211 156.192 241.661 156.052C243.151 152.622 244.481 149.122 245.661 145.552Z" fill="#3261B1"/>
<path fill-rule="evenodd" clip-rule="evenodd" d="M304.661 146.552C304.661 152.882 304.661 159.222 304.661 165.552C304.331 165.552 303.991 165.552 303.661 165.552C243.331 165.552 182.991 165.552 122.661 165.552C122.79 163.832 123.123 162.172 123.661 160.552C123.661 159.222 124.328 158.552 125.661 158.552C127.781 158.382 129.781 158.712 131.661 159.552C134.401 159.902 137.061 160.572 139.661 161.552C144.271 160.442 148.941 160.272 153.661 161.052C155.561 162.882 157.401 162.712 159.161 160.552C161.901 161.042 164.731 161.042 167.661 160.552C170.001 160.722 172.171 161.392 174.161 162.552C182.191 162.072 190.361 161.402 198.661 160.552C201.201 160.692 203.541 161.362 205.661 162.552C215.331 161.222 224.991 161.222 234.661 162.552C240.871 160.062 247.031 160.062 253.161 162.552C256.471 161.402 259.471 159.732 262.161 157.552C265.121 160.132 268.121 160.132 271.161 157.552C271.491 157.882 271.831 158.222 272.161 158.552C273.871 154.682 276.531 153.682 280.161 155.552C280.661 154.382 281.491 153.552 282.661 153.052C280.661 152.722 278.661 152.382 276.661 152.052C277.991 151.722 279.331 151.382 280.661 151.052C271.801 149.172 262.801 148.002 253.661 147.552C270.651 146.552 287.651 146.222 304.661 146.552Z" fill="#2E599F"/>
<path fill-rule="evenodd" clip-rule="evenodd" d="M23.6611 146.552C20.7951 147.902 18.2951 149.902 16.1611 152.552C15.5371 154.512 16.0371 156.182 17.6611 157.552C17.4521 158.142 17.1181 158.642 16.6611 159.052C21.8881 160.542 27.5541 161.542 33.6611 162.052C32.2171 163.112 30.5501 163.612 28.6611 163.552C22.0141 162.832 15.3481 163.002 8.66113 164.052C8.10513 164.432 7.77213 164.932 7.66113 165.552C5.99413 165.552 4.32813 165.552 2.66113 165.552C2.32813 165.552 1.99413 165.552 1.66113 165.552C1.66113 159.222 1.66113 152.882 1.66113 146.552C8.99413 146.552 16.3281 146.552 23.6611 146.552Z" fill="#4A8DD1"/>
<path opacity="0.016" fill-rule="evenodd" clip-rule="evenodd" d="M0.661383 165.552C-0.0056172 166.222 -0.0056172 166.222 0.661383 165.552Z" fill="#9AC7F6"/>
<path opacity="0.126" fill-rule="evenodd" clip-rule="evenodd" d="M2.66113 165.552C4.32813 165.552 5.99413 165.552 7.66113 165.552C45.9941 165.552 84.3281 165.552 122.661 165.552C182.991 165.552 243.331 165.552 303.661 165.552C303.771 166.172 304.101 166.672 304.661 167.052C299.161 167.222 293.661 167.382 288.161 167.552C199.251 167.382 110.252 167.382 21.1611 167.552C14.6611 167.382 8.16113 167.222 1.66113 167.052C2.21713 166.672 2.55013 166.172 2.66113 165.552Z" fill="#B0CEFE"/>
<path fill-rule="evenodd" clip-rule="evenodd" d="M161.661 185.552C188.991 185.552 216.331 185.552 243.661 185.552C243.661 191.882 243.661 198.222 243.661 204.552C207.991 204.552 172.331 204.552 136.661 204.552C136.661 203.882 136.991 203.552 137.661 203.552C167.661 203.722 197.661 203.552 227.661 203.052C227.991 202.722 228.331 202.382 228.661 202.052C225.871 199.322 226.201 198.322 229.661 199.052C231.051 195.962 230.391 193.292 227.661 191.052C228.791 190.032 228.461 189.372 226.661 189.052C212.331 188.382 197.991 188.382 183.661 189.052C182.021 189.652 180.361 190.152 178.661 190.552C173.991 188.862 169.151 187.862 164.161 187.552C162.781 187.372 161.951 186.702 161.661 185.552Z" fill="#275094"/>
<path fill-rule="evenodd" clip-rule="evenodd" d="M141.661 185.552C148.331 185.552 154.991 185.552 161.661 185.552C161.951 186.702 162.781 187.372 164.161 187.552C169.151 187.862 173.991 188.862 178.661 190.552C180.361 190.152 182.021 189.652 183.661 189.052C197.991 188.382 212.331 188.382 226.661 189.052C228.461 189.372 228.791 190.032 227.661 191.052C230.391 193.292 231.051 195.962 229.661 199.052C226.201 198.322 225.871 199.322 228.661 202.052C228.331 202.382 227.991 202.722 227.661 203.052C197.661 203.552 167.661 203.722 137.661 203.552C140.371 200.372 142.371 196.872 143.661 193.052C143.191 190.452 142.531 187.952 141.661 185.552Z" fill="#315EAC"/>
<path fill-rule="evenodd" clip-rule="evenodd" d="M61.6611 185.551C88.3281 185.551 114.994 185.551 141.661 185.551C142.531 187.951 143.191 190.451 143.661 193.051C142.371 196.871 140.371 200.371 137.661 203.551C136.991 203.551 136.661 203.881 136.661 204.551C111.661 204.551 86.6611 204.551 61.6611 204.551C61.8271 198.541 61.6601 192.541 61.1611 186.551C60.2721 187.941 59.7721 187.771 59.6611 186.051C59.8441 184.371 60.5111 184.201 61.6611 185.551Z" fill="#3E84D5"/>
<path opacity="0.396" fill-rule="evenodd" clip-rule="evenodd" d="M61.6611 205.552C61.6611 205.222 61.6611 204.882 61.6611 204.552C86.6611 204.552 111.661 204.552 136.661 204.552C172.331 204.552 207.991 204.552 243.661 204.552C243.661 198.222 243.661 191.882 243.661 185.552C216.331 185.552 188.991 185.552 161.661 185.552C154.991 185.552 148.331 185.552 141.661 185.552C114.994 185.552 88.3281 185.552 61.6611 185.552C122.905 184.712 184.241 184.212 245.661 184.052C244.711 191.742 244.371 199.242 244.661 206.552C183.701 205.552 122.703 205.222 61.6611 205.552Z" fill="#8FB0F7"/>
<path opacity="0.016" fill-rule="evenodd" clip-rule="evenodd" d="M61.6614 205.552C60.9944 206.222 60.9944 206.222 61.6614 205.552Z" fill="#8FB7FF"/>
</svg>
