<svg width="352" height="306" viewBox="0 0 352 306" fill="none" xmlns="http://www.w3.org/2000/svg">
<path opacity="0.07" fill-rule="evenodd" clip-rule="evenodd" d="M121.928 0.319683C157.878 0.108283 193.878 0.108283 229.928 0.319683C229.258 0.319683 228.928 0.652983 228.928 1.31968C193.598 1.31968 158.258 1.31968 122.928 1.31968C122.928 0.652983 122.595 0.319683 121.928 0.319683Z" fill="#AAB4D6"/>
<path opacity="0.016" fill-rule="evenodd" clip-rule="evenodd" d="M229.928 0.31958C231.258 0.98628 231.258 0.98628 229.928 0.31958Z" fill="#8C91A5"/>
<path opacity="0.196" fill-rule="evenodd" clip-rule="evenodd" d="M121.928 0.31958C122.595 0.31958 122.928 0.65288 122.928 1.31958C122.928 8.31958 122.928 15.3196 122.928 22.3196C116.928 22.3196 110.928 22.3196 104.928 22.3196C104.595 22.3196 104.261 22.3196 103.928 22.3196C103.817 21.7022 103.484 21.2022 102.928 20.8196C107.318 20.0474 111.651 20.2141 115.928 21.3196C117.124 20.9739 117.124 20.4739 115.928 19.8196C117.562 19.3261 119.229 19.1594 120.928 19.3196C120.605 12.7975 120.938 6.46418 121.928 0.31958Z" fill="#B5BCD8"/>
<path fill-rule="evenodd" clip-rule="evenodd" d="M122.928 1.31958C158.258 1.31958 193.598 1.31958 228.928 1.31958C228.928 7.65288 228.928 13.9863 228.928 20.3196C193.928 20.3196 158.928 20.3196 123.928 20.3196C123.928 27.3196 123.928 34.3196 123.928 41.3196C123.595 41.3196 123.261 41.3196 122.928 41.3196C122.928 35.3196 122.928 29.3196 122.928 23.3196C116.738 23.6425 110.738 23.3092 104.928 22.3196C110.928 22.3196 116.928 22.3196 122.928 22.3196C122.928 15.3196 122.928 8.31958 122.928 1.31958Z" fill="#070F25"/>
<path fill-rule="evenodd" clip-rule="evenodd" d="M123.928 2.31958C158.598 2.31958 193.258 2.31958 227.928 2.31958C227.928 7.98628 227.928 13.6529 227.928 19.3196C193.258 19.3196 158.598 19.3196 123.928 19.3196C123.928 13.6529 123.928 7.98628 123.928 2.31958Z" fill="#263351"/>
<path fill-rule="evenodd" clip-rule="evenodd" d="M103.928 22.3196C104.261 22.3196 104.595 22.3196 104.928 22.3196C110.738 23.3092 116.738 23.6425 122.928 23.3196C122.928 29.3196 122.928 35.3196 122.928 41.3196C116.307 41.8796 109.973 41.2126 103.928 39.3196C103.928 33.6529 103.928 27.9863 103.928 22.3196Z" fill="#283148"/>
<path fill-rule="evenodd" clip-rule="evenodd" d="M209.928 21.3196C209.928 22.9863 209.928 24.6529 209.928 26.3196C208.948 29.7815 208.618 33.4482 208.928 37.3196C207.648 34.1707 205.478 33.1707 202.428 34.3196C198.368 31.5165 194.028 30.1832 189.428 30.3196C188.648 27.7224 188.148 27.7224 187.928 30.3196C183.488 28.3019 178.828 27.4686 173.928 27.8196C177.848 28.6181 177.848 29.1181 173.928 29.3196C168.748 27.4484 163.418 27.4484 157.928 29.3196C151.558 28.5326 145.228 28.1992 138.928 28.3196C137.298 28.7876 136.128 29.7876 135.428 31.3196C135.098 30.9863 134.758 30.6529 134.428 30.3196C133.988 32.4981 132.988 33.1648 131.428 32.3196C129.508 35.1584 127.841 38.1586 126.428 41.3196C125.757 42.0716 124.924 42.4056 123.928 42.3196C123.928 41.9866 123.928 41.6526 123.928 41.3196C124.919 34.8406 125.252 28.1739 124.928 21.3196C153.258 21.3196 181.598 21.3196 209.928 21.3196Z" fill="#DEDDE6"/>
<path fill-rule="evenodd" clip-rule="evenodd" d="M248.928 21.3196C248.928 27.9863 248.928 34.6529 248.928 41.3196C242.598 41.3196 236.258 41.3196 229.928 41.3196C229.928 34.6529 229.928 27.9863 229.928 21.3196C236.258 21.3196 242.598 21.3196 248.928 21.3196Z" fill="#1E2F4C"/>
<path fill-rule="evenodd" clip-rule="evenodd" d="M187.928 30.3195C187.928 34.3195 187.928 38.3195 187.928 42.3195C180.598 42.3195 173.258 42.3195 165.928 42.3195C165.838 47.3555 165.338 52.3555 164.428 57.3195C164.108 58.8805 163.278 60.0475 161.928 60.8195C149.838 62.0115 137.508 62.5115 124.928 62.3195C125.551 55.5645 124.884 49.2315 122.928 43.3195C122.928 42.9865 122.928 42.6525 122.928 42.3195C123.261 42.3195 123.595 42.3195 123.928 42.3195C124.924 42.4055 125.757 42.0715 126.428 41.3195C127.841 38.1585 129.508 35.1583 131.428 32.3195C132.988 33.1647 133.988 32.498 134.428 30.3195C134.758 30.6528 135.098 30.9862 135.428 31.3195C136.128 29.7875 137.298 28.7875 138.928 28.3195C145.228 28.1991 151.558 28.5325 157.928 29.3195C163.418 27.4483 168.748 27.4483 173.928 29.3195C177.848 29.118 177.848 28.618 173.928 27.8195C178.828 27.4685 183.488 28.3018 187.928 30.3195Z" fill="#E3DFD6"/>
<path opacity="0.322" fill-rule="evenodd" clip-rule="evenodd" d="M103.928 22.3196C103.928 27.9863 103.928 33.6529 103.928 39.3196C103.065 40.2826 102.398 40.2826 101.928 39.3196C102.554 33.522 103.221 27.8553 103.928 22.3196Z" fill="#A6B0CD"/>
<path opacity="0.016" fill-rule="evenodd" clip-rule="evenodd" d="M82.9285 41.3196C82.2615 39.9866 82.2615 39.9866 82.9285 41.3196Z" fill="#B1B8D1"/>
<path fill-rule="evenodd" clip-rule="evenodd" d="M208.928 37.3195C208.918 39.3665 208.588 41.3665 207.928 43.3195C205.108 45.9185 203.108 49.0855 201.928 52.8195C205.548 53.2485 205.718 54.4155 202.428 56.3195C201.658 56.1745 200.988 55.8415 200.428 55.3195C197.598 59.3185 195.598 63.6515 194.428 68.3195C194.098 67.9865 193.758 67.6525 193.428 67.3195C192.918 69.3405 191.748 70.8405 189.928 71.8195C191.068 72.5605 191.068 73.3945 189.928 74.3195C188.928 74.9865 187.928 75.6525 186.928 76.3195C187.598 77.3195 188.258 78.3195 188.928 79.3195C185.088 83.0075 182.258 87.3415 180.428 92.3195C179.408 93.4535 178.748 93.1205 178.428 91.3195C177.518 92.1475 176.848 93.1475 176.428 94.3195C176.018 93.8625 175.518 93.5285 174.928 93.3195C169.928 96.8315 165.088 99.8315 160.428 102.319C159.448 104.939 158.278 107.439 156.928 109.819C157.338 110.764 157.998 111.431 158.928 111.819C156.488 114.526 154.988 117.692 154.428 121.319C149.788 122.518 148.788 125.185 151.428 129.319C152.808 131.032 154.468 132.366 156.428 133.319C157.118 130.928 158.118 130.928 159.428 133.319C159.758 132.986 160.098 132.652 160.428 132.319C162.538 134.912 164.378 137.579 165.928 140.319C165.928 140.652 165.928 140.986 165.928 141.319C159.018 142.281 152.018 142.614 144.928 142.319C144.928 135.652 144.928 128.986 144.928 122.319C137.738 121.994 130.738 122.328 123.928 123.319C117.928 123.319 111.928 123.319 105.928 123.319C105.928 130.319 105.928 137.319 105.928 144.319C99.2612 144.319 92.5952 144.319 85.9282 144.319C86.2362 150.244 85.9032 156.078 84.9282 161.819C71.5992 162.319 58.2652 162.486 44.9282 162.319C43.9702 156.075 43.6372 149.742 43.9282 143.319C40.0572 143.634 36.3902 143.301 32.9282 142.319C35.5952 142.319 38.2612 142.319 40.9282 142.319C41.9242 142.405 42.7572 142.071 43.4282 141.319C43.9272 135.328 44.0942 129.328 43.9282 123.319C51.2612 123.319 58.5952 123.319 65.9282 123.319C65.9282 116.319 65.9282 109.319 65.9282 102.319C72.2612 102.319 78.5952 102.319 84.9282 102.319C84.9282 98.3195 84.9282 94.3195 84.9282 90.3195C87.3592 89.2035 89.8592 89.2035 92.4282 90.3195C95.2222 90.2155 97.5552 89.2155 99.4282 87.3195C101.833 88.0645 104 87.3975 105.928 85.3195C106.514 85.5285 107.014 85.8625 107.428 86.3195C108.255 85.1575 109.088 83.9905 109.928 82.8195C109.783 82.0475 109.45 81.3805 108.928 80.8195C110.329 79.1425 111.663 77.4755 112.928 75.8195C113.149 68.6785 112.815 61.3445 111.928 53.8195C114.18 48.7945 117.847 45.2945 122.928 43.3195C124.884 49.2315 125.551 55.5645 124.928 62.3195C137.508 62.5115 149.838 62.0115 161.928 60.8195C163.278 60.0475 164.108 58.8805 164.428 57.3195C165.338 52.3555 165.838 47.3555 165.928 42.3195C173.258 42.3195 180.598 42.3195 187.928 42.3195C187.928 38.3195 187.928 34.3195 187.928 30.3195C188.148 27.7223 188.648 27.7223 189.428 30.3195C194.028 30.1831 198.368 31.5164 202.428 34.3195C205.478 33.1706 207.648 34.1706 208.928 37.3195Z" fill="#C5C8C8"/>
<path fill-rule="evenodd" clip-rule="evenodd" d="M104.928 82.3196C91.2712 81.6656 77.6042 81.3326 63.9282 81.3196C56.9282 81.3196 49.9282 81.3196 42.9282 81.3196C42.9282 74.9866 42.9282 68.6526 42.9282 62.3196C56.4382 62.6486 69.7722 62.3156 82.9282 61.3196C83.9182 55.1746 84.2512 48.8416 83.9282 42.3196C90.9282 42.3196 97.9282 42.3196 104.928 42.3196C104.928 55.6526 104.928 68.9866 104.928 82.3196Z" fill="#243151"/>
<path fill-rule="evenodd" clip-rule="evenodd" d="M209.928 21.3196C216.258 21.3196 222.598 21.3196 228.928 21.3196C228.928 34.6529 228.928 47.9866 228.928 61.3196C224.258 61.3196 219.598 61.3196 214.928 61.3196C214.818 60.7026 214.488 60.2026 213.928 59.8196C215.598 59.4866 217.258 59.1526 218.928 58.8196C220.108 56.0546 221.608 54.2216 223.428 53.3196C224.028 50.1636 223.528 47.1636 221.928 44.3196C223.218 40.5816 222.388 36.9146 219.428 33.3196C216.528 30.3203 213.358 27.9869 209.928 26.3196C209.928 24.6529 209.928 22.9863 209.928 21.3196Z" fill="#ADBDD4"/>
<path fill-rule="evenodd" clip-rule="evenodd" d="M103.928 39.3196C109.973 41.2126 116.307 41.8796 122.928 41.3196C123.261 41.3196 123.595 41.3196 123.928 41.3196C123.928 41.6526 123.928 41.9866 123.928 42.3196C123.595 42.3196 123.261 42.3196 122.928 42.3196C117.261 42.3196 111.595 42.3196 105.928 42.3196C106.257 55.8296 105.924 69.1636 104.928 82.3196C104.928 68.9866 104.928 55.6526 104.928 42.3196C97.9282 42.3196 90.9282 42.3196 83.9282 42.3196C84.2512 48.8416 83.9182 55.1746 82.9282 61.3196C82.9282 54.6526 82.9282 47.9866 82.9282 41.3196C90.3412 41.9476 97.3412 41.2806 103.928 39.3196Z" fill="#8C94AE"/>
<path opacity="0.016" fill-rule="evenodd" clip-rule="evenodd" d="M288.928 60.3196C290.258 60.9866 290.258 60.9866 288.928 60.3196Z" fill="#9198B0"/>
<path fill-rule="evenodd" clip-rule="evenodd" d="M122.928 42.3196C122.928 42.6526 122.928 42.9866 122.928 43.3196C117.847 45.2946 114.18 48.7946 111.928 53.8196C112.815 61.3446 113.149 68.6786 112.928 75.8196C111.663 77.4756 110.329 79.1426 108.928 80.8196C109.45 81.3806 109.783 82.0476 109.928 82.8196C109.088 83.9906 108.255 85.1576 107.428 86.3196C107.014 85.8626 106.514 85.5286 105.928 85.3196C104 87.3976 101.833 88.0646 99.4282 87.3196C97.5552 89.2156 95.2222 90.2156 92.4282 90.3196C89.8592 89.2036 87.3592 89.2036 84.9282 90.3196C84.0872 88.3076 82.5872 86.9746 80.4282 86.3196C73.7362 85.9176 67.2362 86.4176 60.9282 87.8196C57.0472 89.9266 53.0472 91.7606 48.9282 93.3196C47.6382 95.4766 46.8042 97.8096 46.4282 100.32C46.0952 99.9866 45.7612 99.6526 45.4282 99.3196C45.1962 100.557 44.6962 101.557 43.9282 102.32C43.9282 95.9866 43.9282 89.6526 43.9282 83.3196C50.5952 82.6526 57.2612 81.9866 63.9282 81.3196C77.6042 81.3326 91.2712 81.6656 104.928 82.3196C105.924 69.1636 106.257 55.8296 105.928 42.3196C111.595 42.3196 117.261 42.3196 122.928 42.3196Z" fill="#CACEDD"/>
<path fill-rule="evenodd" clip-rule="evenodd" d="M269.928 61.3196C275.738 62.3096 281.738 62.6426 287.928 62.3196C287.928 68.6526 287.928 74.9866 287.928 81.3196C275.598 81.3196 263.258 81.3196 250.928 81.3196C250.928 67.9866 250.928 54.6526 250.928 41.3196C257.258 41.3196 263.598 41.3196 269.928 41.3196C269.928 47.9866 269.928 54.6526 269.928 61.3196Z" fill="#1F3252"/>
<path fill-rule="evenodd" clip-rule="evenodd" d="M270.928 61.3196C270.598 61.3196 270.258 61.3196 269.928 61.3196C269.928 54.6526 269.928 47.9866 269.928 41.3196C263.598 41.3196 257.258 41.3196 250.928 41.3196C250.928 54.6526 250.928 67.9866 250.928 81.3196C249.948 84.1066 249.618 87.1066 249.928 90.3196C246.328 90.4546 242.658 90.4546 238.928 90.3196C235.488 92.1226 231.988 93.7896 228.428 95.3196C226.958 94.9166 225.618 94.2496 224.428 93.3196C223.948 94.2676 223.778 95.2676 223.928 96.3196C222.878 96.1706 221.878 96.3366 220.928 96.8196C222.198 97.1286 223.358 97.6286 224.428 98.3196C224.758 97.9866 225.098 97.6526 225.428 97.3196C225.698 98.7516 225.028 99.7516 223.428 100.32C222.008 99.3596 220.508 98.5266 218.928 97.8196C220.208 95.1856 219.548 93.0196 216.928 91.3196C218.458 89.2996 219.128 87.2996 218.928 85.3196C220.238 86.1326 221.408 87.1326 222.428 88.3196C224.158 88.3106 225.988 87.9776 227.928 87.3196C227.338 86.0206 226.338 85.1876 224.928 84.8196C226.258 84.1526 227.598 83.4866 228.928 82.8196C227.928 80.4866 226.258 78.8196 223.928 77.8196C226.488 75.4166 228.488 72.5836 229.928 69.3196C229.258 68.9866 228.598 68.6526 227.928 68.3196C229.058 67.5576 230.218 66.8906 231.428 66.3196C231.678 64.3866 232.178 62.5536 232.928 60.8196C231.708 58.7236 230.878 58.8906 230.428 61.3196C229.928 54.6616 229.758 47.9946 229.928 41.3196C236.258 41.3196 242.598 41.3196 248.928 41.3196C248.928 34.6529 248.928 27.9863 248.928 21.3196C249.548 21.2089 250.048 20.8756 250.428 20.3196C251.238 26.9012 251.068 33.4012 249.928 39.8196C257.258 40.3196 264.588 40.4856 271.928 40.3196C272.228 47.4076 271.888 54.4076 270.928 61.3196Z" fill="#7E97B5"/>
<path opacity="0.714" fill-rule="evenodd" clip-rule="evenodd" d="M269.928 61.3196C270.258 61.3196 270.598 61.3196 270.928 61.3196C276.928 61.3196 282.928 61.3196 288.928 61.3196C288.928 67.9866 288.928 74.6526 288.928 81.3196C288.598 81.3196 288.258 81.3196 287.928 81.3196C287.928 74.9866 287.928 68.6526 287.928 62.3196C281.738 62.6426 275.738 62.3096 269.928 61.3196Z" fill="#5D6684"/>
<path opacity="0.01" fill-rule="evenodd" clip-rule="evenodd" d="M289.928 80.3196C291.258 80.9866 291.258 80.9866 289.928 80.3196Z" fill="#5B6583"/>
<path opacity="0.012" fill-rule="evenodd" clip-rule="evenodd" d="M23.9285 82.3196C23.2615 80.9866 23.2615 80.9866 23.9285 82.3196Z" fill="#8389A5"/>
<path opacity="0.759" fill-rule="evenodd" clip-rule="evenodd" d="M82.9282 61.3196C69.7722 62.3156 56.4382 62.6486 42.9282 62.3196C42.9282 68.6526 42.9282 74.9866 42.9282 81.3196C49.9282 81.3196 56.9282 81.3196 63.9282 81.3196C57.2612 81.9866 50.5952 82.6526 43.9282 83.3196C37.2612 83.3196 30.5952 83.3196 23.9282 83.3196C23.9282 82.9866 23.9282 82.6526 23.9282 82.3196C29.9282 82.3196 35.9282 82.3196 41.9282 82.3196C42.0222 74.9016 41.8552 67.5676 41.4282 60.3196C55.1822 61.3096 69.0162 61.6426 82.9282 61.3196Z" fill="#687190"/>
<path fill-rule="evenodd" clip-rule="evenodd" d="M208.928 61.3196C208.928 74.9866 208.928 88.6526 208.928 102.32C201.598 102.32 194.258 102.32 186.928 102.32C186.758 95.6446 186.928 88.9776 187.428 82.3196C194.168 81.3406 201.008 81.0076 207.928 81.3196C207.608 74.4656 207.938 67.7986 208.928 61.3196Z" fill="#9AABBD"/>
<path fill-rule="evenodd" clip-rule="evenodd" d="M23.9282 83.3196C30.5952 83.3196 37.2612 83.3196 43.9282 83.3196C43.9282 89.6526 43.9282 95.9866 43.9282 102.32C40.2612 102.32 36.5952 102.32 32.9282 102.32C29.9282 102.32 26.9282 102.32 23.9282 102.32C23.9282 95.9866 23.9282 89.6526 23.9282 83.3196Z" fill="#2A3048"/>
<path fill-rule="evenodd" clip-rule="evenodd" d="M228.928 1.31958C229.258 1.31958 229.598 1.31958 229.928 1.31958C229.928 7.65288 229.928 13.9863 229.928 20.3196C236.448 19.9961 242.788 20.3294 248.928 21.3196C242.598 21.3196 236.258 21.3196 229.928 21.3196C229.928 27.9863 229.928 34.6529 229.928 41.3196C229.758 47.9946 229.928 54.6616 230.428 61.3196C230.878 58.8906 231.708 58.7236 232.928 60.8196C232.178 62.5536 231.678 64.3866 231.428 66.3196C230.218 66.8906 229.058 67.5576 227.928 68.3196C228.598 68.6526 229.258 68.9866 229.928 69.3196C228.488 72.5836 226.488 75.4166 223.928 77.8196C226.258 78.8196 227.928 80.4866 228.928 82.8196C227.598 83.4866 226.258 84.1526 224.928 84.8196C226.338 85.1876 227.338 86.0206 227.928 87.3196C225.988 87.9776 224.158 88.3106 222.428 88.3196C221.408 87.1326 220.238 86.1326 218.928 85.3196C219.128 87.2996 218.458 89.2996 216.928 91.3196C219.548 93.0196 220.208 95.1856 218.928 97.8196C220.508 98.5266 222.008 99.3596 223.428 100.32C225.028 99.7516 225.698 98.7516 225.428 97.3196C225.098 97.6526 224.758 97.9866 224.428 98.3196C223.358 97.6286 222.198 97.1286 220.928 96.8196C221.878 96.3366 222.878 96.1706 223.928 96.3196C223.778 95.2676 223.948 94.2676 224.428 93.3196C225.618 94.2496 226.958 94.9166 228.428 95.3196C231.988 93.7896 235.488 92.1226 238.928 90.3196C242.658 90.4546 246.328 90.4546 249.928 90.3196C249.668 94.4196 249.998 98.4196 250.928 102.32C243.928 102.32 236.928 102.32 229.928 102.32C228.938 109.133 228.608 116.133 228.928 123.32C215.608 122.543 202.278 122.209 188.928 122.32C188.928 129.32 188.928 136.32 188.928 143.32C181.238 143.36 173.578 143.027 165.928 142.32C165.928 141.987 165.928 141.653 165.928 141.32C165.928 140.987 165.928 140.653 165.928 140.32C165.928 127.653 165.928 114.987 165.928 102.32C172.928 102.32 179.928 102.32 186.928 102.32C194.258 102.32 201.598 102.32 208.928 102.32C208.928 88.6526 208.928 74.9866 208.928 61.3196C210.928 61.3196 212.928 61.3196 214.928 61.3196C219.598 61.3196 224.258 61.3196 228.928 61.3196C228.928 47.9866 228.928 34.6529 228.928 21.3196C222.598 21.3196 216.258 21.3196 209.928 21.3196C181.598 21.3196 153.258 21.3196 124.928 21.3196C125.252 28.1739 124.919 34.8406 123.928 41.3196C123.928 34.3196 123.928 27.3196 123.928 20.3196C158.928 20.3196 193.928 20.3196 228.928 20.3196C228.928 13.9863 228.928 7.65288 228.928 1.31958Z" fill="#7F94AA"/>
<path opacity="0.016" fill-rule="evenodd" clip-rule="evenodd" d="M329.928 101.32C331.258 101.987 331.258 101.987 329.928 101.32Z" fill="#9A9FC2"/>
<path fill-rule="evenodd" clip-rule="evenodd" d="M250.928 81.3196C263.258 81.3196 275.598 81.3196 287.928 81.3196C288.258 81.3196 288.598 81.3196 288.928 81.3196C289.258 81.3196 289.598 81.3196 289.928 81.3196C289.928 81.6526 289.928 81.9866 289.928 82.3196C289.258 82.3196 288.928 82.6526 288.928 83.3196C288.258 89.4986 287.598 95.8316 286.928 102.32C284.398 99.7566 282.738 100.423 281.928 104.32C282.458 106.561 283.798 108.061 285.928 108.82C285.598 109.153 285.258 109.487 284.928 109.82C288.708 113.053 288.708 116.219 284.928 119.32C285.468 121.091 286.298 121.424 287.428 120.32C287.888 120.914 288.058 121.581 287.928 122.32C284.318 122.031 280.818 122.364 277.428 123.32C277.098 122.653 276.758 121.987 276.428 121.32C274.518 121.075 272.518 121.075 270.428 121.32C269.638 114.739 268.478 108.406 266.928 102.32C261.598 102.32 256.258 102.32 250.928 102.32C249.998 98.4196 249.668 94.4196 249.928 90.3196C249.618 87.1066 249.948 84.1066 250.928 81.3196Z" fill="#B3BBC5"/>
<path fill-rule="evenodd" clip-rule="evenodd" d="M84.9282 90.3197C84.9282 94.3197 84.9282 98.3197 84.9282 102.32C78.5952 102.32 72.2612 102.32 65.9282 102.32C65.9282 109.32 65.9282 116.32 65.9282 123.32C58.5952 123.32 51.2612 123.32 43.9282 123.32C44.0942 129.329 43.9272 135.329 43.4282 141.32C42.7572 142.072 41.9242 142.406 40.9282 142.32C41.0392 141.703 41.3722 141.203 41.9282 140.82C37.9022 136.91 34.2362 132.743 30.9282 128.32C31.2222 124.054 31.2222 119.887 30.9282 115.82C34.3642 110.44 38.6972 105.94 43.9282 102.32C44.6962 101.557 45.1962 100.557 45.4282 99.3197C45.7612 99.6527 46.0952 99.9867 46.4282 100.32C46.8042 97.8097 47.6382 95.4767 48.9282 93.3197C53.0472 91.7607 57.0472 89.9267 60.9282 87.8197C67.2362 86.4177 73.7362 85.9177 80.4282 86.3197C82.5872 86.9747 84.0872 88.3077 84.9282 90.3197Z" fill="#E1DED8"/>
<path fill-rule="evenodd" clip-rule="evenodd" d="M209.928 26.3196C213.358 27.9869 216.528 30.3203 219.428 33.3196C222.388 36.9146 223.218 40.5816 221.928 44.3196C223.528 47.1636 224.028 50.1636 223.428 53.3196C221.608 54.2216 220.108 56.0546 218.928 58.8196C217.258 59.1526 215.598 59.4866 213.928 59.8196C214.488 60.2026 214.818 60.7026 214.928 61.3196C212.928 61.3196 210.928 61.3196 208.928 61.3196C207.938 67.7986 207.608 74.4656 207.928 81.3196C201.008 81.0076 194.168 81.3406 187.428 82.3196C186.928 88.9776 186.758 95.6446 186.928 102.32C179.928 102.32 172.928 102.32 165.928 102.32C165.928 114.987 165.928 127.653 165.928 140.32C164.378 137.58 162.538 134.913 160.428 132.32C160.098 132.653 159.758 132.987 159.428 133.32C158.118 130.929 157.118 130.929 156.428 133.32C154.468 132.367 152.808 131.033 151.428 129.32C148.788 125.186 149.788 122.519 154.428 121.32C154.988 117.693 156.488 114.527 158.928 111.82C157.998 111.432 157.338 110.765 156.928 109.82C158.278 107.44 159.448 104.94 160.428 102.32C165.088 99.8316 169.928 96.8316 174.928 93.3196C175.518 93.5286 176.018 93.8626 176.428 94.3196C176.848 93.1476 177.518 92.1476 178.428 91.3196C178.748 93.1206 179.408 93.4536 180.428 92.3196C182.258 87.3416 185.088 83.0076 188.928 79.3196C188.258 78.3196 187.598 77.3196 186.928 76.3196C187.928 75.6526 188.928 74.9866 189.928 74.3196C191.068 73.3946 191.068 72.5606 189.928 71.8196C191.748 70.8406 192.918 69.3406 193.428 67.3196C193.758 67.6526 194.098 67.9866 194.428 68.3196C195.598 63.6516 197.598 59.3186 200.428 55.3196C200.988 55.8416 201.658 56.1746 202.428 56.3196C205.718 54.4156 205.548 53.2486 201.928 52.8196C203.108 49.0856 205.108 45.9186 207.928 43.3196C208.588 41.3666 208.918 39.3666 208.928 37.3196C208.618 33.4482 208.948 29.7815 209.928 26.3196Z" fill="#BEC7CE"/>
<path fill-rule="evenodd" clip-rule="evenodd" d="M308.928 102.32C315.598 102.32 322.258 102.32 328.928 102.32C328.928 108.987 328.928 115.653 328.928 122.32C323.598 122.32 318.258 122.32 312.928 122.32C311.928 122.32 310.928 122.32 309.928 122.32C310.188 115.596 309.848 108.929 308.928 102.32Z" fill="#1B2E4D"/>
<path fill-rule="evenodd" clip-rule="evenodd" d="M288.928 83.3196C288.928 89.6526 288.928 95.9866 288.928 102.32C295.258 102.32 301.598 102.32 307.928 102.32C308.808 108.943 309.138 115.609 308.928 122.32C302.268 122.774 295.598 123.107 288.928 123.32C288.928 135.987 288.928 148.653 288.928 161.32C281.958 162.216 274.958 162.216 267.928 161.32C267.928 154.987 267.928 148.653 267.928 142.32C274.598 142.32 281.258 142.32 287.928 142.32C287.928 135.653 287.928 128.987 287.928 122.32C288.058 121.581 287.888 120.914 287.428 120.32C286.298 121.424 285.468 121.091 284.928 119.32C288.708 116.219 288.708 113.053 284.928 109.82C285.258 109.487 285.598 109.153 285.928 108.82C283.798 108.061 282.458 106.561 281.928 104.32C282.738 100.423 284.398 99.7566 286.928 102.32C287.598 95.8316 288.258 89.4986 288.928 83.3196Z" fill="#9EADC2"/>
<path opacity="0.02" fill-rule="evenodd" clip-rule="evenodd" d="M350.928 122.32C352.258 122.987 352.258 122.987 350.928 122.32Z" fill="#96A0B9"/>
<path fill-rule="evenodd" clip-rule="evenodd" d="M229.928 102.32C229.598 109.02 229.928 115.686 230.928 122.32C242.928 123.653 254.928 123.653 266.928 122.32C268.218 115.597 268.218 108.931 266.928 102.32C268.478 108.406 269.638 114.739 270.428 121.32C272.518 121.075 274.518 121.075 276.428 121.32C276.758 121.987 277.098 122.653 277.428 123.32C280.818 122.364 284.318 122.031 287.928 122.32C287.928 128.987 287.928 135.653 287.928 142.32C281.258 142.32 274.598 142.32 267.928 142.32C267.928 148.653 267.928 154.987 267.928 161.32C267.928 161.653 267.928 161.987 267.928 162.32C261.598 162.32 255.258 162.32 248.928 162.32C248.928 169.32 248.928 176.32 248.928 183.32C242.258 183.32 235.598 183.32 228.928 183.32C228.928 175.987 228.928 168.653 228.928 161.32C222.598 161.32 216.258 161.32 209.928 161.32C208.328 162.557 207.168 164.224 206.428 166.32C205.758 165.653 205.098 164.987 204.428 164.32C202.728 166.086 201.398 168.086 200.428 170.32C198.918 169.285 197.418 169.452 195.928 170.82C196.688 172.184 196.188 173.351 194.428 174.32C194.098 173.987 193.758 173.653 193.428 173.32C190.688 174.38 187.858 175.214 184.928 175.82C185.258 176.153 185.598 176.487 185.928 176.82C182.718 177.116 179.558 177.616 176.428 178.32C169.168 177.286 161.998 176.619 154.928 176.32C148.178 180.016 141.678 180.016 135.428 176.32C132.358 176.159 129.192 176.159 125.928 176.32C123.294 172.456 122.627 168.623 123.928 164.82C123.012 164.542 122.346 164.042 121.928 163.32C123.037 163.263 124.037 162.93 124.928 162.32C138.598 162.32 152.258 162.32 165.928 162.32C165.928 155.653 165.928 148.987 165.928 142.32C173.578 143.027 181.238 143.36 188.928 143.32C188.928 136.32 188.928 129.32 188.928 122.32C202.278 122.209 215.608 122.543 228.928 123.32C228.608 116.133 228.938 109.133 229.928 102.32Z" fill="#C2C8CA"/>
<path fill-rule="evenodd" clip-rule="evenodd" d="M229.928 102.32C236.928 102.32 243.928 102.32 250.928 102.32C256.258 102.32 261.598 102.32 266.928 102.32C268.218 108.931 268.218 115.597 266.928 122.32C254.928 123.653 242.928 123.653 230.928 122.32C229.928 115.686 229.598 109.02 229.928 102.32Z" fill="#D6DADA"/>
<path fill-rule="evenodd" clip-rule="evenodd" d="M123.928 123.32C130.738 122.329 137.738 121.995 144.928 122.32C144.928 128.987 144.928 135.653 144.928 142.32C138.928 142.32 132.928 142.32 126.928 142.32C127.094 137.974 126.927 133.641 126.428 129.32C126.391 126.846 125.558 124.846 123.928 123.32Z" fill="#9FA8AE"/>
<path fill-rule="evenodd" clip-rule="evenodd" d="M23.9282 102.32C23.9282 119.987 23.9282 137.653 23.9282 155.32C23.9282 164.32 23.9282 173.32 23.9282 182.32C16.9282 182.32 9.92822 182.32 2.92822 182.32C2.92822 181.987 2.92822 181.653 2.92822 181.32C2.92822 154.987 2.92822 128.653 2.92822 102.32C9.92822 102.32 16.9282 102.32 23.9282 102.32Z" fill="#213153"/>
<path fill-rule="evenodd" clip-rule="evenodd" d="M32.9282 102.32C36.5952 102.32 40.2612 102.32 43.9282 102.32C38.6972 105.94 34.3642 110.44 30.9282 115.82C31.2222 119.887 31.2222 124.054 30.9282 128.32C34.2362 132.743 37.9022 136.91 41.9282 140.82C41.3722 141.203 41.0392 141.703 40.9282 142.32C38.2612 142.32 35.5952 142.32 32.9282 142.32C30.2612 142.32 27.5952 142.32 24.9282 142.32C24.9282 129.32 24.9282 116.32 24.9282 103.32C27.8132 103.626 30.4802 103.293 32.9282 102.32Z" fill="#DBDDE9"/>
<path fill-rule="evenodd" clip-rule="evenodd" d="M308.928 102.32C309.848 108.929 310.188 115.596 309.928 122.32C310.928 122.32 311.928 122.32 312.928 122.32C314.378 123.984 316.378 124.818 318.928 124.82C314.978 124.674 312.978 126.508 312.928 130.32C313.648 138.084 313.318 146.084 311.928 154.32C312.438 155.908 313.438 157.075 314.928 157.82C311.178 157.762 310.848 159.429 313.928 162.82C309.928 163.487 309.928 164.153 313.928 164.82C312.078 165.657 310.248 166.491 308.428 167.32C307.938 166.027 307.768 164.693 307.928 163.32C305.638 163.064 303.468 163.397 301.428 164.32C300.758 165.653 300.758 166.987 301.428 168.32C303.118 168.496 304.618 168.996 305.928 169.82C301.528 171.597 298.028 174.43 295.428 178.32C294.558 175.057 293.228 174.724 291.428 177.32C291.118 176.512 290.618 175.845 289.928 175.32C289.428 177.036 289.098 178.703 288.928 180.32C289.808 181.071 290.808 181.571 291.928 181.82C291.178 183.307 290.338 183.474 289.428 182.32C287.118 184.421 285.458 186.421 284.428 188.32C281.248 187.115 278.078 187.448 274.928 189.32C272.548 188.238 270.378 187.571 268.428 187.32C267.758 188.653 267.098 189.987 266.428 191.32C266.098 190.653 265.758 189.987 265.428 189.32C262.928 191.467 260.588 191.467 258.428 189.32C258.178 190.444 257.678 191.444 256.928 192.32C255.338 192.403 253.668 192.069 251.928 191.32C244.298 192.327 237.128 192.993 230.428 193.32C228.718 193.381 227.388 192.714 226.428 191.32C225.078 194.069 223.748 194.403 222.428 192.32C220.898 192.708 219.238 192.708 217.428 192.32C215.748 192.881 214.418 193.881 213.428 195.32C212.528 193.452 211.028 192.452 208.928 192.32C207.298 193.241 205.628 194.075 203.928 194.82C204.258 195.153 204.598 195.487 204.928 195.82C198.898 196.568 192.898 196.401 186.928 195.32C184.798 195.55 183.138 196.55 181.928 198.32C180.708 197.818 179.548 197.485 178.428 197.32C176.388 198.892 174.058 199.892 171.428 200.32C166.078 198.548 160.418 196.881 154.428 195.32C152.778 195.513 150.948 195.68 148.928 195.82C148.258 196.487 147.598 197.153 146.928 197.82C148.138 198.713 148.138 199.546 146.928 200.32C145.228 197.553 142.728 196.219 139.428 196.32C135.728 196.626 131.898 196.792 127.928 196.82C125.58 197.166 123.747 198.333 122.428 200.32C120.643 199.58 118.81 198.913 116.928 198.32C116.595 198.987 116.261 199.653 115.928 200.32C114.928 198.987 113.928 197.653 112.928 196.32C112.236 196.845 111.736 197.512 111.428 198.32C109.711 197.365 108.044 196.365 106.428 195.32C105.42 195.802 104.253 195.968 102.928 195.82C104.124 196.474 104.124 196.974 102.928 197.32C101.782 196.675 100.782 195.842 99.9282 194.82C98.3162 194.1 96.8162 194.266 95.4282 195.32C94.5952 193.82 93.4282 192.653 91.9282 191.82C92.3852 191.406 92.7192 190.906 92.9282 190.32C91.0502 189.178 89.2162 188.178 87.4282 187.32C85.8842 190.084 84.7172 189.917 83.9282 186.82C79.2852 185.99 74.6182 185.323 69.9282 184.82C69.4032 184.128 68.7362 183.628 67.9282 183.32C66.2352 185.099 64.2352 185.599 61.9282 184.82C59.9692 183.889 57.9692 183.056 55.9282 182.32C55.3482 180.183 54.3482 178.35 52.9282 176.82C51.3272 176.547 49.8272 176.047 48.4282 175.32C47.7182 176.793 46.5522 177.46 44.9282 177.32C45.1692 173.821 44.3362 173.488 42.4282 176.32C42.8742 173.155 41.3742 172.488 37.9282 174.32C36.7282 173.289 35.3942 172.455 33.9282 171.82C34.5952 171.487 35.2612 171.153 35.9282 170.82C34.5952 170.153 34.5952 169.487 35.9282 168.82C34.6982 166.481 33.3652 164.314 31.9282 162.32C34.5952 162.32 37.2612 162.32 39.9282 162.32C39.1652 163.088 38.1652 163.588 36.9282 163.82C38.3192 165.47 39.8192 165.97 41.4282 165.32C42.2552 168.236 43.9222 168.903 46.4282 167.32C49.2252 167.642 51.7252 168.642 53.9282 170.32C56.1962 169.276 58.5292 169.109 60.9282 169.82C60.5952 170.153 60.2612 170.487 59.9282 170.82C65.6532 171.537 71.3192 171.204 76.9282 169.82C76.2612 169.487 75.5952 169.153 74.9282 168.82C78.5502 167.918 81.8832 166.418 84.9282 164.32C87.7082 165.582 89.3742 164.582 89.9282 161.32C93.2922 158.791 96.7922 156.457 100.428 154.32C102.86 157.188 104.193 160.521 104.428 164.32C104.6 170.833 105.1 177.167 105.928 183.32C104.819 184.11 103.486 184.61 101.928 184.82C104.969 186.112 108.469 187.279 112.428 188.32C113.301 188.085 114.135 187.751 114.928 187.32C116.031 188.924 117.531 189.924 119.428 190.32C122.334 189.935 125.168 189.602 127.928 189.32C130.274 190.32 132.438 191.653 134.428 193.32C137.358 193.157 140.188 192.823 142.928 192.32C144.078 192.638 144.908 193.304 145.428 194.32C145.818 193.392 146.478 192.725 147.428 192.32C150.078 192.331 152.748 192.331 155.428 192.32C157.888 192.97 160.218 193.97 162.428 195.32C164.268 194.703 166.268 194.703 168.428 195.32C170.088 195.145 171.418 194.478 172.428 193.32C174.148 193.231 175.978 193.564 177.928 194.32C179.178 193.78 180.338 193.113 181.428 192.32C186.988 192.557 192.818 192.89 198.928 193.32C202.058 191.226 205.218 189.226 208.428 187.32C209.588 189.617 210.588 189.284 211.428 186.32C212.488 187.719 213.818 188.719 215.428 189.32C218.548 188.405 221.708 187.405 224.928 186.32C227.898 187.824 230.898 188.158 233.928 187.32C235.488 187.542 236.818 188.209 237.928 189.32C240.388 189.04 243.048 188.373 245.928 187.32C247.608 188.602 249.438 189.602 251.428 190.32C253.538 187.701 256.038 185.701 258.928 184.32C261.858 183.521 264.858 183.188 267.928 183.32C267.928 176.32 267.928 169.32 267.928 162.32C267.928 161.987 267.928 161.653 267.928 161.32C274.958 162.216 281.958 162.216 288.928 161.32C288.928 148.653 288.928 135.987 288.928 123.32C295.598 123.107 302.268 122.774 308.928 122.32C309.138 115.609 308.808 108.943 307.928 102.32C301.598 102.32 295.258 102.32 288.928 102.32C288.928 95.9866 288.928 89.6526 288.928 83.3196C288.928 82.6526 289.258 82.3196 289.928 82.3196C296.518 82.6306 303.018 82.2976 309.428 81.3196C309.008 88.2346 308.838 95.2346 308.928 102.32Z" fill="#7E98B3"/>
<path fill-rule="evenodd" clip-rule="evenodd" d="M165.928 141.32C165.928 141.653 165.928 141.987 165.928 142.32C165.928 148.987 165.928 155.653 165.928 162.32C152.258 162.32 138.598 162.32 124.928 162.32C124.762 155.978 124.928 149.645 125.428 143.32C125.811 142.764 126.311 142.431 126.928 142.32C132.928 142.32 138.928 142.32 144.928 142.32C152.018 142.615 159.018 142.282 165.928 141.32Z" fill="#E7E5DD"/>
<path fill-rule="evenodd" clip-rule="evenodd" d="M123.928 123.32C125.558 124.846 126.391 126.846 126.428 129.32C126.927 133.641 127.094 137.974 126.928 142.32C126.311 142.431 125.811 142.764 125.428 143.32C124.928 149.645 124.762 155.978 124.928 162.32C124.037 162.93 123.037 163.263 121.928 163.32C116.595 163.32 111.261 163.32 105.928 163.32C105.928 169.987 105.928 176.653 105.928 183.32C105.1 177.167 104.6 170.833 104.428 164.32C104.193 160.521 102.86 157.188 100.428 154.32C96.7922 156.457 93.2922 158.791 89.9282 161.32C89.3742 164.582 87.7082 165.582 84.9282 164.32C81.8832 166.418 78.5502 167.918 74.9282 168.82C75.5952 169.153 76.2612 169.487 76.9282 169.82C71.3192 171.204 65.6532 171.537 59.9282 170.82C60.2612 170.487 60.5952 170.153 60.9282 169.82C58.5292 169.109 56.1962 169.276 53.9282 170.32C51.7252 168.642 49.2252 167.642 46.4282 167.32C43.9222 168.903 42.2552 168.236 41.4282 165.32C39.8192 165.97 38.3192 165.47 36.9282 163.82C38.1652 163.588 39.1652 163.088 39.9282 162.32C41.5952 162.32 43.2612 162.32 44.9282 162.32C58.2652 162.487 71.5992 162.32 84.9282 161.82C85.9032 156.079 86.2362 150.245 85.9282 144.32C92.5952 144.32 99.2612 144.32 105.928 144.32C105.928 137.32 105.928 130.32 105.928 123.32C111.928 123.32 117.928 123.32 123.928 123.32Z" fill="#889AAC"/>
<path fill-rule="evenodd" clip-rule="evenodd" d="M23.9282 102.32C26.9282 102.32 29.9282 102.32 32.9282 102.32C30.4802 103.293 27.8132 103.626 24.9282 103.32C24.9282 116.32 24.9282 129.32 24.9282 142.32C27.5952 142.32 30.2612 142.32 32.9282 142.32C36.3902 143.302 40.0572 143.635 43.9282 143.32C43.6372 149.743 43.9702 156.076 44.9282 162.32C43.2612 162.32 41.5952 162.32 39.9282 162.32C37.2612 162.32 34.5952 162.32 31.9282 162.32C29.5952 162.32 27.2612 162.32 24.9282 162.32C25.2302 159.761 24.8962 157.427 23.9282 155.32C23.9282 137.653 23.9282 119.987 23.9282 102.32Z" fill="#A3B0C8"/>
<path fill-rule="evenodd" clip-rule="evenodd" d="M328.928 124.32C328.928 143.653 328.928 162.987 328.928 182.32C335.928 182.32 342.928 182.32 349.928 182.32C349.928 182.653 349.928 182.987 349.928 183.32C343.868 183.03 337.868 183.363 331.928 184.32C331.248 191.209 330.578 198.042 329.928 204.82C323.008 204.232 316.008 204.232 308.928 204.82C310.258 211.419 310.258 217.919 308.928 224.32C308.928 223.653 308.598 223.32 307.928 223.32C307.928 216.653 307.928 209.987 307.928 203.32C314.598 203.32 321.258 203.32 327.928 203.32C327.928 196.653 327.928 189.987 327.928 183.32C327.598 163.48 327.928 143.813 328.928 124.32Z" fill="#A8B8DA"/>
<path fill-rule="evenodd" clip-rule="evenodd" d="M349.928 123.32C350.258 123.32 350.598 123.32 350.928 123.32C350.928 142.987 350.928 162.653 350.928 182.32C350.598 182.32 350.258 182.32 349.928 182.32C342.928 182.32 335.928 182.32 328.928 182.32C328.928 162.987 328.928 143.653 328.928 124.32C335.738 123.329 342.738 122.995 349.928 123.32Z" fill="#1E3356"/>
<path opacity="0.017" fill-rule="evenodd" clip-rule="evenodd" d="M2.92798 181.32C2.92798 181.653 2.92798 181.987 2.92798 182.32C2.26098 182.32 1.92798 182.653 1.92798 183.32C0.854977 182.569 0.687977 181.569 1.42798 180.32C1.81098 180.876 2.31098 181.209 2.92798 181.32Z" fill="#CCD3F1"/>
<path opacity="0.016" fill-rule="evenodd" clip-rule="evenodd" d="M350.928 182.32C352.258 182.987 352.258 182.987 350.928 182.32Z" fill="#8F9AB5"/>
<path opacity="0.016" fill-rule="evenodd" clip-rule="evenodd" d="M1.92822 183.32C2.26122 183.32 2.59522 183.32 2.92822 183.32C2.74322 183.99 2.40922 183.99 1.92822 183.32Z" fill="#CCD3EF"/>
<path opacity="0.02" fill-rule="evenodd" clip-rule="evenodd" d="M349.928 183.32C350.258 183.32 350.598 183.32 350.928 183.32C350.738 183.99 350.408 183.99 349.928 183.32Z" fill="#949FBA"/>
<path fill-rule="evenodd" clip-rule="evenodd" d="M327.928 183.32C327.928 189.987 327.928 196.653 327.928 203.32C321.258 203.32 314.598 203.32 307.928 203.32C307.928 196.653 307.928 189.987 307.928 183.32C314.598 183.32 321.258 183.32 327.928 183.32Z" fill="#1E3351"/>
<path fill-rule="evenodd" clip-rule="evenodd" d="M328.928 102.32C329.258 102.32 329.598 102.32 329.928 102.32C329.928 108.987 329.928 115.653 329.928 122.32C337.098 121.459 344.098 121.459 350.928 122.32C350.258 122.32 349.928 122.653 349.928 123.32C342.738 122.995 335.738 123.329 328.928 124.32C327.928 143.813 327.598 163.48 327.928 183.32C321.258 183.32 314.598 183.32 307.928 183.32C307.928 189.987 307.928 196.653 307.928 203.32C220.268 204.039 132.598 204.372 44.9282 204.32C43.9372 197.507 43.6032 190.507 43.9282 183.32C37.2612 183.32 30.5952 183.32 23.9282 183.32C23.9282 189.987 23.9282 196.653 23.9282 203.32C30.1182 202.997 36.1182 203.33 41.9282 204.32C41.5952 204.32 41.2612 204.32 40.9282 204.32C35.2612 204.32 29.5952 204.32 23.9282 204.32C23.2442 197.919 22.5782 191.419 21.9282 184.82C22.2612 184.487 22.5952 184.153 22.9282 183.82C16.2702 183.32 9.60322 183.154 2.92822 183.32C2.92822 182.987 2.92822 182.653 2.92822 182.32C9.92822 182.32 16.9282 182.32 23.9282 182.32C23.9282 173.32 23.9282 164.32 23.9282 155.32C24.8962 157.427 25.2302 159.761 24.9282 162.32C27.2612 162.32 29.5952 162.32 31.9282 162.32C33.3652 164.314 34.6982 166.481 35.9282 168.82C34.5952 169.487 34.5952 170.153 35.9282 170.82C35.2612 171.153 34.5952 171.487 33.9282 171.82C35.3942 172.455 36.7282 173.289 37.9282 174.32C41.3742 172.488 42.8742 173.155 42.4282 176.32C44.3362 173.488 45.1692 173.821 44.9282 177.32C46.5522 177.46 47.7182 176.793 48.4282 175.32C49.8272 176.047 51.3272 176.547 52.9282 176.82C54.3482 178.35 55.3482 180.183 55.9282 182.32C57.9692 183.056 59.9692 183.889 61.9282 184.82C64.2352 185.599 66.2352 185.099 67.9282 183.32C68.7362 183.628 69.4032 184.128 69.9282 184.82C74.6182 185.323 79.2852 185.99 83.9282 186.82C84.7172 189.917 85.8842 190.084 87.4282 187.32C89.2162 188.178 91.0502 189.178 92.9282 190.32C92.7192 190.906 92.3852 191.406 91.9282 191.82C93.4282 192.653 94.5952 193.82 95.4282 195.32C96.8162 194.266 98.3162 194.1 99.9282 194.82C100.782 195.842 101.782 196.675 102.928 197.32C104.124 196.974 104.124 196.474 102.928 195.82C104.253 195.968 105.42 195.802 106.428 195.32C108.044 196.365 109.711 197.365 111.428 198.32C111.736 197.512 112.236 196.845 112.928 196.32C113.928 197.653 114.928 198.987 115.928 200.32C116.261 199.653 116.595 198.987 116.928 198.32C118.81 198.913 120.643 199.58 122.428 200.32C123.747 198.333 125.58 197.166 127.928 196.82C131.898 196.792 135.728 196.626 139.428 196.32C142.728 196.219 145.228 197.553 146.928 200.32C148.138 199.546 148.138 198.713 146.928 197.82C147.598 197.153 148.258 196.487 148.928 195.82C150.948 195.68 152.778 195.513 154.428 195.32C160.418 196.881 166.078 198.548 171.428 200.32C174.058 199.892 176.388 198.892 178.428 197.32C179.548 197.485 180.708 197.818 181.928 198.32C183.138 196.55 184.798 195.55 186.928 195.32C192.898 196.401 198.898 196.568 204.928 195.82C204.598 195.487 204.258 195.153 203.928 194.82C205.628 194.075 207.298 193.241 208.928 192.32C211.028 192.452 212.528 193.452 213.428 195.32C214.418 193.881 215.748 192.881 217.428 192.32C219.238 192.708 220.898 192.708 222.428 192.32C223.748 194.403 225.078 194.069 226.428 191.32C227.388 192.714 228.718 193.381 230.428 193.32C237.128 192.993 244.298 192.327 251.928 191.32C253.668 192.069 255.338 192.403 256.928 192.32C257.678 191.444 258.178 190.444 258.428 189.32C260.588 191.467 262.928 191.467 265.428 189.32C265.758 189.987 266.098 190.653 266.428 191.32C267.098 189.987 267.758 188.653 268.428 187.32C270.378 187.571 272.548 188.238 274.928 189.32C278.078 187.448 281.248 187.115 284.428 188.32C285.458 186.421 287.118 184.421 289.428 182.32C290.338 183.474 291.178 183.307 291.928 181.82C290.808 181.571 289.808 181.071 288.928 180.32C289.098 178.703 289.428 177.036 289.928 175.32C290.618 175.845 291.118 176.512 291.428 177.32C293.228 174.724 294.558 175.057 295.428 178.32C298.028 174.43 301.528 171.597 305.928 169.82C304.618 168.996 303.118 168.496 301.428 168.32C300.758 166.987 300.758 165.653 301.428 164.32C303.468 163.397 305.638 163.064 307.928 163.32C307.768 164.693 307.938 166.027 308.428 167.32C310.248 166.491 312.078 165.657 313.928 164.82C309.928 164.153 309.928 163.487 313.928 162.82C310.848 159.429 311.178 157.762 314.928 157.82C313.438 157.075 312.438 155.908 311.928 154.32C313.318 146.084 313.648 138.084 312.928 130.32C312.978 126.508 314.978 124.674 318.928 124.82C316.378 124.818 314.378 123.984 312.928 122.32C318.258 122.32 323.598 122.32 328.928 122.32C328.928 115.653 328.928 108.987 328.928 102.32Z" fill="#7E98BC"/>
<path fill-rule="evenodd" clip-rule="evenodd" d="M105.928 183.32C140.598 183.32 175.258 183.32 209.928 183.32C216.258 183.32 222.598 183.32 228.928 183.32C238.748 184.314 248.748 184.647 258.928 184.32C256.038 185.701 253.538 187.701 251.428 190.32C249.438 189.602 247.608 188.602 245.928 187.32C243.048 188.373 240.388 189.04 237.928 189.32C236.818 188.209 235.488 187.542 233.928 187.32C230.898 188.158 227.898 187.824 224.928 186.32C221.708 187.405 218.548 188.405 215.428 189.32C213.818 188.719 212.488 187.719 211.428 186.32C210.588 189.284 209.588 189.617 208.428 187.32C205.218 189.226 202.058 191.226 198.928 193.32C192.818 192.89 186.988 192.557 181.428 192.32C180.338 193.113 179.178 193.78 177.928 194.32C175.978 193.564 174.148 193.231 172.428 193.32C171.418 194.478 170.088 195.145 168.428 195.32C166.268 194.703 164.268 194.703 162.428 195.32C160.218 193.97 157.888 192.97 155.428 192.32C152.748 192.331 150.078 192.331 147.428 192.32C146.478 192.725 145.818 193.392 145.428 194.32C144.908 193.304 144.078 192.638 142.928 192.32C140.188 192.823 137.358 193.157 134.428 193.32C132.438 191.653 130.274 190.32 127.928 189.32C125.168 189.602 122.334 189.935 119.428 190.32C117.531 189.924 116.031 188.924 114.928 187.32C114.135 187.751 113.301 188.085 112.428 188.32C108.469 187.279 104.969 186.112 101.928 184.82C103.486 184.61 104.819 184.11 105.928 183.32Z" fill="#8799AF"/>
<path fill-rule="evenodd" clip-rule="evenodd" d="M209.928 161.32C209.928 168.653 209.928 175.987 209.928 183.32C175.258 183.32 140.598 183.32 105.928 183.32C105.928 176.653 105.928 169.987 105.928 163.32C111.261 163.32 116.595 163.32 121.928 163.32C122.346 164.042 123.012 164.542 123.928 164.82C122.627 168.623 123.294 172.456 125.928 176.32C129.192 176.159 132.358 176.159 135.428 176.32C141.678 180.016 148.178 180.016 154.928 176.32C161.998 176.619 169.168 177.286 176.428 178.32C179.558 177.616 182.718 177.116 185.928 176.82C185.598 176.487 185.258 176.153 184.928 175.82C187.858 175.214 190.688 174.38 193.428 173.32C193.758 173.653 194.098 173.987 194.428 174.32C196.188 173.351 196.688 172.184 195.928 170.82C197.418 169.452 198.918 169.285 200.428 170.32C201.398 168.086 202.728 166.086 204.428 164.32C205.098 164.987 205.758 165.653 206.428 166.32C207.168 164.224 208.328 162.557 209.928 161.32Z" fill="#BBC8D4"/>
<path fill-rule="evenodd" clip-rule="evenodd" d="M267.928 162.32C267.928 169.32 267.928 176.32 267.928 183.32C264.858 183.188 261.858 183.521 258.928 184.32C248.748 184.647 238.748 184.314 228.928 183.32C235.598 183.32 242.258 183.32 248.928 183.32C248.928 176.32 248.928 169.32 248.928 162.32C255.258 162.32 261.598 162.32 267.928 162.32Z" fill="#9BACBD"/>
<path fill-rule="evenodd" clip-rule="evenodd" d="M209.928 161.32C216.258 161.32 222.598 161.32 228.928 161.32C228.928 168.653 228.928 175.987 228.928 183.32C222.598 183.32 216.258 183.32 209.928 183.32C209.928 175.987 209.928 168.653 209.928 161.32Z" fill="#9AA8B4"/>
<path opacity="0.037" fill-rule="evenodd" clip-rule="evenodd" d="M23.9282 204.32C29.5952 204.32 35.2612 204.32 40.9282 204.32C38.3412 205.636 35.3412 206.303 31.9282 206.32C28.9282 206.153 25.9282 205.987 22.9282 205.82C23.4842 205.437 23.8172 204.937 23.9282 204.32Z" fill="#C1CDED"/>
<path fill-rule="evenodd" clip-rule="evenodd" d="M44.9282 204.32C106.093 205.153 167.428 205.653 228.928 205.82C221.588 206.237 214.258 206.737 206.928 207.32C191.938 206.423 176.938 206.09 161.928 206.32C127.322 205.81 92.6552 206.476 57.9282 208.32C61.2682 212.418 65.4352 214.085 70.4282 213.32C71.7932 215.68 73.7932 217.347 76.4282 218.32C76.9112 219.268 77.0772 220.268 76.9282 221.32C79.8162 220.81 82.1492 221.476 83.9282 223.32C83.5952 223.32 83.2612 223.32 82.9282 223.32C69.5952 223.32 56.2612 223.32 42.9282 223.32C41.9382 217.175 41.6052 210.842 41.9282 204.32C36.1182 203.33 30.1182 202.997 23.9282 203.32C23.9282 196.653 23.9282 189.987 23.9282 183.32C30.5952 183.32 37.2612 183.32 43.9282 183.32C43.6032 190.507 43.9372 197.507 44.9282 204.32Z" fill="#193050"/>
<path fill-rule="evenodd" clip-rule="evenodd" d="M306.928 223.32C300.738 222.997 294.738 223.33 288.928 224.32C288.928 244.653 288.928 264.987 288.928 285.32C282.928 285.32 276.928 285.32 270.928 285.32C269.938 291.465 269.608 297.798 269.928 304.32C269.928 304.653 269.928 304.987 269.928 305.32C262.598 305.32 255.258 305.32 247.928 305.32C247.928 304.987 247.928 304.653 247.928 304.32C248.248 297.798 247.918 291.465 246.928 285.32C241.258 285.32 235.598 285.32 229.928 285.32C229.928 271.653 229.928 257.987 229.928 244.32C234.258 244.32 238.598 244.32 242.928 244.32C242.838 245.316 243.178 246.149 243.928 246.82C241.598 250.419 239.268 254.085 236.928 257.82C237.178 265.915 240.008 272.415 245.428 277.32C245.758 275.32 246.098 273.32 246.428 271.32C246.808 272.762 247.638 273.762 248.928 274.32C248.928 277.653 248.928 280.987 248.928 284.32C255.408 285.311 262.078 285.644 268.928 285.32C268.928 271.653 268.928 257.987 268.928 244.32C269.758 252.477 270.258 260.81 270.428 269.32C270.678 270.444 271.178 271.444 271.928 272.32C273.198 272.074 274.368 272.074 275.428 272.32C277.848 267.626 279.188 262.626 279.428 257.32C279.758 248.32 280.098 239.32 280.428 230.32C281.708 226.651 282.878 222.984 283.928 219.32C284.638 218.416 285.638 218.083 286.928 218.32C286.928 216.32 286.928 214.32 286.928 212.32C287.978 212.469 288.978 212.303 289.928 211.82C288.598 211.153 288.598 210.487 289.928 209.82C288.598 209.153 287.258 208.487 285.928 207.82C287.598 207.487 289.258 207.153 290.928 206.82C290.398 206.128 289.738 205.628 288.928 205.32C285.448 205.471 281.948 205.471 278.428 205.32C274.528 206.086 270.698 207.086 266.928 208.32C255.288 207.099 243.618 206.099 231.928 205.32C256.918 204.32 281.918 203.987 306.928 204.32C306.928 210.653 306.928 216.987 306.928 223.32Z" fill="#1F3456"/>
<path fill-rule="evenodd" clip-rule="evenodd" d="M161.928 206.32C163.738 208.017 166.068 208.85 168.928 208.82C162.398 210.696 162.738 212.029 169.928 212.82C168.618 214.763 168.618 216.597 169.928 218.32C170.438 219.891 170.438 222.225 169.928 225.32C173.398 225.719 173.728 227.219 170.928 229.82C173.718 232.597 173.048 234.097 168.928 234.32C167.408 237.407 166.748 240.741 166.928 244.32C165.948 257.574 165.618 270.907 165.928 284.32C159.598 284.32 153.258 284.32 146.928 284.32C145.928 271.164 145.598 257.83 145.928 244.32C152.598 244.32 159.258 244.32 165.928 244.32C165.928 237.653 165.928 230.987 165.928 224.32C145.928 222.987 125.928 222.987 105.928 224.32C105.928 230.987 105.928 237.653 105.928 244.32C105.261 244.32 104.595 244.32 103.928 244.32C97.2612 244.32 90.5952 244.32 83.9282 244.32C83.9282 237.32 83.9282 230.32 83.9282 223.32C82.1492 221.476 79.8162 220.81 76.9282 221.32C77.0772 220.268 76.9112 219.268 76.4282 218.32C73.7932 217.347 71.7932 215.68 70.4282 213.32C65.4352 214.085 61.2682 212.418 57.9282 208.32C92.6552 206.476 127.322 205.81 161.928 206.32Z" fill="#1C3459"/>
<path fill-rule="evenodd" clip-rule="evenodd" d="M307.928 203.32C307.928 209.987 307.928 216.653 307.928 223.32C307.598 223.32 307.258 223.32 306.928 223.32C306.928 216.987 306.928 210.653 306.928 204.32C281.918 203.987 256.918 204.32 231.928 205.32C243.618 206.099 255.288 207.099 266.928 208.32C270.698 207.086 274.528 206.086 278.428 205.32C281.948 205.471 285.448 205.471 288.928 205.32C289.738 205.628 290.398 206.128 290.928 206.82C289.258 207.153 287.598 207.487 285.928 207.82C287.258 208.487 288.598 209.153 289.928 209.82C288.598 210.487 288.598 211.153 289.928 211.82C288.978 212.303 287.978 212.469 286.928 212.32C286.928 214.32 286.928 216.32 286.928 218.32C285.638 218.083 284.638 218.416 283.928 219.32C278.328 217.983 277.988 216.483 282.928 214.82C281.728 213.917 280.898 212.751 280.428 211.32C272.288 210.005 264.128 210.005 255.928 211.32C254.818 212.543 254.648 213.876 255.428 215.32C256.738 217.772 257.908 220.272 258.928 222.82C258.428 223.32 257.928 223.82 257.428 224.32C257.098 227.32 256.758 230.32 256.428 233.32C253.248 236.435 251.078 240.102 249.928 244.32C249.598 244.32 249.258 244.32 248.928 244.32C248.928 243.987 248.928 243.653 248.928 243.32C248.928 236.653 248.928 229.987 248.928 223.32C234.928 223.32 220.928 223.32 206.928 223.32C206.928 243.987 206.928 264.653 206.928 285.32C200.598 285.32 194.258 285.32 187.928 285.32C187.598 285.32 187.258 285.32 186.928 285.32C186.928 284.32 186.928 283.32 186.928 282.32C186.928 278.653 186.928 274.987 186.928 271.32C187.728 272.772 188.228 274.438 188.428 276.32C189.098 273.653 189.758 273.653 190.428 276.32C191.718 273.858 193.218 271.525 194.928 269.32C196.328 262.216 197.328 255.049 197.928 247.82C197.768 244.351 197.098 241.017 195.928 237.82C196.158 232.756 197.488 227.756 199.928 222.82C198.968 221.673 199.308 220.673 200.928 219.82C199.598 218.82 199.598 217.82 200.928 216.82C197.818 214.101 194.158 212.601 189.928 212.32C190.848 210.005 192.178 209.838 193.928 211.82C196.258 212.487 198.598 212.487 200.928 211.82C197.688 210.668 194.358 209.835 190.928 209.32C187.078 209.416 183.078 209.582 178.928 209.82C178.008 210.194 177.178 210.694 176.428 211.32C174.798 213.473 173.468 215.807 172.428 218.32C171.718 215.834 170.888 215.834 169.928 218.32C168.618 216.597 168.618 214.763 169.928 212.82C162.738 212.029 162.398 210.696 168.928 208.82C166.068 208.85 163.738 208.017 161.928 206.32C176.938 206.09 191.938 206.423 206.928 207.32C214.258 206.737 221.588 206.237 228.928 205.82C167.428 205.653 106.093 205.153 44.9282 204.32C132.598 204.372 220.268 204.039 307.928 203.32Z" fill="#1B3459"/>
<path fill-rule="evenodd" clip-rule="evenodd" d="M186.928 271.32C186.928 262.32 186.928 253.32 186.928 244.32C180.258 244.32 173.598 244.32 166.928 244.32C166.748 240.741 167.408 237.407 168.928 234.32C173.048 234.097 173.718 232.597 170.928 229.82C173.728 227.219 173.398 225.719 169.928 225.32C170.438 222.225 170.438 219.891 169.928 218.32C170.888 215.834 171.718 215.834 172.428 218.32C173.468 215.807 174.798 213.473 176.428 211.32C177.178 210.694 178.008 210.194 178.928 209.82C183.078 209.582 187.078 209.416 190.928 209.32C194.358 209.835 197.688 210.668 200.928 211.82C198.598 212.487 196.258 212.487 193.928 211.82C192.178 209.838 190.848 210.005 189.928 212.32C194.158 212.601 197.818 214.101 200.928 216.82C199.598 217.82 199.598 218.82 200.928 219.82C199.308 220.673 198.968 221.673 199.928 222.82C197.488 227.756 196.158 232.756 195.928 237.82C197.098 241.017 197.768 244.351 197.928 247.82C197.328 255.049 196.328 262.216 194.928 269.32C193.218 271.525 191.718 273.858 190.428 276.32C189.758 273.653 189.098 273.653 188.428 276.32C188.228 274.438 187.728 272.772 186.928 271.32Z" fill="#113460"/>
<path fill-rule="evenodd" clip-rule="evenodd" d="M283.928 219.32C282.878 222.984 281.708 226.651 280.428 230.32C280.098 239.32 279.758 248.32 279.428 257.32C279.188 262.626 277.848 267.626 275.428 272.32C274.368 272.074 273.198 272.074 271.928 272.32C271.178 271.444 270.678 270.444 270.428 269.32C270.258 260.81 269.758 252.477 268.928 244.32C262.598 244.32 256.258 244.32 249.928 244.32C251.078 240.102 253.248 236.435 256.428 233.32C256.758 230.32 257.098 227.32 257.428 224.32C257.928 223.82 258.428 223.32 258.928 222.82C257.908 220.272 256.738 217.772 255.428 215.32C254.648 213.876 254.818 212.543 255.928 211.32C264.128 210.005 272.288 210.005 280.428 211.32C280.898 212.751 281.728 213.917 282.928 214.82C277.988 216.483 278.328 217.983 283.928 219.32Z" fill="#10335F"/>
<path opacity="0.058" fill-rule="evenodd" clip-rule="evenodd" d="M105.928 224.32C125.928 222.987 145.928 222.987 165.928 224.32C145.928 225.653 125.928 225.653 105.928 224.32Z" fill="#BBC5E8"/>
<path opacity="0.024" fill-rule="evenodd" clip-rule="evenodd" d="M42.9282 223.32C56.2612 223.32 69.5952 223.32 82.9282 223.32C82.9282 223.653 82.9282 223.987 82.9282 224.32C69.3362 225.467 55.6702 225.634 41.9282 224.82C42.4842 224.437 42.8172 223.937 42.9282 223.32Z" fill="#B9C3E5"/>
<path opacity="0.024" fill-rule="evenodd" clip-rule="evenodd" d="M288.928 224.32C294.738 223.33 300.738 222.997 306.928 223.32C307.258 223.32 307.598 223.32 307.928 223.32C308.598 223.32 308.928 223.653 308.928 224.32C302.358 225.629 295.698 225.629 288.928 224.32Z" fill="#BBC5E4"/>
<path opacity="0.016" fill-rule="evenodd" clip-rule="evenodd" d="M124.928 243.32C126.261 243.987 126.261 243.987 124.928 243.32Z" fill="#8E95AF"/>
<path opacity="0.02" fill-rule="evenodd" clip-rule="evenodd" d="M145.928 244.32C145.258 242.987 145.258 242.987 145.928 244.32Z" fill="#99A1BD"/>
<path fill-rule="evenodd" clip-rule="evenodd" d="M248.928 244.32C249.258 244.32 249.598 244.32 249.928 244.32C256.258 244.32 262.598 244.32 268.928 244.32C268.928 257.987 268.928 271.653 268.928 285.32C262.078 285.644 255.408 285.311 248.928 284.32C255.258 284.32 261.598 284.32 267.928 284.32C267.928 277.653 267.928 270.987 267.928 264.32C261.598 264.32 255.258 264.32 248.928 264.32C248.928 257.653 248.928 250.987 248.928 244.32Z" fill="#6E9ED9"/>
<path fill-rule="evenodd" clip-rule="evenodd" d="M166.928 244.32C173.598 244.32 180.258 244.32 186.928 244.32C186.928 253.32 186.928 262.32 186.928 271.32C186.928 274.987 186.928 278.653 186.928 282.32C185.938 276.51 185.608 270.51 185.928 264.32C179.598 264.32 173.258 264.32 166.928 264.32C166.628 271.408 166.968 278.408 167.928 285.32C167.258 285.32 166.598 285.32 165.928 285.32C165.928 284.987 165.928 284.653 165.928 284.32C165.618 270.907 165.948 257.574 166.928 244.32Z" fill="#699EDA"/>
<path opacity="0.496" fill-rule="evenodd" clip-rule="evenodd" d="M123.928 244.32C124.261 244.32 124.595 244.32 124.928 244.32C124.342 257.107 125.009 269.773 126.928 282.32C126.486 283.559 125.819 284.559 124.928 285.32C124.595 285.32 124.261 285.32 123.928 285.32C123.928 271.653 123.928 257.987 123.928 244.32Z" fill="#8B94B5"/>
<path fill-rule="evenodd" clip-rule="evenodd" d="M82.9282 223.32C83.2612 223.32 83.5952 223.32 83.9282 223.32C83.9282 230.32 83.9282 237.32 83.9282 244.32C83.5992 257.83 83.9322 271.164 84.9282 284.32C91.0732 285.31 97.4062 285.643 103.928 285.32C103.928 278.32 103.928 271.32 103.928 264.32C103.928 257.653 103.928 250.987 103.928 244.32C104.595 244.32 105.261 244.32 105.928 244.32C111.928 244.32 117.928 244.32 123.928 244.32C123.928 257.987 123.928 271.653 123.928 285.32C117.928 285.32 111.928 285.32 105.928 285.32C104.938 291.465 104.605 297.798 104.928 304.32C97.9282 304.32 90.9282 304.32 83.9282 304.32C84.2512 298.13 83.9182 292.13 82.9282 286.32C76.7832 285.33 70.4502 284.997 63.9282 285.32C63.9282 271.653 63.9282 257.987 63.9282 244.32C70.2612 244.32 76.5952 244.32 82.9282 244.32C82.9282 237.653 82.9282 230.987 82.9282 224.32C82.9282 223.987 82.9282 223.653 82.9282 223.32Z" fill="#173459"/>
<path fill-rule="evenodd" clip-rule="evenodd" d="M83.9283 244.32C90.5953 244.32 97.2613 244.32 103.928 244.32C103.928 250.987 103.928 257.653 103.928 264.32C97.5953 264.32 91.2613 264.32 84.9283 264.32C84.9283 270.987 84.9283 277.653 84.9283 284.32C83.9323 271.164 83.5993 257.83 83.9283 244.32Z" fill="#679DD6"/>
<path fill-rule="evenodd" clip-rule="evenodd" d="M242.928 244.32C244.928 244.32 246.928 244.32 248.928 244.32C248.928 250.987 248.928 257.653 248.928 264.32C248.928 267.653 248.928 270.987 248.928 274.32C247.638 273.762 246.808 272.762 246.428 271.32C246.098 273.32 245.758 275.32 245.428 277.32C240.008 272.415 237.178 265.915 236.928 257.82C239.268 254.085 241.598 250.419 243.928 246.82C243.178 246.149 242.838 245.316 242.928 244.32Z" fill="#07345F"/>
<path opacity="0.118" fill-rule="evenodd" clip-rule="evenodd" d="M248.928 243.32C247.928 243.35 247.268 242.85 246.928 241.82C246.828 236.023 246.988 230.19 247.428 224.32C234.678 225.309 221.838 225.642 208.928 225.32C208.648 245.648 208.648 265.648 208.928 285.32C208.458 286.283 207.788 286.283 206.928 285.32C206.928 264.653 206.928 243.987 206.928 223.32C220.928 223.32 234.928 223.32 248.928 223.32C248.928 229.987 248.928 236.653 248.928 243.32Z" fill="#B0BADC"/>
<path opacity="0.365" fill-rule="evenodd" clip-rule="evenodd" d="M63.9282 244.32C63.9282 257.987 63.9282 271.653 63.9282 285.32C63.5952 285.32 63.2612 285.32 62.9282 285.32C63.2432 271.604 62.9102 257.937 61.9282 244.32C62.3982 243.357 63.0652 243.357 63.9282 244.32Z" fill="#97A2C5"/>
<path fill-rule="evenodd" clip-rule="evenodd" d="M103.928 264.32C103.928 271.32 103.928 278.32 103.928 285.32C97.4062 285.643 91.0732 285.31 84.9282 284.32C84.9282 277.653 84.9282 270.987 84.9282 264.32C91.2612 264.32 97.5952 264.32 103.928 264.32Z" fill="#99C9F7"/>
<path opacity="0.786" fill-rule="evenodd" clip-rule="evenodd" d="M229.928 244.32C229.928 257.987 229.928 271.653 229.928 285.32C229.598 285.32 229.258 285.32 228.928 285.32C229.048 272.525 228.878 259.525 228.428 246.32C227.408 247.526 226.908 247.193 226.928 245.32C227.308 243.017 228.308 242.683 229.928 244.32Z" fill="#5E6887"/>
<path fill-rule="evenodd" clip-rule="evenodd" d="M248.928 264.32C255.258 264.32 261.598 264.32 267.928 264.32C267.928 270.987 267.928 277.653 267.928 284.32C261.598 284.32 255.258 284.32 248.928 284.32C248.928 280.987 248.928 277.653 248.928 274.32C248.928 270.987 248.928 267.653 248.928 264.32Z" fill="#96C4F5"/>
<path fill-rule="evenodd" clip-rule="evenodd" d="M186.928 282.32C186.928 283.32 186.928 284.32 186.928 285.32C180.598 285.32 174.258 285.32 167.928 285.32C166.968 278.408 166.628 271.408 166.928 264.32C173.258 264.32 179.598 264.32 185.928 264.32C185.608 270.51 185.938 276.51 186.928 282.32Z" fill="#93C4F4"/>
<path opacity="0.059" fill-rule="evenodd" clip-rule="evenodd" d="M146.928 284.32C153.258 284.32 159.598 284.32 165.928 284.32C165.928 284.653 165.928 284.987 165.928 285.32C159.338 286.446 152.678 286.612 145.928 285.82C146.488 285.437 146.818 284.937 146.928 284.32Z" fill="#BCCEEE"/>
<path opacity="0.016" fill-rule="evenodd" clip-rule="evenodd" d="M62.9285 285.32C62.2615 285.987 62.2615 285.987 62.9285 285.32Z" fill="#A5ACC7"/>
<path opacity="0.016" fill-rule="evenodd" clip-rule="evenodd" d="M124.928 285.32C126.261 285.987 126.261 285.987 124.928 285.32Z" fill="#D2D9F3"/>
<path opacity="0.01" fill-rule="evenodd" clip-rule="evenodd" d="M228.928 285.32C228.258 285.987 228.258 285.987 228.928 285.32Z" fill="#D1D8F4"/>
<path opacity="0.012" fill-rule="evenodd" clip-rule="evenodd" d="M288.928 285.32C290.258 285.987 290.258 285.987 288.928 285.32Z" fill="#7C839C"/>
<path fill-rule="evenodd" clip-rule="evenodd" d="M165.928 285.32C166.598 285.32 167.258 285.32 167.928 285.32C174.258 285.32 180.598 285.32 186.928 285.32C186.928 291.653 186.928 297.987 186.928 304.32C186.928 304.653 186.928 304.987 186.928 305.32C179.928 305.32 172.928 305.32 165.928 305.32C165.928 298.653 165.928 291.987 165.928 285.32Z" fill="#283A56"/>
<path opacity="0.132" fill-rule="evenodd" clip-rule="evenodd" d="M186.928 285.32C187.258 285.32 187.598 285.32 187.928 285.32C189.198 292.116 189.198 298.783 187.928 305.32C187.928 304.653 187.598 304.32 186.928 304.32C186.928 297.987 186.928 291.653 186.928 285.32Z" fill="#ADBDDE"/>
<path opacity="0.106" fill-rule="evenodd" clip-rule="evenodd" d="M270.928 285.32C272.238 292.086 272.238 298.752 270.928 305.32C270.928 304.653 270.598 304.32 269.928 304.32C269.608 297.798 269.938 291.465 270.928 285.32Z" fill="#B4C2E4"/>
<path opacity="0.067" fill-rule="evenodd" clip-rule="evenodd" d="M246.928 285.32C247.918 291.465 248.248 297.798 247.928 304.32C247.258 304.32 246.928 304.653 246.928 305.32C245.618 298.752 245.618 292.086 246.928 285.32Z" fill="#C4D4F5"/>
<path opacity="0.551" fill-rule="evenodd" clip-rule="evenodd" d="M105.928 285.32C105.928 291.987 105.928 298.653 105.928 305.32C98.2612 305.32 90.5952 305.32 82.9282 305.32C82.9282 298.987 82.9282 292.653 82.9282 286.32C83.9182 292.13 84.2512 298.13 83.9282 304.32C90.9282 304.32 97.9282 304.32 104.928 304.32C104.605 297.798 104.938 291.465 105.928 285.32Z" fill="#7584A5"/>
<path opacity="0.016" fill-rule="evenodd" clip-rule="evenodd" d="M82.9285 305.32C82.2615 305.987 82.2615 305.987 82.9285 305.32Z" fill="#A6B1CD"/>
<path opacity="0.016" fill-rule="evenodd" clip-rule="evenodd" d="M105.928 305.32C107.261 305.987 107.261 305.987 105.928 305.32Z" fill="#A4B4D3"/>
<path opacity="0.016" fill-rule="evenodd" clip-rule="evenodd" d="M165.928 305.32C165.258 305.987 165.258 305.987 165.928 305.32Z" fill="#A5B1C8"/>
<path opacity="0.02" fill-rule="evenodd" clip-rule="evenodd" d="M186.928 305.32C187.258 305.32 187.598 305.32 187.928 305.32C187.738 305.99 187.408 305.99 186.928 305.32Z" fill="#AFBCD6"/>
<path opacity="0.016" fill-rule="evenodd" clip-rule="evenodd" d="M246.928 305.32C247.258 305.32 247.598 305.32 247.928 305.32C247.738 305.99 247.408 305.99 246.928 305.32Z" fill="#C7D3EC"/>
<path opacity="0.016" fill-rule="evenodd" clip-rule="evenodd" d="M269.928 305.32C270.258 305.32 270.598 305.32 270.928 305.32C270.738 305.99 270.408 305.99 269.928 305.32Z" fill="#BAC4DF"/>
</svg>
