<svg width="350" height="346" viewBox="0 0 350 346" fill="none" xmlns="http://www.w3.org/2000/svg">
<path opacity="0.071" fill-rule="evenodd" clip-rule="evenodd" d="M226.143 22.2429C225.813 22.2429 225.473 22.2429 225.143 22.2429C225.143 15.5759 225.143 8.90992 225.143 2.24292C225.763 2.13192 226.263 1.79892 226.643 1.24292C227.433 8.32292 227.273 15.3229 226.143 22.2429Z" fill="#C3CEEF"/>
<path opacity="0.016" fill-rule="evenodd" clip-rule="evenodd" d="M83.1428 22.2429C82.4758 20.9099 82.4758 20.9099 83.1428 22.2429Z" fill="#A5ACC7"/>
<path fill-rule="evenodd" clip-rule="evenodd" d="M84.1426 22.2429C90.8096 22.2429 97.4756 22.2429 104.143 22.2429C104.143 28.9099 104.143 35.5759 104.143 42.2429C103.81 42.2429 103.476 42.2429 103.143 42.2429C97.1426 42.2429 91.1426 42.2429 85.1426 42.2429C85.3986 35.5189 85.0656 28.8519 84.1426 22.2429Z" fill="#27314A"/>
<path fill-rule="evenodd" clip-rule="evenodd" d="M225.143 22.2429C225.473 22.2429 225.813 22.2429 226.143 22.2429C232.473 22.2429 238.813 22.2429 245.143 22.2429C245.143 28.9099 245.143 35.5759 245.143 42.2429C238.473 42.2429 231.813 42.2429 225.143 42.2429C225.143 35.5759 225.143 28.9099 225.143 22.2429Z" fill="#203251"/>
<path fill-rule="evenodd" clip-rule="evenodd" d="M185.143 24.243C184.213 25.311 183.873 26.644 184.143 28.243C184.143 32.91 184.143 37.576 184.143 42.243C171.153 42.869 158.153 43.203 145.143 43.243C151.623 42.252 158.293 41.919 165.143 42.243C165.123 40.683 164.793 39.183 164.143 37.743C165.993 36.652 166.653 35.319 166.143 33.743C165.593 32.818 164.933 31.985 164.143 31.243C163.093 32.126 161.933 32.793 160.643 33.243C154.563 32.677 148.723 31.344 143.143 29.243C137.713 31.349 132.053 32.682 126.143 33.243C125.159 36.171 124.826 39.171 125.143 42.243C118.476 42.243 111.81 42.243 105.143 42.243C105.143 41.576 105.143 40.91 105.143 40.243C106.14 40.273 106.807 39.773 107.143 38.743C107.66 36.666 108.327 34.666 109.143 32.743C112.394 31.166 115.394 29.166 118.143 26.743C120.453 26.246 122.786 26.08 125.143 26.243C125.143 25.243 125.143 24.243 125.143 23.243C145.313 22.913 165.313 23.246 185.143 24.243Z" fill="#E1DEDD"/>
<path opacity="0.084" fill-rule="evenodd" clip-rule="evenodd" d="M265.143 42.2429C258.473 42.2429 251.813 42.2429 245.143 42.2429C245.143 35.5759 245.143 28.9099 245.143 22.2429C245.763 22.1319 246.263 21.7989 246.643 21.2429C247.143 27.5679 247.313 33.9009 247.143 40.2429C253.483 40.0769 259.823 40.2429 266.143 40.7429C265.583 41.1259 265.253 41.6259 265.143 42.2429Z" fill="#BDC8EA"/>
<path opacity="0.304" fill-rule="evenodd" clip-rule="evenodd" d="M83.1426 22.2429C83.4756 22.2429 83.8096 22.2429 84.1426 22.2429C85.0656 28.8519 85.3986 35.5189 85.1426 42.2429C85.1426 42.5759 85.1426 42.9099 85.1426 43.2429C84.8096 43.2429 84.4756 43.2429 84.1426 43.2429C70.8096 43.2429 57.4756 43.2429 44.1426 43.2429C57.2986 42.2469 70.6326 41.9139 84.1426 42.2429C84.3086 36.5669 84.1416 30.8999 83.6426 25.2429C82.9886 26.4389 82.4886 26.4389 82.1426 25.2429C82.7696 24.3259 83.1036 23.3259 83.1426 22.2429Z" fill="#9CA7C8"/>
<path opacity="0.033" fill-rule="evenodd" clip-rule="evenodd" d="M44.1426 43.2429C44.1426 49.9099 44.1426 56.5759 44.1426 63.2429C44.1426 68.9099 44.1426 74.5759 44.1426 80.2429C44.3796 81.5339 44.0466 82.5339 43.1426 83.2429C43.1426 76.5759 43.1426 69.9099 43.1426 63.2429C42.1426 63.2429 41.1426 63.2429 40.1426 63.2429C39.8096 63.2429 39.4756 63.2429 39.1426 63.2429C40.8066 56.7759 41.6406 50.1099 41.6426 43.2429C42.4126 44.3409 43.2456 44.3409 44.1426 43.2429Z" fill="#B4BBD4"/>
<path fill-rule="evenodd" clip-rule="evenodd" d="M206.143 42.243C212.183 41.914 218.183 42.247 224.143 43.243C225.463 49.773 225.463 56.273 224.143 62.743C218.153 63.242 212.153 63.409 206.143 63.243C207.013 56.201 207.013 49.201 206.143 42.243Z" fill="#A8BACC"/>
<path fill-rule="evenodd" clip-rule="evenodd" d="M145.143 43.2429C145.143 49.9099 145.143 56.5759 145.143 63.2429C131.813 63.2429 118.476 63.2429 105.143 63.2429C105.143 56.2429 105.143 49.2429 105.143 42.2429C111.81 42.2429 118.476 42.2429 125.143 42.2429C124.826 39.1709 125.159 36.1709 126.143 33.2429C132.053 32.6819 137.713 31.3489 143.143 29.2429C148.723 31.3439 154.563 32.6769 160.643 33.2429C161.933 32.7929 163.093 32.1259 164.143 31.2429C164.933 31.9849 165.593 32.8179 166.143 33.7429C166.653 35.3189 165.993 36.6519 164.143 37.7429C164.793 39.1829 165.123 40.6829 165.143 42.2429C158.293 41.9189 151.623 42.2519 145.143 43.2429Z" fill="#EAE5D9"/>
<path opacity="0.039" fill-rule="evenodd" clip-rule="evenodd" d="M305.143 63.243C291.633 63.572 278.303 63.239 265.143 62.243C278.733 61.096 292.403 60.929 306.143 61.743C305.583 62.126 305.253 62.626 305.143 63.243Z" fill="#C8D2F1"/>
<path fill-rule="evenodd" clip-rule="evenodd" d="M84.1426 43.2429C84.4756 43.2429 84.8096 43.2429 85.1426 43.2429C85.1426 56.9099 85.1426 70.5759 85.1426 84.2429C78.4756 84.2429 71.8096 84.2429 65.1426 84.2429C65.1426 83.9099 65.1426 83.5759 65.1426 83.2429C71.4756 83.2429 77.8096 83.2429 84.1426 83.2429C84.1426 69.9099 84.1426 56.5759 84.1426 43.2429Z" fill="#5D6880"/>
<path fill-rule="evenodd" clip-rule="evenodd" d="M245.143 42.2429C251.813 42.2429 258.473 42.2429 265.143 42.2429C265.143 48.9099 265.143 55.5759 265.143 62.2429C278.303 63.2389 291.633 63.5719 305.143 63.2429C305.473 63.2429 305.813 63.2429 306.143 63.2429C306.143 69.2429 306.143 75.2429 306.143 81.2429C306.143 81.9099 306.143 82.5759 306.143 83.2429C305.813 83.2429 305.473 83.2429 305.143 83.2429C285.473 83.2429 265.813 83.2429 246.143 83.2429C245.663 69.5809 245.333 55.9139 245.143 42.2429Z" fill="#213253"/>
<path fill-rule="evenodd" clip-rule="evenodd" d="M40.1426 63.2429C41.1426 63.2429 42.1426 63.2429 43.1426 63.2429C43.1426 69.9099 43.1426 76.5759 43.1426 83.2429C36.8096 83.2429 30.4756 83.2429 24.1426 83.2429C24.1426 76.9099 24.1426 70.5759 24.1426 64.2429C29.6686 64.5639 35.0026 64.2309 40.1426 63.2429Z" fill="#293248"/>
<path opacity="0.068" fill-rule="evenodd" clip-rule="evenodd" d="M307.143 83.2429C307.313 82.2509 306.983 81.5849 306.143 81.2429C306.143 75.2429 306.143 69.2429 306.143 63.2429C306.763 63.1319 307.263 62.7989 307.643 62.2429C308.463 69.4219 308.293 76.4219 307.143 83.2429Z" fill="#C5CFE9"/>
<path fill-rule="evenodd" clip-rule="evenodd" d="M44.1426 63.2429C51.1426 63.2429 58.1426 63.2429 65.1426 63.2429C65.1426 69.9099 65.1426 76.5759 65.1426 83.2429C65.1426 83.5759 65.1426 83.9099 65.1426 84.2429C58.5336 83.3199 51.8666 82.9869 45.1426 83.2429C45.3796 81.9519 45.0466 80.9519 44.1426 80.2429C44.1426 74.5759 44.1426 68.9099 44.1426 63.2429Z" fill="#D4D6E5"/>
<path fill-rule="evenodd" clip-rule="evenodd" d="M44.1426 43.2429C57.4756 43.2429 70.8096 43.2429 84.1426 43.2429C84.1426 56.5759 84.1426 69.9099 84.1426 83.2429C77.8096 83.2429 71.4756 83.2429 65.1426 83.2429C65.1426 76.5759 65.1426 69.9099 65.1426 63.2429C58.1426 63.2429 51.1426 63.2429 44.1426 63.2429C44.1426 56.5759 44.1426 49.9099 44.1426 43.2429Z" fill="#232E46"/>
<path fill-rule="evenodd" clip-rule="evenodd" d="M65.1424 63.2428C64.7244 62.5208 64.0584 62.0208 63.1424 61.7428C60.1424 61.4098 57.1424 61.0758 54.1424 60.7428C54.5994 60.3288 54.9334 59.8288 55.1424 59.2428C51.5674 55.3748 51.2344 51.2078 54.1424 46.7428C53.8094 46.4098 53.4754 46.0758 53.1424 45.7428C62.5824 45.3508 71.9154 45.5178 81.1424 46.2428C82.3074 53.5538 82.4734 60.8868 81.6424 68.2428C81.3094 67.9098 80.9754 67.5758 80.6424 67.2428C80.4234 68.6808 79.9234 70.0138 79.1424 71.2428C74.8144 71.7738 70.6474 71.7738 66.6424 71.2428C66.4594 68.3778 65.9594 65.7118 65.1424 63.2428Z" fill="#223355"/>
<path opacity="0.023" fill-rule="evenodd" clip-rule="evenodd" d="M23.1426 78.2429C23.1426 78.9099 23.1426 79.5759 23.1426 80.2429C21.8096 80.5759 21.8096 80.9099 23.1426 81.2429C16.3296 82.2339 9.32958 82.5679 2.14258 82.2429C2.03158 81.6259 1.69858 81.1259 1.14258 80.7429C8.67158 80.7579 16.0046 79.9249 23.1426 78.2429Z" fill="#CBD4ED"/>
<path opacity="0.041" fill-rule="evenodd" clip-rule="evenodd" d="M2.14259 83.2429C2.14259 83.5759 2.14259 83.9099 2.14259 84.2429C0.289589 85.3569 -0.210411 84.6909 0.642589 82.2429C1.02559 82.7989 1.52559 83.1319 2.14259 83.2429Z" fill="#BEC5D7"/>
<path fill-rule="evenodd" clip-rule="evenodd" d="M39.1426 63.2429C39.4756 63.2429 39.8096 63.2429 40.1426 63.2429C35.0026 64.2309 29.6686 64.5639 24.1426 64.2429C24.1426 70.5759 24.1426 76.9099 24.1426 83.2429C30.4756 83.2429 36.8096 83.2429 43.1426 83.2429C42.8006 84.0809 42.1346 84.4149 41.1426 84.2429C35.1426 84.2429 29.1426 84.2429 23.1426 84.2429C16.3296 83.2519 9.32958 82.9179 2.14258 83.2429C2.14258 82.9099 2.14258 82.5759 2.14258 82.2429C9.32958 82.5679 16.3296 82.2339 23.1426 81.2429C23.1426 80.9099 23.1426 80.5759 23.1426 80.2429C23.1426 79.5759 23.1426 78.9099 23.1426 78.2429C23.0516 75.1069 23.0516 71.9399 23.1426 68.7429C22.7986 67.3779 22.1316 66.2109 21.1426 65.2429C23.0576 64.0339 24.8906 62.7009 26.6426 61.2429C27.5876 61.6479 28.2546 62.3149 28.6426 63.2429C28.9506 62.4349 29.4506 61.7679 30.1426 61.2429C32.8546 63.0029 35.8546 63.6699 39.1426 63.2429Z" fill="#6A738A"/>
<path fill-rule="evenodd" clip-rule="evenodd" d="M225.143 2.24292C225.143 8.90992 225.143 15.5759 225.143 22.2429C225.143 28.9099 225.143 35.5759 225.143 42.2429C231.813 42.2429 238.473 42.2429 245.143 42.2429C245.333 55.9139 245.663 69.5809 246.143 83.2429C265.813 83.2429 285.473 83.2429 305.143 83.2429C299.003 84.2329 292.663 84.5659 286.143 84.2429C272.473 84.2429 258.813 84.2429 245.143 84.2429C238.473 84.2429 231.813 84.2429 225.143 84.2429C224.853 90.3339 225.183 96.3339 226.143 102.243C226.143 102.576 226.143 102.91 226.143 103.243C225.813 103.243 225.473 103.243 225.143 103.243C218.813 103.243 212.473 103.243 206.143 103.243C206.143 109.576 206.143 115.91 206.143 122.243C192.293 122.286 178.633 122.286 165.143 122.243C163.893 122.783 162.733 123.45 161.643 124.243C160.903 123.102 160.073 123.102 159.143 124.243C158.363 123.006 157.363 122.006 156.143 121.243C154.173 124.189 151.843 124.689 149.143 122.743C150.653 116.217 153.653 110.384 158.143 105.243C167.083 103.859 176.083 102.859 185.143 102.243C186.183 96.2759 186.183 90.2759 185.143 84.2429C190.803 83.7739 196.473 83.2739 202.143 82.7429C204.673 76.5839 206.013 70.0839 206.143 63.2429C212.153 63.4089 218.153 63.2419 224.143 62.7429C225.463 56.2729 225.463 49.7729 224.143 43.2429C218.183 42.2469 212.183 41.9139 206.143 42.2429C206.143 37.2429 206.143 32.2429 206.143 27.2429C206.143 25.5759 206.143 23.9099 206.143 22.2429C212.143 22.2429 218.143 22.2429 224.143 22.2429C224.463 15.3889 224.133 8.72192 223.143 2.24292C183.813 2.24292 144.473 2.24292 105.143 2.24292C105.143 8.90992 105.143 15.5759 105.143 22.2429C105.143 28.2429 105.143 34.2429 105.143 40.2429C105.143 40.9099 105.143 41.5759 105.143 42.2429C104.81 42.2429 104.476 42.2429 104.143 42.2429C104.143 35.5759 104.143 28.9099 104.143 22.2429C104.058 14.7289 104.058 7.39592 104.143 0.24292C144.603 0.90392 184.933 1.57092 225.143 2.24292Z" fill="#7D94AF"/>
<path fill-rule="evenodd" clip-rule="evenodd" d="M105.143 22.2429C105.476 22.2429 105.81 22.2429 106.143 22.2429C139.473 22.2429 172.813 22.2429 206.143 22.2429C206.143 23.9099 206.143 25.5759 206.143 27.2429C205.483 28.7849 204.813 30.4519 204.143 32.2429C200.453 29.4889 196.453 27.3219 192.143 25.7429C189.603 25.5569 187.273 25.0569 185.143 24.2429C165.313 23.2459 145.313 22.9129 125.143 23.2429C125.143 24.2429 125.143 25.2429 125.143 26.2429C122.786 26.0799 120.453 26.2459 118.143 26.7429C115.394 29.1659 112.394 31.1659 109.143 32.7429C108.327 34.6659 107.66 36.6659 107.143 38.7429C106.807 39.7729 106.14 40.2729 105.143 40.2429C105.143 34.2429 105.143 28.2429 105.143 22.2429Z" fill="#C6CCE2"/>
<path fill-rule="evenodd" clip-rule="evenodd" d="M223.143 2.24292C224.133 8.72192 224.463 15.3889 224.143 22.2429C218.143 22.2429 212.143 22.2429 206.143 22.2429C172.813 22.2429 139.473 22.2429 106.143 22.2429C105.977 16.8989 106.144 11.5659 106.643 6.24292C107.142 10.8979 107.309 15.5639 107.143 20.2429C145.813 20.2429 184.473 20.2429 223.143 20.2429C223.143 14.2429 223.143 8.24292 223.143 2.24292Z" fill="#0F1C34"/>
<path fill-rule="evenodd" clip-rule="evenodd" d="M223.143 2.24292C223.143 8.24292 223.143 14.2429 223.143 20.2429C184.473 20.2429 145.813 20.2429 107.143 20.2429C107.309 15.5639 107.142 10.8979 106.643 6.24292C106.144 11.5659 105.977 16.8989 106.143 22.2429C105.81 22.2429 105.476 22.2429 105.143 22.2429C105.143 15.5759 105.143 8.90992 105.143 2.24292C144.473 2.24292 183.813 2.24292 223.143 2.24292Z" fill="#233353"/>
<path opacity="0.012" fill-rule="evenodd" clip-rule="evenodd" d="M319.143 84.2429C318.143 84.2429 317.143 84.2429 316.143 84.2429C315.813 82.9099 315.473 82.9099 315.143 84.2429C314.143 84.2429 313.143 84.2429 312.143 84.2429C312.793 83.0179 313.963 82.3509 315.643 82.2429C317.323 82.3509 318.493 83.0179 319.143 84.2429Z" fill="#C9D3F2"/>
<path opacity="0.01" fill-rule="evenodd" clip-rule="evenodd" d="M326.143 84.2429C325.143 84.2429 324.143 84.2429 323.143 84.2429C324.143 81.5759 325.143 81.5759 326.143 84.2429Z" fill="#D0D8F3"/>
<path fill-rule="evenodd" clip-rule="evenodd" d="M44.1426 80.2429C45.0466 80.9519 45.3796 81.9519 45.1426 83.2429C51.8666 82.9869 58.5336 83.3199 65.1426 84.2429C65.1426 84.5759 65.1426 84.9099 65.1426 85.2429C64.0256 90.7159 63.3596 96.3829 63.1426 102.243C56.8536 103.115 50.5206 103.448 44.1426 103.243C43.9416 96.8469 42.9416 90.8469 41.1426 85.2429C41.1426 84.9099 41.1426 84.5759 41.1426 84.2429C42.1346 84.4149 42.8006 84.0809 43.1426 83.2429C44.0466 82.5339 44.3796 81.5339 44.1426 80.2429Z" fill="#EFEBE2"/>
<path fill-rule="evenodd" clip-rule="evenodd" d="M323.142 84.243C324.142 84.243 325.142 84.243 326.142 84.243C326.142 90.91 326.142 97.576 326.142 104.243C322.142 104.243 318.142 104.243 314.142 104.243C311.472 104.243 308.812 104.243 306.142 104.243C305.822 97.389 306.152 90.722 307.142 84.243C308.812 84.243 310.472 84.243 312.142 84.243C313.142 84.243 314.142 84.243 315.142 84.243C315.472 84.243 315.812 84.243 316.142 84.243C317.142 84.243 318.142 84.243 319.142 84.243C320.342 83.338 321.682 83.338 323.142 84.243Z" fill="#21314E"/>
<path fill-rule="evenodd" clip-rule="evenodd" d="M305.143 83.2429C305.473 83.2429 305.813 83.2429 306.143 83.2429C306.473 83.2429 306.813 83.2429 307.143 83.2429C307.143 83.5759 307.143 83.9099 307.143 84.2429C306.153 90.7219 305.823 97.3889 306.143 104.243C299.563 103.283 292.903 102.95 286.143 103.243C286.143 96.9099 286.143 90.5759 286.143 84.2429C292.663 84.5659 299.003 84.2329 305.143 83.2429Z" fill="#9FABC1"/>
<path fill-rule="evenodd" clip-rule="evenodd" d="M245.143 84.2429C245.143 87.9099 245.143 91.5759 245.143 95.2429C245.143 97.5759 245.143 99.9099 245.143 102.243C238.813 102.243 232.473 102.243 226.143 102.243C225.183 96.3339 224.853 90.3339 225.143 84.2429C231.813 84.2429 238.473 84.2429 245.143 84.2429Z" fill="#A4AFB9"/>
<path fill-rule="evenodd" clip-rule="evenodd" d="M41.1425 85.2429C42.9415 90.8469 43.9415 96.8469 44.1425 103.243C50.5205 103.448 56.8535 103.115 63.1425 102.243C63.3595 96.3829 64.0255 90.7159 65.1425 85.2429C64.9895 91.5879 64.6565 97.9209 64.1425 104.243C57.1425 104.243 50.1425 104.243 43.1425 104.243C43.3155 110.679 42.6485 117.012 41.1425 123.243C38.1425 123.243 35.1425 123.243 32.1425 123.243C31.1425 123.243 30.1425 123.243 29.1425 123.243C28.4345 118.098 28.1015 113.098 28.1425 108.243C28.4025 106.556 29.0695 105.056 30.1425 103.743C29.4755 103.41 28.8095 103.076 28.1425 102.743C29.7095 97.7369 31.8755 92.9039 34.6425 88.2429C36.3765 86.2919 38.5435 85.2919 41.1425 85.2429Z" fill="#D7D6D5"/>
<path fill-rule="evenodd" clip-rule="evenodd" d="M185.143 24.2429C187.273 25.0569 189.603 25.5569 192.143 25.7429C196.453 27.3219 200.453 29.4889 204.143 32.2429C204.813 30.4519 205.483 28.7849 206.143 27.2429C206.143 32.2429 206.143 37.2429 206.143 42.2429C207.013 49.2009 207.013 56.2009 206.143 63.2429C199.473 63.2429 192.813 63.2429 186.143 63.2429C186.473 69.9429 186.143 76.6089 185.143 83.2429C178.873 84.2029 172.533 84.5359 166.143 84.2429C165.453 90.5529 165.123 96.8859 165.143 103.243C158.143 103.243 151.143 103.243 144.143 103.243C144.143 109.91 144.143 116.576 144.143 123.243C142.143 123.243 140.143 123.243 138.143 123.243C138.593 122.285 139.263 121.451 140.143 120.743C139.573 119.447 139.573 117.947 140.143 116.243C140.143 113.141 139.643 112.808 138.643 115.243C138.333 113.977 137.833 112.81 137.143 111.743C138.853 110.365 140.193 108.698 141.143 106.743C138.873 105.662 138.713 104.162 140.643 102.243C142.743 99.2759 145.573 97.4429 149.143 96.7429C148.683 96.3289 148.353 95.8289 148.143 95.2429C149.573 94.5129 150.743 93.5129 151.643 92.2429C152.613 94.6209 153.283 94.2869 153.643 91.2429C154.693 92.2599 155.863 92.4269 157.143 91.7429C158.663 90.0579 160.323 88.5579 162.143 87.2429C160.753 84.8069 161.253 84.1409 163.643 85.2429C164.153 83.2219 165.323 81.7219 167.143 80.7429C167.143 79.4099 167.143 78.0759 167.143 76.7429C169.813 73.7729 172.313 70.6059 174.643 67.2429C176.423 70.0189 177.423 69.6859 177.643 66.2429C178.313 66.9099 178.973 67.5759 179.643 68.2429C180.363 66.6309 180.193 65.1309 179.143 63.7429C180.703 61.2779 182.703 60.7779 185.143 62.2429C187.043 60.5919 189.043 60.2589 191.143 61.2429C192.353 60.4689 192.353 59.6359 191.143 58.7429C193.703 56.9699 196.033 54.9699 198.143 52.7429C196.073 51.3129 196.573 50.1459 199.643 49.2429C201.883 50.6419 202.553 49.9749 201.643 47.2429C200.813 45.7429 199.643 44.5759 198.143 43.7429C199.213 41.5139 200.043 39.3479 200.643 37.2429C198.503 35.7079 196.503 34.0419 194.643 32.2429C194.313 32.5759 193.973 32.9099 193.643 33.2429C191.593 31.2189 189.263 29.5529 186.643 28.2429C186.313 28.9099 185.973 29.5759 185.643 30.2429C185.363 29.3269 184.863 28.6609 184.143 28.2429C183.873 26.6439 184.213 25.3109 185.143 24.2429Z" fill="#BFC8D0"/>
<path fill-rule="evenodd" clip-rule="evenodd" d="M184.143 28.2429C184.863 28.6609 185.363 29.3269 185.643 30.2429C185.973 29.5759 186.313 28.9099 186.643 28.2429C189.263 29.5529 191.593 31.2189 193.643 33.2429C193.973 32.9099 194.313 32.5759 194.643 32.2429C196.503 34.0419 198.503 35.7079 200.643 37.2429C200.043 39.3479 199.213 41.5139 198.143 43.7429C199.643 44.5759 200.813 45.7429 201.643 47.2429C202.553 49.9749 201.883 50.6419 199.643 49.2429C196.573 50.1459 196.073 51.3129 198.143 52.7429C196.033 54.9699 193.703 56.9699 191.143 58.7429C192.353 59.6359 192.353 60.4689 191.143 61.2429C189.043 60.2589 187.043 60.5919 185.143 62.2429C182.703 60.7779 180.703 61.2779 179.143 63.7429C180.193 65.1309 180.363 66.6309 179.643 68.2429C178.973 67.5759 178.313 66.9099 177.643 66.2429C177.423 69.6859 176.423 70.0189 174.643 67.2429C172.313 70.6059 169.813 73.7729 167.143 76.7429C167.143 78.0759 167.143 79.4099 167.143 80.7429C165.323 81.7219 164.153 83.2219 163.643 85.2429C161.253 84.1409 160.753 84.8069 162.143 87.2429C160.323 88.5579 158.663 90.0579 157.143 91.7429C155.863 92.4269 154.693 92.2599 153.643 91.2429C153.283 94.2869 152.613 94.6209 151.643 92.2429C150.743 93.5129 149.573 94.5129 148.143 95.2429C148.353 95.8289 148.683 96.3289 149.143 96.7429C145.573 97.4429 142.743 99.2759 140.643 102.243C138.713 104.162 138.873 105.662 141.143 106.743C140.193 108.698 138.853 110.365 137.143 111.743C137.833 112.81 138.333 113.977 138.643 115.243C139.643 112.808 140.143 113.141 140.143 116.243C139.573 117.947 139.573 119.447 140.143 120.743C139.263 121.451 138.593 122.285 138.143 123.243C133.143 123.243 128.143 123.243 123.143 123.243C123.972 128.196 124.306 133.196 124.143 138.243C121.701 137.049 119.534 135.049 117.643 132.243C117.143 131.243 116.643 130.243 116.143 129.243C117.461 126.831 117.294 124.497 115.643 122.243C115.31 123.243 114.976 124.243 114.643 125.243C113.03 122.893 112.197 120.56 112.143 118.243C111.557 118.034 111.057 117.7 110.643 117.243C110.394 118.367 109.894 119.367 109.143 120.243C106.993 118.594 104.993 116.761 103.143 114.743C100.984 113.831 98.8176 112.998 96.6426 112.243C96.3096 112.91 95.9756 113.576 95.6426 114.243C94.9686 113.165 93.9686 112.498 92.6426 112.243C91.1056 112.857 89.7726 112.857 88.6426 112.243C87.0576 113.119 86.0576 114.452 85.6426 116.243C85.3346 115.435 84.8346 114.768 84.1426 114.243C83.0526 115.134 83.0526 116.134 84.1426 117.243C83.2666 117.994 82.2666 118.494 81.1426 118.743C81.7516 120.801 82.7516 121.634 84.1426 121.243C81.6846 121.867 80.0186 123.367 79.1426 125.743C80.2766 126.759 79.9436 127.426 78.1426 127.743C78.4756 128.076 78.8096 128.41 79.1426 128.743C77.4016 130.363 75.5676 131.863 73.6426 133.243C73.3096 132.576 72.9756 131.91 72.6426 131.243C72.2206 134.793 70.2206 136.793 66.6426 137.243C66.3096 136.576 65.9756 135.91 65.6426 135.243C63.8156 137.205 61.8156 137.872 59.6426 137.243C56.5866 137.82 53.5866 138.486 50.6426 139.243C50.3096 138.576 49.9756 137.91 49.6426 137.243C47.2666 140.948 44.6006 140.948 41.6426 137.243C41.3096 137.576 40.9756 137.91 40.6426 138.243C37.1686 135.264 34.6686 131.597 33.1426 127.243C33.3516 126.657 33.6856 126.157 34.1426 125.743C32.8866 125.326 32.2196 124.493 32.1426 123.243C35.1426 123.243 38.1426 123.243 41.1426 123.243C42.6486 117.012 43.3156 110.679 43.1426 104.243C50.1426 104.243 57.1426 104.243 64.1426 104.243C64.6566 97.9209 64.9896 91.5879 65.1426 85.2429C65.1426 84.9099 65.1426 84.5759 65.1426 84.2429C71.8096 84.2429 78.4756 84.2429 85.1426 84.2429C85.1426 70.5759 85.1426 56.9099 85.1426 43.2429C85.1426 42.9099 85.1426 42.5759 85.1426 42.2429C91.1426 42.2429 97.1426 42.2429 103.143 42.2429C97.6676 43.2319 92.0006 43.5649 86.1426 43.2429C85.9756 56.5799 86.1426 69.9139 86.6426 83.2429C92.8086 84.5569 98.9756 84.5569 105.143 83.2429C111.152 83.4089 117.152 83.2419 123.143 82.7429C123.907 80.6739 124.407 78.5069 124.643 76.2429C125.73 78.6749 126.23 78.3409 126.143 75.2429C131.803 73.9019 137.143 71.0689 142.143 66.7429C143.903 66.5409 145.563 66.0409 147.143 65.2429C147.823 62.8539 148.653 60.5209 149.643 58.2429C149.973 58.5759 150.313 58.9099 150.643 59.2429C155.103 55.0929 160.273 52.0929 166.143 50.2429C166.883 51.6509 167.723 52.9839 168.643 54.2429C170.503 54.8239 172.173 54.1569 173.643 52.2429C174.413 52.3879 175.083 52.7209 175.643 53.2429C180.263 50.7839 184.423 47.7839 188.143 44.2429C186.693 43.5709 185.363 42.9039 184.143 42.2429C184.143 37.5759 184.143 32.9099 184.143 28.2429Z" fill="#C5C8C8"/>
<path fill-rule="evenodd" clip-rule="evenodd" d="M184.143 42.2429C185.363 42.9039 186.693 43.5709 188.143 44.2429C184.423 47.7839 180.263 50.7839 175.643 53.2429C175.083 52.7209 174.413 52.3879 173.643 52.2429C172.173 54.1569 170.503 54.8239 168.643 54.2429C167.723 52.9839 166.883 51.6509 166.143 50.2429C160.273 52.0929 155.103 55.0929 150.643 59.2429C150.313 58.9099 149.973 58.5759 149.643 58.2429C148.653 60.5209 147.823 62.8539 147.143 65.2429C145.563 66.0409 143.903 66.5409 142.143 66.7429C137.143 71.0689 131.803 73.9019 126.143 75.2429C126.23 78.3409 125.73 78.6749 124.643 76.2429C124.407 78.5069 123.907 80.6739 123.143 82.7429C117.152 83.2419 111.152 83.4089 105.143 83.2429C105.143 76.5759 105.143 69.9099 105.143 63.2429C118.476 63.2429 131.813 63.2429 145.143 63.2429C145.143 56.5759 145.143 49.9099 145.143 43.2429C158.153 43.2029 171.153 42.8689 184.143 42.2429Z" fill="#CCCBC5"/>
<path fill-rule="evenodd" clip-rule="evenodd" d="M103.143 42.2429C103.476 42.2429 103.81 42.2429 104.143 42.2429C104.476 42.2429 104.81 42.2429 105.143 42.2429C105.143 49.2429 105.143 56.2429 105.143 63.2429C105.143 69.9099 105.143 76.5759 105.143 83.2429C98.9757 84.5569 92.8087 84.5569 86.6427 83.2429C86.1427 69.9139 85.9757 56.5799 86.1427 43.2429C92.0007 43.5649 97.6677 43.2319 103.143 42.2429Z" fill="#AAB0BB"/>
<path fill-rule="evenodd" clip-rule="evenodd" d="M245.143 84.2429C258.813 84.2429 272.473 84.2429 286.143 84.2429C286.143 90.5759 286.143 96.9099 286.143 103.243C292.903 102.95 299.563 103.283 306.143 104.243C306.143 104.91 306.143 105.576 306.143 106.243C305.153 111.718 304.823 117.385 305.143 123.243C298.813 123.243 292.473 123.243 286.143 123.243C286.143 129.91 286.143 136.576 286.143 143.243C279.143 143.243 272.143 143.243 265.143 143.243C265.143 149.91 265.143 156.576 265.143 163.243C252.143 163.243 239.143 163.243 226.143 163.243C226.143 156.576 226.143 149.91 226.143 143.243C226.983 139.749 226.983 136.083 226.143 132.243C226.683 134.785 228.013 136.951 230.143 138.743C234.143 139.076 238.143 139.41 242.143 139.743C238.613 140.622 237.783 142.455 239.643 145.243C239.973 144.576 240.313 143.91 240.643 143.243C241.033 144.171 241.693 144.838 242.643 145.243C244.913 144.8 247.083 143.466 249.143 141.243C250.343 141.589 250.343 142.089 249.143 142.743C253.003 143.141 255.663 141.474 257.143 137.743C256.813 137.41 256.473 137.076 256.143 136.743C257.383 136.287 258.223 136.787 258.643 138.243C259.143 137.743 259.643 137.243 260.143 136.743C257.913 135.774 255.913 134.441 254.143 132.743C256.313 131.243 258.143 129.41 259.643 127.243C263.113 128.671 263.613 128.171 261.143 125.743C263.683 123.538 265.853 121.038 267.643 118.243C268.793 119.201 269.793 118.868 270.643 117.243C271.013 118.159 271.513 118.993 272.143 119.743C268.223 121.461 268.563 122.628 273.143 123.243C274.123 122.766 274.953 122.1 275.643 121.243C276.903 118.282 278.073 115.282 279.143 112.243C278.463 109.282 277.623 108.948 276.643 111.243C275.973 109.91 275.973 108.576 276.643 107.243C276.973 107.576 277.313 107.91 277.643 108.243C278.313 107.243 278.313 106.243 277.643 105.243C275.643 103.91 273.643 103.91 271.643 105.243C270.313 103.91 268.973 102.576 267.643 101.243C267.663 94.4189 264.493 91.4189 258.143 92.2429C253.373 92.9189 249.043 93.9189 245.143 95.2429C245.143 91.5759 245.143 87.9099 245.143 84.2429Z" fill="#C3CACF"/>
<path opacity="0.056" fill-rule="evenodd" clip-rule="evenodd" d="M2.14233 86.2429C2.14233 86.9099 2.47533 87.2429 3.14233 87.2429C3.14233 112.91 3.14233 138.576 3.14233 164.243C2.47533 164.243 2.14233 164.576 2.14233 165.243C0.809328 138.91 0.809328 112.576 2.14233 86.2429Z" fill="#C6D0ED"/>
<path fill-rule="evenodd" clip-rule="evenodd" d="M23.1426 85.2429C23.1426 84.9099 23.1426 84.5759 23.1426 84.2429C29.1426 84.2429 35.1426 84.2429 41.1426 84.2429C41.1426 84.5759 41.1426 84.9099 41.1426 85.2429C38.5436 85.2919 36.3766 86.2919 34.6426 88.2429C31.8756 92.9039 29.7096 97.7369 28.1426 102.743C28.8096 103.076 29.4756 103.41 30.1426 103.743C29.0696 105.056 28.4026 106.556 28.1426 108.243C28.1016 113.098 28.4346 118.098 29.1426 123.243C30.1426 123.243 31.1426 123.243 32.1426 123.243C32.2196 124.493 32.8866 125.326 34.1426 125.743C33.6856 126.157 33.3516 126.657 33.1426 127.243C34.6686 131.597 37.1686 135.264 40.6426 138.243C40.9756 137.91 41.3096 137.576 41.6426 137.243C44.6006 140.948 47.2666 140.948 49.6426 137.243C49.9756 137.91 50.3096 138.576 50.6426 139.243C53.5866 138.486 56.5866 137.82 59.6426 137.243C61.8156 137.872 63.8156 137.205 65.6426 135.243C65.9756 135.91 66.3096 136.576 66.6426 137.243C70.2206 136.793 72.2206 134.793 72.6426 131.243C72.9756 131.91 73.3096 132.576 73.6426 133.243C75.5676 131.863 77.4016 130.363 79.1426 128.743C78.8096 128.41 78.4756 128.076 78.1426 127.743C79.9436 127.426 80.2766 126.759 79.1426 125.743C80.0186 123.367 81.6846 121.867 84.1426 121.243C82.7516 121.634 81.7516 120.801 81.1426 118.743C82.2666 118.494 83.2666 117.994 84.1426 117.243C83.0526 116.134 83.0526 115.134 84.1426 114.243C84.8346 114.768 85.3346 115.435 85.6426 116.243C86.0576 114.452 87.0576 113.119 88.6426 112.243C89.7726 112.857 91.1056 112.857 92.6426 112.243C93.9686 112.498 94.9686 113.165 95.6426 114.243C95.9756 113.576 96.3096 112.91 96.6426 112.243C98.8176 112.998 100.984 113.831 103.143 114.743C104.993 116.761 106.993 118.594 109.143 120.243C109.894 119.367 110.394 118.367 110.643 117.243C111.057 117.7 111.557 118.034 112.143 118.243C112.197 120.56 113.03 122.893 114.643 125.243C114.976 124.243 115.31 123.243 115.643 122.243C117.294 124.497 117.461 126.831 116.143 129.243C116.643 130.243 117.143 131.243 117.643 132.243C119.534 135.049 121.701 137.049 124.143 138.243C124.143 139.91 124.143 141.576 124.143 143.243C117.476 143.243 110.81 143.243 104.143 143.243C103.81 143.243 103.476 143.243 103.143 143.243C103.143 136.91 103.143 130.576 103.143 124.243C96.8096 124.243 90.4756 124.243 84.1426 124.243C84.1426 130.576 84.1426 136.91 84.1426 143.243C77.1426 143.243 70.1426 143.243 63.1426 143.243C50.1426 143.243 37.1426 143.243 24.1426 143.243C24.4726 123.736 24.1396 104.402 23.1426 85.2429Z" fill="#C3CBD3"/>
<path fill-rule="evenodd" clip-rule="evenodd" d="M226.143 132.243C225.163 129.456 224.833 126.456 225.143 123.243C218.813 123.243 212.473 123.243 206.143 123.243C206.143 122.91 206.143 122.576 206.143 122.243C212.473 122.243 218.813 122.243 225.143 122.243C225.143 115.91 225.143 109.576 225.143 103.243C225.473 103.243 225.813 103.243 226.143 103.243C226.143 102.91 226.143 102.576 226.143 102.243C232.473 102.243 238.813 102.243 245.143 102.243C245.143 99.9098 245.143 97.5758 245.143 95.2428C249.043 93.9188 253.373 92.9188 258.143 92.2428C264.493 91.4188 267.663 94.4188 267.643 101.243C268.973 102.576 270.313 103.91 271.643 105.243C273.643 103.91 275.643 103.91 277.643 105.243C278.313 106.243 278.313 107.243 277.643 108.243C277.313 107.91 276.973 107.576 276.643 107.243C275.973 108.576 275.973 109.91 276.643 111.243C277.623 108.948 278.463 109.282 279.143 112.243C278.073 115.282 276.903 118.282 275.643 121.243C274.953 122.1 274.123 122.766 273.143 123.243C268.563 122.628 268.223 121.461 272.143 119.743C271.513 118.993 271.013 118.159 270.643 117.243C269.793 118.868 268.793 119.201 267.643 118.243C265.853 121.038 263.683 123.538 261.143 125.743C263.613 128.171 263.113 128.671 259.643 127.243C258.143 129.41 256.313 131.243 254.143 132.743C255.913 134.441 257.913 135.774 260.143 136.743C259.643 137.243 259.143 137.743 258.643 138.243C258.223 136.787 257.383 136.287 256.143 136.743C256.473 137.076 256.813 137.41 257.143 137.743C255.663 141.474 253.003 143.141 249.143 142.743C250.343 142.089 250.343 141.589 249.143 141.243C247.083 143.466 244.913 144.8 242.643 145.243C241.693 144.838 241.033 144.171 240.643 143.243C240.313 143.91 239.973 144.576 239.643 145.243C237.783 142.455 238.613 140.622 242.143 139.743C238.143 139.41 234.143 139.076 230.143 138.743C228.013 136.951 226.683 134.785 226.143 132.243Z" fill="#C7C9C6"/>
<path fill-rule="evenodd" clip-rule="evenodd" d="M226.143 103.243C232.503 103.15 238.843 103.483 245.143 104.243C245.143 110.576 245.143 116.91 245.143 123.243C238.813 123.243 232.473 123.243 226.143 123.243C226.143 116.576 226.143 109.91 226.143 103.243Z" fill="#E9EAE4"/>
<path fill-rule="evenodd" clip-rule="evenodd" d="M2.14258 83.243C9.32958 82.918 16.3296 83.252 23.1426 84.243C23.1426 84.576 23.1426 84.91 23.1426 85.243C23.1426 111.243 23.1426 137.243 23.1426 163.243C23.1426 163.576 23.1426 163.91 23.1426 164.243C16.4756 164.243 9.80958 164.243 3.14258 164.243C3.14258 138.576 3.14258 112.91 3.14258 87.243C2.47558 87.243 2.14258 86.91 2.14258 86.243C2.14258 85.576 2.14258 84.91 2.14258 84.243C2.14258 83.91 2.14258 83.576 2.14258 83.243Z" fill="#24324F"/>
<path fill-rule="evenodd" clip-rule="evenodd" d="M225.143 103.243C225.143 109.576 225.143 115.91 225.143 122.243C218.813 122.243 212.473 122.243 206.143 122.243C206.143 115.91 206.143 109.576 206.143 103.243C212.473 103.243 218.813 103.243 225.143 103.243Z" fill="#9FAAB5"/>
<path fill-rule="evenodd" clip-rule="evenodd" d="M138.143 123.243C140.143 123.243 142.143 123.243 144.143 123.243C145.133 129.722 145.463 136.389 145.143 143.243C138.143 143.243 131.143 143.243 124.143 143.243C124.143 141.576 124.143 139.91 124.143 138.243C124.306 133.196 123.972 128.196 123.143 123.243C128.143 123.243 133.143 123.243 138.143 123.243Z" fill="#DBE1E3"/>
<path fill-rule="evenodd" clip-rule="evenodd" d="M206.143 123.243C212.473 123.243 218.813 123.243 225.143 123.243C224.833 126.456 225.163 129.456 226.143 132.243C226.983 136.083 226.983 139.749 226.143 143.243C212.473 143.243 198.813 143.243 185.143 143.243C185.143 136.576 185.143 129.91 185.143 123.243C192.143 123.243 199.143 123.243 206.143 123.243Z" fill="#D5DADB"/>
<path fill-rule="evenodd" clip-rule="evenodd" d="M206.143 63.2429C206.013 70.0839 204.673 76.5839 202.143 82.7429C196.473 83.2739 190.803 83.7739 185.143 84.2429C186.183 90.2759 186.183 96.2759 185.143 102.243C176.083 102.859 167.083 103.859 158.143 105.243C153.653 110.384 150.653 116.217 149.143 122.743C151.843 124.689 154.173 124.189 156.143 121.243C157.363 122.006 158.363 123.006 159.143 124.243C160.073 123.102 160.903 123.102 161.643 124.243C162.733 123.45 163.893 122.783 165.143 122.243C178.633 122.286 192.293 122.286 206.143 122.243C206.143 122.576 206.143 122.91 206.143 123.243C199.143 123.243 192.143 123.243 185.143 123.243C185.143 129.91 185.143 136.576 185.143 143.243C178.793 143.3 172.463 143.633 166.143 144.243C165.073 150.56 165.073 156.893 166.143 163.243C175.943 163.77 185.613 162.937 195.143 160.743C194.143 160.41 193.143 160.076 192.143 159.743C192.813 159.576 193.473 159.41 194.143 159.243C201.163 159.784 208.333 159.784 215.643 159.243C217.583 160.606 219.753 161.44 222.143 161.743C221.813 162.076 221.473 162.41 221.143 162.743C222.773 163.237 224.443 163.403 226.143 163.243C239.143 163.243 252.143 163.243 265.143 163.243C265.143 156.576 265.143 149.91 265.143 143.243C272.143 143.243 279.143 143.243 286.143 143.243C286.143 149.91 286.143 156.576 286.143 163.243C245.443 164.516 204.773 164.516 164.143 163.243C163.213 164.856 162.383 166.522 161.643 168.243C160.013 167.889 158.183 167.889 156.143 168.243C155.243 167.145 154.413 167.145 153.643 168.243C153.313 167.576 152.973 166.91 152.643 166.243C149.783 166.784 147.783 165.45 146.643 162.243C132.553 163.233 118.388 163.567 104.143 163.243C104.143 156.576 104.143 149.91 104.143 143.243C110.81 143.243 117.476 143.243 124.143 143.243C131.143 143.243 138.143 143.243 145.143 143.243C145.463 136.389 145.133 129.722 144.143 123.243C144.143 116.576 144.143 109.91 144.143 103.243C151.143 103.243 158.143 103.243 165.143 103.243C165.123 96.8859 165.453 90.5529 166.143 84.2429C172.533 84.5359 178.873 84.2029 185.143 83.2429C186.143 76.6089 186.473 69.9429 186.143 63.2429C192.813 63.2429 199.473 63.2429 206.143 63.2429Z" fill="#94A6B8"/>
<path fill-rule="evenodd" clip-rule="evenodd" d="M103.143 143.243C103.467 147.298 103.134 151.298 102.143 155.243C98.1475 152.348 96.1475 148.682 96.1425 144.243C94.5835 143.669 93.0835 143.003 91.6425 142.243C88.6465 143.033 85.8135 144.199 83.1425 145.743C83.8095 146.076 84.4755 146.41 85.1425 146.743C83.8095 148.076 82.4755 149.41 81.1425 150.743C79.0445 150.757 77.2115 150.59 75.6425 150.243C72.8885 151.87 70.0545 153.37 67.1425 154.743C65.5935 155.957 64.4275 157.457 63.6425 159.243C63.1525 157.95 62.9855 156.616 63.1425 155.243C63.1425 151.243 63.1425 147.243 63.1425 143.243C70.1425 143.243 77.1425 143.243 84.1425 143.243C84.1425 136.91 84.1425 130.576 84.1425 124.243C90.4755 124.243 96.8095 124.243 103.143 124.243C103.143 130.576 103.143 136.91 103.143 143.243Z" fill="#8598AA"/>
<path fill-rule="evenodd" clip-rule="evenodd" d="M23.1426 85.2429C24.1396 104.402 24.4726 123.736 24.1426 143.243C37.1426 143.243 50.1426 143.243 63.1426 143.243C63.1426 147.243 63.1426 151.243 63.1426 155.243C62.3336 157.035 61.8336 159.035 61.6426 161.243C60.5756 161.934 59.4086 162.434 58.1426 162.743C46.4806 163.243 34.8136 163.41 23.1426 163.243C23.1426 137.243 23.1426 111.243 23.1426 85.2429Z" fill="#9CACC3"/>
<path fill-rule="evenodd" clip-rule="evenodd" d="M306.143 104.243C308.813 104.243 311.473 104.243 314.143 104.243C312.693 105.045 311.023 105.545 309.143 105.743C311.143 106.076 313.143 106.41 315.143 106.743C314.813 107.076 314.473 107.41 314.143 107.743C315.253 109.192 316.253 110.526 317.143 111.743C316.813 112.076 316.473 112.41 316.143 112.743C318.243 115.552 320.243 117.718 322.143 119.243C321.503 120.389 320.663 121.389 319.643 122.243C319.433 124.602 319.273 126.769 319.143 128.743C320.453 130.765 321.783 132.765 323.143 134.743C322.693 136.028 322.023 137.195 321.143 138.243C322.023 138.994 323.023 139.494 324.143 139.743C324.123 144.377 324.123 149.044 324.143 153.743C324.013 154.802 323.513 155.635 322.643 156.243C322.223 155.071 321.553 154.071 320.643 153.243C319.633 154.768 319.133 156.435 319.143 158.243C315.113 160.307 310.783 161.64 306.143 162.243C305.833 163.051 305.333 163.718 304.643 164.243C304.313 167.91 303.973 171.576 303.643 175.243C303.313 174.91 302.973 174.576 302.643 174.243C299.313 178.338 295.973 178.672 292.643 175.243C292.313 175.91 291.973 176.576 291.643 177.243C282.803 177.373 274.133 177.373 265.643 177.243C264.313 178.237 262.983 179.237 261.643 180.243C259.073 178.384 256.243 177.551 253.143 177.743C253.813 178.076 254.473 178.41 255.143 178.743C251.693 180.119 248.523 179.952 245.643 178.243C243.883 178.718 242.213 179.385 240.643 180.243C233.123 177.624 225.453 176.291 217.643 176.243C215.493 178.201 213.163 178.534 210.643 177.243C209.583 178.642 208.253 179.642 206.643 180.243C201.953 177.991 197.123 177.657 192.143 179.243C192.153 178.302 191.653 177.635 190.643 177.243C190.073 178.097 189.403 179.097 188.643 180.243C187.413 179.128 186.243 179.128 185.143 180.243C181.893 177.312 178.223 176.646 174.143 178.243C171.603 177.628 169.103 176.961 166.643 176.243C164.973 178.91 163.313 178.91 161.643 176.243C159.663 176.697 157.323 177.03 154.643 177.243C152.593 177.052 150.763 176.385 149.143 175.243C148.313 176.243 147.473 177.243 146.643 178.243C140.123 177.891 133.463 177.225 126.643 176.243C125.31 176.91 123.976 177.576 122.643 178.243C116.216 177.771 109.883 176.771 103.643 175.243C100.903 176.025 98.0686 176.525 95.1426 176.743C96.3386 177.397 96.3386 177.897 95.1426 178.243C94.4506 177.718 93.9506 177.051 93.6426 176.243C93.3096 176.576 92.9756 176.91 92.6426 177.243C88.2106 175.817 83.7106 174.484 79.1426 173.243C78.1426 174.576 77.1426 174.576 76.1426 173.243C74.6416 174.495 72.9746 175.495 71.1426 176.243C71.1586 172.564 69.8256 172.397 67.1426 175.743C64.5476 175.969 62.0476 176.469 59.6426 177.243C59.2746 175.833 58.4416 174.833 57.1426 174.243C57.3356 175.431 56.8356 176.765 55.6426 178.243C54.3096 176.91 52.9756 175.576 51.6426 174.243C49.8636 175.222 48.1976 174.889 46.6426 173.243C46.4566 170.843 45.9566 168.509 45.1426 166.243C44.1466 172.206 43.8136 178.206 44.1426 184.243C43.8096 184.243 43.4756 184.243 43.1426 184.243C43.1426 177.576 43.1426 170.91 43.1426 164.243C36.4756 164.243 29.8096 164.243 23.1426 164.243C23.1426 163.91 23.1426 163.576 23.1426 163.243C34.8136 163.41 46.4806 163.243 58.1426 162.743C59.4086 162.434 60.5756 161.934 61.6426 161.243C61.8336 159.035 62.3336 157.035 63.1426 155.243C62.9856 156.616 63.1526 157.95 63.6426 159.243C64.4276 157.457 65.5936 155.957 67.1426 154.743C70.0546 153.37 72.8886 151.87 75.6426 150.243C77.2116 150.59 79.0446 150.757 81.1426 150.743C82.4756 149.41 83.8096 148.076 85.1426 146.743C84.4756 146.41 83.8096 146.076 83.1426 145.743C85.8136 144.199 88.6466 143.033 91.6426 142.243C93.0836 143.003 94.5836 143.669 96.1426 144.243C96.1476 148.682 98.1476 152.348 102.143 155.243C103.134 151.298 103.467 147.298 103.143 143.243C103.476 143.243 103.81 143.243 104.143 143.243C104.143 149.91 104.143 156.576 104.143 163.243C118.388 163.567 132.553 163.233 146.643 162.243C147.783 165.45 149.783 166.784 152.643 166.243C152.973 166.91 153.313 167.576 153.643 168.243C154.413 167.145 155.243 167.145 156.143 168.243C158.873 170.28 161.543 170.28 164.143 168.243C165.033 169.068 165.363 170.068 165.143 171.243C170.603 171.231 176.103 172.231 181.643 174.243C183.513 173.708 185.183 173.708 186.643 174.243C186.973 173.576 187.313 172.91 187.643 172.243C191.133 173.697 194.473 173.364 197.643 171.243C197.953 172.051 198.453 172.718 199.143 173.243C202.613 172.048 206.113 172.048 209.643 173.243C210.973 172.576 212.313 171.91 213.643 171.243C217.433 171.973 221.273 172.473 225.143 172.743C224.813 173.076 224.473 173.41 224.143 173.743C225.513 174.145 226.853 174.645 228.143 175.243C232.023 172.614 235.853 172.281 239.643 174.243C241.373 173.167 243.203 173 245.143 173.743C244.813 174.076 244.473 174.41 244.143 174.743C246.073 174.994 247.913 175.494 249.643 176.243C250.633 174.804 251.963 173.804 253.643 173.243C256.823 172.981 260.163 173.314 263.643 174.243C264.903 173.984 265.903 173.317 266.643 172.243C275.403 173.051 283.573 171.051 291.143 166.243C290.263 165.492 289.263 164.992 288.143 164.743C291.373 163.019 291.703 161.019 289.143 158.743C290.463 158.891 291.633 158.725 292.643 158.243C292.993 156.525 293.493 154.858 294.143 153.243C292.793 152.068 292.953 151.068 294.643 150.243C294.973 150.576 295.313 150.91 295.643 151.243C298.293 146.926 301.633 143.259 305.643 140.243C306.143 128.915 306.313 117.581 306.143 106.243C306.143 105.576 306.143 104.91 306.143 104.243Z" fill="#7E97B6"/>
<path fill-rule="evenodd" clip-rule="evenodd" d="M185.142 143.243C198.812 143.243 212.472 143.243 226.142 143.243C226.142 149.91 226.142 156.576 226.142 163.243C224.442 163.403 222.772 163.237 221.142 162.743C221.472 162.41 221.812 162.076 222.142 161.743C219.752 161.44 217.582 160.606 215.642 159.243C208.332 159.784 201.162 159.784 194.142 159.243C193.472 159.41 192.812 159.576 192.142 159.743C193.142 160.076 194.142 160.41 195.142 160.743C185.612 162.937 175.942 163.77 166.142 163.243C165.072 156.893 165.072 150.56 166.142 144.243C172.462 143.633 178.792 143.3 185.142 143.243Z" fill="#A6B3C0"/>
<path opacity="0.01" fill-rule="evenodd" clip-rule="evenodd" d="M327.143 165.243C333.953 164.252 340.953 163.918 348.143 164.243C349.493 165.393 349.323 166.06 347.643 166.243C340.803 166.418 333.973 166.085 327.143 165.243Z" fill="#ACB5D5"/>
<path opacity="0.026" fill-rule="evenodd" clip-rule="evenodd" d="M3.14258 164.243C9.80958 164.243 16.4756 164.243 23.1426 164.243C23.1426 170.91 23.1426 177.576 23.1426 184.243C22.1466 184.157 21.3136 184.491 20.6426 185.243C19.8326 178.661 19.9996 172.161 21.1426 165.743C14.6616 165.674 8.32858 165.507 2.14258 165.243C2.80958 165.243 3.14258 164.91 3.14258 164.243Z" fill="#B4BDDA"/>
<path fill-rule="evenodd" clip-rule="evenodd" d="M306.143 106.243C306.313 117.581 306.143 128.915 305.643 140.243C301.633 143.259 298.293 146.926 295.643 151.243C295.313 150.91 294.973 150.576 294.643 150.243C292.953 151.068 292.793 152.068 294.143 153.243C293.493 154.858 292.993 156.525 292.643 158.243C291.633 158.725 290.463 158.891 289.143 158.743C291.703 161.019 291.373 163.019 288.143 164.743C289.263 164.992 290.263 165.492 291.143 166.243C283.573 171.051 275.403 173.051 266.643 172.243C265.903 173.317 264.903 173.984 263.643 174.243C260.163 173.314 256.823 172.981 253.643 173.243C251.963 173.804 250.633 174.804 249.643 176.243C247.913 175.494 246.073 174.994 244.143 174.743C244.473 174.41 244.813 174.076 245.143 173.743C243.203 173 241.373 173.167 239.643 174.243C235.853 172.281 232.023 172.614 228.143 175.243C226.853 174.645 225.513 174.145 224.143 173.743C224.473 173.41 224.813 173.076 225.143 172.743C221.273 172.473 217.433 171.973 213.643 171.243C212.313 171.91 210.973 172.576 209.643 173.243C206.113 172.048 202.613 172.048 199.143 173.243C198.453 172.718 197.953 172.051 197.643 171.243C194.473 173.364 191.133 173.697 187.643 172.243C187.313 172.91 186.973 173.576 186.643 174.243C185.183 173.708 183.513 173.708 181.643 174.243C176.103 172.231 170.603 171.231 165.143 171.243C165.363 170.068 165.033 169.068 164.143 168.243C161.543 170.28 158.873 170.28 156.143 168.243C158.183 167.889 160.013 167.889 161.643 168.243C162.383 166.522 163.213 164.856 164.143 163.243C204.773 164.516 245.443 164.516 286.143 163.243C286.143 156.576 286.143 149.91 286.143 143.243C286.143 136.576 286.143 129.91 286.143 123.243C292.473 123.243 298.813 123.243 305.143 123.243C304.823 117.385 305.153 111.718 306.143 106.243Z" fill="#859AB1"/>
<path opacity="0.999" fill-rule="evenodd" clip-rule="evenodd" d="M348.143 104.243C348.143 124.243 348.143 144.243 348.143 164.243C340.953 163.918 333.953 164.252 327.143 165.243C327.143 171.576 327.143 177.91 327.143 184.243C320.473 184.243 313.813 184.243 307.143 184.243C307.143 177.243 307.143 170.243 307.143 163.243C313.813 163.243 320.473 163.243 327.143 163.243C327.143 143.576 327.143 123.91 327.143 104.243C334.143 104.243 341.143 104.243 348.143 104.243Z" fill="#203355"/>
<path fill-rule="evenodd" clip-rule="evenodd" d="M23.1426 164.243C29.8096 164.243 36.4756 164.243 43.1426 164.243C43.1426 170.91 43.1426 177.576 43.1426 184.243C42.8096 184.243 42.4756 184.243 42.1426 184.243C35.8096 184.243 29.4756 184.243 23.1426 184.243C23.1426 177.576 23.1426 170.91 23.1426 164.243Z" fill="#20324F"/>
<path fill-rule="evenodd" clip-rule="evenodd" d="M326.143 84.2429C326.973 90.3959 327.473 96.7299 327.643 103.243C334.733 102.097 341.893 101.931 349.143 102.743C348.583 103.126 348.253 103.626 348.143 104.243C341.143 104.243 334.143 104.243 327.143 104.243C327.143 123.91 327.143 143.576 327.143 163.243C320.473 163.243 313.813 163.243 307.143 163.243C307.143 170.243 307.143 177.243 307.143 184.243C307.243 191.491 307.243 198.491 307.143 205.243C307.143 204.576 306.813 204.243 306.143 204.243C306.463 197.389 306.133 190.722 305.143 184.243C218.143 184.243 131.143 184.243 44.1426 184.243C43.8136 178.206 44.1466 172.206 45.1426 166.243C45.9566 168.509 46.4566 170.843 46.6426 173.243C48.1976 174.889 49.8636 175.222 51.6426 174.243C52.9756 175.576 54.3096 176.91 55.6426 178.243C56.8356 176.765 57.3356 175.431 57.1426 174.243C58.4416 174.833 59.2746 175.833 59.6426 177.243C62.0476 176.469 64.5476 175.969 67.1426 175.743C69.8256 172.397 71.1586 172.564 71.1426 176.243C72.9746 175.495 74.6416 174.495 76.1426 173.243C77.1426 174.576 78.1426 174.576 79.1426 173.243C83.7106 174.484 88.2106 175.817 92.6426 177.243C92.9756 176.91 93.3096 176.576 93.6426 176.243C93.9506 177.051 94.4506 177.718 95.1426 178.243C96.3386 177.897 96.3386 177.397 95.1426 176.743C98.0686 176.525 100.903 176.025 103.643 175.243C109.883 176.771 116.216 177.771 122.643 178.243C123.976 177.576 125.31 176.91 126.643 176.243C133.463 177.225 140.123 177.891 146.643 178.243C147.473 177.243 148.313 176.243 149.143 175.243C150.763 176.385 152.593 177.052 154.643 177.243C157.323 177.03 159.663 176.697 161.643 176.243C163.313 178.91 164.973 178.91 166.643 176.243C169.103 176.961 171.603 177.628 174.143 178.243C178.223 176.646 181.893 177.312 185.143 180.243C186.243 179.128 187.413 179.128 188.643 180.243C189.403 179.097 190.073 178.097 190.643 177.243C191.653 177.635 192.153 178.302 192.143 179.243C197.123 177.657 201.953 177.991 206.643 180.243C208.253 179.642 209.583 178.642 210.643 177.243C213.163 178.534 215.493 178.201 217.643 176.243C225.453 176.291 233.123 177.624 240.643 180.243C242.213 179.385 243.883 178.718 245.643 178.243C248.523 179.952 251.693 180.119 255.143 178.743C254.473 178.41 253.813 178.076 253.143 177.743C256.243 177.551 259.073 178.384 261.643 180.243C262.983 179.237 264.313 178.237 265.643 177.243C274.133 177.373 282.803 177.373 291.643 177.243C291.973 176.576 292.313 175.91 292.643 175.243C295.973 178.672 299.313 178.338 302.643 174.243C302.973 174.576 303.313 174.91 303.643 175.243C303.973 171.576 304.313 167.91 304.643 164.243C305.333 163.718 305.833 163.051 306.143 162.243C310.783 161.64 315.113 160.307 319.143 158.243C319.133 156.435 319.633 154.768 320.643 153.243C321.553 154.071 322.223 155.071 322.643 156.243C323.513 155.635 324.013 154.802 324.143 153.743C324.123 149.044 324.123 144.377 324.143 139.743C323.023 139.494 322.023 138.994 321.143 138.243C322.023 137.195 322.693 136.028 323.143 134.743C321.783 132.765 320.453 130.765 319.143 128.743C319.273 126.769 319.433 124.602 319.643 122.243C320.663 121.389 321.503 120.389 322.143 119.243C320.243 117.718 318.243 115.552 316.143 112.743C316.473 112.41 316.813 112.076 317.143 111.743C316.253 110.526 315.253 109.192 314.143 107.743C314.473 107.41 314.813 107.076 315.143 106.743C313.143 106.41 311.143 106.076 309.143 105.743C311.023 105.545 312.693 105.045 314.143 104.243C318.143 104.243 322.143 104.243 326.143 104.243C326.143 97.5759 326.143 90.9099 326.143 84.2429Z" fill="#869EC5"/>
<path fill-rule="evenodd" clip-rule="evenodd" d="M44.1426 184.243C131.143 184.243 218.143 184.243 305.143 184.243C218.813 184.91 132.473 185.576 46.1426 186.243C44.8096 186.243 44.1426 185.576 44.1426 184.243Z" fill="#001C3D"/>
<path fill-rule="evenodd" clip-rule="evenodd" d="M43.1426 184.243C43.4756 184.243 43.8096 184.243 44.1426 184.243C44.1426 185.576 44.8096 186.243 46.1426 186.243C93.4776 186.076 140.813 186.243 188.143 186.743C192.473 187.076 196.813 187.41 201.143 187.743C202.143 189.743 203.143 189.743 204.143 187.743C214.813 187.076 225.473 187.076 236.143 187.743C235.513 188.493 235.013 189.327 234.643 190.243C234.313 189.91 233.973 189.576 233.643 189.243C232.093 190.889 230.423 191.222 228.643 190.243C224.143 190.912 219.643 191.745 215.143 192.743C221.683 194.854 221.343 195.521 214.143 194.743C212.583 194.425 211.413 193.592 210.643 192.243C210.163 193.191 209.993 194.191 210.143 195.243C208.143 195.243 206.143 195.243 204.143 195.243C204.143 194.243 204.143 193.243 204.143 192.243C201.713 192.266 199.383 192.766 197.143 193.743C198.543 195.085 198.213 195.919 196.143 196.243C194.233 197.291 192.403 197.291 190.643 196.243C188.533 198.076 186.033 199.242 183.143 199.743C179.143 200.076 175.143 200.41 171.143 200.743C128.27 201.228 85.6026 201.395 43.1426 201.243C43.1426 195.576 43.1426 189.91 43.1426 184.243Z" fill="#1A3459"/>
<path fill-rule="evenodd" clip-rule="evenodd" d="M305.143 184.243C306.133 190.722 306.463 197.389 306.143 204.243C266.143 204.243 226.143 204.243 186.143 204.243C138.303 203.908 90.6336 202.908 43.1426 201.243C85.6026 201.395 128.27 201.228 171.143 200.743C175.143 200.41 179.143 200.076 183.143 199.743C186.033 199.242 188.533 198.076 190.643 196.243C192.403 197.291 194.233 197.291 196.143 196.243C198.213 195.919 198.543 195.085 197.143 193.743C199.383 192.766 201.713 192.266 204.143 192.243C204.143 193.243 204.143 194.243 204.143 195.243C206.143 195.243 208.143 195.243 210.143 195.243C209.993 194.191 210.163 193.191 210.643 192.243C211.413 193.592 212.583 194.425 214.143 194.743C221.343 195.521 221.683 194.854 215.143 192.743C219.643 191.745 224.143 190.912 228.643 190.243C230.423 191.222 232.093 190.889 233.643 189.243C233.973 189.576 234.313 189.91 234.643 190.243C235.013 189.327 235.513 188.493 236.143 187.743C225.473 187.076 214.813 187.076 204.143 187.743C203.143 189.743 202.143 189.743 201.143 187.743C196.813 187.41 192.473 187.076 188.143 186.743C140.813 186.243 93.4776 186.076 46.1426 186.243C132.473 185.576 218.813 184.91 305.143 184.243Z" fill="#1B3254"/>
<path opacity="0.675" fill-rule="evenodd" clip-rule="evenodd" d="M42.1424 184.243C42.4754 184.243 42.8094 184.243 43.1424 184.243C43.1424 189.91 43.1424 195.576 43.1424 201.243C90.6334 202.908 138.302 203.908 186.142 204.243C138.102 203.915 90.1004 204.248 42.1424 205.243C42.0534 198.424 42.0534 191.424 42.1424 184.243Z" fill="#7185AC"/>
<path opacity="0.107" fill-rule="evenodd" clip-rule="evenodd" d="M186.143 204.243C226.143 204.243 266.143 204.243 306.143 204.243C306.813 204.243 307.143 204.576 307.143 205.243C266.853 205.463 226.523 205.796 186.143 206.243C185.183 205.773 185.183 205.106 186.143 204.243Z" fill="#AFBEDD"/>
<path opacity="0.016" fill-rule="evenodd" clip-rule="evenodd" d="M207.143 222.243C208.473 222.91 208.473 222.91 207.143 222.243Z" fill="#A1BBD2"/>
<path opacity="0.016" fill-rule="evenodd" clip-rule="evenodd" d="M166.143 224.243C165.473 222.91 165.473 222.91 166.143 224.243Z" fill="#BBE5FB"/>
<path opacity="0.016" fill-rule="evenodd" clip-rule="evenodd" d="M125.143 242.243C126.476 242.91 126.476 242.91 125.143 242.243Z" fill="#92B3CA"/>
<path opacity="0.012" fill-rule="evenodd" clip-rule="evenodd" d="M307.143 242.243C308.473 242.91 308.473 242.91 307.143 242.243Z" fill="#779FBA"/>
<path fill-rule="evenodd" clip-rule="evenodd" d="M307.143 243.243C307.143 250.243 307.143 257.243 307.143 264.243C300.143 264.243 293.143 264.243 286.143 264.243C286.143 257.243 286.143 250.243 286.143 243.243C279.803 243.409 273.463 243.243 267.143 242.743C266.163 236.333 265.833 229.833 266.143 223.243C268.483 222.592 270.823 221.925 273.143 221.243C278.053 221.683 282.893 222.349 287.643 223.243C287.973 222.91 288.313 222.576 288.643 222.243C288.223 229.158 288.053 236.158 288.143 243.243C294.473 243.243 300.813 243.243 307.143 243.243Z" fill="#6A91AB"/>
<path fill-rule="evenodd" clip-rule="evenodd" d="M83.1428 223.243C82.8318 229.833 83.1648 236.333 84.1428 242.743C91.1348 243.243 98.1348 243.409 105.143 243.243C104.977 249.918 105.143 256.585 105.643 263.243C111.719 264.219 117.885 264.553 124.143 264.243C124.143 264.91 124.476 265.243 125.143 265.243C119.075 266.569 112.909 266.569 106.643 265.243C105.834 271.492 106.001 277.659 107.143 283.743C106.618 284.435 105.951 284.935 105.143 285.243C97.7268 284.741 90.3938 284.741 83.1428 285.243C81.8698 284.486 81.8698 283.82 83.1428 283.243C90.4758 283.243 97.8098 283.243 105.143 283.243C105.143 276.91 105.143 270.576 105.143 264.243C98.4678 264.409 91.8008 264.243 85.1428 263.743C84.1648 257.333 83.8318 250.833 84.1428 244.243C77.4758 244.243 70.8098 244.243 64.1428 244.243C64.1428 250.91 64.1428 257.576 64.1428 264.243C62.6218 250.763 62.1218 237.096 62.6428 223.243C69.5648 224.381 76.3978 224.381 83.1428 223.243Z" fill="#ACD8F2"/>
<path opacity="0.04" fill-rule="evenodd" clip-rule="evenodd" d="M226.143 265.243C226.143 264.91 226.143 264.576 226.143 264.243C226.143 263.243 226.143 262.243 226.143 261.243C227.473 260.91 227.473 260.576 226.143 260.243C226.143 254.576 226.143 248.91 226.143 243.243C226.203 242.7 226.533 242.367 227.143 242.243C227.473 246.076 227.813 249.91 228.143 253.743C228.133 257.972 227.463 261.805 226.143 265.243Z" fill="#BDD7EB"/>
<path fill-rule="evenodd" clip-rule="evenodd" d="M125.142 243.243C125.393 251.04 125.393 258.373 125.142 265.243C124.475 265.243 124.142 264.91 124.142 264.243C117.884 264.553 111.718 264.219 105.642 263.243C105.142 256.585 104.976 249.918 105.142 243.243C98.1344 243.409 91.1344 243.243 84.1424 242.743C83.1644 236.333 82.8314 229.833 83.1424 223.243C91.1394 223.458 98.8064 223.125 106.142 222.243C106.231 229.062 106.231 236.062 106.142 243.243C112.475 243.243 118.809 243.243 125.142 243.243Z" fill="#6C92AC"/>
<path fill-rule="evenodd" clip-rule="evenodd" d="M191.142 223.243C189.722 224.194 188.052 224.527 186.142 224.243C186.142 230.576 186.142 236.91 186.142 243.243C192.812 243.243 199.472 243.243 206.142 243.243C206.142 250.243 206.142 257.243 206.142 264.243C199.472 264.243 192.812 264.243 186.142 264.243C186.142 270.243 186.142 276.243 186.142 282.243C185.522 282.354 185.022 282.687 184.642 283.243C184.472 281.91 184.312 280.576 184.142 279.243C185.042 274.593 185.212 269.926 184.642 265.243C182.882 266.728 181.722 266.395 181.142 264.243C182.472 264.243 183.812 264.243 185.142 264.243C185.142 257.243 185.142 250.243 185.142 243.243C178.812 243.243 172.472 243.243 166.142 243.243C166.042 236.699 166.042 230.366 166.142 224.243C174.532 223.112 182.862 222.779 191.142 223.243Z" fill="#AAD9F3"/>
<path fill-rule="evenodd" clip-rule="evenodd" d="M286.143 264.243C286.143 264.576 286.143 264.91 286.143 265.243C285.833 271.833 286.163 278.333 287.143 284.743C279.933 285.28 272.603 285.113 265.143 284.243C264.823 282.931 264.153 282.098 263.143 281.743C263.253 280.021 263.753 279.855 264.643 281.243C265.593 276.875 265.093 272.709 263.143 268.743C264.073 267.666 264.743 266.499 265.143 265.243C259.663 264.254 254.003 263.921 248.143 264.243C247.813 264.243 247.473 264.243 247.143 264.243C247.143 257.243 247.143 250.243 247.143 243.243C253.473 243.243 259.813 243.243 266.143 243.243C266.143 250.243 266.143 257.243 266.143 264.243C272.813 264.243 279.473 264.243 286.143 264.243Z" fill="#6E91A8"/>
<path fill-rule="evenodd" clip-rule="evenodd" d="M166.143 243.243C172.473 243.243 178.813 243.243 185.143 243.243C185.143 250.243 185.143 257.243 185.143 264.243C183.813 264.243 182.473 264.243 181.143 264.243C180.813 264.243 180.473 264.243 180.143 264.243C175.473 264.243 170.813 264.243 166.143 264.243C166.143 257.243 166.143 250.243 166.143 243.243Z" fill="#6991AA"/>
<path fill-rule="evenodd" clip-rule="evenodd" d="M191.143 223.243C196.473 223.243 201.813 223.243 207.143 223.243C207.143 229.91 207.143 236.576 207.143 243.243C213.473 243.243 219.813 243.243 226.143 243.243C226.143 248.91 226.143 254.576 226.143 260.243C226.143 260.576 226.143 260.91 226.143 261.243C226.143 262.243 226.143 263.243 226.143 264.243C225.813 264.243 225.473 264.243 225.143 264.243C224.813 264.243 224.473 264.243 224.143 264.243C223.813 264.243 223.473 264.243 223.143 264.243C217.473 264.243 211.813 264.243 206.143 264.243C206.143 257.243 206.143 250.243 206.143 243.243C199.473 243.243 192.813 243.243 186.143 243.243C186.143 236.91 186.143 230.576 186.143 224.243C188.053 224.527 189.723 224.194 191.143 223.243Z" fill="#6B8FA8"/>
<path fill-rule="evenodd" clip-rule="evenodd" d="M266.143 223.243C265.833 229.833 266.163 236.333 267.143 242.743C273.463 243.243 279.803 243.409 286.143 243.243C286.143 250.243 286.143 257.243 286.143 264.243C279.473 264.243 272.813 264.243 266.143 264.243C266.143 257.243 266.143 250.243 266.143 243.243C259.813 243.243 253.473 243.243 247.143 243.243C247.143 250.243 247.143 257.243 247.143 264.243C246.523 264.354 246.023 264.687 245.643 265.243C245.473 262.743 245.313 260.243 245.143 257.743C245.403 246.272 245.573 234.772 245.643 223.243C252.473 221.927 259.313 221.927 266.143 223.243Z" fill="#AFDCF5"/>
<path opacity="0.011" fill-rule="evenodd" clip-rule="evenodd" d="M64.1426 264.243C70.6646 263.92 76.9976 264.253 83.1426 265.243C76.5566 266.369 69.8896 266.535 63.1426 265.743C63.6986 265.36 64.0316 264.86 64.1426 264.243Z" fill="#C1E0F8"/>
<path opacity="0.014" fill-rule="evenodd" clip-rule="evenodd" d="M166.143 264.243C170.813 264.243 175.473 264.243 180.143 264.243C178.243 265.548 175.913 266.214 173.143 266.243C170.373 266.214 168.043 265.548 166.143 264.243Z" fill="#C2E2F9"/>
<path opacity="0.024" fill-rule="evenodd" clip-rule="evenodd" d="M248.143 264.243C254.003 263.921 259.663 264.254 265.143 265.243C259.223 266.364 253.223 266.531 247.143 265.743C247.703 265.36 248.033 264.86 248.143 264.243Z" fill="#C0E1F8"/>
<path opacity="0.016" fill-rule="evenodd" clip-rule="evenodd" d="M286.143 265.243C286.143 264.91 286.143 264.576 286.143 264.243C293.143 264.243 300.143 264.243 307.143 264.243C307.253 264.86 307.583 265.36 308.143 265.743C300.733 266.539 293.393 266.373 286.143 265.243Z" fill="#BBDEF8"/>
<path fill-rule="evenodd" clip-rule="evenodd" d="M206.143 264.243C206.143 270.576 206.143 276.91 206.143 283.243C199.473 283.243 192.813 283.243 186.143 283.243C186.143 282.91 186.143 282.576 186.143 282.243C186.143 276.243 186.143 270.243 186.143 264.243C192.813 264.243 199.473 264.243 206.143 264.243Z" fill="#7392A7"/>
<path fill-rule="evenodd" clip-rule="evenodd" d="M83.1426 283.243C83.1426 277.243 83.1426 271.243 83.1426 265.243C76.9976 264.253 70.6646 263.92 64.1426 264.243C64.1426 257.576 64.1426 250.91 64.1426 244.243C70.8096 244.243 77.4756 244.243 84.1426 244.243C83.8316 250.833 84.1646 257.333 85.1426 263.743C91.8006 264.243 98.4676 264.409 105.143 264.243C105.143 270.576 105.143 276.91 105.143 283.243C97.8096 283.243 90.4756 283.243 83.1426 283.243Z" fill="#7293A8"/>
<path opacity="0.016" fill-rule="evenodd" clip-rule="evenodd" d="M166.143 283.243C167.473 283.91 167.473 283.91 166.143 283.243Z" fill="#A2BED2"/>
<path opacity="0.01" fill-rule="evenodd" clip-rule="evenodd" d="M206.143 264.243C211.813 264.243 217.473 264.243 223.143 264.243C223.473 265.576 223.813 265.576 224.143 264.243C224.473 264.243 224.813 264.243 225.143 264.243C225.143 264.91 225.473 265.243 226.143 265.243C220.073 266.569 213.913 266.569 207.643 265.243C207.243 272.083 207.073 278.75 207.143 285.243C200.173 284.336 193.173 284.336 186.143 285.243C185.183 284.773 185.183 284.106 186.143 283.243C192.813 283.243 199.473 283.243 206.143 283.243C206.143 276.91 206.143 270.576 206.143 264.243Z" fill="#AEC8DC"/>
<path opacity="0.016" fill-rule="evenodd" clip-rule="evenodd" d="M265.143 284.243C264.473 284.91 264.473 284.91 265.143 284.243Z" fill="#98B3C5"/>
<path fill-rule="evenodd" clip-rule="evenodd" d="M144.143 285.243C145.013 291.532 145.353 297.865 145.143 304.243C138.473 304.243 131.813 304.243 125.143 304.243C123.851 297.632 123.851 290.966 125.143 284.243C131.523 284.952 137.853 285.286 144.143 285.243Z" fill="#ADDCF3"/>
<path opacity="0.343" fill-rule="evenodd" clip-rule="evenodd" d="M267.143 325.243C266.813 325.243 266.473 325.243 266.143 325.243C266.143 318.243 266.143 311.243 266.143 304.243C259.813 304.243 253.473 304.243 247.143 304.243C247.463 311.097 247.133 317.764 246.143 324.243C246.143 317.576 246.143 310.91 246.143 304.243C246.143 297.91 246.143 291.576 246.143 285.243C239.473 285.243 232.813 285.243 226.143 285.243C225.853 291.666 226.183 297.999 227.143 304.243C226.153 310.722 225.823 317.389 226.143 324.243C225.153 317.764 224.823 311.097 225.143 304.243C219.143 304.243 213.143 304.243 207.143 304.243C207.143 311.243 207.143 318.243 207.143 325.243C206.813 325.243 206.473 325.243 206.143 325.243C206.613 317.221 206.113 309.888 204.643 303.243C211.273 302.017 218.113 302.017 225.143 303.243C225.053 296.396 225.053 289.729 225.143 283.243C232.473 284.576 239.813 284.576 247.143 283.243C247.233 289.729 247.233 296.396 247.143 303.243C254.523 303.054 261.693 303.054 268.643 303.243C267.233 309.679 266.733 317.012 267.143 325.243Z" fill="#9BBBD2"/>
<path fill-rule="evenodd" clip-rule="evenodd" d="M246.143 304.243C239.813 304.243 233.473 304.243 227.143 304.243C226.183 297.999 225.853 291.666 226.143 285.243C232.813 285.243 239.473 285.243 246.143 285.243C246.143 291.576 246.143 297.91 246.143 304.243Z" fill="#6C8FA6"/>
<path fill-rule="evenodd" clip-rule="evenodd" d="M125.143 304.243C131.813 304.243 138.473 304.243 145.143 304.243C145.443 311.331 145.103 318.331 144.143 325.243C137.813 325.243 131.473 325.243 125.143 325.243C125.143 318.243 125.143 311.243 125.143 304.243Z" fill="#6791AB"/>
<path fill-rule="evenodd" clip-rule="evenodd" d="M145.143 304.243C151.813 304.243 158.473 304.243 165.143 304.243C165.143 311.243 165.143 318.243 165.143 325.243C158.473 325.243 151.813 325.243 145.143 325.243C144.813 325.243 144.473 325.243 144.143 325.243C145.103 318.331 145.443 311.331 145.143 304.243Z" fill="#B0DEFA"/>
<path opacity="0.016" fill-rule="evenodd" clip-rule="evenodd" d="M125.143 325.243C124.476 325.91 124.476 325.91 125.143 325.243Z" fill="#96BBD3"/>
<path opacity="0.01" fill-rule="evenodd" clip-rule="evenodd" d="M186.143 325.243C187.473 325.91 187.473 325.91 186.143 325.243Z" fill="#698BA6"/>
<path opacity="0.016" fill-rule="evenodd" clip-rule="evenodd" d="M206.143 325.243C205.473 325.91 205.473 325.91 206.143 325.243Z" fill="#BDDEF6"/>
<path opacity="0.016" fill-rule="evenodd" clip-rule="evenodd" d="M267.143 325.243C268.473 325.91 268.473 325.91 267.143 325.243Z" fill="#A2BFD5"/>
<path fill-rule="evenodd" clip-rule="evenodd" d="M226.143 324.243C232.813 325.576 239.473 325.576 246.143 324.243C247.133 317.764 247.463 311.097 247.143 304.243C253.473 304.243 259.813 304.243 266.143 304.243C266.143 311.243 266.143 318.243 266.143 325.243C260.133 325.077 254.133 325.244 248.143 325.743C249.013 331.608 249.343 337.441 249.143 343.243C248.383 343.654 247.383 343.82 246.143 343.743C247.533 344.632 247.363 345.132 245.643 345.243C244.633 344.851 244.133 344.184 244.143 343.243C243.473 343.91 242.813 344.576 242.143 345.243C241.173 344.254 240.013 343.587 238.643 343.243C233.593 343.087 229.093 343.587 225.143 344.743C225.223 338.454 225.223 331.954 225.143 325.243C219.143 325.243 213.143 325.243 207.143 325.243C207.143 318.243 207.143 311.243 207.143 304.243C213.143 304.243 219.143 304.243 225.143 304.243C224.823 311.097 225.153 317.764 226.143 324.243Z" fill="#6E92AB"/>
<path fill-rule="evenodd" clip-rule="evenodd" d="M227.142 304.243C233.472 304.243 239.812 304.243 246.142 304.243C246.142 310.91 246.142 317.576 246.142 324.243C239.472 325.576 232.812 325.576 226.142 324.243C225.822 317.389 226.152 310.722 227.142 304.243Z" fill="#ADDBF7"/>
<path fill-rule="evenodd" clip-rule="evenodd" d="M166.143 284.243C166.143 290.576 166.143 296.91 166.143 303.243C173.233 303.333 180.233 303.166 187.143 302.743C186.163 310.156 185.833 317.656 186.143 325.243C179.443 324.913 172.773 325.246 166.143 326.243C167.063 332.03 167.403 337.697 167.143 343.243C164.593 345.878 161.923 345.878 159.143 343.243C154.713 345.268 150.043 345.768 145.143 344.743C145.983 343.077 145.483 342.91 143.643 344.243C145.033 338.813 145.533 332.48 145.143 325.243C151.813 325.243 158.473 325.243 165.143 325.243C165.143 318.243 165.143 311.243 165.143 304.243C158.473 304.243 151.813 304.243 145.143 304.243C145.353 297.865 145.013 291.532 144.143 285.243C151.293 284.251 158.623 283.918 166.143 284.243Z" fill="#6E91AA"/>
</svg>
