<svg width="346" height="289" viewBox="0 0 346 289" fill="none" xmlns="http://www.w3.org/2000/svg">
<path opacity="0.057" fill-rule="evenodd" clip-rule="evenodd" d="M263.143 20.7512C262.476 20.7512 262.143 21.0842 262.143 21.7512C255.81 21.7512 249.476 21.7512 243.143 21.7512C243.143 15.0842 243.143 8.41822 243.143 1.75122C243.76 1.64022 244.26 1.30722 244.643 0.751221C245.453 7.33322 245.286 13.8332 244.143 20.2512C250.717 20.6372 257.051 20.8042 263.143 20.7512Z" fill="#BCC7E9"/>
<path opacity="0.306" fill-rule="evenodd" clip-rule="evenodd" d="M142.143 1.75122C142.143 8.41822 142.143 15.0842 142.143 21.7512C129.143 21.7512 116.143 21.7512 103.143 21.7512C102.81 21.7512 102.476 21.7512 102.143 21.7512C101.18 20.8882 101.18 20.2212 102.143 19.7512C115.097 20.8982 128.097 21.0652 141.143 20.2512C140 13.8332 139.833 7.33322 140.643 0.751221C141.026 1.30722 141.526 1.64022 142.143 1.75122Z" fill="#AEB7D9"/>
<path opacity="0.016" fill-rule="evenodd" clip-rule="evenodd" d="M263.143 20.7512C264.476 21.4182 264.476 21.4182 263.143 20.7512Z" fill="#96A2B9"/>
<path fill-rule="evenodd" clip-rule="evenodd" d="M103.143 21.7512C116.143 21.7512 129.143 21.7512 142.143 21.7512C142.143 28.7512 142.143 35.7512 142.143 42.7512C135.81 42.7512 129.476 42.7512 123.143 42.7512C122.81 42.7512 122.476 42.7512 122.143 42.7512C122.143 41.7512 122.143 40.7512 122.143 39.7512C123.195 39.9002 124.195 39.7342 125.143 39.2512C124.81 38.9182 124.476 38.5842 124.143 38.2512C127.378 36.0932 127.878 33.2592 125.643 29.7512C123.898 28.2952 122.065 26.9622 120.143 25.7512C119.476 26.4182 118.81 27.0842 118.143 27.7512C116.875 26.8232 115.542 26.6562 114.143 27.2512C111.643 29.0842 109.143 30.9182 106.643 32.7512C106.31 32.4182 105.976 32.0842 105.643 31.7512C104.399 34.8892 103.732 38.2232 103.643 41.7512C103.143 35.0932 102.977 28.4262 103.143 21.7512Z" fill="#242F4C"/>
<path fill-rule="evenodd" clip-rule="evenodd" d="M142.143 21.7512C168.81 21.7512 195.476 21.7512 222.143 21.7512C222.143 27.4182 222.143 33.0842 222.143 38.7512C221.091 38.9002 220.091 38.7342 219.143 38.2512C216.406 36.6372 214.24 34.4702 212.643 31.7512C210.327 32.6182 208.327 31.9522 206.643 29.7512C205.017 30.1052 203.184 30.1052 201.143 29.7512C195.127 27.5302 188.793 26.1972 182.143 25.7512C173.093 27.1932 163.76 28.0272 154.143 28.2512C152.002 29.5592 150.002 31.0592 148.143 32.7512C146.318 36.2772 144.318 39.6102 142.143 42.7512C142.143 35.7512 142.143 28.7512 142.143 21.7512Z" fill="#D9DBE7"/>
<path fill-rule="evenodd" clip-rule="evenodd" d="M142.143 1.75122C144.476 1.75122 146.81 1.75122 149.143 1.75122C149.814 3.09822 149.814 4.26522 149.143 5.25122C151.247 6.04222 152.58 7.54222 153.143 9.75122C155.223 10.5822 157.223 11.5822 159.143 12.7512C160.197 12.5712 161.197 12.2382 162.143 11.7512C165.345 12.3782 168.512 13.0452 171.643 13.7512C173.125 11.4702 174.792 11.4702 176.643 13.7512C180.976 12.4182 185.31 12.4182 189.643 13.7512C192.999 12.5132 196.499 11.8472 200.143 11.7512C205.306 13.0192 210.472 13.0192 215.643 11.7512C217.476 11.9182 219.31 12.0842 221.143 12.2512C220.686 12.6652 220.352 13.1652 220.143 13.7512C223.488 15.7512 226.654 15.7512 229.643 13.7512C231.649 15.2532 233.315 14.9202 234.643 12.7512C235.613 10.9772 236.447 9.14422 237.143 7.25122C236.41 5.48522 236.076 3.65222 236.143 1.75122C238.476 1.75122 240.81 1.75122 243.143 1.75122C243.143 8.41822 243.143 15.0842 243.143 21.7512C249.476 21.7512 255.81 21.7512 262.143 21.7512C262.143 28.7512 262.143 35.7512 262.143 42.7512C261.81 42.7512 261.476 42.7512 261.143 42.7512C254.81 42.7512 248.476 42.7512 242.143 42.7512C242.143 35.7512 242.143 28.7512 242.143 21.7512C235.476 21.7512 228.81 21.7512 222.143 21.7512C195.476 21.7512 168.81 21.7512 142.143 21.7512C142.143 15.0842 142.143 8.41822 142.143 1.75122Z" fill="#283652"/>
<path fill-rule="evenodd" clip-rule="evenodd" d="M149.143 1.75122C178.143 1.75122 207.143 1.75122 236.143 1.75122C236.076 3.65222 236.41 5.48522 237.143 7.25122C236.447 9.14422 235.613 10.9772 234.643 12.7512C233.315 14.9202 231.649 15.2532 229.643 13.7512C226.654 15.7512 223.488 15.7512 220.143 13.7512C220.352 13.1652 220.686 12.6652 221.143 12.2512C219.31 12.0842 217.476 11.9182 215.643 11.7512C210.472 13.0192 205.306 13.0192 200.143 11.7512C196.499 11.8472 192.999 12.5132 189.643 13.7512C185.31 12.4182 180.976 12.4182 176.643 13.7512C174.792 11.4702 173.125 11.4702 171.643 13.7512C168.512 13.0452 165.345 12.3782 162.143 11.7512C161.197 12.2382 160.197 12.5712 159.143 12.7512C157.223 11.5822 155.223 10.5822 153.143 9.75122C152.58 7.54222 151.247 6.04222 149.143 5.25122C149.814 4.26522 149.814 3.09822 149.143 1.75122Z" fill="#1A315A"/>
<path fill-rule="evenodd" clip-rule="evenodd" d="M222.143 21.7512C228.81 21.7512 235.476 21.7512 242.143 21.7512C242.143 28.7512 242.143 35.7512 242.143 42.7512C236.476 42.7512 230.81 42.7512 225.143 42.7512C224.143 42.7512 223.143 42.7512 222.143 42.7512C222.143 41.7512 222.143 40.7512 222.143 39.7512C222.143 39.4182 222.143 39.0842 222.143 38.7512C222.143 33.0842 222.143 27.4182 222.143 21.7512Z" fill="#A5B0C4"/>
<path opacity="0.181" fill-rule="evenodd" clip-rule="evenodd" d="M102.143 41.7512C102.143 42.4182 101.81 42.7512 101.143 42.7512C88.1426 42.7512 75.1426 42.7512 62.1426 42.7512C62.0316 42.1342 61.6986 41.6342 61.1426 41.2512C63.1426 41.0842 65.1426 40.9182 67.1426 40.7512C78.9096 41.7032 90.5766 42.0362 102.143 41.7512Z" fill="#ABB6DC"/>
<path opacity="0.235" fill-rule="evenodd" clip-rule="evenodd" d="M262.143 21.7512C262.476 21.7512 262.81 21.7512 263.143 21.7512C262.977 28.4262 263.143 35.0932 263.643 41.7512C268.588 41.8122 273.588 41.4792 278.643 40.7512C280.476 40.9182 282.31 41.0842 284.143 41.2512C283.587 41.6342 283.254 42.1342 283.143 42.7512C276.143 42.7512 269.143 42.7512 262.143 42.7512C262.143 35.7512 262.143 28.7512 262.143 21.7512Z" fill="#A9B3D5"/>
<path fill-rule="evenodd" clip-rule="evenodd" d="M201.143 29.7512C201.143 34.0842 201.143 38.4182 201.143 42.7512C187.81 42.7512 174.476 42.7512 161.143 42.7512C161.143 49.4182 161.143 56.0842 161.143 62.7512C154.81 62.7512 148.476 62.7512 142.143 62.7512C142.766 55.9962 142.099 49.6632 140.143 43.7512C134.285 44.0732 128.618 43.7402 123.143 42.7512C129.476 42.7512 135.81 42.7512 142.143 42.7512C144.318 39.6102 146.318 36.2772 148.143 32.7512C150.002 31.0592 152.002 29.5592 154.143 28.2512C163.76 28.0272 173.093 27.1932 182.143 25.7512C188.793 26.1972 195.127 27.5302 201.143 29.7512Z" fill="#E5E2DA"/>
<path fill-rule="evenodd" clip-rule="evenodd" d="M62.1426 42.7512C75.1426 42.7512 88.1426 42.7512 101.143 42.7512C91.8366 43.2402 82.5026 44.4072 73.1426 46.2512C71.7726 47.6922 70.7726 49.3592 70.1426 51.2512C71.6186 53.8942 73.6186 56.0612 76.1426 57.7512C77.1906 56.8682 78.3576 56.2012 79.6426 55.7512C80.9756 57.0842 82.3096 57.0842 83.6426 55.7512C93.1096 59.5762 102.943 60.5762 113.143 58.7512C114.32 55.9022 116.153 53.5692 118.643 51.7512C118.976 49.4182 119.31 47.0842 119.643 44.7512C120.413 43.6532 121.246 43.6532 122.143 44.7512C122.143 51.0842 122.143 57.4182 122.143 63.7512C115.476 63.7512 108.81 63.7512 102.143 63.7512C88.9866 62.7552 75.6526 62.4222 62.1426 62.7512C62.1426 56.0842 62.1426 49.4182 62.1426 42.7512Z" fill="#212D49"/>
<path fill-rule="evenodd" clip-rule="evenodd" d="M102.143 21.7512C102.476 21.7512 102.81 21.7512 103.143 21.7512C102.977 28.4262 103.143 35.0932 103.643 41.7512C103.732 38.2232 104.399 34.8892 105.643 31.7512C105.976 32.0842 106.31 32.4182 106.643 32.7512C109.143 30.9182 111.643 29.0842 114.143 27.2512C115.542 26.6562 116.875 26.8232 118.143 27.7512C118.81 27.0842 119.476 26.4182 120.143 25.7512C122.065 26.9622 123.898 28.2952 125.643 29.7512C127.878 33.2592 127.378 36.0932 124.143 38.2512C124.476 38.5842 124.81 38.9182 125.143 39.2512C124.195 39.7342 123.195 39.9002 122.143 39.7512C122.143 40.7512 122.143 41.7512 122.143 42.7512C122.143 43.4182 122.143 44.0842 122.143 44.7512C121.246 43.6532 120.413 43.6532 119.643 44.7512C119.31 47.0842 118.976 49.4182 118.643 51.7512C116.153 53.5692 114.32 55.9022 113.143 58.7512C102.943 60.5762 93.1096 59.5762 83.6426 55.7512C82.3096 57.0842 80.9756 57.0842 79.6426 55.7512C78.3576 56.2012 77.1906 56.8682 76.1426 57.7512C73.6186 56.0612 71.6186 53.8942 70.1426 51.2512C70.7726 49.3592 71.7726 47.6922 73.1426 46.2512C82.5026 44.4072 91.8366 43.2402 101.143 42.7512C101.81 42.7512 102.143 42.4182 102.143 41.7512C102.143 35.0842 102.143 28.4182 102.143 21.7512Z" fill="#203358"/>
<path fill-rule="evenodd" clip-rule="evenodd" d="M222.143 39.7512C222.143 40.7512 222.143 41.7512 222.143 42.7512C223.143 42.7512 224.143 42.7512 225.143 42.7512C223.937 44.1312 224.27 45.2982 226.143 46.2512C225.335 46.5592 224.668 47.0592 224.143 47.7512C223.488 51.2072 222.154 54.3742 220.143 57.2512C221.143 58.2512 222.143 59.2512 223.143 60.2512C221.59 61.3482 220.257 62.6812 219.143 64.2512C219.6 64.6652 219.934 65.1652 220.143 65.7512C219.489 67.3662 218.989 69.0332 218.643 70.7512C215.265 73.7932 212.265 77.1262 209.643 80.7512C206.976 78.0382 204.643 78.3712 202.643 81.7512C199.934 80.5452 198.268 81.5452 197.643 84.7512C194.81 83.5842 193.976 84.4182 195.143 87.2512C194.39 88.7382 193.557 88.9052 192.643 87.7512C191.764 90.5972 190.097 91.2642 187.643 89.7512C186.804 90.8752 185.637 91.5422 184.143 91.7512C181.82 90.8752 179.486 90.3752 177.143 90.2512C174.498 91.5382 173.498 93.7042 174.143 96.7512C167.218 96.4122 162.718 99.4122 160.643 105.751C160.422 102.308 159.422 101.975 157.643 104.751C157.353 107.203 156.687 109.536 155.643 111.751C152.771 114.288 150.271 117.121 148.143 120.251C145.81 120.584 143.476 120.918 141.143 121.251C139.182 124.061 138.016 126.895 137.643 129.751C134.97 132.663 132.803 132.33 131.143 128.751C130.81 129.418 130.476 130.084 130.143 130.751C124.711 121.752 116.377 118.586 105.143 121.251C104.262 121.959 103.596 122.793 103.143 123.751C102.704 130.565 102.704 137.565 103.143 144.751C96.6636 145.742 89.9966 146.075 83.1426 145.751C63.4756 145.751 43.8096 145.751 24.1426 145.751C36.3156 145.084 48.6496 144.418 61.1426 143.751C55.3406 142.32 49.5076 140.986 43.6426 139.751C40.2716 141.526 38.1046 140.526 37.1426 136.751C40.3756 130.993 42.8756 125.327 44.6426 119.751C44.9756 120.084 45.3096 120.418 45.6426 120.751C47.1696 119.03 48.1696 117.03 48.6426 114.751C50.1426 113.584 51.6426 112.418 53.1426 111.251C52.8096 110.918 52.4756 110.584 52.1426 110.251C53.6156 109.541 54.2826 108.375 54.1426 106.751C56.4966 106.413 58.8296 105.913 61.1426 105.251C55.1516 104.752 49.1516 104.585 43.1426 104.751C43.1426 104.418 43.1426 104.084 43.1426 103.751C49.1426 103.751 55.1426 103.751 61.1426 103.751C61.4756 103.751 61.8096 103.751 62.1426 103.751C63.4626 102.309 65.1286 101.643 67.1426 101.751C72.4756 101.751 77.8096 101.751 83.1426 101.751C83.1426 95.4182 83.1426 89.0842 83.1426 82.7512C89.1426 82.7512 95.1426 82.7512 101.143 82.7512C101.476 82.7512 101.81 82.7512 102.143 82.7512C108.956 83.7422 115.956 84.0762 123.143 83.7512C122.689 77.0922 122.356 70.4252 122.143 63.7512C122.143 57.4182 122.143 51.0842 122.143 44.7512C122.143 44.0842 122.143 43.4182 122.143 42.7512C122.476 42.7512 122.81 42.7512 123.143 42.7512C128.618 43.7402 134.285 44.0732 140.143 43.7512C137.663 48.7202 134.997 53.5532 132.143 58.2512C132.81 58.9182 133.476 59.5842 134.143 60.2512C134.142 61.6502 133.808 63.1502 133.143 64.7512C134.019 65.5022 135.019 66.0022 136.143 66.2512C135.126 67.3002 134.959 68.4672 135.643 69.7512C136.536 68.5402 137.369 68.5402 138.143 69.7512C139.682 72.9972 141.349 76.1632 143.143 79.2512C142.476 79.9182 141.81 80.5842 141.143 81.2512C143.762 81.1682 146.429 81.0012 149.143 80.7512C147.285 83.8822 147.952 86.3822 151.143 88.2512C149.818 88.1032 148.651 88.2692 147.643 88.7512C146.794 85.7302 145.294 85.2302 143.143 87.2512C143.476 87.5842 143.81 87.9182 144.143 88.2512C141.456 88.5922 139.456 89.9252 138.143 92.2512C139.976 93.7512 141.81 95.2512 143.643 96.7512C144.26 97.7002 144.094 98.5332 143.143 99.2512C141.385 98.9072 139.552 98.4072 137.643 97.7512C135.489 98.5032 133.323 98.6702 131.143 98.2512C132.094 97.5332 132.26 96.7002 131.643 95.7512C128.359 97.6362 127.859 99.8032 130.143 102.251C129.286 102.94 128.62 103.773 128.143 104.751C130.533 106.518 132.2 108.851 133.143 111.751C132.328 113.527 131.161 114.194 129.643 113.751C129.16 114.699 128.994 115.699 129.143 116.751C131.247 117.05 133.247 116.717 135.143 115.751C134.172 114.289 134.505 112.956 136.143 111.751C135.143 110.918 134.143 110.084 133.143 109.251C136.247 107.34 139.247 104.507 142.143 100.751C142.476 101.084 142.81 101.418 143.143 101.751C142.476 102.418 141.81 103.084 141.143 103.751C142.476 104.751 142.476 105.751 141.143 106.751C142.496 107.936 143.663 109.27 144.643 110.751C146.476 108.251 148.31 105.751 150.143 103.251C148.159 101.448 146.159 100.448 144.143 100.251C146.097 97.5042 148.097 97.3372 150.143 99.7512C151.339 99.4052 151.339 98.9052 150.143 98.2512C151.687 97.9612 153.02 97.2952 154.143 96.2512C152.894 94.4272 151.728 94.5942 150.643 96.7512C148.505 94.1052 148.838 91.7722 151.643 89.7512C153.319 90.3122 154.652 91.3122 155.643 92.7512C155.96 90.9502 156.627 90.6172 157.643 91.7512C159.643 91.0842 160.976 89.7512 161.643 87.7512C162.557 88.9052 163.39 88.7382 164.143 87.2512C160.933 86.0692 160.433 84.2362 162.643 81.7512C165.31 81.7512 167.976 81.7512 170.643 81.7512C172.59 81.1412 174.424 80.3082 176.143 79.2512C174.113 77.3552 172.446 75.1882 171.143 72.7512C172.165 71.8972 172.998 70.8972 173.643 69.7512C174.892 72.2432 176.059 72.0762 177.143 69.2512C176.172 68.0472 175.172 67.5472 174.143 67.7512C175.458 65.9352 176.958 64.2682 178.643 62.7512C180.045 65.2242 181.545 65.2242 183.143 62.7512C184.149 63.1892 184.149 63.8552 183.143 64.7512C187.819 67.2772 188.486 66.1102 185.143 61.2512C186.059 60.8772 186.893 60.3772 187.643 59.7512C188.643 61.0842 189.643 61.0842 190.643 59.7512C190.728 65.8782 191.895 66.2112 194.143 60.7512C194.476 61.4182 194.81 62.0842 195.143 62.7512C199.217 61.2832 202.717 59.6162 205.643 57.7512C209.094 59.4872 211.427 58.4872 212.643 54.7512C213.31 58.7512 213.976 58.7512 214.643 54.7512C215.557 55.9052 216.39 55.7382 217.143 54.2512C216.143 53.9182 215.143 53.5842 214.143 53.2512C215.37 50.9812 217.037 49.1482 219.143 47.7512C218.635 45.3472 217.468 44.6802 215.643 45.7512C214.871 44.4022 213.704 43.5692 212.143 43.2512C214.81 42.9182 217.476 42.5842 220.143 42.2512C220.709 41.2562 221.376 40.4232 222.143 39.7512Z" fill="#C5C9CB"/>
<path fill-rule="evenodd" clip-rule="evenodd" d="M201.143 29.7512C203.184 30.1052 205.017 30.1052 206.643 29.7512C208.327 31.9522 210.327 32.6182 212.643 31.7512C214.24 34.4702 216.406 36.6372 219.143 38.2512C220.091 38.7342 221.091 38.9002 222.143 38.7512C222.143 39.0842 222.143 39.4182 222.143 39.7512C221.376 40.4232 220.709 41.2562 220.143 42.2512C217.476 42.5842 214.81 42.9182 212.143 43.2512C213.704 43.5692 214.871 44.4022 215.643 45.7512C217.468 44.6802 218.635 45.3472 219.143 47.7512C217.037 49.1482 215.37 50.9812 214.143 53.2512C215.143 53.5842 216.143 53.9182 217.143 54.2512C216.39 55.7382 215.557 55.9052 214.643 54.7512C213.976 58.7512 213.31 58.7512 212.643 54.7512C211.427 58.4872 209.094 59.4872 205.643 57.7512C202.717 59.6162 199.217 61.2832 195.143 62.7512C194.81 62.0842 194.476 61.4182 194.143 60.7512C191.895 66.2112 190.728 65.8782 190.643 59.7512C189.643 61.0842 188.643 61.0842 187.643 59.7512C186.893 60.3772 186.059 60.8772 185.143 61.2512C188.486 66.1102 187.819 67.2772 183.143 64.7512C184.149 63.8552 184.149 63.1892 183.143 62.7512C181.545 65.2242 180.045 65.2242 178.643 62.7512C176.958 64.2682 175.458 65.9352 174.143 67.7512C175.172 67.5472 176.172 68.0472 177.143 69.2512C176.059 72.0762 174.892 72.2432 173.643 69.7512C172.998 70.8972 172.165 71.8972 171.143 72.7512C172.446 75.1882 174.113 77.3552 176.143 79.2512C174.424 80.3082 172.59 81.1412 170.643 81.7512C167.976 81.7512 165.31 81.7512 162.643 81.7512C160.433 84.2362 160.933 86.0692 164.143 87.2512C163.39 88.7382 162.557 88.9052 161.643 87.7512C160.976 89.7512 159.643 91.0842 157.643 91.7512C156.627 90.6172 155.96 90.9502 155.643 92.7512C154.652 91.3122 153.319 90.3122 151.643 89.7512C148.838 91.7722 148.505 94.1052 150.643 96.7512C151.728 94.5942 152.894 94.4272 154.143 96.2512C153.02 97.2952 151.687 97.9612 150.143 98.2512C151.339 98.9052 151.339 99.4052 150.143 99.7512C148.097 97.3372 146.097 97.5042 144.143 100.251C146.159 100.448 148.159 101.448 150.143 103.251C148.31 105.751 146.476 108.251 144.643 110.751C143.663 109.27 142.496 107.936 141.143 106.751C142.476 105.751 142.476 104.751 141.143 103.751C141.81 103.084 142.476 102.418 143.143 101.751C142.81 101.418 142.476 101.084 142.143 100.751C139.247 104.507 136.247 107.34 133.143 109.251C134.143 110.084 135.143 110.918 136.143 111.751C134.505 112.956 134.172 114.289 135.143 115.751C133.247 116.717 131.247 117.05 129.143 116.751C128.994 115.699 129.16 114.699 129.643 113.751C131.161 114.194 132.328 113.527 133.143 111.751C132.2 108.851 130.533 106.518 128.143 104.751C128.62 103.773 129.286 102.94 130.143 102.251C127.859 99.8032 128.359 97.6362 131.643 95.7512C132.26 96.7002 132.094 97.5332 131.143 98.2512C133.323 98.6702 135.489 98.5032 137.643 97.7512C139.552 98.4072 141.385 98.9072 143.143 99.2512C144.094 98.5332 144.26 97.7002 143.643 96.7512C141.81 95.2512 139.976 93.7512 138.143 92.2512C139.456 89.9252 141.456 88.5922 144.143 88.2512C143.81 87.9182 143.476 87.5842 143.143 87.2512C145.294 85.2302 146.794 85.7302 147.643 88.7512C148.651 88.2692 149.818 88.1032 151.143 88.2512C147.952 86.3822 147.285 83.8822 149.143 80.7512C146.429 81.0012 143.762 81.1682 141.143 81.2512C141.81 80.5842 142.476 79.9182 143.143 79.2512C141.349 76.1632 139.682 72.9972 138.143 69.7512C137.369 68.5402 136.536 68.5402 135.643 69.7512C134.959 68.4672 135.126 67.3002 136.143 66.2512C135.019 66.0022 134.019 65.5022 133.143 64.7512C133.808 63.1502 134.142 61.6502 134.143 60.2512C133.476 59.5842 132.81 58.9182 132.143 58.2512C134.997 53.5532 137.663 48.7202 140.143 43.7512C142.099 49.6632 142.766 55.9962 142.143 62.7512C148.476 62.7512 154.81 62.7512 161.143 62.7512C161.143 56.0842 161.143 49.4182 161.143 42.7512C174.476 42.7512 187.81 42.7512 201.143 42.7512C201.143 38.4182 201.143 34.0842 201.143 29.7512Z" fill="#C8C9C7"/>
<path fill-rule="evenodd" clip-rule="evenodd" d="M262.143 42.7512C269.143 42.7512 276.143 42.7512 283.143 42.7512C283.143 49.0842 283.143 55.4182 283.143 61.7512C296.299 62.7472 309.633 63.0802 323.143 62.7512C323.143 69.4182 323.143 76.0842 323.143 82.7512C302.81 82.7512 282.476 82.7512 262.143 82.7512C262.143 69.4182 262.143 56.0842 262.143 42.7512Z" fill="#1F3256"/>
<path fill-rule="evenodd" clip-rule="evenodd" d="M102.143 63.7512C108.81 63.7512 115.476 63.7512 122.143 63.7512C122.356 70.4252 122.689 77.0922 123.143 83.7512C115.956 84.0762 108.956 83.7422 102.143 82.7512C102.143 76.4182 102.143 70.0842 102.143 63.7512Z" fill="#697688"/>
<path fill-rule="evenodd" clip-rule="evenodd" d="M261.143 42.7512C261.476 42.7512 261.81 42.7512 262.143 42.7512C262.143 56.0842 262.143 69.4182 262.143 82.7512C282.476 82.7512 302.81 82.7512 323.143 82.7512C323.143 76.0842 323.143 69.4182 323.143 62.7512C309.633 63.0802 296.299 62.7472 283.143 61.7512C297.055 62.0742 310.889 61.7412 324.643 60.7512C324.216 67.9992 324.049 75.3332 324.143 82.7512C330.665 82.4282 336.998 82.7612 343.143 83.7512C336.81 83.7512 330.476 83.7512 324.143 83.7512C324.143 110.751 324.143 137.751 324.143 164.751C324.143 165.084 324.143 165.418 324.143 165.751C324.143 172.421 324.143 179.081 324.143 185.751C323.81 185.751 323.476 185.751 323.143 185.751C323.143 178.751 323.143 171.751 323.143 164.751C323.143 137.751 323.143 110.751 323.143 83.7512C316.143 83.7512 309.143 83.7512 302.143 83.7512C289.143 83.7512 276.143 83.7512 263.143 83.7512C256.534 82.8282 249.867 82.4952 243.143 82.7512C242.478 75.7712 242.145 68.7712 242.143 61.7512C243.133 55.9412 243.466 49.9412 243.143 43.7512C249.068 43.4432 254.902 43.7762 260.643 44.7512C261.107 44.1572 261.274 43.4902 261.143 42.7512Z" fill="#7B90AE"/>
<path fill-rule="evenodd" clip-rule="evenodd" d="M101.143 82.7512C95.1426 82.7512 89.1426 82.7512 83.1426 82.7512C83.1426 89.0842 83.1426 95.4182 83.1426 101.751C77.8096 101.751 72.4756 101.751 67.1426 101.751C68.4286 98.9162 68.4286 96.0832 67.1426 93.2512C68.4466 92.4472 69.1136 91.2802 69.1426 89.7512C69.7016 87.2912 69.0346 84.9582 67.1426 82.7512C68.3306 79.3722 70.3306 76.5382 73.1426 74.2512C77.6416 72.9352 81.6416 71.4352 85.1426 69.7512C88.2446 71.2302 91.2446 72.8962 94.1426 74.7512C96.3296 77.6462 98.6626 80.3132 101.143 82.7512Z" fill="#E3DFDA"/>
<path fill-rule="evenodd" clip-rule="evenodd" d="M102.143 63.7512C102.143 70.0842 102.143 76.4182 102.143 82.7512C101.81 82.7512 101.476 82.7512 101.143 82.7512C98.6626 80.3132 96.3296 77.6462 94.1426 74.7512C91.2446 72.8962 88.2446 71.2302 85.1426 69.7512C81.6416 71.4352 77.6416 72.9352 73.1426 74.2512C70.3306 76.5382 68.3306 79.3722 67.1426 82.7512C69.0346 84.9582 69.7016 87.2912 69.1426 89.7512C69.1136 91.2802 68.4466 92.4472 67.1426 93.2512C68.4286 96.0832 68.4286 98.9162 67.1426 101.751C65.1286 101.643 63.4626 102.309 62.1426 103.751C62.1426 90.4182 62.1426 77.0842 62.1426 63.7512C75.4756 63.7512 88.8096 63.7512 102.143 63.7512Z" fill="#DEDFE8"/>
<path opacity="0.124" fill-rule="evenodd" clip-rule="evenodd" d="M62.1426 42.7512C62.1426 49.4182 62.1426 56.0842 62.1426 62.7512C75.6526 62.4222 88.9866 62.7552 102.143 63.7512C88.8096 63.7512 75.4756 63.7512 62.1426 63.7512C62.1426 77.0842 62.1426 90.4182 62.1426 103.751C61.8096 103.751 61.4756 103.751 61.1426 103.751C61.1426 90.4182 61.1426 77.0842 61.1426 63.7512C54.8096 63.7512 48.4756 63.7512 42.1426 63.7512C41.8136 77.2612 42.1466 90.5952 43.1426 103.751C43.1426 104.084 43.1426 104.418 43.1426 104.751C42.8096 104.751 42.4756 104.751 42.1426 104.751C28.4756 104.751 14.8096 104.751 1.14258 104.751C1.14258 104.418 1.14258 104.084 1.14258 103.751C14.4796 103.918 27.8136 103.751 41.1426 103.251C40.8346 89.9492 40.5016 76.4492 40.1426 62.7512C46.9616 62.6622 53.9616 62.6622 61.1426 62.7512C60.8186 55.8972 61.1516 49.2302 62.1426 42.7512Z" fill="#9399B5"/>
<path fill-rule="evenodd" clip-rule="evenodd" d="M61.1426 103.751C55.1426 103.751 49.1426 103.751 43.1426 103.751C42.1466 90.5952 41.8136 77.2612 42.1426 63.7512C48.4756 63.7512 54.8096 63.7512 61.1426 63.7512C61.1426 77.0842 61.1426 90.4182 61.1426 103.751Z" fill="#283049"/>
<path fill-rule="evenodd" clip-rule="evenodd" d="M242.143 61.7511C242.145 68.7711 242.478 75.7711 243.143 82.7511C249.867 82.4951 256.534 82.8281 263.143 83.7511C263.143 87.4181 263.143 91.0841 263.143 94.7511C263.143 97.4181 263.143 100.084 263.143 102.751C256.476 102.751 249.81 102.751 243.143 102.751C242.358 97.4991 241.858 92.1661 241.643 86.7511C241.269 85.8351 240.769 85.0011 240.143 84.2511C233.818 83.7511 227.485 83.5851 221.143 83.7511C221.661 89.6731 221.661 95.5061 221.143 101.251C207.813 101.981 194.48 102.648 181.143 103.251C180.991 109.959 180.991 116.792 181.143 123.751C174.81 123.751 168.476 123.751 162.143 123.751C162.143 116.751 162.143 109.751 162.143 102.751C175.123 101.897 188.123 101.564 201.143 101.751C201.143 95.4181 201.143 89.0841 201.143 82.7511C208.143 82.7511 215.143 82.7511 222.143 82.7511C221.977 76.0761 222.143 69.4091 222.643 62.7511C229.053 61.7731 235.553 61.4401 242.143 61.7511Z" fill="#95A6B7"/>
<path fill-rule="evenodd" clip-rule="evenodd" d="M343.143 83.7512C343.143 110.751 343.143 137.751 343.143 164.751C336.81 164.751 330.476 164.751 324.143 164.751C324.143 137.751 324.143 110.751 324.143 83.7512C330.476 83.7512 336.81 83.7512 343.143 83.7512Z" fill="#0B203C"/>
<path fill-rule="evenodd" clip-rule="evenodd" d="M335.143 85.7512C337.476 85.7512 339.81 85.7512 342.143 85.7512C342.143 111.751 342.143 137.751 342.143 163.751C337.078 164.032 332.078 163.699 327.143 162.751C325.977 137.758 325.81 112.758 326.643 87.7512C329.582 87.1232 332.415 86.4562 335.143 85.7512Z" fill="#233454"/>
<path opacity="0.016" fill-rule="evenodd" clip-rule="evenodd" d="M1.14283 103.751C0.475828 102.418 0.475828 102.418 1.14283 103.751Z" fill="#878FAE"/>
<path fill-rule="evenodd" clip-rule="evenodd" d="M302.143 87.7512C302.743 90.8762 303.91 91.2092 305.643 88.7512C308.325 90.3712 310.825 92.2052 313.143 94.2512C313.512 96.7192 315.012 98.8862 317.643 100.751C318.26 101.7 318.094 102.533 317.143 103.251C315.509 103.745 313.842 103.911 312.143 103.751C313.473 111.079 313.473 118.079 312.143 124.751C309.476 124.751 306.81 124.751 304.143 124.751C304.453 127.964 304.12 130.964 303.143 133.751C303.184 118.407 302.851 103.074 302.143 87.7512Z" fill="#9CA9BA"/>
<path fill-rule="evenodd" clip-rule="evenodd" d="M243.143 102.751C243.143 109.751 243.143 116.751 243.143 123.751C242.81 123.751 242.476 123.751 242.143 123.751C228.143 123.751 214.143 123.751 200.143 123.751C194.218 123.443 188.384 123.776 182.643 124.751C182.456 131.332 181.956 137.832 181.143 144.251C174.485 144.751 167.818 144.917 161.143 144.751C161.143 137.751 161.143 130.751 161.143 123.751C161.476 123.751 161.81 123.751 162.143 123.751C168.476 123.751 174.81 123.751 181.143 123.751C180.991 116.792 180.991 109.959 181.143 103.251C194.48 102.648 207.813 101.981 221.143 101.251C221.661 95.5064 221.661 89.6734 221.143 83.7514C227.485 83.5854 233.818 83.7514 240.143 84.2514C240.769 85.0014 241.269 85.8354 241.643 86.7514C241.858 92.1664 242.358 97.4994 243.143 102.751Z" fill="#7E95AC"/>
<path fill-rule="evenodd" clip-rule="evenodd" d="M302.143 83.7512C309.143 83.7512 316.143 83.7512 323.143 83.7512C323.143 110.751 323.143 137.751 323.143 164.751C316.476 164.751 309.81 164.751 303.143 164.751C309.288 163.761 315.621 163.428 322.143 163.751C321.703 150.585 321.036 137.585 320.143 124.751C318.81 124.751 317.476 124.751 316.143 124.751C314.81 124.751 313.476 124.751 312.143 124.751C313.473 118.079 313.473 111.079 312.143 103.751C313.842 103.911 315.509 103.745 317.143 103.251C318.094 102.533 318.26 101.7 317.643 100.751C315.012 98.8862 313.512 96.7192 313.143 94.2512C310.825 92.2052 308.325 90.3712 305.643 88.7512C303.91 91.2092 302.743 90.8762 302.143 87.7512C302.143 86.4182 302.143 85.0842 302.143 83.7512Z" fill="#9BAECE"/>
<path fill-rule="evenodd" clip-rule="evenodd" d="M243.143 102.751C249.81 102.751 256.476 102.751 263.143 102.751C269.752 103.674 276.419 104.007 283.143 103.751C283.143 110.418 283.143 117.084 283.143 123.751C269.81 123.751 256.476 123.751 243.143 123.751C243.143 116.751 243.143 109.751 243.143 102.751Z" fill="#E4E3DB"/>
<path opacity="0.088" fill-rule="evenodd" clip-rule="evenodd" d="M344.143 165.751C344.143 165.084 343.81 164.751 343.143 164.751C343.143 137.751 343.143 110.751 343.143 83.7512C343.76 83.6402 344.26 83.3072 344.643 82.7512C345.473 110.587 345.307 138.254 344.143 165.751Z" fill="#BCC4E1"/>
<path fill-rule="evenodd" clip-rule="evenodd" d="M225.143 42.7512C230.81 42.7512 236.476 42.7512 242.143 42.7512C248.476 42.7512 254.81 42.7512 261.143 42.7512C261.274 43.4902 261.107 44.1572 260.643 44.7512C254.902 43.7762 249.068 43.4432 243.143 43.7512C243.466 49.9412 243.133 55.9412 242.143 61.7512C235.553 61.4402 229.053 61.7732 222.643 62.7512C222.143 69.4092 221.977 76.0762 222.143 82.7512C215.143 82.7512 208.143 82.7512 201.143 82.7512C201.143 89.0842 201.143 95.4182 201.143 101.751C188.123 101.564 175.123 101.897 162.143 102.751C162.143 109.751 162.143 116.751 162.143 123.751C161.81 123.751 161.476 123.751 161.143 123.751C154.81 123.751 148.476 123.751 142.143 123.751C142.143 131.084 142.143 138.418 142.143 145.751C135.476 145.751 128.81 145.751 122.143 145.751C122.143 145.418 122.143 145.084 122.143 144.751C122.143 137.751 122.143 130.751 122.143 123.751C115.81 123.751 109.476 123.751 103.143 123.751C103.596 122.793 104.262 121.959 105.143 121.251C116.377 118.586 124.711 121.752 130.143 130.751C130.476 130.084 130.81 129.418 131.143 128.751C132.803 132.33 134.97 132.663 137.643 129.751C138.016 126.895 139.182 124.061 141.143 121.251C143.476 120.918 145.81 120.584 148.143 120.251C150.271 117.121 152.771 114.288 155.643 111.751C156.687 109.536 157.353 107.203 157.643 104.751C159.422 101.975 160.422 102.308 160.643 105.751C162.718 99.4122 167.218 96.4122 174.143 96.7512C173.498 93.7042 174.498 91.5382 177.143 90.2512C179.486 90.3752 181.82 90.8752 184.143 91.7512C185.637 91.5422 186.804 90.8752 187.643 89.7512C190.097 91.2642 191.764 90.5972 192.643 87.7512C193.557 88.9052 194.39 88.7382 195.143 87.2512C193.976 84.4182 194.81 83.5842 197.643 84.7512C198.268 81.5452 199.934 80.5452 202.643 81.7512C204.643 78.3712 206.976 78.0382 209.643 80.7512C212.265 77.1262 215.265 73.7932 218.643 70.7512C218.989 69.0332 219.489 67.3662 220.143 65.7512C219.934 65.1652 219.6 64.6652 219.143 64.2512C220.257 62.6812 221.59 61.3482 223.143 60.2512C222.143 59.2512 221.143 58.2512 220.143 57.2512C222.154 54.3742 223.488 51.2072 224.143 47.7512C224.668 47.0592 225.335 46.5592 226.143 46.2512C224.27 45.2982 223.937 44.1312 225.143 42.7512Z" fill="#BFC9D1"/>
<path fill-rule="evenodd" clip-rule="evenodd" d="M103.143 123.751C109.476 123.751 115.81 123.751 122.143 123.751C122.143 130.751 122.143 137.751 122.143 144.751C115.977 144.551 109.644 144.551 103.143 144.751C102.704 137.565 102.704 130.565 103.143 123.751Z" fill="#97A5B1"/>
<path fill-rule="evenodd" clip-rule="evenodd" d="M1.14258 104.751C14.8096 104.751 28.4756 104.751 42.1426 104.751C42.1426 111.084 42.1426 117.418 42.1426 123.751C35.1426 123.751 28.1426 123.751 21.1426 123.751C21.1426 131.084 21.1426 138.418 21.1426 145.751C21.1426 152.084 21.1426 158.418 21.1426 164.751C14.4756 164.751 7.80958 164.751 1.14258 164.751C1.14258 144.751 1.14258 124.751 1.14258 104.751Z" fill="#223153"/>
<path fill-rule="evenodd" clip-rule="evenodd" d="M242.143 123.751C242.476 123.751 242.81 123.751 243.143 123.751C256.476 123.751 269.81 123.751 283.143 123.751C283.143 117.084 283.143 110.418 283.143 103.751C276.419 104.007 269.752 103.674 263.143 102.751C263.143 100.084 263.143 97.4182 263.143 94.7512C268.085 93.0642 273.252 92.0642 278.643 91.7512C280.624 91.8802 282.29 92.5472 283.643 93.7512C285.971 91.8132 288.304 92.1462 290.643 94.7512C290.976 94.4182 291.31 94.0842 291.643 93.7512C293.964 98.5612 297.13 101.894 301.143 103.751C302.307 110.727 302.474 117.727 301.643 124.751C298.757 127.497 296.09 130.497 293.643 133.751C293.578 136.134 292.745 136.801 291.143 135.751C290.143 136.251 289.143 136.751 288.143 137.251C288.476 137.584 288.81 137.918 289.143 138.251C286.367 138.667 283.7 139.5 281.143 140.751C280.476 140.084 279.81 139.418 279.143 138.751C274.647 140.184 270.147 140.518 265.643 139.751C259.577 141.216 253.411 142.049 247.143 142.251C239.358 144.541 231.358 145.374 223.143 144.751C223.143 138.084 223.143 131.418 223.143 124.751C229.665 125.074 235.998 124.741 242.143 123.751Z" fill="#C7CBCD"/>
<path fill-rule="evenodd" clip-rule="evenodd" d="M263.143 83.7512C276.143 83.7512 289.143 83.7512 302.143 83.7512C302.143 85.0842 302.143 86.4182 302.143 87.7512C302.851 103.074 303.184 118.407 303.143 133.751C303.143 137.418 303.143 141.084 303.143 144.751C289.633 144.422 276.299 144.755 263.143 145.751C243.14 145.918 223.14 145.751 203.143 145.251C202.643 144.751 202.143 144.251 201.643 143.751C201.4 137.036 200.9 130.37 200.143 123.751C214.143 123.751 228.143 123.751 242.143 123.751C235.998 124.741 229.665 125.074 223.143 124.751C223.143 131.418 223.143 138.084 223.143 144.751C231.358 145.374 239.358 144.541 247.143 142.251C253.411 142.049 259.577 141.216 265.643 139.751C270.147 140.518 274.647 140.184 279.143 138.751C279.81 139.418 280.476 140.084 281.143 140.751C283.7 139.5 286.367 138.667 289.143 138.251C288.81 137.918 288.476 137.584 288.143 137.251C289.143 136.751 290.143 136.251 291.143 135.751C292.745 136.801 293.578 136.134 293.643 133.751C296.09 130.497 298.757 127.497 301.643 124.751C302.474 117.727 302.307 110.727 301.143 103.751C297.13 101.894 293.964 98.5612 291.643 93.7512C291.31 94.0842 290.976 94.4182 290.643 94.7512C288.304 92.1462 285.971 91.8132 283.643 93.7512C282.29 92.5472 280.624 91.8802 278.643 91.7512C273.252 92.0642 268.085 93.0642 263.143 94.7512C263.143 91.0842 263.143 87.4182 263.143 83.7512Z" fill="#C0C9D3"/>
<path fill-rule="evenodd" clip-rule="evenodd" d="M42.1426 104.751C42.4756 104.751 42.8096 104.751 43.1426 104.751C49.1516 104.585 55.1516 104.752 61.1426 105.251C58.8296 105.913 56.4966 106.413 54.1426 106.751C54.2826 108.375 53.6156 109.541 52.1426 110.251C52.4756 110.584 52.8096 110.918 53.1426 111.251C51.6426 112.418 50.1426 113.584 48.6426 114.751C48.1696 117.03 47.1696 119.03 45.6426 120.751C45.3096 120.418 44.9756 120.084 44.6426 119.751C42.8756 125.327 40.3756 130.993 37.1426 136.751C38.1046 140.526 40.2716 141.526 43.6426 139.751C49.5076 140.986 55.3406 142.32 61.1426 143.751C48.6496 144.418 36.3156 145.084 24.1426 145.751C23.1426 145.751 22.1426 145.751 21.1426 145.751C21.1426 138.418 21.1426 131.084 21.1426 123.751C28.1426 123.751 35.1426 123.751 42.1426 123.751C42.1426 117.418 42.1426 111.084 42.1426 104.751Z" fill="#CDD3E1"/>
<path fill-rule="evenodd" clip-rule="evenodd" d="M161.143 123.751C161.143 130.751 161.143 137.751 161.143 144.751C167.818 144.917 174.485 144.751 181.143 144.251C181.956 137.832 182.456 131.332 182.643 124.751C188.384 123.776 194.218 123.443 200.143 123.751C200.9 130.37 201.4 137.036 201.643 143.751C202.143 144.251 202.643 144.751 203.143 145.251C223.14 145.751 243.14 145.918 263.143 145.751C263.143 152.418 263.143 159.084 263.143 165.751C216.136 165.98 169.136 165.647 122.143 164.751C122.143 158.418 122.143 152.084 122.143 145.751C128.81 145.751 135.476 145.751 142.143 145.751C142.143 138.418 142.143 131.084 142.143 123.751C148.476 123.751 154.81 123.751 161.143 123.751Z" fill="#9AACBD"/>
<path fill-rule="evenodd" clip-rule="evenodd" d="M21.1426 145.751C22.1426 145.751 23.1426 145.751 24.1426 145.751C43.8096 145.751 63.4756 145.751 83.1426 145.751C84.0606 152.026 84.3936 158.359 84.1426 164.751C70.6476 165.253 57.3146 165.92 44.1426 166.751C43.4756 172.751 42.8096 178.751 42.1426 184.751C42.1426 178.081 42.1426 171.421 42.1426 164.751C35.1426 164.751 28.1426 164.751 21.1426 164.751C21.1426 158.418 21.1426 152.084 21.1426 145.751Z" fill="#9CADC2"/>
<path opacity="0.053" fill-rule="evenodd" clip-rule="evenodd" d="M324.143 165.751C324.143 165.418 324.143 165.084 324.143 164.751C330.476 164.751 336.81 164.751 343.143 164.751C343.81 164.751 344.143 165.084 344.143 165.751C337.575 167.06 330.909 167.06 324.143 165.751Z" fill="#B6BFD9"/>
<path fill-rule="evenodd" clip-rule="evenodd" d="M312.143 124.751C313.476 124.751 314.81 124.751 316.143 124.751C314.063 127.169 313.397 129.835 314.143 132.751C310.477 137.712 308.31 143.045 307.643 148.751C306.021 151.157 303.854 152.99 301.143 154.251C302.265 155.864 301.765 157.031 299.643 157.751C299.255 156.823 298.588 156.156 297.643 155.751C295.808 157.335 293.808 158.668 291.643 159.751C291.31 159.084 290.976 158.418 290.643 157.751C289.69 159.843 288.357 160.176 286.643 158.751C283.815 160.247 282.149 162.58 281.643 165.751C277.155 161.343 275.822 161.677 277.643 166.751C276.954 165.894 276.121 165.228 275.143 164.751C274.103 166.626 272.603 167.959 270.643 168.751C269.545 167.867 269.045 166.867 269.143 165.751C268.415 168.463 267.582 171.131 266.643 173.751C265.902 172.611 265.068 172.611 264.143 173.751C263.645 172.651 263.312 171.651 263.143 170.751C262.381 171.881 261.714 173.041 261.143 174.251C257.84 174.471 254.673 174.631 251.643 174.751C251.335 173.941 250.835 173.281 250.143 172.751C246.941 173.381 243.774 174.041 240.643 174.751C239.06 174.761 237.394 174.421 235.643 173.751C234.31 174.421 232.976 175.081 231.643 175.751C231.31 175.081 230.976 174.421 230.643 173.751C227.198 173.601 223.698 173.601 220.143 173.751C219.476 173.581 218.81 173.421 218.143 173.251C219.339 172.601 219.339 172.101 218.143 171.751C217.045 172.871 215.878 172.871 214.643 171.751C213.698 172.161 213.031 172.821 212.643 173.751C212.31 173.081 211.976 172.421 211.643 171.751C209.945 172.981 207.945 173.651 205.643 173.751C202.558 173.891 199.725 173.221 197.143 171.751C194.58 171.991 194.58 172.491 197.143 173.251C192.116 174.191 187.283 173.691 182.643 171.751C181.31 173.081 179.976 173.081 178.643 171.751C178.255 172.681 177.588 173.341 176.643 173.751C171.239 172.141 165.572 171.481 159.643 171.751C158.976 174.421 158.31 174.421 157.643 171.751C154.853 174.331 152.019 174.331 149.143 171.751C147.191 173.061 145.358 173.731 143.643 173.751C140.787 170.771 137.787 170.441 134.643 172.751C130.297 172.381 125.797 171.381 121.143 169.751C116.629 170.571 111.962 170.901 107.143 170.751C105.947 170.401 105.947 169.901 107.143 169.251C105.81 169.084 104.476 168.918 103.143 168.751C101.104 169.261 99.2706 169.261 97.6426 168.751C97.3096 169.751 96.9756 170.751 96.6426 171.751C95.5806 171.151 94.4146 170.821 93.1426 170.751C87.0656 172.481 80.8996 173.811 74.6426 174.751C71.4276 174.741 68.5946 173.741 66.1426 171.751C64.9466 172.101 64.9466 172.601 66.1426 173.251C63.8626 173.461 61.8626 174.301 60.1426 175.751C59.2566 174.931 58.9236 173.931 59.1426 172.751C56.3706 170.821 54.5376 171.481 53.6426 174.751C52.5756 174.061 51.4086 173.561 50.1426 173.251C53.8326 172.831 53.9996 171.991 50.6426 170.751C48.9356 171.391 47.1026 171.391 45.1426 170.751C45.3796 169.461 45.0466 168.46 44.1426 167.751C44.1426 167.418 44.1426 167.084 44.1426 166.751C57.3146 165.92 70.6476 165.253 84.1426 164.751C84.3936 158.359 84.0606 152.026 83.1426 145.751C89.9966 146.075 96.6636 145.742 103.143 144.751C109.644 144.551 115.977 144.551 122.143 144.751C122.143 145.084 122.143 145.418 122.143 145.751C122.143 152.084 122.143 158.418 122.143 164.751C169.136 165.647 216.136 165.98 263.143 165.751C263.143 159.084 263.143 152.418 263.143 145.751C276.299 144.755 289.633 144.422 303.143 144.751C303.143 141.084 303.143 137.418 303.143 133.751C304.12 130.964 304.453 127.964 304.143 124.751C306.81 124.751 309.476 124.751 312.143 124.751Z" fill="#8098B1"/>
<path fill-rule="evenodd" clip-rule="evenodd" d="M316.143 124.751C317.476 124.751 318.81 124.751 320.143 124.751C320.359 130.502 319.359 136.002 317.143 141.251C319.591 143.551 318.924 144.884 315.143 145.251C315.83 149.216 314.83 152.883 312.143 156.251C314.6 157.405 314.6 158.739 312.143 160.251C312.476 160.584 312.81 160.918 313.143 161.251C309.617 162.588 305.951 163.088 302.143 162.751C302.306 165.108 302.14 167.441 301.643 169.751C301.22 168.295 300.387 167.795 299.143 168.251C297.283 171.611 294.616 174.111 291.143 175.751C290.81 175.081 290.476 174.421 290.143 173.751C289.257 174.571 288.924 175.571 289.143 176.751C281.708 177.441 274.041 177.441 266.143 176.751C263.349 178.241 260.349 178.901 257.143 178.751C254.3 178.281 251.634 178.281 249.143 178.751C246.446 176.411 243.946 176.411 241.643 178.751C231.986 178.241 222.32 177.911 212.643 177.751C211.643 178.421 210.643 179.081 209.643 179.751C200.02 177.781 190.686 177.111 181.643 177.751C174.125 178.971 166.959 179.971 160.143 180.751C153.485 180.381 147.485 179.041 142.143 176.751C137.997 177.701 133.997 177.701 130.143 176.751C128.996 177.071 128.162 177.731 127.643 178.751C121.489 177.901 114.989 177.231 108.143 176.751C107.95 180.701 107.45 180.701 106.643 176.751C105.976 178.081 105.31 179.421 104.643 180.751C103.687 179.361 102.354 178.691 100.643 178.751C96.8036 178.761 92.8036 179.091 88.6426 179.751C85.8496 179.951 83.3496 179.281 81.1426 177.751C75.7216 177.721 70.2216 178.051 64.6426 178.751C64.3096 178.081 63.9756 177.421 63.6426 176.751C62.5576 177.541 61.3906 178.211 60.1426 178.751C57.2256 178.181 54.2256 178.181 51.1426 178.751C50.4626 182.571 48.1296 184.241 44.1426 183.751C44.1426 178.421 44.1426 173.081 44.1426 167.751C45.0466 168.46 45.3796 169.461 45.1426 170.751C47.1026 171.391 48.9356 171.391 50.6426 170.751C53.9996 171.991 53.8326 172.831 50.1426 173.251C51.4086 173.561 52.5756 174.061 53.6426 174.751C54.5376 171.481 56.3706 170.821 59.1426 172.751C58.9236 173.931 59.2566 174.931 60.1426 175.751C61.8626 174.301 63.8626 173.461 66.1426 173.251C64.9466 172.601 64.9466 172.101 66.1426 171.751C68.5946 173.741 71.4276 174.741 74.6426 174.751C80.8996 173.811 87.0656 172.481 93.1426 170.751C94.4146 170.821 95.5806 171.151 96.6426 171.751C96.9756 170.751 97.3096 169.751 97.6426 168.751C99.2706 169.261 101.104 169.261 103.143 168.751C104.476 168.918 105.81 169.084 107.143 169.251C105.947 169.901 105.947 170.401 107.143 170.751C111.962 170.901 116.629 170.571 121.143 169.751C125.797 171.381 130.297 172.381 134.643 172.751C137.787 170.441 140.787 170.771 143.643 173.751C145.358 173.731 147.191 173.061 149.143 171.751C152.019 174.331 154.853 174.331 157.643 171.751C158.31 174.421 158.976 174.421 159.643 171.751C165.572 171.481 171.239 172.141 176.643 173.751C177.588 173.341 178.255 172.681 178.643 171.751C179.976 173.081 181.31 173.081 182.643 171.751C187.283 173.691 192.116 174.191 197.143 173.251C194.58 172.491 194.58 171.991 197.143 171.751C199.725 173.221 202.558 173.891 205.643 173.751C207.945 173.651 209.945 172.981 211.643 171.751C211.976 172.421 212.31 173.081 212.643 173.751C213.031 172.821 213.698 172.161 214.643 171.751C215.878 172.871 217.045 172.871 218.143 171.751C219.339 172.101 219.339 172.601 218.143 173.251C218.81 173.421 219.476 173.581 220.143 173.751C223.698 173.601 227.198 173.601 230.643 173.751C230.976 174.421 231.31 175.081 231.643 175.751C232.976 175.081 234.31 174.421 235.643 173.751C237.394 174.421 239.06 174.761 240.643 174.751C243.774 174.041 246.941 173.381 250.143 172.751C250.835 173.281 251.335 173.941 251.643 174.751C254.673 174.631 257.84 174.471 261.143 174.251C261.714 173.041 262.381 171.881 263.143 170.751C263.312 171.651 263.645 172.651 264.143 173.751C265.068 172.611 265.902 172.611 266.643 173.751C267.582 171.131 268.415 168.463 269.143 165.751C269.045 166.867 269.545 167.867 270.643 168.751C272.603 167.959 274.103 166.626 275.143 164.751C276.121 165.228 276.954 165.894 277.643 166.751C275.822 161.677 277.155 161.343 281.643 165.751C282.149 162.58 283.815 160.247 286.643 158.751C288.357 160.176 289.69 159.843 290.643 157.751C290.976 158.418 291.31 159.084 291.643 159.751C293.808 158.668 295.808 157.335 297.643 155.751C298.588 156.156 299.255 156.823 299.643 157.751C301.765 157.031 302.265 155.864 301.143 154.251C303.854 152.99 306.021 151.157 307.643 148.751C308.31 143.045 310.477 137.712 314.143 132.751C313.397 129.835 314.063 127.169 316.143 124.751Z" fill="#7E98B8"/>
<path fill-rule="evenodd" clip-rule="evenodd" d="M303.143 164.751C309.81 164.751 316.476 164.751 323.143 164.751C323.143 171.751 323.143 178.751 323.143 185.751C316.476 185.751 309.81 185.751 303.143 185.751C303.143 178.751 303.143 171.751 303.143 164.751Z" fill="#1C304E"/>
<path fill-rule="evenodd" clip-rule="evenodd" d="M320.143 124.751C321.036 137.585 321.703 150.585 322.143 163.751C315.621 163.428 309.288 163.761 303.143 164.751C303.143 171.751 303.143 178.751 303.143 185.751C309.81 185.751 316.476 185.751 323.143 185.751C323.143 186.421 323.476 186.751 324.143 186.751C317.408 188.081 310.575 188.081 303.643 186.751C303.143 193.071 302.977 199.411 303.143 205.751C302.81 205.751 302.476 205.751 302.143 205.751C302.143 199.081 302.143 192.421 302.143 185.751C302.305 183.721 302.138 181.721 301.643 179.751C301.149 181.381 300.983 183.051 301.143 184.751C234.974 184.421 168.974 184.751 103.143 185.751C86.8096 185.751 70.4756 185.751 54.1426 185.751C49.9406 186.071 45.9406 185.731 42.1426 184.751C42.8096 178.751 43.4756 172.751 44.1426 166.751C44.1426 167.084 44.1426 167.418 44.1426 167.751C44.1426 173.081 44.1426 178.421 44.1426 183.751C48.1296 184.241 50.4626 182.571 51.1426 178.751C54.2256 178.181 57.2256 178.181 60.1426 178.751C61.3906 178.211 62.5576 177.541 63.6426 176.751C63.9756 177.421 64.3096 178.081 64.6426 178.751C70.2216 178.051 75.7216 177.721 81.1426 177.751C83.3496 179.281 85.8496 179.951 88.6426 179.751C92.8036 179.091 96.8036 178.761 100.643 178.751C102.354 178.691 103.687 179.361 104.643 180.751C105.31 179.421 105.976 178.081 106.643 176.751C107.45 180.701 107.95 180.701 108.143 176.751C114.989 177.231 121.489 177.901 127.643 178.751C128.162 177.731 128.996 177.071 130.143 176.751C133.997 177.701 137.997 177.701 142.143 176.751C147.485 179.041 153.485 180.381 160.143 180.751C166.959 179.971 174.125 178.971 181.643 177.751C190.686 177.111 200.02 177.781 209.643 179.751C210.643 179.081 211.643 178.421 212.643 177.751C222.32 177.911 231.986 178.241 241.643 178.751C243.946 176.411 246.446 176.411 249.143 178.751C251.634 178.281 254.3 178.281 257.143 178.751C260.349 178.901 263.349 178.241 266.143 176.751C274.041 177.441 281.708 177.441 289.143 176.751C288.924 175.571 289.257 174.571 290.143 173.751C290.476 174.421 290.81 175.081 291.143 175.751C294.616 174.111 297.283 171.611 299.143 168.251C300.387 167.795 301.22 168.295 301.643 169.751C302.14 167.441 302.306 165.108 302.143 162.751C305.951 163.088 309.617 162.588 313.143 161.251C312.81 160.918 312.476 160.584 312.143 160.251C314.6 158.739 314.6 157.405 312.143 156.251C314.83 152.883 315.83 149.216 315.143 145.251C318.924 144.884 319.591 143.551 317.143 141.251C319.359 136.002 320.359 130.502 320.143 124.751Z" fill="#829BC1"/>
<path opacity="0.043" fill-rule="evenodd" clip-rule="evenodd" d="M1.14258 164.751C7.80958 164.751 14.4756 164.751 21.1426 164.751C21.1426 171.751 21.1426 178.751 21.1426 185.751C20.4756 185.751 20.1426 186.081 20.1426 186.751C19.1516 180.271 18.8186 173.601 19.1426 166.751C12.8006 166.917 6.46758 166.751 0.142578 166.251C0.698578 165.868 1.03158 165.368 1.14258 164.751Z" fill="#C2CBE8"/>
<path fill-rule="evenodd" clip-rule="evenodd" d="M302.143 185.751C255.476 185.751 208.81 185.751 162.143 185.751C142.476 185.751 122.81 185.751 103.143 185.751C168.974 184.751 234.974 184.421 301.143 184.751C300.983 183.051 301.149 181.381 301.643 179.751C302.138 181.721 302.305 183.721 302.143 185.751Z" fill="#A6BFEB"/>
<path opacity="0.01" fill-rule="evenodd" clip-rule="evenodd" d="M324.143 185.751C325.476 186.421 325.476 186.421 324.143 185.751Z" fill="#757A8E"/>
<path fill-rule="evenodd" clip-rule="evenodd" d="M21.1426 164.751C28.1426 164.751 35.1426 164.751 42.1426 164.751C42.1426 171.421 42.1426 178.081 42.1426 184.751C45.9406 185.731 49.9406 186.071 54.1426 185.751C52.9986 188.701 51.3316 191.361 49.1426 193.751C49.7166 195.311 50.3826 196.811 51.1426 198.251C50.8096 198.581 50.4756 198.921 50.1426 199.251C51.0906 199.731 52.0906 199.901 53.1426 199.751C53.1426 200.751 53.1426 201.751 53.1426 202.751C51.7696 202.591 50.4356 202.761 49.1426 203.251C50.5846 203.631 51.5846 204.461 52.1426 205.751C48.4756 205.751 44.8096 205.751 41.1426 205.751C41.1426 200.081 41.1426 194.421 41.1426 188.751C41.1426 188.081 41.1426 187.421 41.1426 186.751C34.6636 185.761 27.9966 185.431 21.1426 185.751C21.1426 178.751 21.1426 171.751 21.1426 164.751Z" fill="#233452"/>
<path fill-rule="evenodd" clip-rule="evenodd" d="M54.1426 185.751C70.4756 185.751 86.8096 185.751 103.143 185.751C122.81 185.751 142.476 185.751 162.143 185.751C185.973 186.581 209.973 187.081 234.143 187.251C234.81 187.581 235.476 187.921 236.143 188.251C231.059 188.421 226.059 189.091 221.143 190.251C220.286 190.941 219.62 191.771 219.143 192.751C214.476 193.421 209.81 194.081 205.143 194.751C207.481 196.301 206.981 197.301 203.643 197.751C202.161 196.141 200.328 195.141 198.143 194.751C198.362 195.931 198.029 196.931 197.143 197.751C195.763 196.271 194.096 195.271 192.143 194.751C190.932 195.521 190.932 196.361 192.143 197.251C185.991 197.121 179.825 197.961 173.643 199.751C171.665 198.521 169.165 198.021 166.143 198.251C166.971 199.161 167.971 199.831 169.143 200.251C167.81 200.921 167.81 201.581 169.143 202.251C166.196 202.331 165.196 203.491 166.143 205.751C165.476 205.751 164.81 205.751 164.143 205.751C126.975 205.781 89.6416 205.781 52.1426 205.751C51.5846 204.461 50.5846 203.631 49.1426 203.251C50.4356 202.761 51.7696 202.591 53.1426 202.751C53.1426 201.751 53.1426 200.751 53.1426 199.751C52.0906 199.901 51.0906 199.731 50.1426 199.251C50.4756 198.921 50.8096 198.581 51.1426 198.251C50.3826 196.811 49.7166 195.311 49.1426 193.751C51.3316 191.361 52.9986 188.701 54.1426 185.751Z" fill="#18335A"/>
<path fill-rule="evenodd" clip-rule="evenodd" d="M162.143 185.751C208.81 185.751 255.476 185.751 302.143 185.751C302.143 192.421 302.143 199.081 302.143 205.751C258.143 205.751 214.143 205.751 170.143 205.751C169.476 205.751 168.81 205.751 168.143 205.751C167.476 205.751 166.81 205.751 166.143 205.751C165.196 203.491 166.196 202.331 169.143 202.251C167.81 201.581 167.81 200.921 169.143 200.251C167.971 199.831 166.971 199.161 166.143 198.251C169.165 198.021 171.665 198.521 173.643 199.751C179.825 197.961 185.991 197.121 192.143 197.251C190.932 196.361 190.932 195.521 192.143 194.751C194.096 195.271 195.763 196.271 197.143 197.751C198.029 196.931 198.362 195.931 198.143 194.751C200.328 195.141 202.161 196.141 203.643 197.751C206.981 197.301 207.481 196.301 205.143 194.751C209.81 194.081 214.476 193.421 219.143 192.751C219.62 191.771 220.286 190.941 221.143 190.251C226.059 189.091 231.059 188.421 236.143 188.251C235.476 187.921 234.81 187.581 234.143 187.251C209.973 187.081 185.973 186.581 162.143 185.751Z" fill="#1E3457"/>
<path opacity="0.024" fill-rule="evenodd" clip-rule="evenodd" d="M21.1426 185.751C27.9966 185.431 34.6636 185.761 41.1426 186.751C39.8096 187.421 39.8096 188.081 41.1426 188.751C41.1426 194.421 41.1426 200.081 41.1426 205.751C40.5256 205.861 40.0256 206.191 39.6426 206.751C39.1426 200.431 38.9766 194.091 39.1426 187.751C32.6206 188.071 26.2876 187.741 20.1426 186.751C20.8096 186.751 21.1426 186.421 21.1426 185.751Z" fill="#C2CCEB"/>
<path opacity="0.129" fill-rule="evenodd" clip-rule="evenodd" d="M164.143 205.751C164.81 205.751 165.476 205.751 166.143 205.751C166.81 205.751 167.476 205.751 168.143 205.751C168.81 207.081 169.476 207.081 170.143 205.751C214.143 205.751 258.143 205.751 302.143 205.751C302.143 206.421 302.476 206.751 303.143 206.751C260.126 207.631 216.959 207.961 173.643 207.751C170.067 207.731 166.901 207.071 164.143 205.751Z" fill="#BBC8ED"/>
<path opacity="0.016" fill-rule="evenodd" clip-rule="evenodd" d="M303.143 205.751C304.476 206.421 304.476 206.421 303.143 205.751Z" fill="#8A91A3"/>
<path opacity="0.425" fill-rule="evenodd" clip-rule="evenodd" d="M283.143 240.751C282.156 235.941 281.822 230.941 282.143 225.751C278.476 225.751 274.81 225.751 271.143 225.751C236.476 225.751 201.81 225.751 167.143 225.751C132.476 225.751 97.8096 225.751 63.1426 225.751C136.349 225.081 209.682 224.411 283.143 223.751C284.667 224.781 285.334 226.281 285.143 228.251C284.976 229.421 284.81 230.581 284.643 231.751C283.754 230.361 283.254 230.531 283.143 232.251C284.067 233.401 284.067 234.401 283.143 235.251C284.071 235.641 284.738 236.301 285.143 237.251C283.481 238.351 282.815 239.521 283.143 240.751Z" fill="#95B4F1"/>
<path opacity="0.022" fill-rule="evenodd" clip-rule="evenodd" d="M63.1424 225.751C63.1424 232.081 63.1424 238.421 63.1424 244.751C62.4754 244.751 62.1424 245.081 62.1424 245.751C60.9874 238.931 60.8214 231.931 61.6424 224.751C62.0254 225.311 62.5254 225.641 63.1424 225.751Z" fill="#C7E6FF"/>
<path fill-rule="evenodd" clip-rule="evenodd" d="M63.1426 225.751C97.8096 225.751 132.476 225.751 167.143 225.751C166.81 226.421 166.476 227.081 166.143 227.751C166.321 228.941 166.654 230.111 167.143 231.251C164.947 235.201 163.28 239.361 162.143 243.751C155.621 243.431 149.288 243.761 143.143 244.751C116.476 244.751 89.8096 244.751 63.1426 244.751C63.1426 238.421 63.1426 232.081 63.1426 225.751Z" fill="#3E82D2"/>
<path fill-rule="evenodd" clip-rule="evenodd" d="M271.143 225.751C274.81 225.751 278.476 225.751 282.143 225.751C281.822 230.941 282.156 235.941 283.143 240.751C283.781 241.771 284.448 242.771 285.143 243.751C285.1 244.671 284.767 245.331 284.143 245.751C284.143 245.081 283.81 244.751 283.143 244.751C279.476 244.751 275.81 244.751 272.143 244.751C273.562 243.801 275.228 243.471 277.143 243.751C278.509 236.521 276.509 230.521 271.143 225.751Z" fill="#435D94"/>
<path fill-rule="evenodd" clip-rule="evenodd" d="M166.143 227.751C177.849 227.451 189.516 227.951 201.143 229.251C202.283 231.221 203.616 233.061 205.143 234.751C206.825 238.491 205.825 241.321 202.143 243.251C188.814 243.751 175.48 243.921 162.143 243.751C163.28 239.361 164.947 235.201 167.143 231.251C166.654 230.111 166.321 228.941 166.143 227.751Z" fill="#3161B0"/>
<path fill-rule="evenodd" clip-rule="evenodd" d="M167.143 225.751C201.81 225.751 236.476 225.751 271.143 225.751C276.509 230.521 278.509 236.521 277.143 243.751C275.228 243.471 273.562 243.801 272.143 244.751C229.143 244.751 186.143 244.751 143.143 244.751C149.288 243.761 155.621 243.431 162.143 243.751C175.48 243.921 188.814 243.751 202.143 243.251C205.825 241.321 206.825 238.491 205.143 234.751C203.616 233.061 202.283 231.221 201.143 229.251C189.516 227.951 177.849 227.451 166.143 227.751C166.476 227.081 166.81 226.421 167.143 225.751Z" fill="#2B529B"/>
<path fill-rule="evenodd" clip-rule="evenodd" d="M244.143 228.751C253.168 228.421 262.168 228.751 271.143 229.751C272.254 230.861 272.921 232.191 273.143 233.751C273.376 236.651 273.043 239.651 272.143 242.751C260.472 242.921 248.805 242.751 237.143 242.251C235.976 241.751 235.143 240.921 234.643 239.751C234.31 240.081 233.976 240.421 233.643 240.751C232.871 239.401 231.704 238.571 230.143 238.251C231.555 236.081 232.055 233.911 231.643 231.751C233.632 229.501 235.965 229.171 238.643 230.751C240.754 230.551 242.588 229.881 244.143 228.751Z" fill="#345FAF"/>
<path opacity="0.388" fill-rule="evenodd" clip-rule="evenodd" d="M63.1426 245.751C63.1426 245.421 63.1426 245.081 63.1426 244.751C89.8096 244.751 116.476 244.751 143.143 244.751C186.143 244.751 229.143 244.751 272.143 244.751C275.81 244.751 279.476 244.751 283.143 244.751C283.81 244.751 284.143 245.081 284.143 245.751C210.722 245.761 137.055 245.761 63.1426 245.751Z" fill="#8EADF6"/>
<path opacity="0.016" fill-rule="evenodd" clip-rule="evenodd" d="M62.1426 245.751C62.4756 245.751 62.8096 245.751 63.1426 245.751C62.9576 246.421 62.6236 246.421 62.1426 245.751Z" fill="#C0DEFE"/>
<path opacity="0.286" fill-rule="evenodd" clip-rule="evenodd" d="M225.143 266.751C184.143 266.751 143.143 266.751 102.143 266.751C100.87 266.171 100.87 265.511 102.143 264.751C142.712 265.831 183.712 265.831 225.143 264.751C226.106 265.221 226.106 265.891 225.143 266.751Z" fill="#AACCFF"/>
<path fill-rule="evenodd" clip-rule="evenodd" d="M102.143 266.751C143.143 266.751 184.143 266.751 225.143 266.751C225.143 273.421 225.143 280.081 225.143 286.751C224.81 286.751 224.476 286.751 224.143 286.751C224.143 280.421 224.143 274.081 224.143 267.751C196.81 267.751 169.476 267.751 142.143 267.751C143.428 274.401 143.428 280.741 142.143 286.751C128.81 286.751 115.476 286.751 102.143 286.751C102.143 280.081 102.143 273.421 102.143 266.751Z" fill="#4789D4"/>
<path fill-rule="evenodd" clip-rule="evenodd" d="M224.143 286.751C196.81 286.751 169.476 286.751 142.143 286.751C143.428 280.741 143.428 274.401 142.143 267.751C169.476 267.751 196.81 267.751 224.143 267.751C224.143 274.081 224.143 280.421 224.143 286.751Z" fill="#2B61AC"/>
<path opacity="0.482" fill-rule="evenodd" clip-rule="evenodd" d="M102.143 286.751C115.476 286.751 128.81 286.751 142.143 286.751C169.476 286.751 196.81 286.751 224.143 286.751C224.476 286.751 224.81 286.751 225.143 286.751C225.143 287.081 225.143 287.421 225.143 287.751C184.1 287.421 143.1 287.761 102.143 288.751C101.18 288.281 101.18 287.611 102.143 286.751Z" fill="#89B4FC"/>
<path opacity="0.016" fill-rule="evenodd" clip-rule="evenodd" d="M225.143 287.751C226.476 288.421 226.476 288.421 225.143 287.751Z" fill="#ABCDFF"/>
</svg>
