<svg width="342" height="326" viewBox="0 0 342 326" fill="none" xmlns="http://www.w3.org/2000/svg">
<path fill-rule="evenodd" clip-rule="evenodd" d="M180.975 9.50684C174.868 10.1972 168.702 10.1972 162.475 9.50684C162.058 10.7628 161.225 11.4294 159.975 11.5068C159.975 7.84014 159.975 4.17354 159.975 0.506836C166.975 0.506836 173.975 0.506836 180.975 0.506836C180.975 3.50684 180.975 6.50684 180.975 9.50684Z" fill="#F14721"/>
<path fill-rule="evenodd" clip-rule="evenodd" d="M180.975 9.50684C180.975 12.8401 180.975 16.1735 180.975 19.5068C173.975 19.5068 166.975 19.5068 159.975 19.5068C159.975 19.1735 159.975 18.8401 159.975 18.5068C159.975 17.8401 159.975 17.1735 159.975 16.5068C159.975 14.8401 159.975 13.1735 159.975 11.5068C161.225 11.4294 162.058 10.7628 162.475 9.50684C168.702 10.1972 174.868 10.1972 180.975 9.50684Z" fill="#E45B0C"/>
<path opacity="0.097" fill-rule="evenodd" clip-rule="evenodd" d="M159.975 16.507C159.975 17.1737 159.975 17.8403 159.975 18.507C158.642 18.8403 158.642 19.1737 159.975 19.507C159.975 19.8403 159.975 20.1737 159.975 20.507C157.308 20.507 154.642 20.507 151.975 20.507C148.642 20.507 145.308 20.507 141.975 20.507C141.864 19.8896 141.531 19.3896 140.975 19.007C146.632 18.5076 152.299 18.3409 157.975 18.507C157.606 16.0135 158.272 15.3468 159.975 16.507Z" fill="#FE9F6C"/>
<path opacity="0.082" fill-rule="evenodd" clip-rule="evenodd" d="M200.975 20.5069C194.308 20.5069 187.642 20.5069 180.975 20.5069C180.975 20.1736 180.975 19.8402 180.975 19.5069C187.625 18.7835 194.125 18.4502 200.475 18.5069C202.159 18.6903 202.325 19.357 200.975 20.5069Z" fill="#BAB2CB"/>
<path fill-rule="evenodd" clip-rule="evenodd" d="M180.975 20.5068C180.975 27.1735 180.975 33.8401 180.975 40.5068C176.308 40.5068 171.642 40.5068 166.975 40.5068C164.975 40.5068 162.975 40.5068 160.975 40.5068C160.975 33.8401 160.975 27.1735 160.975 20.5068C167.642 20.5068 174.308 20.5068 180.975 20.5068Z" fill="#FEE049"/>
<path fill-rule="evenodd" clip-rule="evenodd" d="M180.975 20.5068C187.642 20.5068 194.308 20.5068 200.975 20.5068C200.975 40.5068 200.975 60.5068 200.975 80.5068C200.642 80.5068 200.308 80.5068 199.975 80.5068C184.15 79.5108 168.15 79.1768 151.975 79.5068C153.057 77.6678 153.89 75.6678 154.475 73.5068C156.18 72.2438 157.847 71.9098 159.475 72.5068C159.958 71.5588 160.124 70.5588 159.975 69.5068C173.244 68.3558 173.244 67.5218 159.975 67.0068C161.677 65.2888 163.51 65.1218 165.475 66.5068C166.403 64.6718 167.569 64.3388 168.975 65.5068C170.609 65.0388 171.775 64.0388 172.475 62.5068C173.582 63.7188 174.082 63.3858 173.975 61.5068C174.967 61.6788 175.633 61.3448 175.975 60.5068C177.642 60.5068 179.308 60.5068 180.975 60.5068C180.975 53.8401 180.975 47.1735 180.975 40.5068C180.975 33.8401 180.975 27.1735 180.975 20.5068Z" fill="#2B315C"/>
<path opacity="0.07" fill-rule="evenodd" clip-rule="evenodd" d="M81.9751 41.5069C75.6421 41.5069 69.3081 41.5069 62.9751 41.5069C62.8641 40.8895 62.5311 40.3895 61.9751 40.0069C68.9751 39.3402 75.9751 39.3402 82.9751 40.0069C82.4191 40.3895 82.0861 40.8895 81.9751 41.5069Z" fill="#FEAB92"/>
<path fill-rule="evenodd" clip-rule="evenodd" d="M141.975 20.5068C145.308 20.5068 148.642 20.5068 151.975 20.5068C150.026 28.3697 148.693 36.203 147.975 44.0068C148.364 47.2375 149.364 50.2375 150.975 53.0068C150.223 53.6776 149.889 54.5109 149.975 55.5068C147.709 53.7895 145.209 52.4562 142.475 51.5068C142.197 52.4226 141.697 53.0893 140.975 53.5068C140.647 42.3274 140.98 31.3274 141.975 20.5068Z" fill="#CC4E2C"/>
<path fill-rule="evenodd" clip-rule="evenodd" d="M151.975 20.5068C154.642 20.5068 157.308 20.5068 159.975 20.5068C160.245 33.8421 160.578 47.1754 160.975 60.5068C157.642 60.5068 154.308 60.5068 150.975 60.5068C150.846 58.7908 150.513 57.1238 149.975 55.5068C149.889 54.5109 150.223 53.6776 150.975 53.0068C149.364 50.2375 148.364 47.2375 147.975 44.0068C148.693 36.203 150.026 28.3697 151.975 20.5068Z" fill="#C54E09"/>
<path opacity="0.129" fill-rule="evenodd" clip-rule="evenodd" d="M279.975 40.5069C279.308 40.5069 278.975 40.8402 278.975 41.5069C272.642 41.5069 266.308 41.5069 259.975 41.5069C259.864 40.8895 259.531 40.3895 258.975 40.0069C266.154 39.1856 273.154 39.3523 279.975 40.5069Z" fill="#FEA591"/>
<path opacity="0.01" fill-rule="evenodd" clip-rule="evenodd" d="M279.975 40.5068C281.308 41.1735 281.308 41.1735 279.975 40.5068Z" fill="#DD7464"/>
<path fill-rule="evenodd" clip-rule="evenodd" d="M259.975 41.5068C266.308 41.5068 272.642 41.5068 278.975 41.5068C279.308 41.5068 279.642 41.5068 279.975 41.5068C279.975 47.8401 279.975 54.1735 279.975 60.5068C279.975 60.8398 279.975 61.1738 279.975 61.5068C279.642 61.5068 279.308 61.5068 278.975 61.5068C278.975 58.5068 278.975 55.5068 278.975 52.5068C274.928 52.1449 271.095 51.8115 267.475 51.5068C265.205 52.8667 262.705 53.5334 259.975 53.5068C260.277 56.0658 259.943 58.3998 258.975 60.5068C258.652 53.9847 258.985 47.6514 259.975 41.5068Z" fill="#C65A3D"/>
<path fill-rule="evenodd" clip-rule="evenodd" d="M159.975 19.5068C166.975 19.5068 173.975 19.5068 180.975 19.5068C180.975 19.8401 180.975 20.1735 180.975 20.5068C174.308 20.5068 167.642 20.5068 160.975 20.5068C160.975 27.1735 160.975 33.8401 160.975 40.5068C162.975 40.5068 164.975 40.5068 166.975 40.5068C175 48.8955 173.333 55.5622 161.975 60.5068C161.642 60.5068 161.308 60.5068 160.975 60.5068C160.578 47.1754 160.245 33.8421 159.975 20.5068C159.975 20.1735 159.975 19.8401 159.975 19.5068Z" fill="#EE861C"/>
<path fill-rule="evenodd" clip-rule="evenodd" d="M149.975 55.5068C150.513 57.1238 150.846 58.7908 150.975 60.5068C147.642 60.5068 144.308 60.5068 140.975 60.5068C140.975 58.1738 140.975 55.8401 140.975 53.5068C141.697 53.0893 142.197 52.4226 142.475 51.5068C145.209 52.4562 147.709 53.7895 149.975 55.5068Z" fill="#B75B3B"/>
<path fill-rule="evenodd" clip-rule="evenodd" d="M166.975 40.5068C171.642 40.5068 176.308 40.5068 180.975 40.5068C180.975 47.1735 180.975 53.8401 180.975 60.5068C179.308 60.5068 177.642 60.5068 175.975 60.5068C171.308 60.5068 166.642 60.5068 161.975 60.5068C173.333 55.5622 175 48.8955 166.975 40.5068Z" fill="#DA920A"/>
<path fill-rule="evenodd" clip-rule="evenodd" d="M278.975 61.5068C272.642 61.5068 266.308 61.5068 259.975 61.5068C259.975 67.8398 259.975 74.1738 259.975 80.5068C253.308 80.5068 246.642 80.5068 239.975 80.5068C239.975 79.8398 239.975 79.1738 239.975 78.5068C239.975 77.8398 239.975 77.1738 239.975 76.5068C240.697 76.0888 241.197 75.4228 241.475 74.5068C242.486 75.3438 243.653 75.6768 244.975 75.5068C244.752 72.8928 245.919 71.2258 248.475 70.5068C250.18 67.5978 252.014 64.7648 253.975 62.0068C252.341 61.5128 250.674 61.3468 248.975 61.5068C248.975 61.1738 248.975 60.8398 248.975 60.5068C252.308 60.5068 255.642 60.5068 258.975 60.5068C259.943 58.3998 260.277 56.0658 259.975 53.5068C262.705 53.5334 265.205 52.8667 267.475 51.5068C271.095 51.8115 274.928 52.1449 278.975 52.5068C278.975 55.5068 278.975 58.5068 278.975 61.5068Z" fill="#BD590E"/>
<path opacity="0.016" fill-rule="evenodd" clip-rule="evenodd" d="M43.9751 60.5068C43.3084 59.1738 43.3084 59.1738 43.9751 60.5068Z" fill="#FE8D79"/>
<path opacity="0.993" fill-rule="evenodd" clip-rule="evenodd" d="M43.9751 61.5068C48.6418 61.5068 53.3084 61.5068 57.9751 61.5068C57.1751 63.6138 56.5081 65.7808 55.9751 68.0068C57.0681 70.7408 57.0681 73.4068 55.9751 76.0068C57.6341 77.8478 59.6341 79.0148 61.9751 79.5068C56.1651 80.4968 50.1651 80.8298 43.9751 80.5068C43.9751 74.1738 43.9751 67.8398 43.9751 61.5068Z" fill="#CD4F30"/>
<path fill-rule="evenodd" clip-rule="evenodd" d="M62.9751 61.5068C69.3081 61.5068 75.6421 61.5068 81.9751 61.5068C81.9751 67.8398 81.9751 74.1738 81.9751 80.5068C75.6421 80.5068 69.3081 80.5068 62.9751 80.5068C62.9751 80.1738 62.9751 79.8398 62.9751 79.5068C62.9751 73.5068 62.9751 67.5068 62.9751 61.5068Z" fill="#FFDD5A"/>
<path fill-rule="evenodd" clip-rule="evenodd" d="M279.975 61.5068C286.308 61.5068 292.642 61.5068 298.975 61.5068C298.975 67.8398 298.975 74.1738 298.975 80.5068C292.453 80.1838 286.12 80.5168 279.975 81.5068C279.975 87.8398 279.975 94.1738 279.975 100.507C279.642 100.507 279.308 100.507 278.975 100.507C279.141 94.1648 278.975 87.8318 278.475 81.5068C277.976 86.8298 277.809 92.1628 277.975 97.5068C276.923 97.6558 275.923 97.4898 274.975 97.0068C274.022 95.0518 272.688 93.3848 270.975 92.0068C271.308 91.6738 271.642 91.3398 271.975 91.0068C270.642 88.3398 269.308 85.6738 267.975 83.0068C265.461 81.7548 262.795 81.2548 259.975 81.5068C259.975 81.1738 259.975 80.8398 259.975 80.5068C266.317 80.6728 272.65 80.5068 278.975 80.0068C279.951 73.9308 280.285 67.7648 279.975 61.5068Z" fill="#293351"/>
<path opacity="0.422" fill-rule="evenodd" clip-rule="evenodd" d="M248.975 60.5067C248.975 60.8397 248.975 61.1737 248.975 61.5067C245.975 61.5067 242.975 61.5067 239.975 61.5067C239.975 66.5067 239.975 71.5067 239.975 76.5067C239.975 77.1737 239.975 77.8397 239.975 78.5067C239.112 79.4697 238.445 79.4697 237.975 78.5067C239.308 72.5067 239.308 66.5067 237.975 60.5067C241.46 60.3177 245.127 60.3177 248.975 60.5067Z" fill="#ED957B"/>
<path fill-rule="evenodd" clip-rule="evenodd" d="M248.975 61.5069C250.674 61.3469 252.341 61.5129 253.975 62.0069C252.014 64.7649 250.18 67.5979 248.475 70.5069C245.919 71.2259 244.752 72.8929 244.975 75.5069C243.653 75.6769 242.486 75.3439 241.475 74.5069C241.197 75.4229 240.697 76.0889 239.975 76.5069C239.975 71.5069 239.975 66.5069 239.975 61.5069C242.975 61.5069 245.975 61.5069 248.975 61.5069Z" fill="#BB552D"/>
<path fill-rule="evenodd" clip-rule="evenodd" d="M103.975 79.5068C103.642 79.5068 103.308 79.5068 102.975 79.5068C102.975 77.1738 102.975 74.8398 102.975 72.5068C100.026 72.0758 97.3591 70.9088 94.9751 69.0068C93.5001 66.6978 91.8331 64.5308 89.9751 62.5068C87.7281 61.6328 85.3951 61.2988 82.9751 61.5068C82.6421 61.5068 82.3081 61.5068 81.9751 61.5068C83.8001 56.9758 82.8001 53.1427 78.9751 50.0068C73.6371 46.1395 68.8041 46.3062 64.4751 50.5068C64.1421 50.1735 63.8081 49.8401 63.4751 49.5068C62.9761 53.493 62.8091 57.4928 62.9751 61.5068C61.3081 61.5068 59.6421 61.5068 57.9751 61.5068C53.3084 61.5068 48.6418 61.5068 43.9751 61.5068C43.9751 61.1738 43.9751 60.8398 43.9751 60.5068C49.9751 60.5068 55.9751 60.5068 61.9751 60.5068C61.6521 53.9847 61.9851 47.6514 62.9751 41.5068C69.3081 41.5068 75.6421 41.5068 81.9751 41.5068C82.9711 41.5926 83.8041 41.2592 84.4751 40.5068C84.1461 47.1279 83.9791 53.7945 83.9751 60.5068C90.7011 60.8018 97.3671 60.4688 103.975 59.5068C104.069 65.9928 104.069 72.6598 103.975 79.5068Z" fill="#E37647"/>
<path fill-rule="evenodd" clip-rule="evenodd" d="M81.9752 61.5069C75.6422 61.5069 69.3082 61.5069 62.9752 61.5069C62.8092 57.4929 62.9762 53.4931 63.4752 49.5069C63.8082 49.8402 64.1422 50.1736 64.4752 50.5069C68.8042 46.3063 73.6372 46.1396 78.9752 50.0069C82.8002 53.1428 83.8002 56.9759 81.9752 61.5069Z" fill="#DF681C"/>
<path fill-rule="evenodd" clip-rule="evenodd" d="M173.975 61.5068C174.082 63.3858 173.582 63.7188 172.475 62.5068C171.775 64.0388 170.609 65.0388 168.975 65.5068C167.569 64.3388 166.403 64.6718 165.475 66.5068C163.51 65.1218 161.677 65.2888 159.975 67.0068C173.244 67.5218 173.244 68.3558 159.975 69.5068C160.124 70.5588 159.958 71.5588 159.475 72.5068C157.847 71.9098 156.18 72.2438 154.475 73.5068C153.89 75.6678 153.057 77.6678 151.975 79.5068C148.642 79.5068 145.308 79.5068 141.975 79.5068C141.975 73.5068 141.975 67.5068 141.975 61.5068C152.642 61.5068 163.308 61.5068 173.975 61.5068Z" fill="#3A2953"/>
<path fill-rule="evenodd" clip-rule="evenodd" d="M57.9751 61.5068C59.6421 61.5068 61.3081 61.5068 62.9751 61.5068C62.9751 67.5068 62.9751 73.5068 62.9751 79.5068C62.6421 79.5068 62.3081 79.5068 61.9751 79.5068C59.6341 79.0148 57.6341 77.8478 55.9751 76.0068C57.0681 73.4068 57.0681 70.7408 55.9751 68.0068C56.5081 65.7808 57.1751 63.6138 57.9751 61.5068Z" fill="#C5570A"/>
<path opacity="0.396" fill-rule="evenodd" clip-rule="evenodd" d="M299.975 80.5068C299.642 80.5068 299.308 80.5068 298.975 80.5068C298.975 74.1738 298.975 67.8398 298.975 61.5068C292.642 61.5068 286.308 61.5068 279.975 61.5068C279.975 61.1738 279.975 60.8398 279.975 60.5068C286.701 60.8018 293.367 60.4688 299.975 59.5068C300.064 66.3258 300.064 73.3258 299.975 80.5068Z" fill="#9898B4"/>
<path fill-rule="evenodd" clip-rule="evenodd" d="M82.9751 61.5069C85.3951 61.2989 87.7281 61.6329 89.9751 62.5069C91.8331 64.5309 93.5001 66.6979 94.9751 69.0069C97.3591 70.9089 100.026 72.0759 102.975 72.5069C102.975 74.8399 102.975 77.1739 102.975 79.5069C102.975 79.8399 102.975 80.1739 102.975 80.5069C96.3081 80.5069 89.6421 80.5069 82.9751 80.5069C82.9751 74.1739 82.9751 67.8399 82.9751 61.5069Z" fill="#E07A0E"/>
<path fill-rule="evenodd" clip-rule="evenodd" d="M278.975 61.5068C279.308 61.5068 279.642 61.5068 279.975 61.5068C280.285 67.7648 279.951 73.9308 278.975 80.0068C272.65 80.5068 266.317 80.6728 259.975 80.5068C259.975 74.1738 259.975 67.8398 259.975 61.5068C266.308 61.5068 272.642 61.5068 278.975 61.5068Z" fill="#FAE148"/>
<path fill-rule="evenodd" clip-rule="evenodd" d="M140.975 60.5068C144.308 60.5068 147.642 60.5068 150.975 60.5068C154.308 60.5068 157.642 60.5068 160.975 60.5068C161.308 60.5068 161.642 60.5068 161.975 60.5068C166.642 60.5068 171.308 60.5068 175.975 60.5068C175.633 61.3448 174.967 61.6788 173.975 61.5068C163.308 61.5068 152.642 61.5068 141.975 61.5068C141.975 67.5068 141.975 73.5068 141.975 79.5068C145.308 79.5068 148.642 79.5068 151.975 79.5068C168.15 79.1768 184.15 79.5108 199.975 80.5068C197.975 80.5068 195.975 80.5068 193.975 80.5068C176.642 80.5068 159.308 80.5068 141.975 80.5068C141.642 80.5068 141.308 80.5068 140.975 80.5068C140.975 73.8398 140.975 67.1738 140.975 60.5068Z" fill="#70494B"/>
<path opacity="0.091" fill-rule="evenodd" clip-rule="evenodd" d="M279.975 81.507C286.12 80.517 292.453 80.184 298.975 80.507C298.975 81.174 299.308 81.507 299.975 81.507C293.407 82.816 286.741 82.816 279.975 81.507Z" fill="#B8C4E5"/>
<path opacity="0.02" fill-rule="evenodd" clip-rule="evenodd" d="M299.975 80.5068C301.308 81.1738 301.308 81.1738 299.975 80.5068Z" fill="#A9B1CC"/>
<path opacity="0.024" fill-rule="evenodd" clip-rule="evenodd" d="M61.9751 79.5068C62.3081 79.5068 62.6421 79.5068 62.9751 79.5068C62.9751 79.8398 62.9751 80.1738 62.9751 80.5068C62.9751 81.8398 62.9751 83.1738 62.9751 84.5068C62.9751 89.8398 62.9751 95.1738 62.9751 100.507C62.1471 94.3538 61.6471 88.0198 61.4751 81.5068C55.3907 82.6488 49.224 82.8158 42.9751 82.0068C43.5311 81.6238 43.8644 81.1238 43.9751 80.5068C50.1651 80.8298 56.1651 80.4968 61.9751 79.5068Z" fill="#F9A47F"/>
<path fill-rule="evenodd" clip-rule="evenodd" d="M62.9751 80.5068C69.3081 80.5068 75.6421 80.5068 81.9751 80.5068C81.9751 87.1738 81.9751 93.8398 81.9751 100.507C79.3081 100.507 76.6421 100.507 73.9751 100.507C72.8731 98.9148 73.5401 98.0818 75.9751 98.0068C75.2151 96.5658 74.5491 95.0658 73.9751 93.5068C69.9491 90.8018 66.2831 87.8018 62.9751 84.5068C62.9751 83.1738 62.9751 81.8398 62.9751 80.5068Z" fill="#B55707"/>
<path fill-rule="evenodd" clip-rule="evenodd" d="M140.975 80.5068C134.612 82.2708 128.612 84.9368 122.975 88.5068C122.975 85.5068 122.975 82.5068 122.975 79.5068C126.677 79.5858 130.343 79.2528 133.975 78.5068C136.252 79.4848 138.585 80.1518 140.975 80.5068Z" fill="#CD713F"/>
<path fill-rule="evenodd" clip-rule="evenodd" d="M81.9751 61.5068C82.3081 61.5068 82.6421 61.5068 82.9751 61.5068C82.9751 67.8398 82.9751 74.1738 82.9751 80.5068C89.6421 80.5068 96.3081 80.5068 102.975 80.5068C102.975 87.1738 102.975 93.8398 102.975 100.507C98.3081 100.507 93.6421 100.507 88.9751 100.507C86.6421 100.507 84.3081 100.507 81.9751 100.507C81.9751 93.8398 81.9751 87.1738 81.9751 80.5068C81.9751 74.1738 81.9751 67.8398 81.9751 61.5068Z" fill="#FBB330"/>
<path fill-rule="evenodd" clip-rule="evenodd" d="M102.975 79.5068C103.308 79.5068 103.642 79.5068 103.975 79.5068C110.308 79.5068 116.642 79.5068 122.975 79.5068C122.975 82.5068 122.975 85.5068 122.975 88.5068C122.975 92.5068 122.975 96.5068 122.975 100.507C116.308 100.507 109.642 100.507 102.975 100.507C102.975 93.8398 102.975 87.1738 102.975 80.5068C102.975 80.1738 102.975 79.8398 102.975 79.5068Z" fill="#342A5C"/>
<path fill-rule="evenodd" clip-rule="evenodd" d="M219.975 80.5068C226.642 80.5068 233.308 80.5068 239.975 80.5068C239.975 80.8398 239.975 81.1738 239.975 81.5068C239.236 81.3758 238.569 81.5428 237.975 82.0068C238.812 83.0178 239.145 84.1848 238.975 85.5068C237.213 85.6498 235.546 85.3158 233.975 84.5068C232.775 85.5378 231.441 86.3718 229.975 87.0068C233.306 94.2038 231.973 95.5368 225.975 91.0068C225.682 87.9128 224.016 86.4128 220.975 86.5068C220.975 91.1738 220.975 95.8398 220.975 100.507C220.642 100.507 220.308 100.507 219.975 100.507C219.975 93.8398 219.975 87.1738 219.975 80.5068Z" fill="#482B4F"/>
<path fill-rule="evenodd" clip-rule="evenodd" d="M140.975 80.5068C141.308 80.5068 141.642 80.5068 141.975 80.5068C141.975 87.1738 141.975 93.8398 141.975 100.507C135.642 100.507 129.308 100.507 122.975 100.507C122.975 96.5068 122.975 92.5068 122.975 88.5068C128.612 84.9368 134.612 82.2708 140.975 80.5068Z" fill="#CC6B06"/>
<path fill-rule="evenodd" clip-rule="evenodd" d="M193.975 80.5068C195.975 80.5068 197.975 80.5068 199.975 80.5068C200.308 80.5068 200.642 80.5068 200.975 80.5068C200.975 87.1738 200.975 93.8398 200.975 100.507C200.308 100.507 199.642 100.507 198.975 100.507C195.379 96.8318 192.379 92.6648 189.975 88.0068C191.119 85.3738 192.452 82.8738 193.975 80.5068Z" fill="#FAA927"/>
<path fill-rule="evenodd" clip-rule="evenodd" d="M239.975 81.5068C239.975 87.8398 239.975 94.1738 239.975 100.507C233.642 100.507 227.308 100.507 220.975 100.507C220.975 95.8398 220.975 91.1738 220.975 86.5068C224.016 86.4128 225.682 87.9128 225.975 91.0068C231.973 95.5368 233.306 94.2038 229.975 87.0068C231.441 86.3718 232.775 85.5378 233.975 84.5068C235.546 85.3158 237.213 85.6498 238.975 85.5068C239.145 84.1848 238.812 83.0178 237.975 82.0068C238.569 81.5428 239.236 81.3758 239.975 81.5068Z" fill="#38275A"/>
<path fill-rule="evenodd" clip-rule="evenodd" d="M239.975 80.5068C246.642 80.5068 253.308 80.5068 259.975 80.5068C259.975 80.8398 259.975 81.1738 259.975 81.5068C259.975 87.8398 259.975 94.1738 259.975 100.507C253.308 100.507 246.642 100.507 239.975 100.507C239.975 94.1738 239.975 87.8398 239.975 81.5068C239.975 81.1738 239.975 80.8398 239.975 80.5068Z" fill="#F9C62C"/>
<path fill-rule="evenodd" clip-rule="evenodd" d="M62.9751 84.5068C66.2831 87.8018 69.9491 90.8018 73.9751 93.5068C74.5491 95.0658 75.2151 96.5658 75.9751 98.0068C73.5401 98.0818 72.8731 98.9148 73.9751 100.507C70.3081 100.507 66.6421 100.507 62.9751 100.507C62.9751 95.1738 62.9751 89.8398 62.9751 84.5068Z" fill="#B75633"/>
<path fill-rule="evenodd" clip-rule="evenodd" d="M141.975 80.5068C159.308 80.5068 176.642 80.5068 193.975 80.5068C192.452 82.8738 191.119 85.3738 189.975 88.0068C192.379 92.6648 195.379 96.8318 198.975 100.507C179.975 100.507 160.975 100.507 141.975 100.507C141.975 93.8398 141.975 87.1738 141.975 80.5068Z" fill="#F1B50F"/>
<path fill-rule="evenodd" clip-rule="evenodd" d="M200.975 80.5068C207.308 80.5068 213.642 80.5068 219.975 80.5068C219.975 87.1738 219.975 93.8398 219.975 100.507C213.642 100.507 207.308 100.507 200.975 100.507C200.975 93.8398 200.975 87.1738 200.975 80.5068Z" fill="#CC600C"/>
<path opacity="0.037" fill-rule="evenodd" clip-rule="evenodd" d="M62.9751 100.507C66.6421 100.507 70.3081 100.507 73.9751 100.507C76.6421 100.507 79.3081 100.507 81.9751 100.507C81.9751 107.507 81.9751 114.507 81.9751 121.507C81.6421 121.507 81.3081 121.507 80.9751 121.507C81.1411 114.832 80.9751 108.165 80.4751 101.507C74.3911 102.649 68.2241 102.816 61.9751 102.007C62.5311 101.624 62.8641 101.124 62.9751 100.507Z" fill="#EEB0A8"/>
<path opacity="0.012" fill-rule="evenodd" clip-rule="evenodd" d="M279.975 100.507C281.308 101.174 281.308 101.174 279.975 100.507Z" fill="#777FA7"/>
<path opacity="0.01" fill-rule="evenodd" clip-rule="evenodd" d="M260.975 101.507C262.308 102.174 262.308 102.174 260.975 101.507Z" fill="#102350"/>
<path fill-rule="evenodd" clip-rule="evenodd" d="M102.975 100.507C109.642 100.507 116.308 100.507 122.975 100.507C129.308 100.507 135.642 100.507 141.975 100.507C135.83 101.497 129.497 101.83 122.975 101.507C122.575 107.836 122.242 114.169 121.975 120.507C118.993 120.97 115.993 121.303 112.975 121.507C109.665 121.346 106.665 121.346 103.975 121.507C103.642 121.507 103.308 121.507 102.975 121.507C102.975 121.174 102.975 120.84 102.975 120.507C102.975 113.84 102.975 107.174 102.975 100.507Z" fill="#EEB90E"/>
<path fill-rule="evenodd" clip-rule="evenodd" d="M259.975 81.5069C262.795 81.2549 265.461 81.7549 267.975 83.0069C269.308 85.6739 270.642 88.3399 271.975 91.0069C271.642 91.3399 271.308 91.6739 270.975 92.0069C272.688 93.3849 274.022 95.0519 274.975 97.0069C275.923 97.4899 276.923 97.6559 277.975 97.5069C277.809 92.1629 277.976 86.8299 278.475 81.5069C278.975 87.8319 279.141 94.1649 278.975 100.507C272.785 100.184 266.785 100.517 260.975 101.507C259.98 113.329 259.647 125.329 259.975 137.507C258.975 137.507 257.975 137.507 256.975 137.507C257.194 136.332 256.861 135.332 255.975 134.507C249.558 132.752 247.891 129.086 250.975 123.507C250.629 122.311 250.129 122.311 249.475 123.507C249.083 120.38 248.25 117.38 246.975 114.507C247.406 113.714 247.74 112.88 247.975 112.007C246.881 107.107 244.215 103.607 239.975 101.507C239.975 101.174 239.975 100.84 239.975 100.507C246.642 100.507 253.308 100.507 259.975 100.507C259.975 94.1739 259.975 87.8399 259.975 81.5069Z" fill="#232F5D"/>
<path fill-rule="evenodd" clip-rule="evenodd" d="M81.9751 100.507C84.3081 100.507 86.6421 100.507 88.9751 100.507C88.0771 101.165 87.0771 101.831 85.9751 102.507C86.8381 107.625 88.1711 112.625 89.9751 117.507C91.8961 118.331 93.2291 119.664 93.9751 121.507C92.9751 121.507 91.9751 121.507 90.9751 121.507C87.9751 121.507 84.9751 121.507 81.9751 121.507C81.9751 114.507 81.9751 107.507 81.9751 100.507Z" fill="#412945"/>
<path fill-rule="evenodd" clip-rule="evenodd" d="M88.9751 100.507C93.6421 100.507 98.3081 100.507 102.975 100.507C102.975 107.174 102.975 113.84 102.975 120.507C100.084 121.41 97.0841 121.743 93.9751 121.507C93.2291 119.664 91.8961 118.331 89.9751 117.507C88.1711 112.625 86.8381 107.625 85.9751 102.507C87.0771 101.831 88.0771 101.165 88.9751 100.507Z" fill="#332D5D"/>
<path fill-rule="evenodd" clip-rule="evenodd" d="M132.975 145.507C134.962 145.219 136.629 143.886 137.975 141.507C138.975 141.507 139.975 141.507 140.975 141.507C141.861 134.55 142.195 127.55 141.975 120.507C138.818 120.444 135.984 119.444 133.475 117.507C131.871 118.656 130.205 118.656 128.475 117.507C127.069 118.421 125.569 119.087 123.975 119.507C123.826 118.455 123.992 117.455 124.475 116.507C124.808 116.84 125.142 117.174 125.475 117.507C128.681 113.726 132.347 110.392 136.475 107.507C136.808 108.174 137.142 108.84 137.475 109.507C139.518 107.799 141.185 105.799 142.475 103.507C146.686 104.539 150.686 104.539 154.475 103.507C156.518 105.528 158.518 105.861 160.475 104.507C161.542 105.198 162.709 105.698 163.975 106.007C163.642 106.34 163.308 106.674 162.975 107.007C164.908 107.258 166.741 107.758 168.475 108.507C170.274 108.286 172.107 107.953 173.975 107.507C177.805 109.448 181.805 110.948 185.975 112.007C188.648 113.85 189.815 116.35 189.475 119.507C189.061 119.964 188.561 120.298 187.975 120.507C186.335 117.034 183.835 114.367 180.475 112.507C180.142 114.507 179.808 116.507 179.475 118.507C177.308 120.007 175.475 121.84 173.975 124.007C172.349 123.812 170.682 123.812 168.975 124.007C170.147 124.426 171.147 125.092 171.975 126.007C169.975 127.674 167.975 129.34 165.975 131.007C166.308 131.34 166.642 131.674 166.975 132.007C165.459 133.904 164.792 136.071 164.975 138.507C160.719 137.988 157.052 139.154 153.975 142.007C146.915 142.604 140.248 144.438 133.975 147.507C133.688 146.807 133.355 146.14 132.975 145.507Z" fill="#FEEB1F"/>
<path fill-rule="evenodd" clip-rule="evenodd" d="M121.975 120.507C121.598 127.264 122.098 133.931 123.475 140.507C128.212 141.476 133.045 141.81 137.975 141.507C136.629 143.886 134.962 145.219 132.975 145.507C130.247 145.244 127.414 145.244 124.475 145.507C124.197 144.591 123.697 143.925 122.975 143.507C119.213 142.126 115.38 140.793 111.475 139.507C110.975 137.507 110.475 135.507 109.975 133.507C110.754 130.446 111.087 127.446 110.975 124.507C110.45 123.815 109.783 123.315 108.975 123.007C110.533 122.797 111.866 122.297 112.975 121.507C115.993 121.303 118.993 120.97 121.975 120.507Z" fill="#FDE23D"/>
<path opacity="0.016" fill-rule="evenodd" clip-rule="evenodd" d="M80.9749 125.507C80.3079 126.174 80.3079 126.174 80.9749 125.507Z" fill="#EBA69D"/>
<path fill-rule="evenodd" clip-rule="evenodd" d="M80.9751 121.507C81.3081 121.507 81.6421 121.507 81.9751 121.507C84.9751 121.507 87.9751 121.507 90.9751 121.507C85.4011 126.874 82.7341 133.541 82.9751 141.507C82.9751 144.84 82.9751 148.174 82.9751 151.507C82.6421 151.507 82.3081 151.507 81.9751 151.507C81.9751 147.84 81.9751 144.174 81.9751 140.507C80.9751 140.507 79.9751 140.507 78.9751 140.507C73.9751 140.507 68.9751 140.507 63.9751 140.507C63.3081 140.507 62.9751 140.174 62.9751 139.507C69.3081 139.507 75.6421 139.507 81.9751 139.507C82.2941 134.644 81.9611 129.977 80.9751 125.507C80.9751 124.174 80.9751 122.84 80.9751 121.507Z" fill="#BC654E"/>
<path fill-rule="evenodd" clip-rule="evenodd" d="M137.975 141.507C133.045 141.81 128.212 141.476 123.475 140.507C122.098 133.931 121.598 127.264 121.975 120.507C122.967 120.679 123.633 120.345 123.975 119.507C125.569 119.087 127.069 118.421 128.475 117.507C130.205 118.656 131.871 118.656 133.475 117.507C135.984 119.444 138.818 120.444 141.975 120.507C142.195 127.55 141.861 134.55 140.975 141.507C139.975 141.507 138.975 141.507 137.975 141.507Z" fill="#FEF65A"/>
<path fill-rule="evenodd" clip-rule="evenodd" d="M102.975 120.507C102.975 120.84 102.975 121.174 102.975 121.507C102.975 128.174 102.975 134.84 102.975 141.507C96.3079 141.507 89.6419 141.507 82.9749 141.507C82.7339 133.541 85.4009 126.874 90.9749 121.507C91.9749 121.507 92.9749 121.507 93.9749 121.507C97.0839 121.743 100.084 121.41 102.975 120.507Z" fill="#C85711"/>
<path fill-rule="evenodd" clip-rule="evenodd" d="M200.975 101.507C203.502 105.548 206.669 109.215 210.475 112.507C211.407 121.331 212.241 130.165 212.975 139.007C212.946 144.718 211.946 150.218 209.975 155.507C210.642 156.174 211.308 156.84 211.975 157.507C211.228 157.743 210.395 158.077 209.475 158.507C209.273 160.263 208.773 161.929 207.975 163.507C203.847 168.168 199.347 172.501 194.475 176.507C191.213 184.485 185.213 188.818 176.475 189.507C167.132 188.588 158.132 188.588 149.475 189.507C147.483 187.218 144.983 185.884 141.975 185.507C141.975 184.174 141.975 182.84 141.975 181.507C149.982 181.673 157.982 181.507 165.975 181.007C168.952 179.862 170.619 177.695 170.975 174.507C174.277 173.642 177.277 171.642 179.975 168.507C181.116 167.582 181.116 166.748 179.975 166.007C181.6 165.154 181.933 164.154 180.975 163.007C182.19 160.911 183.024 161.078 183.475 163.507C183.808 162.507 184.142 161.507 184.475 160.507C184.808 160.84 185.142 161.174 185.475 161.507C187.733 155.346 192.233 150.513 198.975 147.007C198.308 146.34 197.642 145.674 196.975 145.007C199.672 144.455 201.672 142.955 202.975 140.507C206.112 134.86 207.779 128.86 207.975 122.507C208.085 120.633 207.419 119.133 205.975 118.007C206.419 116.474 206.752 114.974 206.975 113.507C204.984 111.843 202.984 110.176 200.975 108.507C200.975 106.174 200.975 103.84 200.975 101.507Z" fill="#FBB103"/>
<path fill-rule="evenodd" clip-rule="evenodd" d="M141.975 100.507C160.975 100.507 179.975 100.507 198.975 100.507C199.642 100.507 200.308 100.507 200.975 100.507C200.975 100.84 200.975 101.174 200.975 101.507C200.975 103.84 200.975 106.174 200.975 108.507C201.142 119.179 200.975 129.846 200.475 140.507C194.065 141.485 187.565 141.818 180.975 141.507C180.975 143.174 180.975 144.84 180.975 146.507C179.782 148.307 178.615 149.974 177.475 151.507C176.328 150.549 175.328 150.882 174.475 152.507C172.841 159.716 168.341 162.55 160.975 161.007C160.308 162.007 159.642 163.007 158.975 164.007C154.207 166.387 149.207 168.221 143.975 169.507C140.722 168.412 137.555 168.745 134.475 170.507C133.25 170.145 132.084 169.645 130.975 169.007C128.572 166.393 126.072 163.893 123.475 161.507C122.976 155.516 122.809 149.516 122.975 143.507C123.697 143.925 124.197 144.591 124.475 145.507C127.414 145.244 130.247 145.244 132.975 145.507C133.355 146.14 133.688 146.807 133.975 147.507C140.248 144.438 146.915 142.604 153.975 142.007C157.052 139.154 160.719 137.988 164.975 138.507C164.792 136.071 165.459 133.904 166.975 132.007C166.642 131.674 166.308 131.34 165.975 131.007C167.975 129.34 169.975 127.674 171.975 126.007C171.147 125.092 170.147 124.426 168.975 124.007C170.682 123.812 172.349 123.812 173.975 124.007C175.475 121.84 177.308 120.007 179.475 118.507C179.808 116.507 180.142 114.507 180.475 112.507C183.835 114.367 186.335 117.034 187.975 120.507C188.561 120.298 189.061 119.964 189.475 119.507C189.815 116.35 188.648 113.85 185.975 112.007C181.805 110.948 177.805 109.448 173.975 107.507C172.107 107.953 170.274 108.286 168.475 108.507C166.741 107.758 164.908 107.258 162.975 107.007C163.308 106.674 163.642 106.34 163.975 106.007C162.709 105.698 161.542 105.198 160.475 104.507C158.518 105.861 156.518 105.528 154.475 103.507C150.686 104.539 146.686 104.539 142.475 103.507C141.185 105.799 139.518 107.799 137.475 109.507C137.142 108.84 136.808 108.174 136.475 107.507C132.347 110.392 128.681 113.726 125.475 117.507C125.142 117.174 124.808 116.84 124.475 116.507C123.992 117.455 123.826 118.455 123.975 119.507C123.633 120.345 122.967 120.679 121.975 120.507C122.242 114.169 122.575 107.836 122.975 101.507C129.497 101.83 135.83 101.497 141.975 100.507Z" fill="#FEE21F"/>
<path fill-rule="evenodd" clip-rule="evenodd" d="M62.9751 139.507C62.9751 140.174 63.3081 140.507 63.9751 140.507C63.5711 141.763 62.9041 142.93 61.9751 144.007C62.7081 145.773 63.0421 147.606 62.9751 149.507C62.2531 149.925 61.7531 150.591 61.4751 151.507C58.5711 149.78 55.4048 149.114 51.9751 149.507C52.8447 147.975 52.5113 146.475 50.9751 145.007C48.4391 144.668 45.9391 144.168 43.4751 143.507C40.701 144.543 37.8677 145.376 34.9751 146.007C30.7563 149.279 26.7563 152.779 22.9751 156.507C22.6418 156.507 22.3084 156.507 21.9751 156.507C21.9751 151.507 21.9751 146.507 21.9751 141.507C21.9751 140.84 21.6418 140.507 20.9751 140.507C25.8451 139.203 30.8451 139.203 35.9751 140.507C37.1707 140.161 37.1707 139.661 35.9751 139.007C36.8084 138.84 37.6418 138.674 38.4751 138.507C46.7777 139.429 54.9444 139.762 62.9751 139.507Z" fill="#CB5D38"/>
<path fill-rule="evenodd" clip-rule="evenodd" d="M319.975 141.507C319.975 147.507 319.975 153.507 319.975 159.507C319.975 159.84 319.975 160.174 319.975 160.507C319.975 160.84 319.975 161.174 319.975 161.507C319.975 166.174 319.975 170.84 319.975 175.507C319.642 175.507 319.308 175.507 318.975 175.507C318.975 170.84 318.975 166.174 318.975 161.507C318.975 161.174 318.975 160.84 318.975 160.507C319.092 158.523 318.425 156.857 316.975 155.507C312.977 152.186 308.977 148.852 304.975 145.507C300.037 143.949 295.371 144.616 290.975 147.507C289.622 148.531 288.955 149.864 288.975 151.507C287.545 151.428 286.211 151.761 284.975 152.507C284.054 150.251 282.387 149.251 279.975 149.507C279.975 146.174 279.975 142.84 279.975 139.507C287.368 139.564 294.701 139.397 301.975 139.007C301.642 139.34 301.308 139.674 300.975 140.007C307.488 140.179 313.822 140.679 319.975 141.507Z" fill="#C75E39"/>
<path fill-rule="evenodd" clip-rule="evenodd" d="M112.975 121.507C111.866 122.297 110.533 122.797 108.975 123.007C109.783 123.315 110.45 123.815 110.975 124.507C111.087 127.446 110.754 130.446 109.975 133.507C110.475 135.507 110.975 137.507 111.475 139.507C115.38 140.793 119.213 142.126 122.975 143.507C122.809 149.516 122.976 155.516 123.475 161.507C126.072 163.893 128.572 166.393 130.975 169.007C132.084 169.645 133.25 170.145 134.475 170.507C137.555 168.745 140.722 168.412 143.975 169.507C149.207 168.221 154.207 166.387 158.975 164.007C159.642 163.007 160.308 162.007 160.975 161.007C168.341 162.55 172.841 159.716 174.475 152.507C175.328 150.882 176.328 150.549 177.475 151.507C178.615 149.974 179.782 148.307 180.975 146.507C180.975 151.507 180.975 156.507 180.975 161.507C174.642 161.507 168.308 161.507 161.975 161.507C161.975 167.84 161.975 174.174 161.975 180.507C148.642 180.507 135.308 180.507 121.975 180.507C122.38 174.269 122.38 167.936 121.975 161.507C119.683 161.763 117.516 161.43 115.475 160.507C113.344 156.244 111.177 151.911 108.975 147.507C109.184 146.921 109.518 146.421 109.975 146.007C108.732 144.853 107.732 143.519 106.975 142.007C106.027 141.524 105.027 141.358 103.975 141.507C103.975 134.84 103.975 128.174 103.975 121.507C106.665 121.346 109.665 121.346 112.975 121.507Z" fill="#FDD226"/>
<path fill-rule="evenodd" clip-rule="evenodd" d="M239.975 101.507C244.215 103.607 246.881 107.107 247.975 112.007C247.74 112.88 247.406 113.714 246.975 114.507C248.25 117.38 249.083 120.38 249.475 123.507C250.129 122.311 250.629 122.311 250.975 123.507C247.891 129.086 249.558 132.752 255.975 134.507C256.861 135.332 257.194 136.332 256.975 137.507C257.975 137.507 258.975 137.507 259.975 137.507C266.225 139.466 272.891 140.133 279.975 139.507C279.975 142.84 279.975 146.174 279.975 149.507C279.975 153.174 279.975 156.84 279.975 160.507C279.975 160.84 279.975 161.174 279.975 161.507C279.312 163.049 278.645 164.716 277.975 166.507C276.569 165.056 275.069 163.723 273.475 162.507C271.762 163.885 270.428 165.552 269.475 167.507C267.784 176.014 266.284 184.514 264.975 193.007C266.026 195.782 265.026 197.615 261.975 198.507C261.308 198.507 260.642 198.507 259.975 198.507C259.975 179.507 259.975 160.507 259.975 141.507C253.22 141.8 246.553 141.467 239.975 140.507C239.975 127.507 239.975 114.507 239.975 101.507Z" fill="#3B2C5C"/>
<path fill-rule="evenodd" clip-rule="evenodd" d="M63.9751 140.507C68.9751 140.507 73.9751 140.507 78.9751 140.507C78.5091 142.208 78.5091 143.708 78.9751 145.007C77.5261 146.124 75.8591 146.791 73.9751 147.007C74.5641 148.88 73.8971 150.547 71.9751 152.007C69.2731 151.779 66.6071 152.279 63.9751 153.507C63.0411 152.439 62.7071 151.106 62.9751 149.507C63.0421 147.606 62.7081 145.773 61.9751 144.007C62.9041 142.93 63.5711 141.763 63.9751 140.507Z" fill="#44234B"/>
<path opacity="0.029" fill-rule="evenodd" clip-rule="evenodd" d="M319.975 159.507C319.975 153.507 319.975 147.507 319.975 141.507C320.592 141.396 321.092 141.063 321.475 140.507C321.642 143.674 321.808 146.84 321.975 150.007C321.96 153.583 321.293 156.749 319.975 159.507Z" fill="#FFBDAD"/>
<path fill-rule="evenodd" clip-rule="evenodd" d="M200.975 101.507C200.975 101.174 200.975 100.84 200.975 100.507C207.308 100.507 213.642 100.507 219.975 100.507C219.804 114.191 220.137 127.858 220.975 141.507C223.975 141.507 226.975 141.507 229.975 141.507C230.571 146.963 230.905 152.463 230.975 158.007C228.405 161.125 225.071 162.292 220.975 161.507C221.18 167.885 220.847 174.218 219.975 180.507C213.984 180.973 207.984 181.306 201.975 181.507C201.5 188.27 200.5 194.937 198.975 201.507C180.308 201.507 161.642 201.507 142.975 201.507C142.906 196.153 142.573 190.82 141.975 185.507C144.983 185.884 147.483 187.218 149.475 189.507C158.132 188.588 167.132 188.588 176.475 189.507C185.213 188.818 191.213 184.485 194.475 176.507C199.347 172.501 203.847 168.168 207.975 163.507C208.773 161.929 209.273 160.263 209.475 158.507C210.395 158.077 211.228 157.743 211.975 157.507C211.308 156.84 210.642 156.174 209.975 155.507C211.946 150.218 212.946 144.718 212.975 139.007C212.241 130.165 211.407 121.331 210.475 112.507C206.669 109.215 203.502 105.548 200.975 101.507Z" fill="#FEAB18"/>
<path fill-rule="evenodd" clip-rule="evenodd" d="M239.975 140.507C246.553 141.467 253.22 141.8 259.975 141.507C259.975 160.507 259.975 179.507 259.975 198.507C259.975 199.507 259.975 200.507 259.975 201.507C259.642 201.507 259.308 201.507 258.975 201.507C258.975 188.174 258.975 174.84 258.975 161.507C254.975 161.507 250.975 161.507 246.975 161.507C244.642 161.507 242.308 161.507 239.975 161.507C239.975 161.174 239.975 160.84 239.975 160.507C239.975 153.84 239.975 147.174 239.975 140.507Z" fill="#BE5602"/>
<path fill-rule="evenodd" clip-rule="evenodd" d="M51.9753 149.507C52.4124 151.081 53.4124 152.248 54.9753 153.007C50.6303 157.4 45.297 158.733 38.9753 157.007C35.6923 155.984 32.3589 155.15 28.9753 154.507C26.7786 154.855 24.9453 155.855 23.4753 157.507C23.0765 157.279 22.9099 156.945 22.9753 156.507C26.7565 152.779 30.7565 149.279 34.9753 146.007C37.8679 145.376 40.7012 144.543 43.4753 143.507C45.9393 144.168 48.4393 144.668 50.9753 145.007C52.5115 146.475 52.8449 147.975 51.9753 149.507Z" fill="#CE510F"/>
<path fill-rule="evenodd" clip-rule="evenodd" d="M78.9751 140.507C79.9751 140.507 80.9751 140.507 81.9751 140.507C81.9751 144.174 81.9751 147.84 81.9751 151.507C81.9751 154.507 81.9751 157.507 81.9751 160.507C75.9751 160.507 69.9751 160.507 63.9751 160.507C63.9751 158.174 63.9751 155.84 63.9751 153.507C66.6071 152.279 69.2731 151.779 71.9751 152.007C73.8971 150.547 74.5641 148.88 73.9751 147.007C75.8591 146.791 77.5261 146.124 78.9751 145.007C78.5091 143.708 78.5091 142.208 78.9751 140.507Z" fill="#4C1C59"/>
<path fill-rule="evenodd" clip-rule="evenodd" d="M318.975 160.507C305.975 160.507 292.975 160.507 279.975 160.507C279.975 156.84 279.975 153.174 279.975 149.507C282.387 149.251 284.054 150.251 284.975 152.507C286.211 151.761 287.545 151.428 288.975 151.507C288.955 149.864 289.622 148.531 290.975 147.507C295.371 144.616 300.037 143.949 304.975 145.507C308.977 148.852 312.977 152.186 316.975 155.507C318.425 156.857 319.092 158.523 318.975 160.507Z" fill="#C25309"/>
<path opacity="0.065" fill-rule="evenodd" clip-rule="evenodd" d="M20.9751 140.507C21.6418 140.507 21.9751 140.84 21.9751 141.507C21.9751 146.507 21.9751 151.507 21.9751 156.507C22.2429 158.106 21.9096 159.439 20.9751 160.507C19.6665 153.741 19.6665 147.075 20.9751 140.507Z" fill="#FFA57F"/>
<path fill-rule="evenodd" clip-rule="evenodd" d="M51.9751 149.507C55.4048 149.114 58.5711 149.78 61.4751 151.507C61.7531 150.591 62.2531 149.925 62.9751 149.507C62.7071 151.106 63.0411 152.439 63.9751 153.507C63.9751 155.84 63.9751 158.174 63.9751 160.507C69.9751 160.507 75.9751 160.507 81.9751 160.507C69.8491 163.449 68.1831 169.449 76.9751 178.507C75.3971 179.305 73.7311 179.805 71.9751 180.007C75.5001 180.186 78.8341 180.686 81.9751 181.507C76.6421 181.507 71.3081 181.507 65.9751 181.507C64.9751 181.507 63.9751 181.507 62.9751 181.507C62.9751 174.507 62.9751 167.507 62.9751 160.507C52.7945 160.18 42.7945 160.513 32.9751 161.507C29.3084 161.507 25.6418 161.507 21.9751 161.507C21.9751 167.84 21.9751 174.174 21.9751 180.507C18.9751 180.507 15.9751 180.507 12.9751 180.507C12.8644 179.89 12.5311 179.39 11.9751 179.007C13.0991 178.758 14.0991 178.258 14.9751 177.507C13.7385 176.726 12.7385 175.726 11.9751 174.507C12.3514 169.976 13.6847 165.809 15.9751 162.007C17.8568 161.809 19.5235 161.309 20.9751 160.507C21.9096 159.439 22.2429 158.106 21.9751 156.507C22.3084 156.507 22.6418 156.507 22.9751 156.507C22.9097 156.945 23.0763 157.279 23.4751 157.507C24.9451 155.855 26.7784 154.855 28.9751 154.507C32.3587 155.15 35.6921 155.984 38.9751 157.007C45.2968 158.733 50.6301 157.4 54.9751 153.007C53.4122 152.248 52.4122 151.081 51.9751 149.507Z" fill="#BB5608"/>
<path opacity="0.02" fill-rule="evenodd" clip-rule="evenodd" d="M1.97512 160.507C1.30842 159.174 1.30842 159.174 1.97512 160.507Z" fill="#FE8671"/>
<path opacity="0.545" fill-rule="evenodd" clip-rule="evenodd" d="M319.975 161.507C319.975 161.174 319.975 160.84 319.975 160.507C327.352 160.578 334.519 160.578 341.475 160.507C342.142 161.507 342.142 162.507 341.475 163.507C341.142 163.174 340.808 162.84 340.475 162.507C340.308 165.34 340.142 168.174 339.975 171.007C340.083 175.029 340.416 178.696 340.975 182.007C334.182 181.275 327.516 181.442 320.975 182.507C319.985 188.652 319.652 194.985 319.975 201.507C319.642 201.507 319.308 201.507 318.975 201.507C318.975 194.84 318.975 188.174 318.975 181.507C315.975 181.507 312.975 181.507 309.975 181.507C312.762 180.53 315.762 180.197 318.975 180.507C318.975 178.84 318.975 177.174 318.975 175.507C319.308 175.507 319.642 175.507 319.975 175.507C319.975 177.174 319.975 178.84 319.975 180.507C326.308 180.507 332.642 180.507 338.975 180.507C338.975 174.174 338.975 167.84 338.975 161.507C332.642 161.507 326.308 161.507 319.975 161.507Z" fill="#918FA9"/>
<path fill-rule="evenodd" clip-rule="evenodd" d="M200.975 108.507C202.984 110.176 204.984 111.843 206.975 113.507C206.752 114.974 206.419 116.474 205.975 118.007C207.419 119.133 208.085 120.633 207.975 122.507C207.779 128.86 206.112 134.86 202.975 140.507C201.672 142.955 199.672 144.455 196.975 145.007C197.642 145.674 198.308 146.34 198.975 147.007C192.233 150.513 187.733 155.346 185.475 161.507C185.142 161.174 184.808 160.84 184.475 160.507C184.142 161.507 183.808 162.507 183.475 163.507C183.024 161.078 182.19 160.911 180.975 163.007C181.933 164.154 181.6 165.154 179.975 166.007C181.116 166.748 181.116 167.582 179.975 168.507C177.277 171.642 174.277 173.642 170.975 174.507C170.619 177.695 168.952 179.862 165.975 181.007C157.982 181.507 149.982 181.673 141.975 181.507C135.121 181.831 128.454 181.498 121.975 180.507C135.308 180.507 148.642 180.507 161.975 180.507C161.975 174.174 161.975 167.84 161.975 161.507C168.308 161.507 174.642 161.507 180.975 161.507C180.975 156.507 180.975 151.507 180.975 146.507C180.975 144.84 180.975 143.174 180.975 141.507C187.565 141.818 194.065 141.485 200.475 140.507C200.975 129.846 201.142 119.179 200.975 108.507Z" fill="#F2B901"/>
<path fill-rule="evenodd" clip-rule="evenodd" d="M82.9751 141.507C89.6421 141.507 96.3081 141.507 102.975 141.507C102.975 148.174 102.975 154.84 102.975 161.507C102.975 165.174 102.975 168.84 102.975 172.507C102.975 175.174 102.975 177.84 102.975 180.507C96.3081 180.507 89.6421 180.507 82.9751 180.507C82.9751 170.84 82.9751 161.174 82.9751 151.507C82.9751 148.174 82.9751 144.84 82.9751 141.507Z" fill="#F1700C"/>
<path fill-rule="evenodd" clip-rule="evenodd" d="M102.975 121.507C103.308 121.507 103.642 121.507 103.975 121.507C103.975 128.174 103.975 134.84 103.975 141.507C105.027 141.358 106.027 141.524 106.975 142.007C107.732 143.519 108.732 144.853 109.975 146.007C109.518 146.421 109.184 146.921 108.975 147.507C111.177 151.911 113.344 156.244 115.475 160.507C117.516 161.43 119.683 161.763 121.975 161.507C122.38 167.936 122.38 174.269 121.975 180.507C120.975 180.507 119.975 180.507 118.975 180.507C119.124 179.455 118.958 178.455 118.475 177.507C114.008 172.9 110.841 167.566 108.975 161.507C106.975 161.507 104.975 161.507 102.975 161.507C102.975 154.84 102.975 148.174 102.975 141.507C102.975 134.84 102.975 128.174 102.975 121.507Z" fill="#F6AD16"/>
<path fill-rule="evenodd" clip-rule="evenodd" d="M32.9751 161.507C36.3084 161.507 39.6418 161.507 42.9751 161.507C42.8149 163.206 42.9816 164.873 43.4751 166.507C50.1867 168.074 54.3534 172.241 55.9751 179.007C57.9751 179.34 59.9751 179.674 61.9751 180.007C48.6459 180.507 35.3126 180.674 21.9751 180.507C21.9751 174.174 21.9751 167.84 21.9751 161.507C25.6418 161.507 29.3084 161.507 32.9751 161.507Z" fill="#FDD443"/>
<path fill-rule="evenodd" clip-rule="evenodd" d="M32.9751 161.507C42.7945 160.513 52.7945 160.18 62.9751 160.507C62.9751 167.507 62.9751 174.507 62.9751 181.507C49.3084 181.507 35.6418 181.507 21.9751 181.507C21.9751 181.174 21.9751 180.84 21.9751 180.507C35.3126 180.674 48.6459 180.507 61.9751 180.007C59.9751 179.674 57.9751 179.34 55.9751 179.007C54.3534 172.241 50.1867 168.074 43.4751 166.507C42.9816 164.873 42.8149 163.206 42.9751 161.507C39.6418 161.507 36.3084 161.507 32.9751 161.507Z" fill="#F0AA33"/>
<path fill-rule="evenodd" clip-rule="evenodd" d="M319.975 161.507C326.308 161.507 332.642 161.507 338.975 161.507C338.975 167.84 338.975 174.174 338.975 180.507C332.642 180.507 326.308 180.507 319.975 180.507C319.975 178.84 319.975 177.174 319.975 175.507C319.975 170.84 319.975 166.174 319.975 161.507Z" fill="#272A46"/>
<path fill-rule="evenodd" clip-rule="evenodd" d="M1.9751 160.507C8.3084 160.507 14.6418 160.507 20.9751 160.507C19.5235 161.309 17.8568 161.809 15.9751 162.007C13.6847 165.809 12.3514 169.976 11.9751 174.507C12.7385 175.726 13.7385 176.726 14.9751 177.507C14.0991 178.258 13.0991 178.758 11.9751 179.007C12.5311 179.39 12.8644 179.89 12.9751 180.507C9.3084 180.507 5.6418 180.507 1.9751 180.507C1.9751 173.84 1.9751 167.174 1.9751 160.507Z" fill="#CC4E2E"/>
<path fill-rule="evenodd" clip-rule="evenodd" d="M279.975 161.507C279.975 161.174 279.975 160.84 279.975 160.507C292.975 160.507 305.975 160.507 318.975 160.507C318.975 160.84 318.975 161.174 318.975 161.507C318.236 161.376 317.569 161.543 316.975 162.007C318.252 164.473 318.252 166.973 316.975 169.507C312.173 174.141 306.84 174.808 300.975 171.507C300.229 170.271 299.896 168.937 299.975 167.507C296.699 167.743 293.366 167.076 289.975 165.507C289.975 164.507 289.975 163.507 289.975 162.507C293.657 162.672 297.323 162.506 300.975 162.007C293.983 161.507 286.983 161.341 279.975 161.507Z" fill="#F59F27"/>
<path fill-rule="evenodd" clip-rule="evenodd" d="M279.975 161.507C286.983 161.341 293.983 161.507 300.975 162.007C297.323 162.506 293.657 162.672 289.975 162.507C289.975 163.507 289.975 164.507 289.975 165.507C293.366 167.076 296.699 167.743 299.975 167.507C299.896 168.937 300.229 170.271 300.975 171.507C306.84 174.808 312.173 174.141 316.975 169.507C318.252 166.973 318.252 164.473 316.975 162.007C317.569 161.543 318.236 161.376 318.975 161.507C318.975 166.174 318.975 170.84 318.975 175.507C318.975 177.174 318.975 178.84 318.975 180.507C315.762 180.197 312.762 180.53 309.975 181.507C308.975 181.507 307.975 181.507 306.975 181.507C298.302 181.673 289.635 181.507 280.975 181.007C279.997 174.597 279.664 168.097 279.975 161.507Z" fill="#F2B528"/>
<path opacity="0.041" fill-rule="evenodd" clip-rule="evenodd" d="M1.9751 180.507C5.6418 180.507 9.3084 180.507 12.9751 180.507C15.9751 180.507 18.9751 180.507 21.9751 180.507C21.9751 180.84 21.9751 181.174 21.9751 181.507C21.6418 181.507 21.3084 181.507 20.9751 181.507C14.3214 182.314 7.6547 182.481 0.975098 182.007C1.5311 181.624 1.8644 181.124 1.9751 180.507Z" fill="#F9A48A"/>
<path fill-rule="evenodd" clip-rule="evenodd" d="M219.975 100.507C220.308 100.507 220.642 100.507 220.975 100.507C227.308 100.507 233.642 100.507 239.975 100.507C239.975 100.84 239.975 101.174 239.975 101.507C239.975 114.507 239.975 127.507 239.975 140.507C239.975 147.174 239.975 153.84 239.975 160.507C238.213 160.364 236.546 160.698 234.975 161.507C230.825 173.476 223.158 181.976 211.975 187.007C209.169 191.146 205.669 194.646 201.475 197.507C201.202 199.108 200.702 200.608 199.975 202.007C180.645 202.507 161.311 202.674 141.975 202.507C142.135 200.808 141.969 199.141 141.475 197.507C141.061 197.964 140.561 198.298 139.975 198.507C139.247 196.814 138.247 195.314 136.975 194.007C131.903 192.494 127.237 190.327 122.975 187.507C121.703 187.577 120.537 187.91 119.475 188.507C117.111 186.644 114.611 184.978 111.975 183.507C111.089 182.682 110.756 181.682 110.975 180.507C109.276 180.667 107.609 180.501 105.975 180.007C104.663 177.527 103.663 175.027 102.975 172.507C102.975 168.84 102.975 165.174 102.975 161.507C104.975 161.507 106.975 161.507 108.975 161.507C110.841 167.566 114.008 172.9 118.475 177.507C118.958 178.455 119.124 179.455 118.975 180.507C119.975 180.507 120.975 180.507 121.975 180.507C128.454 181.498 135.121 181.831 141.975 181.507C141.975 182.84 141.975 184.174 141.975 185.507C142.573 190.82 142.906 196.153 142.975 201.507C161.642 201.507 180.308 201.507 198.975 201.507C200.5 194.937 201.5 188.27 201.975 181.507C207.984 181.306 213.984 180.973 219.975 180.507C220.847 174.218 221.18 167.885 220.975 161.507C225.071 162.292 228.405 161.125 230.975 158.007C230.905 152.463 230.571 146.963 229.975 141.507C226.975 141.507 223.975 141.507 220.975 141.507C220.137 127.858 219.804 114.191 219.975 100.507Z" fill="#F18E07"/>
<path opacity="0.01" fill-rule="evenodd" clip-rule="evenodd" d="M320.975 182.507C322.308 183.174 322.308 183.174 320.975 182.507Z" fill="#B1B1D6"/>
<path fill-rule="evenodd" clip-rule="evenodd" d="M21.9751 181.507C35.6418 181.507 49.3084 181.507 62.9751 181.507C63.9751 181.507 64.9751 181.507 65.9751 181.507C69.8241 185.197 73.1581 189.364 75.9751 194.007C77.6921 195.566 79.6921 196.399 81.9751 196.507C81.9751 194.174 81.9751 191.84 81.9751 189.507C82.6421 189.507 82.9751 189.84 82.9751 190.507C82.9751 194.174 82.9751 197.84 82.9751 201.507C86.1881 201.197 89.1881 201.53 91.9751 202.507C88.9751 202.507 85.9751 202.507 82.9751 202.507C82.9751 203.507 82.9751 204.507 82.9751 205.507C85.6541 205.68 87.9881 206.68 89.9751 208.507C89.0561 213.532 88.7231 218.698 88.9751 224.007C89.4651 225.989 90.4651 227.656 91.9751 229.007C90.7421 230.705 90.0751 232.705 89.9751 235.007C90.0111 237.101 90.3441 239.101 90.9751 241.007C89.4171 241.217 88.0841 241.717 86.9751 242.507C85.6421 242.507 84.3081 242.507 82.9751 242.507C82.6421 242.507 82.3081 242.507 81.9751 242.507C81.9751 240.84 81.9751 239.174 81.9751 237.507C81.9751 226.84 81.9751 216.174 81.9751 205.507C81.9751 204.507 81.9751 203.507 81.9751 202.507C62.1491 201.51 42.1487 201.177 21.9751 201.507C21.9751 194.84 21.9751 188.174 21.9751 181.507Z" fill="#253055"/>
<path fill-rule="evenodd" clip-rule="evenodd" d="M65.9751 181.507C71.3081 181.507 76.6421 181.507 81.9751 181.507C81.9751 184.174 81.9751 186.84 81.9751 189.507C81.9751 191.84 81.9751 194.174 81.9751 196.507C79.6921 196.399 77.6921 195.566 75.9751 194.007C73.1581 189.364 69.8241 185.197 65.9751 181.507Z" fill="#45215A"/>
<path fill-rule="evenodd" clip-rule="evenodd" d="M279.975 161.507C279.664 168.097 279.997 174.597 280.975 181.007C289.635 181.507 298.302 181.673 306.975 181.507C307.393 182.229 308.059 182.729 308.975 183.007C307.537 185.602 306.204 188.269 304.975 191.007C305.887 193.495 304.887 195.162 301.975 196.007C302.308 196.34 302.642 196.674 302.975 197.007C295.899 197.267 289.066 197.1 282.475 196.507C276.577 197.868 270.577 198.868 264.475 199.507C263.405 199.479 262.572 199.146 261.975 198.507C265.026 197.615 266.026 195.782 264.975 193.007C266.284 184.514 267.784 176.014 269.475 167.507C270.428 165.552 271.762 163.885 273.475 162.507C275.069 163.723 276.569 165.056 277.975 166.507C278.645 164.716 279.312 163.049 279.975 161.507Z" fill="#25315E"/>
<path fill-rule="evenodd" clip-rule="evenodd" d="M246.975 161.507C250.975 161.507 254.975 161.507 258.975 161.507C258.975 174.84 258.975 188.174 258.975 201.507C257.358 202.045 255.691 202.378 253.975 202.507C249.212 202.233 244.545 202.566 239.975 203.507C240.295 197.741 242.795 193.075 247.475 189.507C247.808 189.84 248.142 190.174 248.475 190.507C249.312 188.163 250.646 186.163 252.475 184.507C252.812 176.138 250.979 168.471 246.975 161.507Z" fill="#E77A07"/>
<path fill-rule="evenodd" clip-rule="evenodd" d="M81.975 151.507C82.308 151.507 82.642 151.507 82.975 151.507C82.975 161.174 82.975 170.84 82.975 180.507C89.642 180.507 96.308 180.507 102.975 180.507C102.975 180.84 102.975 181.174 102.975 181.507C102.975 188.174 102.975 194.84 102.975 201.507C100.288 201.671 97.621 201.504 94.975 201.007C90.351 198.199 86.351 194.699 82.975 190.507C82.975 189.84 82.642 189.507 81.975 189.507C81.975 186.84 81.975 184.174 81.975 181.507C78.834 180.686 75.5 180.186 71.975 180.007C73.731 179.805 75.397 179.305 76.975 178.507C68.183 169.449 69.849 163.449 81.975 160.507C81.975 157.507 81.975 154.507 81.975 151.507Z" fill="#DB5B02"/>
<path fill-rule="evenodd" clip-rule="evenodd" d="M82.9751 190.507C86.3511 194.699 90.3511 198.199 94.9751 201.007C97.6211 201.504 100.288 201.671 102.975 201.507C103.909 202.575 104.243 203.908 103.975 205.507C103.975 210.84 103.975 216.174 103.975 221.507C102.985 215.362 102.652 209.029 102.975 202.507C99.3081 202.507 95.6421 202.507 91.9751 202.507C89.1881 201.53 86.1881 201.197 82.9751 201.507C82.9751 197.84 82.9751 194.174 82.9751 190.507Z" fill="#C66818"/>
<path fill-rule="evenodd" clip-rule="evenodd" d="M306.975 181.507C307.975 181.507 308.975 181.507 309.975 181.507C312.975 181.507 315.975 181.507 318.975 181.507C318.975 188.174 318.975 194.84 318.975 201.507C299.308 201.507 279.642 201.507 259.975 201.507C259.975 200.507 259.975 199.507 259.975 198.507C260.642 198.507 261.308 198.507 261.975 198.507C262.572 199.146 263.405 199.479 264.475 199.507C270.577 198.868 276.577 197.868 282.475 196.507C289.066 197.1 295.899 197.267 302.975 197.007C302.642 196.674 302.308 196.34 301.975 196.007C304.887 195.162 305.887 193.495 304.975 191.007C306.204 188.269 307.537 185.602 308.975 183.007C308.059 182.729 307.393 182.229 306.975 181.507Z" fill="#253051"/>
<path opacity="0.081" fill-rule="evenodd" clip-rule="evenodd" d="M20.9751 181.507C21.3084 181.507 21.6418 181.507 21.9751 181.507C21.9751 188.174 21.9751 194.84 21.9751 201.507C21.3084 201.507 20.9751 201.84 20.9751 202.507C19.6652 195.606 19.6652 188.606 20.9751 181.507Z" fill="#BCB6C9"/>
<path fill-rule="evenodd" clip-rule="evenodd" d="M237.975 203.507C235.955 211.914 231.289 218.248 223.975 222.507C222.975 222.507 221.975 222.507 220.975 222.507C214.308 222.507 207.642 222.507 200.975 222.507C200.975 229.174 200.975 235.84 200.975 242.507C198.642 242.507 196.308 242.507 193.975 242.507C185.975 242.507 177.975 242.507 169.975 242.507C166.386 236.945 167.719 233.112 173.975 231.007C170.961 230.879 167.961 230.879 164.975 231.007C167.361 230.723 168.027 229.723 166.975 228.007C173.122 226.228 179.289 224.395 185.475 222.507C187.525 224.889 189.025 224.389 189.975 221.007C189.83 220.235 189.497 219.568 188.975 219.007C195.71 214.823 202.71 211.823 209.975 210.007C211.685 206.288 214.185 203.121 217.475 200.507C221.424 201.215 224.757 199.882 227.475 196.507C230.282 199.838 233.782 202.171 237.975 203.507Z" fill="#FB710D"/>
<path opacity="0.065" fill-rule="evenodd" clip-rule="evenodd" d="M21.9751 201.507C42.1487 201.177 62.1491 201.51 81.9751 202.507C61.5441 203.832 41.2107 203.832 20.9751 202.507C21.6418 202.507 21.9751 202.174 21.9751 201.507Z" fill="#B9C3E6"/>
<path opacity="0.081" fill-rule="evenodd" clip-rule="evenodd" d="M259.975 202.507C259.975 202.174 259.975 201.84 259.975 201.507C279.642 201.507 299.308 201.507 318.975 201.507C318.975 202.174 319.308 202.507 319.975 202.507C300.073 203.832 280.073 203.832 259.975 202.507Z" fill="#B9C3E9"/>
<path opacity="0.02" fill-rule="evenodd" clip-rule="evenodd" d="M319.975 201.507C321.308 202.174 321.308 202.174 319.975 201.507Z" fill="#A6AFC5"/>
<path fill-rule="evenodd" clip-rule="evenodd" d="M253.975 202.507C250.948 208.253 246.782 212.92 241.475 216.507C241.284 218.715 240.784 220.715 239.975 222.507C239.975 216.174 239.975 209.84 239.975 203.507C244.545 202.566 249.212 202.233 253.975 202.507Z" fill="#47265B"/>
<path fill-rule="evenodd" clip-rule="evenodd" d="M239.975 160.507C239.975 160.84 239.975 161.174 239.975 161.507C238.49 165.148 236.99 168.815 235.475 172.507C230.32 176.261 226.986 180.928 225.475 186.507C223.672 186.101 221.839 186.601 219.975 188.007C217.881 188.869 216.881 190.035 216.975 191.507C216.283 190.982 215.783 190.315 215.475 189.507C215.167 190.315 214.667 190.982 213.975 191.507C210.217 197.1 207.384 202.767 205.475 208.507C202.472 211.548 199.306 212.214 195.975 210.507C192.811 211.324 189.978 212.657 187.475 214.507C187.167 213.699 186.667 213.032 185.975 212.507C181.975 213.174 177.975 213.84 173.975 214.507C169.763 213.347 165.263 213.347 160.475 214.507C155.26 213.029 150.093 211.363 144.975 209.507C142.449 212.07 140.782 211.404 139.975 207.507C135.769 205.967 131.769 204.8 127.975 204.007C129.975 203.674 131.975 203.34 133.975 203.007C130.482 202.065 127.149 200.732 123.975 199.007C122.471 197.516 121.638 195.683 121.475 193.507C121.142 193.84 120.808 194.174 120.475 194.507C119.304 193.114 117.804 192.28 115.975 192.007C113.956 188.993 111.623 186.327 108.975 184.007C109.308 183.674 109.642 183.34 109.975 183.007C107.602 181.63 105.269 181.13 102.975 181.507C102.975 181.174 102.975 180.84 102.975 180.507C102.975 177.84 102.975 175.174 102.975 172.507C103.663 175.027 104.663 177.527 105.975 180.007C107.609 180.501 109.276 180.667 110.975 180.507C110.756 181.682 111.089 182.682 111.975 183.507C114.611 184.978 117.111 186.644 119.475 188.507C120.537 187.91 121.703 187.577 122.975 187.507C127.237 190.327 131.903 192.494 136.975 194.007C138.247 195.314 139.247 196.814 139.975 198.507C140.561 198.298 141.061 197.964 141.475 197.507C141.969 199.141 142.135 200.808 141.975 202.507C161.311 202.674 180.645 202.507 199.975 202.007C200.702 200.608 201.202 199.108 201.475 197.507C205.669 194.646 209.169 191.146 211.975 187.007C223.158 181.976 230.825 173.476 234.975 161.507C236.546 160.698 238.213 160.364 239.975 160.507Z" fill="#F57F01"/>
<path fill-rule="evenodd" clip-rule="evenodd" d="M237.975 203.507C238.642 203.507 239.308 203.507 239.975 203.507C239.975 209.84 239.975 216.174 239.975 222.507C234.642 222.507 229.308 222.507 223.975 222.507C231.289 218.248 235.955 211.914 237.975 203.507Z" fill="#E07900"/>
<path fill-rule="evenodd" clip-rule="evenodd" d="M239.975 161.507C242.308 161.507 244.642 161.507 246.975 161.507C250.979 168.471 252.812 176.138 252.475 184.507C250.646 186.163 249.312 188.163 248.475 190.507C248.142 190.174 247.808 189.84 247.475 189.507C242.795 193.075 240.295 197.741 239.975 203.507C239.308 203.507 238.642 203.507 237.975 203.507C233.782 202.171 230.282 199.838 227.475 196.507C224.757 199.882 221.424 201.215 217.475 200.507C214.185 203.121 211.685 206.288 209.975 210.007C202.71 211.823 195.71 214.823 188.975 219.007C189.497 219.568 189.83 220.235 189.975 221.007C189.025 224.389 187.525 224.889 185.475 222.507C179.289 224.395 173.122 226.228 166.975 228.007C168.027 229.723 167.361 230.723 164.975 231.007C167.961 230.879 170.961 230.879 173.975 231.007C167.719 233.112 166.386 236.945 169.975 242.507C168.975 242.507 167.975 242.507 166.975 242.507C164.975 242.507 162.975 242.507 160.975 242.507C160.642 242.507 160.308 242.507 159.975 242.507C153.642 242.507 147.308 242.507 140.975 242.507C142.601 239.761 143.268 236.761 142.975 233.507C139.926 234.108 136.926 234.608 133.975 235.007C132.487 233.29 130.654 232.123 128.475 231.507C127.536 228.886 126.703 226.219 125.975 223.507C124.4 222.551 122.733 221.884 120.975 221.507C120.642 221.507 120.308 221.507 119.975 221.507C117.038 218.629 114.538 215.296 112.475 211.507C109.733 209.247 106.899 207.247 103.975 205.507C104.243 203.908 103.909 202.575 102.975 201.507C102.975 194.84 102.975 188.174 102.975 181.507C105.269 181.13 107.602 181.63 109.975 183.007C109.642 183.34 109.308 183.674 108.975 184.007C111.623 186.327 113.956 188.993 115.975 192.007C117.804 192.28 119.304 193.114 120.475 194.507C120.808 194.174 121.142 193.84 121.475 193.507C121.638 195.683 122.471 197.516 123.975 199.007C127.149 200.732 130.482 202.065 133.975 203.007C131.975 203.34 129.975 203.674 127.975 204.007C131.769 204.8 135.769 205.967 139.975 207.507C140.782 211.404 142.449 212.07 144.975 209.507C150.093 211.363 155.26 213.029 160.475 214.507C165.263 213.347 169.763 213.347 173.975 214.507C177.975 213.84 181.975 213.174 185.975 212.507C186.667 213.032 187.167 213.699 187.475 214.507C189.978 212.657 192.811 211.324 195.975 210.507C199.306 212.214 202.472 211.548 205.475 208.507C207.384 202.767 210.217 197.1 213.975 191.507C214.667 190.982 215.167 190.315 215.475 189.507C215.783 190.315 216.283 190.982 216.975 191.507C216.881 190.035 217.881 188.869 219.975 188.007C221.839 186.601 223.672 186.101 225.475 186.507C226.986 180.928 230.32 176.261 235.475 172.507C236.99 168.815 238.49 165.148 239.975 161.507Z" fill="#F97705"/>
<path fill-rule="evenodd" clip-rule="evenodd" d="M103.975 205.507C106.899 207.247 109.733 209.247 112.475 211.507C114.538 215.296 117.038 218.629 119.975 221.507C114.642 221.507 109.308 221.507 103.975 221.507C103.975 216.174 103.975 210.84 103.975 205.507Z" fill="#E58208"/>
<path opacity="0.082" fill-rule="evenodd" clip-rule="evenodd" d="M81.9749 205.507C81.9749 216.174 81.9749 226.84 81.9749 237.507C81.3579 237.618 80.8579 237.951 80.4749 238.507C79.8079 227.174 79.8079 215.84 80.4749 204.507C80.8579 205.063 81.3579 205.396 81.9749 205.507Z" fill="#C8C7E7"/>
<path fill-rule="evenodd" clip-rule="evenodd" d="M220.975 222.507C220.421 229.16 220.087 235.827 219.975 242.507C213.642 242.507 207.308 242.507 200.975 242.507C200.975 235.84 200.975 229.174 200.975 222.507C207.642 222.507 214.308 222.507 220.975 222.507Z" fill="#DF5E00"/>
<path fill-rule="evenodd" clip-rule="evenodd" d="M91.9751 202.507C95.6421 202.507 99.3081 202.507 102.975 202.507C102.652 209.029 102.985 215.362 103.975 221.507C103.826 222.559 103.992 223.559 104.475 224.507C110.751 229.732 115.918 235.899 119.975 243.007C129.341 246.19 139.008 248.523 148.975 250.007C151.308 251.674 153.308 253.674 154.975 256.007C154.017 257.154 154.35 258.154 155.975 259.007C155.051 259.857 155.051 260.857 155.975 262.007C153.914 264.987 153.914 267.654 155.975 270.007C154.459 272.031 153.126 274.198 151.975 276.507C153.042 280.445 152.042 281.111 148.975 278.507C147.149 278.927 145.149 278.927 142.975 278.507C143.243 276.908 142.909 275.575 141.975 274.507C141.975 270.84 141.975 267.174 141.975 263.507C128.975 263.507 115.975 263.507 102.975 263.507C102.975 256.507 102.975 249.507 102.975 242.507C97.6421 242.507 92.3081 242.507 86.9751 242.507C88.0841 241.717 89.4171 241.217 90.9751 241.007C90.3441 239.101 90.0111 237.101 89.9751 235.007C90.0751 232.705 90.7421 230.705 91.9751 229.007C90.4651 227.656 89.4651 225.989 88.9751 224.007C88.7231 218.698 89.0561 213.532 89.9751 208.507C87.9881 206.68 85.6541 205.68 82.9751 205.507C82.9751 204.507 82.9751 203.507 82.9751 202.507C85.9751 202.507 88.9751 202.507 91.9751 202.507Z" fill="#28305B"/>
<path fill-rule="evenodd" clip-rule="evenodd" d="M120.975 221.507C122.733 221.884 124.4 222.551 125.975 223.507C126.703 226.219 127.536 228.886 128.475 231.507C130.654 232.123 132.487 233.29 133.975 235.007C136.926 234.608 139.926 234.108 142.975 233.507C143.268 236.761 142.601 239.761 140.975 242.507C134.975 242.507 128.975 242.507 122.975 242.507C123.132 235.381 122.465 228.381 120.975 221.507Z" fill="#D56500"/>
<path fill-rule="evenodd" clip-rule="evenodd" d="M258.975 201.507C259.308 201.507 259.642 201.507 259.975 201.507C259.975 201.84 259.975 202.174 259.975 202.507C259.975 215.84 259.975 229.174 259.975 242.507C253.308 242.507 246.642 242.507 239.975 242.507C239.975 249.507 239.975 256.507 239.975 263.507C226.975 263.507 213.975 263.507 200.975 263.507C200.975 262.84 200.975 262.174 200.975 261.507C205.166 256.483 209.832 251.983 214.975 248.007C217.293 246.014 219.959 244.848 222.975 244.507C223.462 239.182 226.129 235.349 230.975 233.007C233.84 229.315 236.84 225.815 239.975 222.507C240.784 220.715 241.284 218.715 241.475 216.507C246.782 212.92 250.948 208.253 253.975 202.507C255.691 202.378 257.358 202.045 258.975 201.507Z" fill="#272E5A"/>
<path opacity="0.02" fill-rule="evenodd" clip-rule="evenodd" d="M61.9749 242.507C61.3079 241.174 61.3079 241.174 61.9749 242.507Z" fill="#FE907B"/>
<path opacity="0.012" fill-rule="evenodd" clip-rule="evenodd" d="M279.975 241.507C281.308 242.174 281.308 242.174 279.975 241.507Z" fill="#7A83A4"/>
<path fill-rule="evenodd" clip-rule="evenodd" d="M103.975 221.507C109.308 221.507 114.642 221.507 119.975 221.507C120.308 221.507 120.642 221.507 120.975 221.507C122.465 228.381 123.132 235.381 122.975 242.507C128.975 242.507 134.975 242.507 140.975 242.507C147.308 242.507 153.642 242.507 159.975 242.507C159.975 256.174 159.975 269.84 159.975 283.507C156.642 283.507 153.308 283.507 149.975 283.507C147.308 283.507 144.642 283.507 141.975 283.507C141.975 280.507 141.975 277.507 141.975 274.507C142.909 275.575 143.243 276.908 142.975 278.507C145.149 278.927 147.149 278.927 148.975 278.507C152.042 281.111 153.042 280.445 151.975 276.507C153.126 274.198 154.459 272.031 155.975 270.007C153.914 267.654 153.914 264.987 155.975 262.007C155.051 260.857 155.051 259.857 155.975 259.007C154.35 258.154 154.017 257.154 154.975 256.007C153.308 253.674 151.308 251.674 148.975 250.007C139.008 248.523 129.341 246.19 119.975 243.007C115.918 235.899 110.751 229.732 104.475 224.507C103.992 223.559 103.826 222.559 103.975 221.507Z" fill="#40265B"/>
<path fill-rule="evenodd" clip-rule="evenodd" d="M259.975 242.507C259.975 249.507 259.975 256.507 259.975 263.507C253.642 263.507 247.308 263.507 240.975 263.507C240.642 263.507 240.308 263.507 239.975 263.507C239.975 256.507 239.975 249.507 239.975 242.507C246.642 242.507 253.308 242.507 259.975 242.507Z" fill="#F7C22A"/>
<path fill-rule="evenodd" clip-rule="evenodd" d="M61.9751 242.507C66.3081 242.507 70.6421 242.507 74.9751 242.507C73.8401 243.481 72.8401 244.648 71.9751 246.007C72.6421 246.34 73.3081 246.674 73.9751 247.007C72.0971 248.55 70.5971 250.383 69.4751 252.507C67.7411 254.458 65.5741 255.458 62.9751 255.507C63.2811 258.392 62.9481 261.059 61.9751 263.507C61.9751 256.507 61.9751 249.507 61.9751 242.507Z" fill="#D0522E"/>
<path fill-rule="evenodd" clip-rule="evenodd" d="M82.9751 242.507C84.3081 242.507 85.6421 242.507 86.9751 242.507C92.3081 242.507 97.6421 242.507 102.975 242.507C102.975 249.507 102.975 256.507 102.975 263.507C102.642 263.507 102.308 263.507 101.975 263.507C95.6421 263.507 89.3081 263.507 82.9751 263.507C82.9751 256.507 82.9751 249.507 82.9751 242.507Z" fill="#F9D138"/>
<path fill-rule="evenodd" clip-rule="evenodd" d="M220.975 222.507C221.975 222.507 222.975 222.507 223.975 222.507C229.308 222.507 234.642 222.507 239.975 222.507C236.84 225.815 233.84 229.315 230.975 233.007C226.129 235.349 223.462 239.182 222.975 244.507C219.959 244.848 217.293 246.014 214.975 248.007C209.832 251.983 205.166 256.483 200.975 261.507C200.975 258.174 200.975 254.84 200.975 251.507C200.975 248.507 200.975 245.507 200.975 242.507C207.308 242.507 213.642 242.507 219.975 242.507C220.087 235.827 220.421 229.16 220.975 222.507Z" fill="#40295D"/>
<path fill-rule="evenodd" clip-rule="evenodd" d="M160.975 242.507C162.975 242.507 164.975 242.507 166.975 242.507C168.37 243.655 168.203 244.655 166.475 245.507C165.31 249.691 166.81 252.524 170.975 254.007C170.414 255.573 171.081 256.906 172.975 258.007C174.808 259.174 176.642 260.34 178.475 261.507C188.157 259.99 193.657 254.324 194.975 244.507C194.612 243.824 194.279 243.157 193.975 242.507C196.308 242.507 198.642 242.507 200.975 242.507C200.975 245.507 200.975 248.507 200.975 251.507C199.992 255.305 199.658 259.305 199.975 263.507C198.642 263.507 197.308 263.507 195.975 263.507C190.975 263.507 185.975 263.507 180.975 263.507C177.308 263.507 173.642 263.507 169.975 263.507C168.682 261.711 167.182 260.044 165.475 258.507C164.992 259.455 164.826 260.455 164.975 261.507C163.975 261.507 162.975 261.507 161.975 261.507C161.155 255.21 160.822 248.876 160.975 242.507Z" fill="#D45C01"/>
<path fill-rule="evenodd" clip-rule="evenodd" d="M259.975 242.507C266.308 242.507 272.642 242.507 278.975 242.507C278.975 249.507 278.975 256.507 278.975 263.507C272.642 263.507 266.308 263.507 259.975 263.507C259.975 256.507 259.975 249.507 259.975 242.507Z" fill="#1B2E5A"/>
<path fill-rule="evenodd" clip-rule="evenodd" d="M166.975 242.507C167.975 242.507 168.975 242.507 169.975 242.507C177.975 242.507 185.975 242.507 193.975 242.507C194.279 243.157 194.612 243.824 194.975 244.507C193.657 254.324 188.157 259.99 178.475 261.507C176.642 260.34 174.808 259.174 172.975 258.007C171.081 256.906 170.414 255.573 170.975 254.007C166.81 252.524 165.31 249.691 166.475 245.507C168.203 244.655 168.37 243.655 166.975 242.507Z" fill="#DA5000"/>
<path fill-rule="evenodd" clip-rule="evenodd" d="M79.9751 242.507C80.6421 242.507 81.3081 242.507 81.9751 242.507C82.3081 242.507 82.6421 242.507 82.9751 242.507C82.9751 249.507 82.9751 256.507 82.9751 263.507C83.2981 270.029 82.9651 276.362 81.9751 282.507C81.9751 276.174 81.9751 269.84 81.9751 263.507C80.6421 263.507 79.3081 263.507 77.9751 263.507C79.0661 258.723 80.0661 253.889 80.9751 249.007C80.8221 246.791 80.4891 244.624 79.9751 242.507Z" fill="#AE6507"/>
<path fill-rule="evenodd" clip-rule="evenodd" d="M74.9751 242.507C76.6421 242.507 78.3081 242.507 79.9751 242.507C80.4891 244.624 80.8221 246.791 80.9751 249.007C80.0661 253.889 79.0661 258.723 77.9751 263.507C73.0451 263.204 68.2121 263.538 63.4751 264.507C62.9751 270.832 62.8091 277.165 62.9751 283.507C62.6421 283.507 62.3081 283.507 61.9751 283.507C60.6421 283.507 59.3081 283.507 57.9751 283.507C59.5361 276.841 60.8691 270.174 61.9751 263.507C62.9481 261.059 63.2811 258.392 62.9751 255.507C65.5741 255.458 67.7411 254.458 69.4751 252.507C70.5971 250.383 72.0971 248.55 73.9751 247.007C73.3081 246.674 72.6421 246.34 71.9751 246.007C72.8401 244.648 73.8401 243.481 74.9751 242.507Z" fill="#C25208"/>
<path opacity="0.07" fill-rule="evenodd" clip-rule="evenodd" d="M101.975 263.507C102.308 263.507 102.642 263.507 102.975 263.507C115.975 263.507 128.975 263.507 141.975 263.507C141.975 267.174 141.975 270.84 141.975 274.507C141.975 277.507 141.975 280.507 141.975 283.507C141.642 283.507 141.308 283.507 140.975 283.507C141.141 277.165 140.975 270.832 140.475 264.507C128.722 265.495 116.889 265.828 104.975 265.507C105.305 271.875 104.971 278.209 103.975 284.507C103.292 284.144 102.625 283.811 101.975 283.507C101.975 276.84 101.975 270.174 101.975 263.507Z" fill="#AFB5D7"/>
<path opacity="0.064" fill-rule="evenodd" clip-rule="evenodd" d="M200.975 264.507C200.975 264.174 200.975 263.84 200.975 263.507C213.975 263.507 226.975 263.507 239.975 263.507C239.975 263.84 239.975 264.174 239.975 264.507C226.975 265.84 213.975 265.84 200.975 264.507Z" fill="#CAC3E3"/>
<path fill-rule="evenodd" clip-rule="evenodd" d="M259.975 263.507C266.308 263.507 272.642 263.507 278.975 263.507C280.099 269.759 280.265 276.092 279.475 282.507C273.065 283.485 266.565 283.818 259.975 283.507C259.975 276.84 259.975 270.174 259.975 263.507Z" fill="#F8DC3A"/>
<path fill-rule="evenodd" clip-rule="evenodd" d="M240.975 263.507C247.308 263.507 253.642 263.507 259.975 263.507C259.975 270.174 259.975 276.84 259.975 283.507C259.642 283.507 259.308 283.507 258.975 283.507C257.308 283.507 255.642 283.507 253.975 283.507C254.738 282.739 255.738 282.239 256.975 282.007C253.975 278.34 250.975 274.674 247.975 271.007C243.719 270.228 241.385 267.728 240.975 263.507Z" fill="#AF5802"/>
<path fill-rule="evenodd" clip-rule="evenodd" d="M278.975 242.507C279.308 242.507 279.642 242.507 279.975 242.507C279.975 249.507 279.975 256.507 279.975 263.507C286.308 263.507 292.642 263.507 298.975 263.507C298.975 270.174 298.975 276.84 298.975 283.507C292.642 283.507 286.308 283.507 279.975 283.507C279.975 290.507 279.975 297.507 279.975 304.507C273.308 304.507 266.642 304.507 259.975 304.507C259.975 297.507 259.975 290.507 259.975 283.507C266.565 283.818 273.065 283.485 279.475 282.507C280.265 276.092 280.099 269.759 278.975 263.507C278.975 256.507 278.975 249.507 278.975 242.507Z" fill="#283354"/>
<path fill-rule="evenodd" clip-rule="evenodd" d="M61.9751 263.507C60.8691 270.174 59.5361 276.841 57.9751 283.507C53.3084 283.507 48.6418 283.507 43.9751 283.507C43.9751 276.84 43.9751 270.174 43.9751 263.507C49.9751 263.507 55.9751 263.507 61.9751 263.507Z" fill="#DB4725"/>
<path opacity="0.014" fill-rule="evenodd" clip-rule="evenodd" d="M239.975 269.507C239.975 274.174 239.975 278.84 239.975 283.507C239.112 284.47 238.445 284.47 237.975 283.507C238.268 278.569 238.435 273.569 238.475 268.507C238.858 269.063 239.358 269.396 239.975 269.507Z" fill="#FEAC91"/>
<path fill-rule="evenodd" clip-rule="evenodd" d="M169.975 263.507C173.642 263.507 177.308 263.507 180.975 263.507C180.975 276.84 180.975 290.174 180.975 303.507C174.385 303.818 167.885 303.485 161.475 302.507C160.975 289.511 160.808 276.511 160.975 263.507C163.975 263.507 166.975 263.507 169.975 263.507Z" fill="#F7A226"/>
<path opacity="0.396" fill-rule="evenodd" clip-rule="evenodd" d="M298.975 283.507C298.975 276.84 298.975 270.174 298.975 263.507C299.838 262.544 300.505 262.544 300.975 263.507C299.642 270.174 299.642 276.84 300.975 283.507C300.505 284.47 299.838 284.47 298.975 283.507Z" fill="#9A9FBE"/>
<path fill-rule="evenodd" clip-rule="evenodd" d="M77.9753 263.507C79.3083 263.507 80.6423 263.507 81.9753 263.507C81.9753 269.84 81.9753 276.174 81.9753 282.507C75.8303 283.497 69.4973 283.83 62.9753 283.507C62.8093 277.165 62.9753 270.832 63.4753 264.507C68.2123 263.538 73.0453 263.204 77.9753 263.507Z" fill="#FDC03C"/>
<path fill-rule="evenodd" clip-rule="evenodd" d="M239.975 263.507C240.308 263.507 240.642 263.507 240.975 263.507C241.385 267.728 243.719 270.228 247.975 271.007C250.975 274.674 253.975 278.34 256.975 282.007C255.738 282.239 254.738 282.739 253.975 283.507C249.308 283.507 244.642 283.507 239.975 283.507C239.975 278.84 239.975 274.174 239.975 269.507C239.975 267.84 239.975 266.174 239.975 264.507C239.975 264.174 239.975 263.84 239.975 263.507Z" fill="#BB5325"/>
<path fill-rule="evenodd" clip-rule="evenodd" d="M82.9751 263.507C89.3081 263.507 95.6421 263.507 101.975 263.507C101.975 270.174 101.975 276.84 101.975 283.507C95.6421 283.507 89.3081 283.507 82.9751 283.507C82.9751 285.84 82.9751 288.174 82.9751 290.507C82.9751 295.174 82.9751 299.84 82.9751 304.507C75.9751 304.507 68.9751 304.507 61.9751 304.507C61.9751 297.507 61.9751 290.507 61.9751 283.507C62.3081 283.507 62.6421 283.507 62.9751 283.507C69.4971 283.83 75.8301 283.497 81.9751 282.507C82.9651 276.362 83.2981 270.029 82.9751 263.507Z" fill="#313250"/>
<path fill-rule="evenodd" clip-rule="evenodd" d="M180.975 263.507C185.975 263.507 190.975 263.507 195.975 263.507C195.766 264.929 195.266 266.262 194.475 267.507C192.207 270.364 189.707 273.031 186.975 275.507C186.54 279.388 185.54 283.054 183.975 286.507C184.042 290.074 184.042 293.574 183.975 297.007C184.34 300.892 185.34 304.558 186.975 308.007C186.138 309.018 185.805 310.185 185.975 311.507C184.115 312.078 182.448 312.078 180.975 311.507C180.975 308.84 180.975 306.174 180.975 303.507C180.975 290.174 180.975 276.84 180.975 263.507Z" fill="#33265D"/>
<path opacity="0.83" fill-rule="evenodd" clip-rule="evenodd" d="M200.975 251.507C200.975 254.84 200.975 258.174 200.975 261.507C200.975 262.174 200.975 262.84 200.975 263.507C200.975 263.84 200.975 264.174 200.975 264.507C200.975 284.507 200.975 304.507 200.975 324.507C194.308 324.507 187.642 324.507 180.975 324.507C180.975 324.174 180.975 323.84 180.975 323.507C187.308 323.507 193.642 323.507 199.975 323.507C199.975 304.507 199.975 285.507 199.975 266.507C199.975 265.507 199.975 264.507 199.975 263.507C199.658 259.305 199.992 255.305 200.975 251.507Z" fill="#5D5B7D"/>
<path opacity="0.044" fill-rule="evenodd" clip-rule="evenodd" d="M82.9751 304.507C82.9751 299.84 82.9751 295.174 82.9751 290.507C83.5921 290.396 84.0921 290.063 84.4751 289.507C85.3041 294.871 85.1381 300.205 83.9751 305.507C83.3681 305.383 83.0351 305.05 82.9751 304.507Z" fill="#CDD1F0"/>
<path fill-rule="evenodd" clip-rule="evenodd" d="M140.975 283.507C141.308 283.507 141.642 283.507 141.975 283.507C144.642 283.507 147.308 283.507 149.975 283.507C149.799 291.007 152.133 297.507 156.975 303.007C157.923 303.49 158.923 303.656 159.975 303.507C159.975 304.507 159.975 305.507 159.975 306.507C158.096 306.614 157.763 306.114 158.975 305.007C152.469 304.611 146.135 304.444 139.975 304.507C140.939 297.565 141.272 290.565 140.975 283.507Z" fill="#C8603D"/>
<path opacity="0.469" fill-rule="evenodd" clip-rule="evenodd" d="M258.975 283.507C259.308 283.507 259.642 283.507 259.975 283.507C259.975 290.507 259.975 297.507 259.975 304.507C259.112 305.47 258.445 305.47 257.975 304.507C258.939 297.565 259.272 290.565 258.975 283.507Z" fill="#A19BB7"/>
<path fill-rule="evenodd" clip-rule="evenodd" d="M195.975 263.507C197.308 263.507 198.642 263.507 199.975 263.507C199.975 264.507 199.975 265.507 199.975 266.507C199.144 282.002 198.644 297.668 198.475 313.507C197.933 308.286 197.099 308.286 195.975 313.507C193.997 312.876 191.83 312.876 189.475 313.507C188.173 312.922 187.006 312.256 185.975 311.507C185.805 310.185 186.138 309.018 186.975 308.007C185.34 304.558 184.34 300.892 183.975 297.007C184.042 293.574 184.042 290.074 183.975 286.507C185.54 283.054 186.54 279.388 186.975 275.507C189.707 273.031 192.207 270.364 194.475 267.507C195.266 266.262 195.766 264.929 195.975 263.507Z" fill="#272F5C"/>
<path opacity="0.016" fill-rule="evenodd" clip-rule="evenodd" d="M61.9749 304.507C61.3079 305.174 61.3079 305.174 61.9749 304.507Z" fill="#979BB4"/>
<path opacity="0.012" fill-rule="evenodd" clip-rule="evenodd" d="M279.975 304.507C281.308 305.174 281.308 305.174 279.975 304.507Z" fill="#7981A0"/>
<path fill-rule="evenodd" clip-rule="evenodd" d="M159.975 242.507C160.308 242.507 160.642 242.507 160.975 242.507C160.822 248.876 161.155 255.21 161.975 261.507C162.975 261.507 163.975 261.507 164.975 261.507C164.826 260.455 164.992 259.455 165.475 258.507C167.182 260.044 168.682 261.711 169.975 263.507C166.975 263.507 163.975 263.507 160.975 263.507C160.808 276.511 160.975 289.511 161.475 302.507C167.885 303.485 174.385 303.818 180.975 303.507C180.975 306.174 180.975 308.84 180.975 311.507C180.975 312.174 180.975 312.84 180.975 313.507C173.62 316.605 166.62 315.938 159.975 311.507C159.975 309.84 159.975 308.174 159.975 306.507C159.975 305.507 159.975 304.507 159.975 303.507C158.923 303.656 157.923 303.49 156.975 303.007C152.133 297.507 149.799 291.007 149.975 283.507C153.308 283.507 156.642 283.507 159.975 283.507C159.975 269.84 159.975 256.174 159.975 242.507Z" fill="#C15A0D"/>
<path fill-rule="evenodd" clip-rule="evenodd" d="M199.975 266.507C199.975 285.507 199.975 304.507 199.975 323.507C193.642 323.507 187.308 323.507 180.975 323.507C180.975 320.174 180.975 316.84 180.975 313.507C180.975 312.84 180.975 312.174 180.975 311.507C182.448 312.078 184.115 312.078 185.975 311.507C187.006 312.256 188.173 312.922 189.475 313.507C191.83 312.876 193.997 312.876 195.975 313.507C197.099 308.286 197.933 308.286 198.475 313.507C198.644 297.668 199.144 282.002 199.975 266.507Z" fill="#2C2B4C"/>
<path fill-rule="evenodd" clip-rule="evenodd" d="M159.975 311.507C166.62 315.938 173.62 316.605 180.975 313.507C180.975 316.84 180.975 320.174 180.975 323.507C173.975 323.507 166.975 323.507 159.975 323.507C160.124 322.455 159.958 321.455 159.475 320.507C158.586 321.895 158.086 321.729 157.975 320.007C159.269 319.901 159.936 318.901 159.975 317.007C159.631 315.642 158.964 314.475 157.975 313.507C158.718 312.825 159.384 312.158 159.975 311.507Z" fill="#C06647"/>
<path opacity="0.02" fill-rule="evenodd" clip-rule="evenodd" d="M159.975 323.507C166.975 323.507 173.975 323.507 180.975 323.507C180.975 323.84 180.975 324.174 180.975 324.507C173.691 325.604 166.357 325.77 158.975 325.007C159.531 324.624 159.864 324.124 159.975 323.507Z" fill="#FAAF9D"/>
<path opacity="0.016" fill-rule="evenodd" clip-rule="evenodd" d="M200.975 324.507C202.308 325.174 202.308 325.174 200.975 324.507Z" fill="#898EA8"/>
</svg>
