<svg width="367" height="364" viewBox="0 0 367 364" fill="none" xmlns="http://www.w3.org/2000/svg">
<path opacity="0.016" fill-rule="evenodd" clip-rule="evenodd" d="M263.926 0.740479C265.259 1.40748 265.259 1.40748 263.926 0.740479Z" fill="#858EAF"/>
<path fill-rule="evenodd" clip-rule="evenodd" d="M262.926 2.74048C223.94 4.73448 184.607 5.40148 144.926 4.74048C144.926 10.4075 144.926 16.0735 144.926 21.7405C150.784 21.4185 156.451 21.7515 161.926 22.7405C155.593 22.7405 149.259 22.7405 142.926 22.7405C142.926 16.0735 142.926 9.40748 142.926 2.74048C182.926 2.74048 222.926 2.74048 262.926 2.74048Z" fill="#0B2041"/>
<path fill-rule="evenodd" clip-rule="evenodd" d="M262.926 2.74048C263.259 2.74048 263.593 2.74048 263.926 2.74048C263.926 9.07348 263.926 15.4075 263.926 21.7405C230.422 21.4085 197.088 21.7425 163.926 22.7405C163.259 22.7405 162.593 22.7405 161.926 22.7405C156.451 21.7515 150.784 21.4185 144.926 21.7405C144.926 16.0735 144.926 10.4075 144.926 4.74048C184.607 5.40148 223.94 4.73448 262.926 2.74048Z" fill="#223151"/>
<path opacity="0.016" fill-rule="evenodd" clip-rule="evenodd" d="M283.926 20.7405C285.259 21.4075 285.259 21.4075 283.926 20.7405Z" fill="#8E96B8"/>
<path opacity="0.595" fill-rule="evenodd" clip-rule="evenodd" d="M263.926 1.74048C263.926 2.07348 263.926 2.40748 263.926 2.74048C263.593 2.74048 263.259 2.74048 262.926 2.74048C222.926 2.74048 182.926 2.74048 142.926 2.74048C142.926 9.40748 142.926 16.0735 142.926 22.7405C149.259 22.7405 155.593 22.7405 161.926 22.7405C162.593 22.7405 163.259 22.7405 163.926 22.7405C157.113 23.7315 150.113 24.0655 142.926 23.7405C136.593 23.7405 130.259 23.7405 123.926 23.7405C123.926 28.4075 123.926 33.0735 123.926 37.7405C123.259 37.7405 122.926 38.0735 122.926 38.7405C121.811 32.9875 121.811 27.3215 122.926 21.7405C129.199 22.7005 135.533 23.0335 141.926 22.7405C141.381 15.2395 141.214 7.90648 141.426 0.740479C182.187 1.73748 223.02 2.07048 263.926 1.74048Z" fill="#8A93B5"/>
<path fill-rule="evenodd" clip-rule="evenodd" d="M263.926 21.7405C270.259 21.7405 276.593 21.7405 282.926 21.7405C282.926 28.4075 282.926 35.0735 282.926 41.7405C280.926 41.7405 278.926 41.7405 276.926 41.7405C272.593 41.7405 268.259 41.7405 263.926 41.7405C263.926 35.0735 263.926 28.4075 263.926 21.7405Z" fill="#213151"/>
<path fill-rule="evenodd" clip-rule="evenodd" d="M142.926 23.7405C142.926 30.0735 142.926 36.4075 142.926 42.7405C136.926 42.7405 130.926 42.7405 124.926 42.7405C124.593 42.7405 124.259 42.7405 123.926 42.7405C123.993 41.2815 123.66 39.9485 122.926 38.7405C123.593 38.7405 123.926 38.4075 123.926 37.7405C123.926 33.0735 123.926 28.4075 123.926 23.7405C130.259 23.7405 136.593 23.7405 142.926 23.7405Z" fill="#2D354B"/>
<path fill-rule="evenodd" clip-rule="evenodd" d="M163.926 22.7406C197.088 21.7426 230.422 21.4086 263.926 21.7406C263.926 28.4076 263.926 35.0736 263.926 41.7406C257.259 41.7406 250.593 41.7406 243.926 41.7406C243.926 35.4076 243.926 29.0736 243.926 22.7406C217.259 22.7406 190.593 22.7406 163.926 22.7406Z" fill="#9CA7BF"/>
<path opacity="0.02" fill-rule="evenodd" clip-rule="evenodd" d="M105.926 40.7405C107.259 41.4075 107.259 41.4075 105.926 40.7405Z" fill="#3C4969"/>
<path fill-rule="evenodd" clip-rule="evenodd" d="M282.926 21.7405C283.259 21.7405 283.593 21.7405 283.926 21.7405C283.601 28.9275 283.935 35.9275 284.926 42.7405C283.945 56.3285 283.611 69.9945 283.926 83.7405C278.915 83.5745 273.915 83.7415 268.926 84.2405C266.52 85.8625 264.687 88.0295 263.426 90.7405C263.665 87.9915 263.498 85.3255 262.926 82.7405C263.923 82.7705 264.59 82.2705 264.926 81.2405C263.984 74.7875 263.651 68.2875 263.926 61.7405C263.926 55.4075 263.926 49.0735 263.926 42.7405C268.458 43.0585 272.792 42.7255 276.926 41.7405C278.926 41.7405 280.926 41.7405 282.926 41.7405C282.926 35.0735 282.926 28.4075 282.926 21.7405Z" fill="#7F96B4"/>
<path opacity="0.06" fill-rule="evenodd" clip-rule="evenodd" d="M324.926 60.7405C324.259 60.7405 323.926 61.0735 323.926 61.7405C317.259 61.7405 310.593 61.7405 303.926 61.7405C303.926 55.4075 303.926 49.0735 303.926 42.7405C304.543 42.6295 305.043 42.2965 305.426 41.7405C305.925 47.7315 306.092 53.7315 305.926 59.7405C312.448 59.4175 318.781 59.7505 324.926 60.7405Z" fill="#BFCBEB"/>
<path opacity="0.016" fill-rule="evenodd" clip-rule="evenodd" d="M324.926 60.7405C326.259 61.4075 326.259 61.4075 324.926 60.7405Z" fill="#AFB8CE"/>
<path fill-rule="evenodd" clip-rule="evenodd" d="M105.926 42.7405C111.593 42.7405 117.259 42.7405 122.926 42.7405C122.926 56.4075 122.926 70.0735 122.926 83.7405C116.259 83.7405 109.593 83.7405 102.926 83.7405C102.926 77.0735 102.926 70.4075 102.926 63.7405C89.7698 62.7445 76.4358 62.4115 62.9258 62.7405C62.9258 56.0735 62.9258 49.4075 62.9258 42.7405C77.2588 42.7405 91.5928 42.7405 105.926 42.7405Z" fill="#243250"/>
<path fill-rule="evenodd" clip-rule="evenodd" d="M105.926 41.7405C105.926 42.0735 105.926 42.4075 105.926 42.7405C91.5928 42.7405 77.2588 42.7405 62.9258 42.7405C62.9258 49.4075 62.9258 56.0735 62.9258 62.7405C76.4358 62.4115 89.7698 62.7445 102.926 63.7405C89.9258 63.7405 76.9258 63.7405 63.9258 63.7405C64.2498 70.5945 63.9168 77.2615 62.9258 83.7405C62.9258 77.0735 62.9258 70.4075 62.9258 63.7405C56.2588 63.7405 49.5928 63.7405 42.9258 63.7405C42.9258 63.4075 42.9258 63.0735 42.9258 62.7405C49.2588 62.7405 55.5928 62.7405 61.9258 62.7405C61.8408 55.2265 61.8408 47.8935 61.9258 40.7405C76.5438 41.7235 91.2108 42.0575 105.926 41.7405Z" fill="#818CAA"/>
<path fill-rule="evenodd" clip-rule="evenodd" d="M147.926 43.7405C152.926 43.7405 157.926 43.7405 162.926 43.7405C162.926 50.0735 162.926 56.4075 162.926 62.7405C156.881 62.6685 150.881 63.1685 144.926 64.2405C144.088 68.0635 144.088 71.7305 144.926 75.2405C144.456 82.1345 140.789 84.6345 133.926 82.7405C132.593 82.7405 131.259 82.7405 129.926 82.7405C128.164 82.5975 126.497 82.9315 124.926 83.7405C123.593 77.0735 123.593 70.4075 124.926 63.7405C125.843 63.1135 126.843 62.7795 127.926 62.7405C132.674 63.4305 137.507 63.4305 142.426 62.7405C142.926 56.4155 143.092 50.0825 142.926 43.7405C144.593 43.7405 146.259 43.7405 147.926 43.7405Z" fill="#E0DEDC"/>
<path fill-rule="evenodd" clip-rule="evenodd" d="M182.926 102.741C182.926 109.408 182.926 116.074 182.926 122.741C176.593 122.741 170.259 122.741 163.926 122.741C164.25 129.595 163.917 136.262 162.926 142.741C163.092 136.399 162.926 130.066 162.426 123.741C156.016 122.763 149.516 122.43 142.926 122.741C142.926 129.408 142.926 136.074 142.926 142.741C142.593 142.741 142.259 142.741 141.926 142.741C141.926 141.408 141.926 140.074 141.926 138.741C140.593 138.741 139.259 138.741 137.926 138.741C138.083 137.368 137.916 136.034 137.426 134.741C134.838 131.652 133.005 128.152 131.926 124.241C134.417 123.615 134.417 122.782 131.926 121.741C131.18 120.505 130.847 119.171 130.926 117.741C132.404 117.479 133.737 117.812 134.926 118.741C133.966 120.053 134.132 121.387 135.426 122.741C136.419 119.933 137.253 117.1 137.926 114.241C137.593 113.908 137.259 113.574 136.926 113.241C138.259 112.241 139.593 111.241 140.926 110.241C138.426 109.408 138.259 108.241 140.426 106.741C140.877 109.17 141.711 109.337 142.926 107.241C142.593 106.908 142.259 106.574 141.926 106.241C143.682 106.039 145.348 105.539 146.926 104.741C143.413 104.545 140.246 102.879 137.426 99.7406C137.458 95.7386 138.125 95.7386 139.426 99.7406C140.176 99.1146 141.01 98.6146 141.926 98.2406C140.756 96.4856 139.089 95.4856 136.926 95.2406C137.926 94.9076 138.926 94.5736 139.926 94.2406C137.856 93.2926 136.356 91.7926 135.426 89.7406C135.093 90.4076 134.759 91.0736 134.426 91.7406C133.616 89.9346 132.45 88.4346 130.926 87.2406C132.155 85.8546 133.155 84.3546 133.926 82.7406C140.789 84.6346 144.456 82.1346 144.926 75.2406C144.088 71.7306 144.088 68.0636 144.926 64.2406C150.881 63.1686 156.881 62.6686 162.926 62.7406C162.926 56.4076 162.926 50.0736 162.926 43.7406C157.926 43.7406 152.926 43.7406 147.926 43.7406C148.689 42.9726 149.689 42.4726 150.926 42.2406C151.079 39.6306 152.412 37.2976 154.926 35.2406C157.424 32.7966 160.424 31.6296 163.926 31.7406C163.926 35.4076 163.926 39.0736 163.926 42.7406C177.259 42.7406 190.593 42.7406 203.926 42.7406C203.926 38.0736 203.926 33.4076 203.926 28.7406C204.3 26.2906 205.8 25.2906 208.426 25.7406C212.9 25.3466 217.4 25.8466 221.926 27.2406C222.708 29.9806 223.208 32.8146 223.426 35.7406C225.753 32.4186 228.586 31.9186 231.926 34.2406C230.593 34.9076 229.259 35.5736 227.926 36.2406C226.785 36.9816 226.785 37.8156 227.926 38.7406C225.624 40.2396 225.957 41.5726 228.926 42.7406C229.877 41.9146 230.877 41.7486 231.926 42.2406C230.822 43.3716 231.155 44.2056 232.926 44.7406C234.238 43.7806 235.572 43.9466 236.926 45.2406C236.259 45.5736 235.593 45.9076 234.926 46.2406C236.56 46.7346 238.227 46.9006 239.926 46.7406C240.069 48.5026 239.735 50.1696 238.926 51.7406C240.438 52.4896 241.438 53.6566 241.926 55.2406C239.191 59.2576 236.191 63.0906 232.926 66.7406C233.135 67.3266 233.469 67.8266 233.926 68.2406C227.919 72.5896 222.252 77.2556 216.926 82.2406C213.993 85.3956 211.827 88.5616 210.426 91.7406C210.093 91.4076 209.759 91.0736 209.426 90.7406C208.426 91.7406 207.426 92.7406 206.426 93.7406C205.426 93.4076 204.426 93.0736 203.426 92.7406C201.707 94.7976 199.707 96.4646 197.426 97.7406C195.539 95.5506 193.373 95.3836 190.926 97.2406C189.389 98.3506 188.723 99.8506 188.926 101.741C186.691 101.446 184.691 101.78 182.926 102.741Z" fill="#C6C8C6"/>
<path fill-rule="evenodd" clip-rule="evenodd" d="M284.926 42.7405C291.259 42.7405 297.593 42.7405 303.926 42.7405C303.926 49.0735 303.926 55.4075 303.926 61.7405C310.405 62.7315 317.072 63.0645 323.926 62.7405C323.926 69.7405 323.926 76.7405 323.926 83.7405C310.926 83.7405 297.926 83.7405 284.926 83.7405C284.593 83.7405 284.259 83.7405 283.926 83.7405C283.611 69.9945 283.945 56.3285 284.926 42.7405Z" fill="#223454"/>
<path fill-rule="evenodd" clip-rule="evenodd" d="M42.9258 63.7405C49.5928 63.7405 56.2588 63.7405 62.9258 63.7405C62.9258 70.4075 62.9258 77.0735 62.9258 83.7405C56.2588 83.7405 49.5928 83.7405 42.9258 83.7405C42.9258 77.0735 42.9258 70.4075 42.9258 63.7405Z" fill="#28334B"/>
<path opacity="0.073" fill-rule="evenodd" clip-rule="evenodd" d="M42.926 62.7405C42.926 63.0735 42.926 63.4075 42.926 63.7405C42.926 70.4075 42.926 77.0735 42.926 83.7405C42.593 83.7405 42.259 83.7405 41.926 83.7405C40.796 76.4865 40.63 69.1535 41.426 61.7405C41.809 62.2965 42.309 62.6295 42.926 62.7405Z" fill="#C2CEED"/>
<path fill-rule="evenodd" clip-rule="evenodd" d="M163.926 22.7405C190.593 22.7405 217.259 22.7405 243.926 22.7405C243.926 29.0735 243.926 35.4075 243.926 41.7405C250.593 41.7405 257.259 41.7405 263.926 41.7405C268.259 41.7405 272.593 41.7405 276.926 41.7405C272.792 42.7255 268.458 43.0585 263.926 42.7405C263.926 49.0735 263.926 55.4075 263.926 61.7405C257.283 62.4525 250.617 62.7865 243.926 62.7405C243.926 69.4075 243.926 76.0735 243.926 82.7405C237.251 82.5745 230.584 82.7405 223.926 83.2405C222.948 89.6505 222.615 96.1505 222.926 102.74C209.593 102.74 196.259 102.74 182.926 102.74C184.691 101.779 186.691 101.445 188.926 101.74C188.723 99.8505 189.389 98.3505 190.926 97.2405C193.373 95.3835 195.539 95.5505 197.426 97.7405C199.707 96.4645 201.707 94.7975 203.426 92.7405C204.426 93.0735 205.426 93.4075 206.426 93.7405C207.426 92.7405 208.426 91.7405 209.426 90.7405C209.759 91.0735 210.093 91.4075 210.426 91.7405C211.827 88.5615 213.993 85.3955 216.926 82.2405C222.252 77.2555 227.919 72.5895 233.926 68.2405C233.469 67.8265 233.135 67.3265 232.926 66.7405C236.191 63.0905 239.191 59.2575 241.926 55.2405C241.438 53.6565 240.438 52.4895 238.926 51.7405C239.735 50.1695 240.069 48.5025 239.926 46.7405C238.227 46.9005 236.56 46.7345 234.926 46.2405C235.593 45.9075 236.259 45.5735 236.926 45.2405C235.572 43.9465 234.238 43.7805 232.926 44.7405C231.155 44.2055 230.822 43.3715 231.926 42.2405C230.877 41.7485 229.877 41.9145 228.926 42.7405C225.957 41.5725 225.624 40.2395 227.926 38.7405C226.785 37.8155 226.785 36.9815 227.926 36.2405C229.259 35.5735 230.593 34.9075 231.926 34.2405C228.586 31.9185 225.753 32.4185 223.426 35.7405C223.208 32.8145 222.708 29.9805 221.926 27.2405C217.4 25.8465 212.9 25.3465 208.426 25.7405C205.8 25.2905 204.3 26.2905 203.926 28.7405C202.118 29.5575 200.618 28.8905 199.426 26.7405C197.688 27.3675 195.855 27.7005 193.926 27.7405C190.543 27.7595 187.376 27.0935 184.426 25.7405C181.985 26.4775 179.651 26.4775 177.426 25.7405C175.594 27.0985 173.761 27.4325 171.926 26.7405C169.575 28.4695 166.908 29.1365 163.926 28.7405C163.926 29.7405 163.926 30.7405 163.926 31.7405C160.424 31.6295 157.424 32.7965 154.926 35.2405C152.412 37.2975 151.079 39.6305 150.926 42.2405C149.689 42.4725 148.689 42.9725 147.926 43.7405C146.259 43.7405 144.593 43.7405 142.926 43.7405C143.092 50.0825 142.926 56.4155 142.426 62.7405C137.507 63.4305 132.674 63.4305 127.926 62.7405C127.764 57.6885 128.764 52.6885 130.926 47.7405C134.043 46.2565 137.376 45.2565 140.926 44.7405C135.441 44.0735 130.107 43.4075 124.926 42.7405C130.926 42.7405 136.926 42.7405 142.926 42.7405C142.926 36.4075 142.926 30.0735 142.926 23.7405C150.113 24.0655 157.113 23.7315 163.926 22.7405Z" fill="#C3CAD1"/>
<path fill-rule="evenodd" clip-rule="evenodd" d="M203.926 28.7405C203.926 33.4075 203.926 38.0735 203.926 42.7405C190.593 42.7405 177.259 42.7405 163.926 42.7405C163.926 39.0735 163.926 35.4075 163.926 31.7405C163.926 30.7405 163.926 29.7405 163.926 28.7405C166.908 29.1365 169.575 28.4695 171.926 26.7405C173.761 27.4325 175.594 27.0985 177.426 25.7405C179.651 26.4775 181.985 26.4775 184.426 25.7405C187.376 27.0935 190.543 27.7595 193.926 27.7405C195.855 27.7005 197.688 27.3675 199.426 26.7405C200.618 28.8905 202.118 29.5575 203.926 28.7405Z" fill="#F0EAE0"/>
<path fill-rule="evenodd" clip-rule="evenodd" d="M263.926 61.7405C263.651 68.2875 263.984 74.7875 264.926 81.2405C264.59 82.2705 263.923 82.7705 262.926 82.7405C257.001 82.4325 251.167 82.7655 245.426 83.7405C244.926 90.0655 244.76 96.3985 244.926 102.74C251.259 102.74 257.593 102.74 263.926 102.74C263.926 109.407 263.926 116.073 263.926 122.74C257.259 122.74 250.593 122.74 243.926 122.74C244.422 116.47 244.422 110.137 243.926 103.74C230.259 103.74 216.593 103.74 202.926 103.74C202.926 106.407 202.926 109.073 202.926 111.74C202.003 110.937 201.003 110.77 199.926 111.24C196.322 113.948 193.822 117.448 192.426 121.74C191.209 127.659 190.209 133.325 189.426 138.74C186.759 142.073 184.093 145.407 181.426 148.74C181.093 148.407 180.759 148.073 180.426 147.74C176.436 151.542 171.603 153.709 165.926 154.24C156.285 156.5 146.618 156.833 136.926 155.24C133.807 153.597 130.641 152.097 127.426 150.74C125.275 151.407 123.775 152.74 122.926 154.74C121.792 151.87 121.126 148.87 120.926 145.74C119.282 145.526 117.782 145.86 116.426 146.74C107.044 145.135 97.5438 144.468 87.9258 144.74C88.2448 150.95 87.5778 156.95 85.9258 162.74C64.9258 162.74 43.9258 162.74 22.9258 162.74C22.9258 156.073 22.9258 149.407 22.9258 142.74C49.9378 142.512 76.9378 142.845 103.926 143.74C103.926 136.74 103.926 129.74 103.926 122.74C110.259 122.74 116.593 122.74 122.926 122.74C122.926 129.407 122.926 136.073 122.926 142.74C129.259 142.74 135.593 142.74 141.926 142.74C142.259 142.74 142.593 142.74 142.926 142.74C149.593 142.74 156.259 142.74 162.926 142.74C163.917 136.261 164.25 129.594 163.926 122.74C170.259 122.74 176.593 122.74 182.926 122.74C182.926 116.073 182.926 109.407 182.926 102.74C196.259 102.74 209.593 102.74 222.926 102.74C222.615 96.1505 222.948 89.6505 223.926 83.2405C230.584 82.7405 237.251 82.5745 243.926 82.7405C243.926 76.0735 243.926 69.4075 243.926 62.7405C250.617 62.7865 257.283 62.4525 263.926 61.7405Z" fill="#9BAAB9"/>
<path opacity="0.01" fill-rule="evenodd" clip-rule="evenodd" d="M38.9258 83.7405C37.2588 83.7405 35.5928 83.7405 33.9258 83.7405C34.2168 82.5915 35.0498 81.9245 36.4258 81.7405C37.8018 81.9245 38.6348 82.5915 38.9258 83.7405Z" fill="#D0D8FB"/>
<path opacity="0.01" fill-rule="evenodd" clip-rule="evenodd" d="M331.926 83.7405C331.259 83.7405 330.593 83.7405 329.926 83.7405C330.593 81.0735 331.259 81.0735 331.926 83.7405Z" fill="#D0DAFE"/>
<path opacity="0.016" fill-rule="evenodd" clip-rule="evenodd" d="M345.926 82.7405C347.259 83.4075 347.259 83.4075 345.926 82.7405Z" fill="#8E95AF"/>
<path fill-rule="evenodd" clip-rule="evenodd" d="M262.926 82.7404C263.498 85.3254 263.665 87.9914 263.426 90.7404C264.687 88.0294 266.52 85.8624 268.926 84.2404C273.915 83.7414 278.915 83.5744 283.926 83.7404C283.926 90.0734 283.926 96.4074 283.926 102.74C277.259 102.74 270.593 102.74 263.926 102.74C257.593 102.74 251.259 102.74 244.926 102.74C244.76 96.3984 244.926 90.0654 245.426 83.7404C251.167 82.7654 257.001 82.4324 262.926 82.7404Z" fill="#8598AB"/>
<path fill-rule="evenodd" clip-rule="evenodd" d="M95.9258 82.7406C101.096 85.5806 106.262 88.5806 111.426 91.7406C114.976 90.4386 118.309 88.7716 121.426 86.7406C121.759 87.4076 122.093 88.0736 122.426 88.7406C123.493 88.0496 124.66 87.5496 125.926 87.2406C126.783 85.2216 128.117 83.7216 129.926 82.7406C131.259 82.7406 132.593 82.7406 133.926 82.7406C133.155 84.3546 132.155 85.8546 130.926 87.2406C132.45 88.4346 133.616 89.9346 134.426 91.7406C134.759 91.0736 135.093 90.4076 135.426 89.7406C136.356 91.7926 137.856 93.2926 139.926 94.2406C138.926 94.5736 137.926 94.9076 136.926 95.2406C139.089 95.4856 140.756 96.4856 141.926 98.2406C141.01 98.6146 140.176 99.1146 139.426 99.7406C138.125 95.7386 137.458 95.7386 137.426 99.7406C140.246 102.879 143.413 104.545 146.926 104.741C145.348 105.539 143.682 106.039 141.926 106.241C142.259 106.574 142.593 106.908 142.926 107.241C141.711 109.337 140.877 109.17 140.426 106.741C138.259 108.241 138.426 109.408 140.926 110.241C139.593 111.241 138.259 112.241 136.926 113.241C137.259 113.574 137.593 113.908 137.926 114.241C137.253 117.1 136.419 119.933 135.426 122.741C134.132 121.387 133.966 120.053 134.926 118.741C133.737 117.812 132.404 117.479 130.926 117.741C129.968 118.194 129.134 118.86 128.426 119.741C125.651 118.302 123.151 116.469 120.926 114.241C117.936 113.344 114.936 112.51 111.926 111.741C110.836 110.85 110.836 109.85 111.926 108.741C110.593 107.408 109.259 107.408 107.926 108.741C109.067 109.666 109.067 110.5 107.926 111.241C108.593 111.908 109.259 112.574 109.926 113.241C104.133 114.3 99.4668 117.134 95.9258 121.741C95.5928 121.574 95.2588 121.408 94.9258 121.241C97.0458 118.832 99.0458 116.332 100.926 113.741C100.426 112.741 99.9258 111.741 99.4258 110.741C95.1448 116.144 90.3118 120.978 84.9258 125.241C81.4908 126.94 77.9908 128.44 74.4258 129.741C72.6408 129.001 70.8078 128.334 68.9258 127.741C64.5058 131.773 59.1728 133.939 52.9258 134.241C51.7588 134.741 50.9258 135.574 50.4258 136.741C48.5098 135.313 46.3428 134.313 43.9258 133.741C42.8378 129.855 42.0048 129.855 41.4258 133.741C40.3588 133.05 39.1918 132.55 37.9258 132.241C37.0468 129.366 35.3798 126.532 32.9258 123.741C34.3278 122.399 33.9948 121.565 31.9258 121.241C32.6748 119.507 33.1748 117.674 33.4258 115.741C35.8468 112.17 38.0128 108.503 39.9258 104.741C40.9228 104.711 41.5898 105.211 41.9258 106.241C41.4188 110.261 39.4188 113.261 35.9258 115.241C36.6648 117.006 36.6648 119.006 35.9258 121.241C40.6488 122.353 45.4818 122.853 50.4258 122.741C54.5928 122.408 58.7588 122.074 62.9258 121.741C65.1918 115.589 65.5248 109.256 63.9258 102.741C69.6878 103.092 75.3538 102.592 80.9258 101.241C82.6228 95.5566 83.6228 89.7236 83.9258 83.7406C87.8778 82.9686 91.8778 82.6356 95.9258 82.7406Z" fill="#C5C7C6"/>
<path fill-rule="evenodd" clip-rule="evenodd" d="M122.926 42.7405C123.259 42.7405 123.593 42.7405 123.926 42.7405C124.259 42.7405 124.593 42.7405 124.926 42.7405C130.107 43.4075 135.441 44.0735 140.926 44.7405C137.376 45.2565 134.043 46.2565 130.926 47.7405C128.764 52.6885 127.764 57.6885 127.926 62.7405C126.843 62.7795 125.843 63.1135 124.926 63.7405C123.593 70.4075 123.593 77.0735 124.926 83.7405C126.497 82.9315 128.164 82.5975 129.926 82.7405C128.117 83.7215 126.783 85.2215 125.926 87.2405C124.66 87.5495 123.493 88.0495 122.426 88.7405C122.093 88.0735 121.759 87.4075 121.426 86.7405C118.309 88.7715 114.976 90.4385 111.426 91.7405C106.262 88.5805 101.096 85.5805 95.9258 82.7405C96.6648 82.8715 97.3318 82.7045 97.9258 82.2405C95.6098 79.9925 93.2758 77.6595 90.9258 75.2405C89.1278 73.7355 87.2938 73.5685 85.4258 74.7405C82.7418 69.0995 81.4088 69.4325 81.4258 75.7405C79.3368 75.4955 77.3368 75.4955 75.4258 75.7405C74.1378 79.8185 71.3038 82.1525 66.9258 82.7405C66.1748 83.6165 65.6748 84.6165 65.4258 85.7405C58.8418 85.0325 53.6748 87.5325 49.9258 93.2405C48.9778 93.7235 47.9778 93.8895 46.9258 93.7405C47.2768 97.0525 45.9438 99.3855 42.9258 100.74C42.9258 95.0735 42.9258 89.4075 42.9258 83.7405C49.5928 83.7405 56.2588 83.7405 62.9258 83.7405C63.9168 77.2615 64.2498 70.5945 63.9258 63.7405C76.9258 63.7405 89.9258 63.7405 102.926 63.7405C102.926 70.4075 102.926 77.0735 102.926 83.7405C109.593 83.7405 116.259 83.7405 122.926 83.7405C122.926 70.0735 122.926 56.4075 122.926 42.7405Z" fill="#CDD1E0"/>
<path fill-rule="evenodd" clip-rule="evenodd" d="M284.926 83.7405C297.926 83.7405 310.926 83.7405 323.926 83.7405C323.926 90.4075 323.926 97.0735 323.926 103.74C321.367 104.042 319.033 103.708 316.926 102.74C316.815 101.29 317.148 99.6245 317.926 97.7405C316.634 95.5735 315.801 93.2405 315.426 90.7405C313.769 90.0695 311.769 90.0695 309.426 90.7405C309.093 90.0735 308.759 89.4075 308.426 88.7405C303.974 88.7195 299.474 89.0525 294.926 89.7405C292.331 87.8075 289.998 87.8075 287.926 89.7405C287.001 88.5995 286.167 88.5995 285.426 89.7405C284.931 87.7675 284.764 85.7675 284.926 83.7405Z" fill="#C8D0E5"/>
<path fill-rule="evenodd" clip-rule="evenodd" d="M328.926 83.7405C329.259 83.7405 329.593 83.7405 329.926 83.7405C330.593 83.7405 331.259 83.7405 331.926 83.7405C336.259 83.7405 340.593 83.7405 344.926 83.7405C344.926 90.4075 344.926 97.0735 344.926 103.74C338.259 103.74 331.593 103.74 324.926 103.74C324.926 97.0735 324.926 90.4075 324.926 83.7405C326.259 83.7405 327.593 83.7405 328.926 83.7405Z" fill="#22304C"/>
<path fill-rule="evenodd" clip-rule="evenodd" d="M33.9258 83.7405C35.5928 83.7405 37.2588 83.7405 38.9258 83.7405C39.9258 83.7405 40.9258 83.7405 41.9258 83.7405C42.2588 83.7405 42.5928 83.7405 42.9258 83.7405C42.9258 89.4075 42.9258 95.0735 42.9258 100.74C42.9258 101.74 42.9258 102.74 42.9258 103.74C36.5928 103.74 30.2588 103.74 23.9258 103.74C23.5928 103.74 23.2588 103.74 22.9258 103.74C22.9258 103.407 22.9258 103.073 22.9258 102.74C22.9258 96.4075 22.9258 90.0735 22.9258 83.7405C26.5928 83.7405 30.2588 83.7405 33.9258 83.7405Z" fill="#262E47"/>
<path fill-rule="evenodd" clip-rule="evenodd" d="M95.9258 82.7404C91.8778 82.6354 87.8778 82.9684 83.9258 83.7404C83.6228 89.7234 82.6228 95.5564 80.9258 101.24C75.3538 102.591 69.6878 103.091 63.9258 102.74C65.5248 109.255 65.1918 115.588 62.9258 121.74C58.7588 122.073 54.5928 122.407 50.4258 122.74C45.4818 122.852 40.6488 122.352 35.9258 121.24C36.6648 119.005 36.6648 117.005 35.9258 115.24C39.4188 113.26 41.4188 110.26 41.9258 106.24C41.5898 105.21 40.9228 104.71 39.9258 104.74C34.3998 105.061 29.0658 104.728 23.9258 103.74C30.2588 103.74 36.5928 103.74 42.9258 103.74C42.9258 102.74 42.9258 101.74 42.9258 100.74C45.9438 99.3854 47.2768 97.0524 46.9258 93.7404C47.9778 93.8894 48.9778 93.7234 49.9258 93.2404C53.6748 87.5324 58.8418 85.0324 65.4258 85.7404C65.6748 84.6164 66.1748 83.6164 66.9258 82.7404C71.3038 82.1524 74.1378 79.8184 75.4258 75.7404C77.3368 75.4954 79.3368 75.4954 81.4258 75.7404C81.4088 69.4324 82.7418 69.0994 85.4258 74.7404C87.2938 73.5684 89.1278 73.7354 90.9258 75.2404C93.2758 77.6594 95.6098 79.9924 97.9258 82.2404C97.3318 82.7044 96.6648 82.8714 95.9258 82.7404Z" fill="#DEDBD5"/>
<path opacity="0.071" fill-rule="evenodd" clip-rule="evenodd" d="M22.9258 102.74C22.9258 103.073 22.9258 103.407 22.9258 103.74C16.2588 103.74 9.59278 103.74 2.92578 103.74C2.81478 103.123 2.48178 102.623 1.92578 102.24C9.00578 101.445 16.0058 101.612 22.9258 102.74Z" fill="#C2CCEC"/>
<path opacity="0.111" fill-rule="evenodd" clip-rule="evenodd" d="M344.926 83.7405C345.259 83.7405 345.593 83.7405 345.926 83.7405C345.76 90.0825 345.926 96.4155 346.426 102.74C353.025 101.414 359.525 101.414 365.926 102.74C365.259 102.74 364.926 103.073 364.926 103.74C364.593 103.74 364.259 103.74 363.926 103.74C357.593 103.74 351.259 103.74 344.926 103.74C344.926 97.0735 344.926 90.4075 344.926 83.7405Z" fill="#ADB7D5"/>
<path fill-rule="evenodd" clip-rule="evenodd" d="M243.926 122.74C237.113 123.731 230.113 124.065 222.926 123.74C222.926 130.407 222.926 137.073 222.926 143.74C216.336 144.051 209.836 143.718 203.426 142.74C202.926 132.412 202.76 122.079 202.926 111.74C202.926 109.073 202.926 106.407 202.926 103.74C216.593 103.74 230.259 103.74 243.926 103.74C244.422 110.137 244.422 116.47 243.926 122.74Z" fill="#7F94AA"/>
<path fill-rule="evenodd" clip-rule="evenodd" d="M363.926 104.74C363.926 124.073 363.926 143.407 363.926 162.74C357.926 162.74 351.926 162.74 345.926 162.74C345.926 143.407 345.926 124.073 345.926 104.74C351.926 104.74 357.926 104.74 363.926 104.74Z" fill="#213352"/>
<path fill-rule="evenodd" clip-rule="evenodd" d="M3.92591 104.74C3.79491 105.479 3.96191 106.146 4.42591 106.74C10.1669 105.765 16.0009 105.432 21.9259 105.74C21.9259 124.74 21.9259 143.74 21.9259 162.74C15.5929 162.74 9.25891 162.74 2.92591 162.74C2.59591 143.233 2.92891 123.899 3.92591 104.74Z" fill="#223251"/>
<path fill-rule="evenodd" clip-rule="evenodd" d="M22.9258 103.74C23.2588 103.74 23.5928 103.74 23.9258 103.74C29.0658 104.728 34.3998 105.061 39.9258 104.74C38.0128 108.502 35.8468 112.169 33.4258 115.74C33.1748 117.673 32.6748 119.506 31.9258 121.24C33.9948 121.564 34.3278 122.398 32.9258 123.74C35.3798 126.531 37.0468 129.365 37.9258 132.24C39.1918 132.549 40.3588 133.049 41.4258 133.74C42.0048 129.854 42.8378 129.854 43.9258 133.74C46.3428 134.312 48.5098 135.312 50.4258 136.74C50.9258 135.573 51.7588 134.74 52.9258 134.24C59.1728 133.938 64.5058 131.772 68.9258 127.74C70.8078 128.333 72.6408 129 74.4258 129.74C77.9908 128.439 81.4908 126.939 84.9258 125.24C90.3118 120.977 95.1448 116.143 99.4258 110.74C99.9258 111.74 100.426 112.74 100.926 113.74C99.0458 116.331 97.0458 118.831 94.9258 121.24C95.2588 121.407 95.5928 121.573 95.9258 121.74C99.4668 117.133 104.133 114.299 109.926 113.24C109.259 112.573 108.593 111.907 107.926 111.24C109.067 110.499 109.067 109.665 107.926 108.74C109.259 107.407 110.593 107.407 111.926 108.74C110.836 109.849 110.836 110.849 111.926 111.74C114.936 112.509 117.936 113.343 120.926 114.24C123.151 116.468 125.651 118.301 128.426 119.74C129.134 118.859 129.968 118.193 130.926 117.74C130.847 119.17 131.18 120.504 131.926 121.74C134.417 122.781 134.417 123.614 131.926 124.24C133.005 128.151 134.838 131.651 137.426 134.74C137.916 136.033 138.083 137.367 137.926 138.74C139.259 138.74 140.593 138.74 141.926 138.74C141.926 140.073 141.926 141.407 141.926 142.74C135.593 142.74 129.259 142.74 122.926 142.74C122.926 136.073 122.926 129.407 122.926 122.74C116.593 122.74 110.259 122.74 103.926 122.74C103.926 129.74 103.926 136.74 103.926 143.74C76.9378 142.845 49.9378 142.512 22.9258 142.74C22.9258 130.073 22.9258 117.407 22.9258 104.74C22.9258 104.407 22.9258 104.073 22.9258 103.74Z" fill="#C3CACF"/>
<path fill-rule="evenodd" clip-rule="evenodd" d="M283.926 83.7405C284.259 83.7405 284.593 83.7405 284.926 83.7405C284.764 85.7675 284.931 87.7675 285.426 89.7405C286.167 88.5995 287.001 88.5995 287.926 89.7405C289.998 87.8075 292.331 87.8075 294.926 89.7405C299.474 89.0525 303.974 88.7195 308.426 88.7405C308.759 89.4075 309.093 90.0735 309.426 90.7405C311.769 90.0695 313.769 90.0695 315.426 90.7405C315.801 93.2405 316.634 95.5735 317.926 97.7405C317.148 99.6245 316.815 101.29 316.926 102.74C312.989 102.447 309.156 102.78 305.426 103.74C305.133 110.107 304.633 116.44 303.926 122.74C297.668 122.43 291.502 122.764 285.426 123.74C284.926 130.065 284.76 136.398 284.926 142.74C264.254 142.8 243.587 143.133 222.926 143.74C222.926 137.073 222.926 130.407 222.926 123.74C230.113 124.065 237.113 123.731 243.926 122.74C250.593 122.74 257.259 122.74 263.926 122.74C263.926 116.073 263.926 109.407 263.926 102.74C270.593 102.74 277.259 102.74 283.926 102.74C283.926 96.4075 283.926 90.0735 283.926 83.7405Z" fill="#D3D7D8"/>
<path fill-rule="evenodd" clip-rule="evenodd" d="M316.926 102.741C319.033 103.709 321.367 104.043 323.926 103.741C326.504 104.221 328.838 105.221 330.926 106.741C328.926 106.741 326.926 106.741 324.926 106.741C324.894 112.43 324.56 118.096 323.926 123.741C317.259 123.741 310.593 123.741 303.926 123.741C303.926 130.074 303.926 136.408 303.926 142.741C297.593 142.741 291.259 142.741 284.926 142.741C284.76 136.399 284.926 130.066 285.426 123.741C291.502 122.765 297.668 122.431 303.926 122.741C304.633 116.441 305.133 110.108 305.426 103.741C309.156 102.781 312.989 102.448 316.926 102.741Z" fill="#A4B0BC"/>
<path fill-rule="evenodd" clip-rule="evenodd" d="M344.926 103.74C351.259 103.74 357.593 103.74 363.926 103.74C363.926 104.073 363.926 104.407 363.926 104.74C357.926 104.74 351.926 104.74 345.926 104.74C345.926 124.073 345.926 143.407 345.926 162.74C345.926 163.073 345.926 163.407 345.926 163.74C345.593 163.74 345.259 163.74 344.926 163.74C344.926 143.74 344.926 123.74 344.926 103.74Z" fill="#3D5276"/>
<path fill-rule="evenodd" clip-rule="evenodd" d="M363.926 103.74C364.259 103.74 364.593 103.74 364.926 103.74C364.926 123.74 364.926 143.74 364.926 163.74C358.593 163.74 352.259 163.74 345.926 163.74C345.926 163.407 345.926 163.073 345.926 162.74C351.926 162.74 357.926 162.74 363.926 162.74C363.926 143.407 363.926 124.073 363.926 104.74C363.926 104.407 363.926 104.073 363.926 103.74Z" fill="#000A22"/>
<path opacity="0.078" fill-rule="evenodd" clip-rule="evenodd" d="M365.926 102.74C367.259 123.407 367.259 144.073 365.926 164.74C365.926 164.073 365.593 163.74 364.926 163.74C364.926 143.74 364.926 123.74 364.926 103.74C365.593 103.74 365.926 103.407 365.926 102.74Z" fill="#BAC3DF"/>
<path fill-rule="evenodd" clip-rule="evenodd" d="M162.926 142.741C156.259 142.741 149.593 142.741 142.926 142.741C142.926 136.074 142.926 129.408 142.926 122.741C149.516 122.43 156.016 122.763 162.426 123.741C162.926 130.066 163.092 136.399 162.926 142.741Z" fill="#E7E8E3"/>
<path opacity="0.626" fill-rule="evenodd" clip-rule="evenodd" d="M2.92578 103.74C9.59278 103.74 16.2588 103.74 22.9258 103.74C22.9258 104.073 22.9258 104.407 22.9258 104.74C16.5928 104.74 10.2588 104.74 3.92578 104.74C2.92878 123.899 2.59578 143.233 2.92578 162.74C9.40478 163.731 16.0718 164.064 22.9258 163.74C22.9258 170.407 22.9258 177.073 22.9258 183.74C22.5928 183.74 22.2588 183.74 21.9258 183.74C21.9258 177.407 21.9258 171.073 21.9258 164.74C14.8898 164.785 7.88978 164.952 0.925781 165.24C1.58678 144.642 2.25378 124.142 2.92578 103.74Z" fill="#7987AA"/>
<path fill-rule="evenodd" clip-rule="evenodd" d="M202.926 111.74C202.76 122.079 202.926 132.412 203.426 142.74C209.836 143.718 216.336 144.051 222.926 143.74C243.587 143.133 264.254 142.8 284.926 142.74C285.238 149.662 284.905 156.496 283.926 163.24C230.294 163.172 176.627 163.339 122.926 163.74C122.926 160.74 122.926 157.74 122.926 154.74C123.775 152.74 125.275 151.407 127.426 150.74C130.641 152.097 133.807 153.597 136.926 155.24C146.618 156.833 156.285 156.5 165.926 154.24C171.603 153.709 176.436 151.542 180.426 147.74C180.759 148.073 181.093 148.407 181.426 148.74C184.093 145.407 186.759 142.073 189.426 138.74C190.209 133.325 191.209 127.659 192.426 121.74C193.822 117.448 196.322 113.948 199.926 111.24C201.003 110.77 202.003 110.937 202.926 111.74Z" fill="#9BADC0"/>
<path fill-rule="evenodd" clip-rule="evenodd" d="M3.92578 104.74C10.2588 104.74 16.5928 104.74 22.9258 104.74C22.9258 117.407 22.9258 130.073 22.9258 142.74C22.9258 149.407 22.9258 156.073 22.9258 162.74C22.9258 163.073 22.9258 163.407 22.9258 163.74C16.0718 164.064 9.40478 163.731 2.92578 162.74C9.25878 162.74 15.5928 162.74 21.9258 162.74C21.9258 143.74 21.9258 124.74 21.9258 105.74C16.0008 105.432 10.1668 105.765 4.42578 106.74C3.96178 106.146 3.79478 105.479 3.92578 104.74Z" fill="#041028"/>
<path fill-rule="evenodd" clip-rule="evenodd" d="M330.926 106.74C332.35 108.965 333.017 111.465 332.926 114.24C331.264 116.25 330.264 119.583 329.926 124.24C330.448 125.19 331.115 126.024 331.926 126.74C331.121 129.155 330.121 131.489 328.926 133.74C329.357 134.533 329.691 135.367 329.926 136.24C326.713 142.456 322.379 147.79 316.926 152.24C318.637 153.373 319.137 154.873 318.426 156.74C317.511 155.912 316.845 154.912 316.426 153.74C314.394 157.289 311.56 158.789 307.926 158.24C306.38 160.497 304.714 162.664 302.926 164.74C302.641 158.366 300.975 158.199 297.926 164.24C298.877 164.958 299.043 165.791 298.426 166.74C296.75 167.301 295.417 168.301 294.426 169.74C291.238 169.391 288.071 170.058 284.926 171.74C283.627 171.15 282.794 170.15 282.426 168.74C281.031 170.055 280.031 169.721 279.426 167.74C278.759 170.407 278.093 170.407 277.426 167.74C277.093 168.74 276.759 169.74 276.426 170.74C275.752 169.662 274.752 168.995 273.426 168.74C270.926 169.24 268.426 169.74 265.926 170.24C267.122 170.894 267.122 171.394 265.926 171.74C264.048 171.617 262.215 171.617 260.426 171.74C259.11 169.212 257.943 169.212 256.926 171.74C253.858 169.783 250.525 169.283 246.926 170.24C249.021 170.796 249.188 171.296 247.426 171.74C245.534 171.463 244.201 170.463 243.426 168.74C241.939 169.493 241.772 170.326 242.926 171.24C238.536 172.012 234.203 171.846 229.926 170.74C228.926 171.407 227.926 172.073 226.926 172.74C226.937 171.799 226.437 171.132 225.426 170.74C225.11 171.874 224.277 172.874 222.926 173.74C221.563 173.042 220.397 173.042 219.426 173.74C218.726 172.208 217.56 171.208 215.926 170.74C211.911 173.243 207.578 174.077 202.926 173.24C203.897 172.036 204.897 171.536 205.926 171.74C202.829 170.773 199.996 170.106 197.426 169.74C197.259 170.073 197.093 170.407 196.926 170.74C202.083 172.227 201.75 172.893 195.926 172.74C196.307 170.298 195.64 169.631 193.926 170.74C193.234 170.215 192.734 169.548 192.426 168.74C191.654 170.089 190.487 170.922 188.926 171.24C189.259 171.573 189.593 171.907 189.926 172.24C188.093 172.407 186.259 172.573 184.426 172.74C182.124 172.64 180.124 171.973 178.426 170.74C177.907 171.756 177.073 172.422 175.926 172.74C173.033 170.926 170.033 170.593 166.926 171.74C165.678 171.2 164.511 170.533 163.426 169.74C152.395 170.471 141.228 171.471 129.926 172.74C124.259 171.154 118.759 169.154 113.426 166.74C108.924 168.885 108.757 168.051 112.926 164.24C111.567 163.036 110.567 161.536 109.926 159.74C108.285 162.009 107.451 164.342 107.426 166.74C106.038 165.686 104.538 165.52 102.926 166.24C104.122 166.894 104.122 167.394 102.926 167.74C101.269 165.661 99.2688 165.494 96.9258 167.24C98.1218 167.894 98.1218 168.394 96.9258 168.74C96.2588 168.407 95.5928 168.073 94.9258 167.74C86.0138 171.317 77.0138 173.317 67.9258 173.74C67.9258 172.74 67.9258 171.74 67.9258 170.74C65.6338 170.996 63.4668 170.663 61.4258 169.74C58.5368 172.627 55.3708 173.127 51.9258 171.24C49.2288 168.304 46.2288 165.804 42.9258 163.74C36.2588 163.74 29.5928 163.74 22.9258 163.74C22.9258 163.407 22.9258 163.073 22.9258 162.74C43.9258 162.74 64.9258 162.74 85.9258 162.74C87.5778 156.95 88.2448 150.95 87.9258 144.74C97.5438 144.468 107.044 145.135 116.426 146.74C117.782 145.86 119.282 145.526 120.926 145.74C121.126 148.87 121.792 151.87 122.926 154.74C122.926 157.74 122.926 160.74 122.926 163.74C176.627 163.339 230.294 163.172 283.926 163.24C284.905 156.496 285.238 149.662 284.926 142.74C291.259 142.74 297.593 142.74 303.926 142.74C303.926 136.407 303.926 130.073 303.926 123.74C310.593 123.74 317.259 123.74 323.926 123.74C324.56 118.095 324.894 112.429 324.926 106.74C326.926 106.74 328.926 106.74 330.926 106.74Z" fill="#7E96B1"/>
<path opacity="0.083" fill-rule="evenodd" clip-rule="evenodd" d="M344.926 163.74C345.259 163.74 345.593 163.74 345.926 163.74C352.259 163.74 358.593 163.74 364.926 163.74C365.593 163.74 365.926 164.073 365.926 164.74C359.402 165.669 352.902 165.669 346.426 164.74C345.926 171.065 345.76 177.398 345.926 183.74C345.593 183.74 345.259 183.74 344.926 183.74C344.926 177.073 344.926 170.407 344.926 163.74Z" fill="#9FA9C6"/>
<path fill-rule="evenodd" clip-rule="evenodd" d="M344.926 163.74C344.926 170.407 344.926 177.073 344.926 183.74C338.593 183.74 332.259 183.74 325.926 183.74C325.451 177.258 325.451 170.591 325.926 163.74C332.259 163.74 338.593 163.74 344.926 163.74Z" fill="#1C3050"/>
<path fill-rule="evenodd" clip-rule="evenodd" d="M330.926 106.741C334.259 106.268 336.426 107.601 337.426 110.741C337.358 117.374 337.358 123.707 337.426 129.741C339.092 128.901 339.259 129.401 337.926 131.241C340.317 131.932 340.317 132.932 337.926 134.241C340.221 135.225 339.887 136.058 336.926 136.741C335.72 138.725 335.72 140.725 336.926 142.741C336.58 143.937 336.08 143.937 335.426 142.741C335.392 144.421 335.225 145.921 334.926 147.241C336.552 147.046 338.219 147.046 339.926 147.241C338.389 148.351 337.723 149.851 337.926 151.741C336.874 151.592 335.874 151.758 334.926 152.241C335.392 153.54 335.392 155.04 334.926 156.741C331.836 154.787 329.503 155.454 327.926 158.741C326.003 159.549 324.003 160.049 321.926 160.241C321.252 164.158 320.419 168.325 319.426 172.741C318.773 169.498 317.273 168.664 314.926 170.241C317.43 174.438 316.096 176.438 310.926 176.241C312.21 174.944 312.043 173.777 310.426 172.741C306.448 174.298 302.281 175.131 297.926 175.241C297.173 176.728 296.34 176.895 295.426 175.741C295.038 176.669 294.371 177.336 293.426 177.741C289.75 175.172 286.083 175.172 282.426 177.741C279.015 176.948 275.515 176.448 271.926 176.241C274.021 175.685 274.188 175.185 272.426 174.741C270.371 175.933 268.371 175.933 266.426 174.741C265.246 175.925 263.746 176.592 261.926 176.741C257.688 175.185 253.355 174.685 248.926 175.241C250.926 175.574 252.926 175.908 254.926 176.241C251.634 177.177 248.634 176.677 245.926 174.741C242.786 176.263 239.453 177.096 235.926 177.241C237.122 177.895 237.122 178.395 235.926 178.741C233.723 178.654 231.556 178.654 229.426 178.741C229.093 178.074 228.759 177.408 228.426 176.741C226.464 176.272 224.631 176.938 222.926 178.741C220.988 176.162 219.155 176.162 217.426 178.741C215.656 176.823 213.489 176.323 210.926 177.241C213.021 177.797 213.188 178.297 211.426 178.741C207.341 177.18 203.174 175.847 198.926 174.741C191.13 175.394 183.296 176.394 175.426 177.741C175.093 177.408 174.759 177.074 174.426 176.741C174.118 177.549 173.618 178.216 172.926 178.741C172.593 178.074 172.259 177.408 171.926 176.741C171.259 177.408 170.593 178.074 169.926 178.741C169.593 178.074 169.259 177.408 168.926 176.741C168.259 177.408 167.593 178.074 166.926 178.741C164.926 176.074 162.926 176.074 160.926 178.741C159.926 178.074 158.926 177.408 157.926 176.741C155.846 176.821 153.68 177.487 151.426 178.741C148.549 176.838 145.382 175.838 141.926 175.741C135.087 176.034 128.42 176.701 121.926 177.741C122.145 176.566 121.812 175.566 120.926 174.741C119.463 174.873 117.963 175.206 116.426 175.741C114.426 175.074 112.426 174.408 110.426 173.741C108.544 174.334 107.544 175.668 107.426 177.741C106.936 176.448 106.769 175.114 106.926 173.741C105.926 173.741 104.926 173.741 103.926 173.741C104.154 175.596 103.487 176.429 101.926 176.241C102.259 175.908 102.593 175.574 102.926 175.241C102.199 173.842 101.699 172.342 101.426 170.741C100.926 171.908 100.093 172.741 98.9258 173.241C100.137 174.134 100.137 174.967 98.9258 175.741C96.4768 176.221 94.3108 177.221 92.4258 178.741C89.9488 176.569 87.2818 176.236 84.4258 177.741C82.6128 177.414 80.9458 176.748 79.4258 175.741C78.4808 176.146 77.8138 176.813 77.4258 177.741C77.1178 176.933 76.6178 176.266 75.9258 175.741C72.7678 176.067 69.9338 177.067 67.4258 178.741C65.2628 175.525 62.4298 174.858 58.9258 176.741C54.0618 175.005 49.3958 173.672 44.9258 172.741C45.4358 169.853 44.7698 167.52 42.9258 165.741C42.9258 165.074 42.9258 164.408 42.9258 163.741C46.2288 165.805 49.2288 168.305 51.9258 171.241C55.3708 173.128 58.5368 172.628 61.4258 169.741C63.4668 170.664 65.6338 170.997 67.9258 170.741C67.9258 171.741 67.9258 172.741 67.9258 173.741C77.0138 173.318 86.0138 171.318 94.9258 167.741C95.5928 168.074 96.2588 168.408 96.9258 168.741C98.1218 168.395 98.1218 167.895 96.9258 167.241C99.2688 165.495 101.269 165.662 102.926 167.741C104.122 167.395 104.122 166.895 102.926 166.241C104.538 165.521 106.038 165.687 107.426 166.741C107.451 164.343 108.285 162.01 109.926 159.741C110.567 161.537 111.567 163.037 112.926 164.241C108.757 168.052 108.924 168.886 113.426 166.741C118.759 169.155 124.259 171.155 129.926 172.741C141.228 171.472 152.395 170.472 163.426 169.741C164.511 170.534 165.678 171.201 166.926 171.741C170.033 170.594 173.033 170.927 175.926 172.741C177.073 172.423 177.907 171.757 178.426 170.741C180.124 171.974 182.124 172.641 184.426 172.741C186.259 172.574 188.093 172.408 189.926 172.241C189.593 171.908 189.259 171.574 188.926 171.241C190.487 170.923 191.654 170.09 192.426 168.741C192.734 169.549 193.234 170.216 193.926 170.741C195.64 169.632 196.307 170.299 195.926 172.741C201.75 172.894 202.083 172.228 196.926 170.741C197.093 170.408 197.259 170.074 197.426 169.741C199.996 170.107 202.829 170.774 205.926 171.741C204.897 171.537 203.897 172.037 202.926 173.241C207.578 174.078 211.911 173.244 215.926 170.741C217.56 171.209 218.726 172.209 219.426 173.741C220.397 173.043 221.563 173.043 222.926 173.741C224.277 172.875 225.11 171.875 225.426 170.741C226.437 171.133 226.937 171.8 226.926 172.741C227.926 172.074 228.926 171.408 229.926 170.741C234.203 171.847 238.536 172.013 242.926 171.241C241.772 170.327 241.939 169.494 243.426 168.741C244.201 170.464 245.534 171.464 247.426 171.741C249.188 171.297 249.021 170.797 246.926 170.241C250.525 169.284 253.858 169.784 256.926 171.741C257.943 169.213 259.11 169.213 260.426 171.741C262.215 171.618 264.048 171.618 265.926 171.741C267.122 171.395 267.122 170.895 265.926 170.241C268.426 169.741 270.926 169.241 273.426 168.741C274.752 168.996 275.752 169.663 276.426 170.741C276.759 169.741 277.093 168.741 277.426 167.741C278.093 170.408 278.759 170.408 279.426 167.741C280.031 169.722 281.031 170.056 282.426 168.741C282.794 170.151 283.627 171.151 284.926 171.741C288.071 170.059 291.238 169.392 294.426 169.741C295.417 168.302 296.75 167.302 298.426 166.741C299.043 165.792 298.877 164.959 297.926 164.241C300.975 158.2 302.641 158.367 302.926 164.741C304.714 162.665 306.38 160.498 307.926 158.241C311.56 158.79 314.394 157.29 316.426 153.741C316.845 154.913 317.511 155.913 318.426 156.741C319.137 154.874 318.637 153.374 316.926 152.241C322.379 147.791 326.713 142.457 329.926 136.241C329.691 135.368 329.357 134.534 328.926 133.741C330.121 131.49 331.121 129.156 331.926 126.741C331.115 126.025 330.448 125.191 329.926 124.241C330.264 119.584 331.264 116.251 332.926 114.241C333.017 111.466 332.35 108.966 330.926 106.741Z" fill="#7D97B8"/>
<path fill-rule="evenodd" clip-rule="evenodd" d="M303.926 61.7405C310.593 61.7405 317.259 61.7405 323.926 61.7405C324.259 61.7405 324.593 61.7405 324.926 61.7405C324.76 68.7485 324.926 75.7485 325.426 82.7405C327.182 81.2555 328.349 81.5885 328.926 83.7405C327.593 83.7405 326.259 83.7405 324.926 83.7405C324.926 90.4075 324.926 97.0735 324.926 103.74C331.593 103.74 338.259 103.74 344.926 103.74C344.926 123.74 344.926 143.74 344.926 163.74C338.593 163.74 332.259 163.74 325.926 163.74C325.451 170.591 325.451 177.258 325.926 183.74C325.926 184.073 325.926 184.407 325.926 184.74C324.936 190.885 324.603 197.218 324.926 203.74C324.593 203.74 324.259 203.74 323.926 203.74C323.926 197.073 323.926 190.407 323.926 183.74C230.592 183.907 137.259 183.74 43.9259 183.24C42.9509 177.499 42.6179 171.665 42.9259 165.74C44.7699 167.519 45.4359 169.852 44.9259 172.74C49.3959 173.671 54.0619 175.004 58.9259 176.74C62.4299 174.857 65.2629 175.524 67.4259 178.74C69.9339 177.066 72.7679 176.066 75.9259 175.74C76.6179 176.265 77.1179 176.932 77.4259 177.74C77.8139 176.812 78.4809 176.145 79.4259 175.74C80.9459 176.747 82.6129 177.413 84.4259 177.74C87.2819 176.235 89.9489 176.568 92.4259 178.74C94.3109 177.22 96.4769 176.22 98.9259 175.74C100.137 174.966 100.137 174.133 98.9259 173.24C100.093 172.74 100.926 171.907 101.426 170.74C101.699 172.341 102.199 173.841 102.926 175.24C102.593 175.573 102.259 175.907 101.926 176.24C103.487 176.428 104.154 175.595 103.926 173.74C104.926 173.74 105.926 173.74 106.926 173.74C106.769 175.113 106.936 176.447 107.426 177.74C107.544 175.667 108.544 174.333 110.426 173.74C112.426 174.407 114.426 175.073 116.426 175.74C117.963 175.205 119.463 174.872 120.926 174.74C121.812 175.565 122.145 176.565 121.926 177.74C128.42 176.7 135.087 176.033 141.926 175.74C145.382 175.837 148.549 176.837 151.426 178.74C153.68 177.486 155.846 176.82 157.926 176.74C158.926 177.407 159.926 178.073 160.926 178.74C162.926 176.073 164.926 176.073 166.926 178.74C167.593 178.073 168.259 177.407 168.926 176.74C169.259 177.407 169.593 178.073 169.926 178.74C170.593 178.073 171.259 177.407 171.926 176.74C172.259 177.407 172.593 178.073 172.926 178.74C173.618 178.215 174.118 177.548 174.426 176.74C174.759 177.073 175.093 177.407 175.426 177.74C183.296 176.393 191.13 175.393 198.926 174.74C203.174 175.846 207.341 177.179 211.426 178.74C213.188 178.296 213.021 177.796 210.926 177.24C213.489 176.322 215.656 176.822 217.426 178.74C219.155 176.161 220.988 176.161 222.926 178.74C224.631 176.937 226.464 176.271 228.426 176.74C228.759 177.407 229.093 178.073 229.426 178.74C231.556 178.653 233.723 178.653 235.926 178.74C237.122 178.394 237.122 177.894 235.926 177.24C239.453 177.095 242.786 176.262 245.926 174.74C248.634 176.676 251.634 177.176 254.926 176.24C252.926 175.907 250.926 175.573 248.926 175.24C253.355 174.684 257.688 175.184 261.926 176.74C263.746 176.591 265.246 175.924 266.426 174.74C268.371 175.932 270.371 175.932 272.426 174.74C274.188 175.184 274.021 175.684 271.926 176.24C275.515 176.447 279.015 176.947 282.426 177.74C286.083 175.171 289.75 175.171 293.426 177.74C294.371 177.335 295.038 176.668 295.426 175.74C296.34 176.894 297.173 176.727 297.926 175.24C302.281 175.13 306.448 174.297 310.426 172.74C312.043 173.776 312.21 174.943 310.926 176.24C316.096 176.437 317.43 174.437 314.926 170.24C317.273 168.663 318.773 169.497 319.426 172.74C320.419 168.324 321.252 164.157 321.926 160.24C324.003 160.048 326.003 159.548 327.926 158.74C329.503 155.453 331.836 154.786 334.926 156.74C335.392 155.039 335.392 153.539 334.926 152.24C335.874 151.757 336.874 151.591 337.926 151.74C337.723 149.85 338.389 148.35 339.926 147.24C338.219 147.045 336.552 147.045 334.926 147.24C335.225 145.92 335.392 144.42 335.426 142.74C336.08 143.936 336.58 143.936 336.926 142.74C335.72 140.724 335.72 138.724 336.926 136.74C339.887 136.057 340.221 135.224 337.926 134.24C340.317 132.931 340.317 131.931 337.926 131.24C339.259 129.4 339.092 128.9 337.426 129.74C337.358 123.706 337.358 117.373 337.426 110.74C336.426 107.6 334.259 106.267 330.926 106.74C328.838 105.22 326.504 104.22 323.926 103.74C323.926 97.0735 323.926 90.4075 323.926 83.7405C323.926 76.7405 323.926 69.7405 323.926 62.7405C317.072 63.0645 310.405 62.7315 303.926 61.7405Z" fill="#819AC0"/>
<path opacity="0.01" fill-rule="evenodd" clip-rule="evenodd" d="M21.926 183.74C21.259 184.407 21.259 184.407 21.926 183.74Z" fill="#7884A2"/>
<path opacity="0.016" fill-rule="evenodd" clip-rule="evenodd" d="M345.926 183.74C347.259 184.407 347.259 184.407 345.926 183.74Z" fill="#8F95AD"/>
<path opacity="0.01" fill-rule="evenodd" clip-rule="evenodd" d="M325.926 184.74C327.259 185.407 327.259 185.407 325.926 184.74Z" fill="#162948"/>
<path fill-rule="evenodd" clip-rule="evenodd" d="M22.9258 163.74C29.5928 163.74 36.2588 163.74 42.9258 163.74C42.9258 164.407 42.9258 165.073 42.9258 165.74C42.6178 171.665 42.9508 177.499 43.9258 183.24C137.259 183.74 230.592 183.907 323.926 183.74C323.926 190.407 323.926 197.073 323.926 203.74C304.259 203.74 284.593 203.74 264.926 203.74C266.052 202.382 266.052 201.048 264.926 199.74C264.234 200.265 263.734 200.932 263.426 201.74C262.426 200.407 261.426 199.073 260.426 197.74C260.093 198.073 259.759 198.407 259.426 198.74C256.745 196.713 255.079 194.047 254.426 190.74C253.859 194.04 252.359 194.206 249.926 191.24C250.593 190.907 251.259 190.573 251.926 190.24C248.021 189.632 244.354 188.465 240.926 186.74C237.335 189.009 233.669 189.009 229.926 186.74C217.84 187.129 205.673 187.129 193.426 186.74C182.926 186.907 172.426 187.073 161.926 187.24C159.926 187.74 157.926 188.24 155.926 188.74C151.35 187.853 147.016 188.02 142.926 189.24C144.593 189.573 146.259 189.907 147.926 190.24C145.728 190.613 143.561 191.113 141.426 191.74C139.267 189.18 137.1 189.18 134.926 191.74C135.135 192.326 135.469 192.826 135.926 193.24C133.324 194.123 131.157 195.623 129.426 197.74C129.093 197.407 128.759 197.073 128.426 196.74C127.802 198.994 126.469 200.661 124.426 201.74C123.943 202.688 123.777 203.688 123.926 204.74C96.9258 204.74 69.9258 204.74 42.9258 204.74C42.9258 204.407 42.9258 204.073 42.9258 203.74C43.2498 196.886 42.9168 190.219 41.9258 183.74C35.5928 183.74 29.2588 183.74 22.9258 183.74C22.9258 177.073 22.9258 170.407 22.9258 163.74Z" fill="#1D3458"/>
<path opacity="0.06" fill-rule="evenodd" clip-rule="evenodd" d="M41.9259 183.74C42.9169 190.219 43.2499 196.886 42.9259 203.74C42.2589 203.74 41.9259 204.073 41.9259 204.74C40.6159 197.839 40.6159 190.839 41.9259 183.74Z" fill="#C1CEF0"/>
<path fill-rule="evenodd" clip-rule="evenodd" d="M264.926 203.74C263.593 209.74 263.593 215.74 264.926 221.74C265.259 221.74 265.593 221.74 265.926 221.74C265.503 222.505 265.169 223.338 264.926 224.24C266.445 226.818 267.278 229.651 267.426 232.74C267.961 230.969 268.795 230.636 269.926 231.74C268.833 233.589 267.5 235.256 265.926 236.74C266.135 237.326 266.469 237.826 266.926 238.24C265.401 239.249 263.734 239.749 261.926 239.74C262.8 244.74 261.467 248.907 257.926 252.24C258.259 252.573 258.593 252.907 258.926 253.24C257.442 254.814 255.775 256.147 253.926 257.24C254.593 257.573 255.259 257.907 255.926 258.24C254.593 258.907 254.593 259.573 255.926 260.24C252.446 261.343 249.113 262.509 245.926 263.74C245.259 263.74 244.926 264.073 244.926 264.74C244.593 264.74 244.259 264.74 243.926 264.74C243.926 264.407 243.926 264.073 243.926 263.74C243.926 263.073 243.926 262.407 243.926 261.74C245.931 261.201 247.931 260.535 249.926 259.74C250.306 258.219 250.472 256.553 250.426 254.74C251.616 252.04 253.449 249.873 255.926 248.24C253.857 247.916 253.524 247.082 254.926 245.74C251.484 243.035 249.151 239.535 247.926 235.24C248.85 234.09 248.85 233.09 247.926 232.24C250.417 231.614 250.417 230.781 247.926 229.74C248.426 228.74 248.926 227.74 249.426 226.74C249.759 227.073 250.093 227.407 250.426 227.74C251.865 225.965 252.865 223.965 253.426 221.74C253.759 222.073 254.093 222.407 254.426 222.74C254.833 219.558 255.333 216.391 255.926 213.24C255.671 211.914 255.004 210.914 253.926 210.24C255.223 207.695 255.057 205.195 253.426 202.74C251.987 199.551 248.82 196.885 243.926 194.74C243.34 194.949 242.84 195.283 242.426 195.74C238.128 193.966 233.795 193.3 229.426 193.74C216.093 194.407 202.759 195.073 189.426 195.74C187.4 194.143 185.067 193.143 182.426 192.74C179.704 193.353 176.87 193.687 173.926 193.74C168.56 192.018 163.227 191.351 157.926 191.74C155.985 192.044 154.319 192.877 152.926 194.24C150.858 194.927 148.858 194.76 146.926 193.74C144.885 194.476 142.885 195.309 140.926 196.24C141.259 196.573 141.593 196.907 141.926 197.24C140.14 198.025 138.64 199.191 137.426 200.74C137.093 200.407 136.759 200.073 136.426 199.74C134.836 204.542 132.503 208.876 129.426 212.74C128.415 213.577 127.248 213.91 125.926 213.74C124.849 214.919 124.516 217.586 124.926 221.74C128.259 221.74 131.593 221.74 134.926 221.74C134.926 222.073 134.926 222.407 134.926 222.74C131.32 222.451 127.82 222.784 124.426 223.74C123.926 230.065 123.76 236.398 123.926 242.74C122.614 245.648 121.281 248.648 119.926 251.74C117.793 250.149 116.127 248.149 114.926 245.74C115.451 245.048 116.118 244.548 116.926 244.24C115.401 241.637 114.401 239.137 113.926 236.74C114.593 236.073 115.259 235.407 115.926 234.74C114.248 232.537 113.248 230.037 112.926 227.24C115.273 225.659 115.273 224.326 112.926 223.24C114.163 223.008 115.163 222.508 115.926 221.74C118.593 221.74 121.259 221.74 123.926 221.74C123.926 216.073 123.926 210.407 123.926 204.74C123.777 203.688 123.943 202.688 124.426 201.74C126.469 200.661 127.802 198.994 128.426 196.74C128.759 197.073 129.093 197.407 129.426 197.74C131.157 195.623 133.324 194.123 135.926 193.24C135.469 192.826 135.135 192.326 134.926 191.74C137.1 189.18 139.267 189.18 141.426 191.74C143.561 191.113 145.728 190.613 147.926 190.24C146.259 189.907 144.593 189.573 142.926 189.24C147.016 188.02 151.35 187.853 155.926 188.74C157.926 188.24 159.926 187.74 161.926 187.24C172.426 187.073 182.926 186.907 193.426 186.74C205.673 187.129 217.84 187.129 229.926 186.74C233.669 189.009 237.335 189.009 240.926 186.74C244.354 188.465 248.021 189.632 251.926 190.24C251.259 190.573 250.593 190.907 249.926 191.24C252.359 194.206 253.859 194.04 254.426 190.74C255.079 194.047 256.745 196.713 259.426 198.74C259.759 198.407 260.093 198.073 260.426 197.74C261.426 199.073 262.426 200.407 263.426 201.74C263.734 200.932 264.234 200.265 264.926 199.74C266.052 201.048 266.052 202.382 264.926 203.74Z" fill="#21315D"/>
<path fill-rule="evenodd" clip-rule="evenodd" d="M243.926 261.741C243.926 255.408 243.926 249.074 243.926 242.741C241.926 242.741 239.926 242.741 237.926 242.741C235.464 239.777 232.797 236.944 229.926 234.241C230.392 231.588 231.226 228.754 232.426 225.741C233.835 224.46 235.335 223.46 236.926 222.741C239.259 222.741 241.593 222.741 243.926 222.741C243.926 216.408 243.926 210.074 243.926 203.741C238.671 200.587 233.337 198.42 227.926 197.241C213.442 197.046 199.276 196.879 185.426 196.741C182.093 197.408 178.759 198.074 175.426 198.741C171.494 197.559 167.661 196.892 163.926 196.741C161.056 197.363 158.222 198.03 155.426 198.741C155.093 198.408 154.759 198.074 154.426 197.741C150.805 199.629 146.972 201.129 142.926 202.241C138.712 209.162 133.379 214.996 126.926 219.741C125.96 217.845 125.627 215.845 125.926 213.741C127.248 213.911 128.415 213.578 129.426 212.741C132.503 208.877 134.836 204.543 136.426 199.741C136.759 200.074 137.093 200.408 137.426 200.741C138.64 199.192 140.14 198.026 141.926 197.241C141.593 196.908 141.259 196.574 140.926 196.241C142.885 195.31 144.885 194.477 146.926 193.741C148.858 194.761 150.858 194.928 152.926 194.241C154.319 192.878 155.985 192.045 157.926 191.741C163.227 191.352 168.56 192.019 173.926 193.741C176.87 193.688 179.704 193.354 182.426 192.741C185.067 193.144 187.4 194.144 189.426 195.741C202.759 195.074 216.093 194.408 229.426 193.741C233.795 193.301 238.128 193.967 242.426 195.741C242.84 195.284 243.34 194.95 243.926 194.741C248.82 196.886 251.987 199.552 253.426 202.741C255.057 205.196 255.223 207.696 253.926 210.241C255.004 210.915 255.671 211.915 255.926 213.241C255.333 216.392 254.833 219.559 254.426 222.741C254.093 222.408 253.759 222.074 253.426 221.741C252.865 223.966 251.865 225.966 250.426 227.741C250.093 227.408 249.759 227.074 249.426 226.741C248.926 227.741 248.426 228.741 247.926 229.741C250.417 230.782 250.417 231.615 247.926 232.241C248.85 233.091 248.85 234.091 247.926 235.241C249.151 239.536 251.484 243.036 254.926 245.741C253.524 247.083 253.857 247.917 255.926 248.241C253.449 249.874 251.616 252.041 250.426 254.741C250.472 256.554 250.306 258.22 249.926 259.741C247.931 260.536 245.931 261.202 243.926 261.741Z" fill="#2C2E5F"/>
<path fill-rule="evenodd" clip-rule="evenodd" d="M243.926 203.74C237.593 203.74 231.259 203.74 224.926 203.74C224.593 203.74 224.259 203.74 223.926 203.74C223.593 203.74 223.259 203.74 222.926 203.74C203.259 203.74 183.593 203.74 163.926 203.74C157.259 203.74 150.593 203.74 143.926 203.74C143.926 209.74 143.926 215.74 143.926 221.74C140.926 221.74 137.926 221.74 134.926 221.74C131.593 221.74 128.259 221.74 124.926 221.74C124.516 217.586 124.849 214.919 125.926 213.74C125.627 215.844 125.96 217.844 126.926 219.74C133.379 214.995 138.712 209.161 142.926 202.24C146.972 201.128 150.805 199.628 154.426 197.74C154.759 198.073 155.093 198.407 155.426 198.74C158.222 198.029 161.056 197.362 163.926 196.74C167.661 196.891 171.494 197.558 175.426 198.74C178.759 198.073 182.093 197.407 185.426 196.74C199.276 196.878 213.442 197.045 227.926 197.24C233.337 198.419 238.671 200.586 243.926 203.74Z" fill="#3C2A61"/>
<path opacity="0.227" fill-rule="evenodd" clip-rule="evenodd" d="M264.926 203.74C284.593 203.74 304.259 203.74 323.926 203.74C323.926 204.407 324.259 204.74 324.926 204.74C305.058 204.927 285.225 204.927 265.426 204.74C264.927 210.397 264.76 216.064 264.926 221.74C263.593 215.74 263.593 209.74 264.926 203.74Z" fill="#ABB8DD"/>
<path opacity="0.02" fill-rule="evenodd" clip-rule="evenodd" d="M324.926 203.74C326.259 204.407 326.259 204.407 324.926 203.74Z" fill="#A2AABF"/>
<path opacity="0.016" fill-rule="evenodd" clip-rule="evenodd" d="M41.9258 204.74C42.2588 204.74 42.5928 204.74 42.9258 204.74C42.7408 205.41 42.4068 205.41 41.9258 204.74Z" fill="#C3CFE7"/>
<path fill-rule="evenodd" clip-rule="evenodd" d="M163.926 203.74C163.926 210.073 163.926 216.407 163.926 222.74C162.926 222.74 161.926 222.74 160.926 222.74C155.068 222.418 149.401 222.751 143.926 223.74C140.713 224.05 137.713 223.717 134.926 222.74C134.926 222.407 134.926 222.073 134.926 221.74C137.926 221.74 140.926 221.74 143.926 221.74C143.926 215.74 143.926 209.74 143.926 203.74C150.593 203.74 157.259 203.74 163.926 203.74Z" fill="#B55D02"/>
<path fill-rule="evenodd" clip-rule="evenodd" d="M163.926 203.74C183.593 203.74 203.259 203.74 222.926 203.74C223.437 207.27 222.77 210.436 220.926 213.24C216.048 212.792 211.215 213.292 206.426 214.74C204.336 213.449 203.002 214.116 202.426 216.74C198.701 215.745 195.034 216.079 191.426 217.74C190.062 216.544 188.562 215.544 186.926 214.74C182.587 215.271 178.42 215.271 174.426 214.74C172.192 218.698 169.359 222.198 165.926 225.24C167.093 226.74 168.259 228.24 169.426 229.74C171.014 227.272 172.848 227.106 174.926 229.24C175.356 230.16 175.69 230.993 175.926 231.74C176.512 231.531 177.012 231.197 177.426 230.74C179.578 233.056 182.078 233.39 184.926 231.74C185.754 232.655 186.754 233.321 187.926 233.74C190.473 232.656 192.64 232.656 194.426 233.74C196.137 237.199 198.303 240.199 200.926 242.74C190.593 242.74 180.259 242.74 169.926 242.74C167.926 242.74 165.926 242.74 163.926 242.74C164.227 235.731 163.227 229.064 160.926 222.74C161.926 222.74 162.926 222.74 163.926 222.74C163.926 216.407 163.926 210.073 163.926 203.74Z" fill="#F0870B"/>
<path fill-rule="evenodd" clip-rule="evenodd" d="M224.926 203.74C231.259 203.74 237.593 203.74 243.926 203.74C243.926 210.073 243.926 216.407 243.926 222.74C241.593 222.74 239.259 222.74 236.926 222.74C235.259 222.74 233.593 222.74 231.926 222.74C238.408 218.241 239.408 213.074 234.926 207.24C231.65 205.548 228.317 204.381 224.926 203.74Z" fill="#AB6217"/>
<path fill-rule="evenodd" clip-rule="evenodd" d="M223.926 203.74C224.259 203.74 224.593 203.74 224.926 203.74C228.317 204.381 231.65 205.548 234.926 207.24C239.408 213.074 238.408 218.241 231.926 222.74C229.307 222.472 226.807 222.805 224.426 223.74C223.926 230.065 223.76 236.398 223.926 242.74C217.593 242.74 211.259 242.74 204.926 242.74C204.926 236.073 204.926 229.407 204.926 222.74C211.259 222.74 217.593 222.74 223.926 222.74C223.926 216.407 223.926 210.073 223.926 203.74Z" fill="#B94F02"/>
<path fill-rule="evenodd" clip-rule="evenodd" d="M222.926 203.74C223.259 203.74 223.593 203.74 223.926 203.74C223.926 210.073 223.926 216.407 223.926 222.74C217.593 222.74 211.259 222.74 204.926 222.74C204.926 229.407 204.926 236.073 204.926 242.74C203.593 242.74 202.259 242.74 200.926 242.74C198.303 240.199 196.137 237.199 194.426 233.74C192.64 232.656 190.473 232.656 187.926 233.74C186.754 233.321 185.754 232.655 184.926 231.74C182.078 233.39 179.578 233.056 177.426 230.74C177.012 231.197 176.512 231.531 175.926 231.74C175.69 230.993 175.356 230.16 174.926 229.24C172.848 227.106 171.014 227.272 169.426 229.74C168.259 228.24 167.093 226.74 165.926 225.24C169.359 222.198 172.192 218.698 174.426 214.74C178.42 215.271 182.587 215.271 186.926 214.74C188.562 215.544 190.062 216.544 191.426 217.74C195.034 216.079 198.701 215.745 202.426 216.74C203.002 214.116 204.336 213.449 206.426 214.74C211.215 213.292 216.048 212.792 220.926 213.24C222.77 210.436 223.437 207.27 222.926 203.74Z" fill="#F98118"/>
<path fill-rule="evenodd" clip-rule="evenodd" d="M265.926 221.74C272.593 221.74 279.259 221.74 285.926 221.74C285.926 228.74 285.926 235.74 285.926 242.74C278.926 242.74 271.926 242.74 264.926 242.74C264.926 249.74 264.926 256.74 264.926 263.74C258.593 263.74 252.259 263.74 245.926 263.74C249.113 262.509 252.446 261.343 255.926 260.24C254.593 259.573 254.593 258.907 255.926 258.24C255.259 257.907 254.593 257.573 253.926 257.24C255.775 256.147 257.442 254.814 258.926 253.24C258.593 252.907 258.259 252.573 257.926 252.24C261.467 248.907 262.8 244.74 261.926 239.74C263.734 239.749 265.401 239.249 266.926 238.24C266.469 237.826 266.135 237.326 265.926 236.74C267.5 235.256 268.833 233.589 269.926 231.74C268.795 230.636 267.961 230.969 267.426 232.74C267.278 229.651 266.445 226.818 264.926 224.24C265.169 223.338 265.503 222.505 265.926 221.74Z" fill="#212F51"/>
<path fill-rule="evenodd" clip-rule="evenodd" d="M134.926 222.741C137.713 223.718 140.713 224.051 143.926 223.741C143.926 230.074 143.926 236.408 143.926 242.741C137.926 242.741 131.926 242.741 125.926 242.741C125.259 242.741 124.593 242.741 123.926 242.741C123.76 236.399 123.926 230.066 124.426 223.741C127.82 222.785 131.32 222.452 134.926 222.741Z" fill="#D18005"/>
<path opacity="0.118" fill-rule="evenodd" clip-rule="evenodd" d="M103.926 221.74C103.926 235.74 103.926 249.74 103.926 263.74C103.259 263.74 102.926 264.073 102.926 264.74C101.765 250.246 101.598 235.579 102.426 220.74C102.809 221.296 103.309 221.629 103.926 221.74Z" fill="#B6BFDF"/>
<path fill-rule="evenodd" clip-rule="evenodd" d="M231.926 222.74C233.593 222.74 235.259 222.74 236.926 222.74C235.335 223.459 233.835 224.459 232.426 225.74C231.226 228.753 230.392 231.587 229.926 234.24C232.797 236.943 235.464 239.776 237.926 242.74C233.259 242.74 228.593 242.74 223.926 242.74C223.76 236.398 223.926 230.065 224.426 223.74C226.807 222.805 229.307 222.472 231.926 222.74Z" fill="#4B1F5B"/>
<path opacity="0.073" fill-rule="evenodd" clip-rule="evenodd" d="M286.926 243.74C286.926 243.073 286.593 242.74 285.926 242.74C285.926 235.74 285.926 228.74 285.926 221.74C286.543 221.629 287.043 221.296 287.426 220.74C288.248 228.585 288.082 236.251 286.926 243.74Z" fill="#B8C0DE"/>
<path fill-rule="evenodd" clip-rule="evenodd" d="M223.926 242.74C228.593 242.74 233.259 242.74 237.926 242.74C239.926 242.74 241.926 242.74 243.926 242.74C243.926 249.073 243.926 255.407 243.926 261.74C243.926 262.407 243.926 263.073 243.926 263.74C239.259 263.74 234.593 263.74 229.926 263.74C230.957 262.991 232.124 262.325 233.426 261.74C237.838 251.895 234.671 245.562 223.926 242.74Z" fill="#D57C02"/>
<path opacity="0.016" fill-rule="evenodd" clip-rule="evenodd" d="M285.926 243.74C286.259 243.74 286.593 243.74 286.926 243.74C286.741 244.41 286.407 244.41 285.926 243.74Z" fill="#AFB6CF"/>
<path fill-rule="evenodd" clip-rule="evenodd" d="M103.926 221.74C107.926 221.74 111.926 221.74 115.926 221.74C115.163 222.508 114.163 223.008 112.926 223.24C115.273 224.326 115.273 225.659 112.926 227.24C113.248 230.037 114.248 232.537 115.926 234.74C115.259 235.407 114.593 236.073 113.926 236.74C114.401 239.137 115.401 241.637 116.926 244.24C116.118 244.548 115.451 245.048 114.926 245.74C116.127 248.149 117.793 250.149 119.926 251.74C121.281 248.648 122.614 245.648 123.926 242.74C123.926 249.407 123.926 256.073 123.926 262.74C123.926 263.073 123.926 263.407 123.926 263.74C117.259 263.74 110.593 263.74 103.926 263.74C103.926 249.74 103.926 235.74 103.926 221.74Z" fill="#283353"/>
<path opacity="0.048" fill-rule="evenodd" clip-rule="evenodd" d="M285.926 242.74C285.926 243.073 285.926 243.407 285.926 243.74C279.251 243.574 272.584 243.74 265.926 244.24C267.253 251.172 267.253 258.005 265.926 264.74C265.926 264.073 265.593 263.74 264.926 263.74C264.926 256.74 264.926 249.74 264.926 242.74C271.926 242.74 278.926 242.74 285.926 242.74Z" fill="#B2BDE2"/>
<path fill-rule="evenodd" clip-rule="evenodd" d="M204.926 242.74C211.259 242.74 217.593 242.74 223.926 242.74C234.671 245.562 237.838 251.895 233.426 261.74C232.124 262.325 230.957 262.991 229.926 263.74C227.416 263.294 225.416 263.96 223.926 265.74C222.179 265.647 220.345 265.314 218.426 264.74C218.093 265.74 217.759 266.74 217.426 267.74C215.471 266.787 213.804 265.453 212.426 263.74C212.093 264.073 211.759 264.407 211.426 264.74C212.206 261.016 212.039 257.516 210.926 254.24C209.666 252.434 208.499 250.601 207.426 248.74C206.656 249.838 205.823 249.838 204.926 248.74C204.926 246.74 204.926 244.74 204.926 242.74Z" fill="#F0790C"/>
<path fill-rule="evenodd" clip-rule="evenodd" d="M123.926 242.74C124.593 242.74 125.259 242.74 125.926 242.74C131.401 243.729 137.068 244.062 142.926 243.74C142.707 244.915 143.04 245.915 143.926 246.74C147.807 248.962 151.807 248.962 155.926 246.74C158.836 246.784 159.836 247.95 158.926 250.24C159.926 251.073 160.926 251.907 161.926 252.74C162.928 256.593 164.595 260.093 166.926 263.24C166.259 263.907 165.593 264.573 164.926 265.24C166.277 266.857 167.944 268.024 169.926 268.74C173.403 273.949 177.069 278.949 180.926 283.74C175.167 283.454 169.501 283.788 163.926 284.74C164.239 277.485 163.906 270.319 162.926 263.24C150.262 263.073 137.595 263.24 124.926 263.74C124.926 263.073 124.593 262.74 123.926 262.74C123.926 256.073 123.926 249.407 123.926 242.74Z" fill="#F4BD16"/>
<path fill-rule="evenodd" clip-rule="evenodd" d="M160.926 222.741C163.227 229.065 164.227 235.732 163.926 242.741C165.926 242.741 167.926 242.741 169.926 242.741C171.502 244.972 173.669 246.638 176.426 247.741C184.985 247.197 191.318 250.863 195.426 258.741C197.426 263.074 197.426 267.408 195.426 271.741C193.532 274.169 190.866 276.502 187.426 278.741C187.913 280.285 188.413 281.951 188.926 283.741C187.259 283.741 185.593 283.741 183.926 283.741C183.926 290.408 183.926 297.074 183.926 303.741C178.4 304.062 173.066 303.729 167.926 302.741C172.926 302.741 177.926 302.741 182.926 302.741C183.549 295.986 182.882 289.653 180.926 283.741C177.069 278.95 173.403 273.95 169.926 268.741C167.944 268.025 166.277 266.858 164.926 265.241C165.593 264.574 166.259 263.908 166.926 263.241C164.595 260.094 162.928 256.594 161.926 252.741C160.926 251.908 159.926 251.074 158.926 250.241C159.836 247.951 158.836 246.785 155.926 246.741C151.807 248.963 147.807 248.963 143.926 246.741C143.04 245.916 142.707 244.916 142.926 243.741C137.068 244.063 131.401 243.73 125.926 242.741C131.926 242.741 137.926 242.741 143.926 242.741C143.926 236.408 143.926 230.074 143.926 223.741C149.401 222.752 155.068 222.419 160.926 222.741Z" fill="#FDAF13"/>
<path fill-rule="evenodd" clip-rule="evenodd" d="M169.926 242.74C180.259 242.74 190.593 242.74 200.926 242.74C202.259 242.74 203.593 242.74 204.926 242.74C204.926 244.74 204.926 246.74 204.926 248.74C204.926 260.407 204.926 272.073 204.926 283.74C199.593 283.74 194.259 283.74 188.926 283.74C188.413 281.95 187.913 280.284 187.426 278.74C190.866 276.501 193.532 274.168 195.426 271.74C197.426 267.407 197.426 263.073 195.426 258.74C191.318 250.862 184.985 247.196 176.426 247.74C173.669 246.637 171.502 244.971 169.926 242.74Z" fill="#FEA720"/>
<path fill-rule="evenodd" clip-rule="evenodd" d="M204.926 248.74C205.823 249.838 206.656 249.838 207.426 248.74C208.499 250.601 209.666 252.434 210.926 254.24C212.039 257.516 212.206 261.016 211.426 264.74C211.759 264.407 212.093 264.073 212.426 263.74C213.804 265.453 215.471 266.787 217.426 267.74C217.759 266.74 218.093 265.74 218.426 264.74C220.345 265.314 222.179 265.647 223.926 265.74C223.926 271.74 223.926 277.74 223.926 283.74C222.926 283.74 221.926 283.74 220.926 283.74C215.593 283.74 210.259 283.74 204.926 283.74C204.926 272.073 204.926 260.407 204.926 248.74Z" fill="#E98501"/>
<path opacity="0.076" fill-rule="evenodd" clip-rule="evenodd" d="M103.926 263.74C110.593 263.74 117.259 263.74 123.926 263.74C123.926 264.073 123.926 264.407 123.926 264.74C116.827 266.05 109.827 266.05 102.926 264.74C103.593 264.74 103.926 264.407 103.926 263.74Z" fill="#B6BFE1"/>
<path fill-rule="evenodd" clip-rule="evenodd" d="M163.926 284.741C163.926 290.741 163.926 296.741 163.926 302.741C161.367 302.439 159.033 302.773 156.926 303.741C152.593 303.741 148.259 303.741 143.926 303.741C143.926 303.408 143.926 303.074 143.926 302.741C143.926 302.408 143.926 302.074 143.926 301.741C143.926 301.074 143.926 300.408 143.926 299.741C143.926 298.408 143.926 297.074 143.926 295.741C143.926 291.741 143.926 287.741 143.926 283.741C137.781 282.751 131.448 282.418 124.926 282.741C124.926 276.408 124.926 270.074 124.926 263.741C137.595 263.241 150.262 263.074 162.926 263.241C163.906 270.32 164.239 277.486 163.926 284.741Z" fill="#1F325E"/>
<path fill-rule="evenodd" clip-rule="evenodd" d="M229.926 263.74C234.593 263.74 239.259 263.74 243.926 263.74C243.926 264.073 243.926 264.407 243.926 264.74C244.089 267.097 243.923 269.43 243.426 271.74C241.893 272.184 240.393 272.517 238.926 272.74C236.491 276.146 234.158 279.479 231.926 282.74C229.691 282.445 227.691 282.779 225.926 283.74C225.259 283.74 224.593 283.74 223.926 283.74C223.926 277.74 223.926 271.74 223.926 265.74C225.416 263.96 227.416 263.294 229.926 263.74Z" fill="#3D2D59"/>
<path fill-rule="evenodd" clip-rule="evenodd" d="M243.926 264.74C244.259 264.74 244.593 264.74 244.926 264.74C244.926 271.073 244.926 277.407 244.926 283.74C238.593 283.74 232.259 283.74 225.926 283.74C227.691 282.779 229.691 282.445 231.926 282.74C234.158 279.479 236.491 276.146 238.926 272.74C240.393 272.517 241.893 272.184 243.426 271.74C243.923 269.43 244.089 267.097 243.926 264.74Z" fill="#292D49"/>
<path opacity="0.702" fill-rule="evenodd" clip-rule="evenodd" d="M123.926 262.74C124.593 262.74 124.926 263.073 124.926 263.74C124.926 270.073 124.926 276.407 124.926 282.74C131.448 282.417 137.781 282.75 143.926 283.74C143.593 283.74 143.259 283.74 142.926 283.74C136.593 283.74 130.259 283.74 123.926 283.74C123.926 277.407 123.926 271.073 123.926 264.74C123.926 264.407 123.926 264.073 123.926 263.74C123.926 263.407 123.926 263.073 123.926 262.74Z" fill="#6A779B"/>
<path opacity="0.016" fill-rule="evenodd" clip-rule="evenodd" d="M123.926 283.74C123.259 284.407 123.259 284.407 123.926 283.74Z" fill="#98A2BC"/>
<path opacity="0.331" fill-rule="evenodd" clip-rule="evenodd" d="M245.926 263.74C252.259 263.74 258.593 263.74 264.926 263.74C265.593 263.74 265.926 264.073 265.926 264.74C259.525 266.066 253.025 266.066 246.426 264.74C245.616 271.322 245.783 277.822 246.926 284.24C246.426 284.74 245.926 285.24 245.426 285.74C238.682 284.761 231.848 284.428 224.926 284.74C224.633 291.133 224.966 297.467 225.926 303.74C225.456 304.703 224.789 304.703 223.926 303.74C223.926 297.073 223.926 290.407 223.926 283.74C224.593 283.74 225.259 283.74 225.926 283.74C232.259 283.74 238.593 283.74 244.926 283.74C244.926 277.407 244.926 271.073 244.926 264.74C244.926 264.073 245.259 263.74 245.926 263.74Z" fill="#ABADCE"/>
<path fill-rule="evenodd" clip-rule="evenodd" d="M204.926 283.74C210.259 283.74 215.593 283.74 220.926 283.74C215.827 288.929 210.66 294.262 205.426 299.74C204.931 297.767 204.764 295.767 204.926 293.74C204.926 290.407 204.926 287.073 204.926 283.74Z" fill="#3B2559"/>
<path fill-rule="evenodd" clip-rule="evenodd" d="M180.926 283.74C182.882 289.652 183.549 295.985 182.926 302.74C177.926 302.74 172.926 302.74 167.926 302.74C166.593 302.74 165.259 302.74 163.926 302.74C163.926 296.74 163.926 290.74 163.926 284.74C169.501 283.788 175.167 283.454 180.926 283.74Z" fill="#FEE13F"/>
<path opacity="0.081" fill-rule="evenodd" clip-rule="evenodd" d="M142.926 283.74C143.259 283.74 143.593 283.74 143.926 283.74C143.926 287.74 143.926 291.74 143.926 295.74C143.309 295.851 142.809 296.184 142.426 296.74C141.658 292.32 141.824 287.987 142.926 283.74Z" fill="#BCCCF6"/>
<path opacity="0.051" fill-rule="evenodd" clip-rule="evenodd" d="M143.926 299.74C143.926 300.407 143.926 301.073 143.926 301.74C142.201 301.397 141.701 300.397 142.426 298.74C142.809 299.296 143.309 299.629 143.926 299.74Z" fill="#C3D8FE"/>
<path fill-rule="evenodd" clip-rule="evenodd" d="M203.926 303.74C203.126 305.922 201.626 307.589 199.426 308.74C198.934 309.789 199.1 310.789 199.926 311.74C197.704 314.536 195.371 316.703 192.926 318.24C193.259 318.573 193.593 318.907 193.926 319.24C192.452 320.556 190.785 321.556 188.926 322.24C189.593 322.573 190.259 322.907 190.926 323.24C188.616 323.737 186.283 323.903 183.926 323.74C183.926 320.073 183.926 316.407 183.926 312.74C183.649 309.792 183.982 306.959 184.926 304.24C191.251 303.74 197.584 303.574 203.926 303.74Z" fill="#352B5A"/>
<path fill-rule="evenodd" clip-rule="evenodd" d="M143.926 303.74C148.259 303.74 152.593 303.74 156.926 303.74C159.259 303.74 161.593 303.74 163.926 303.74C163.412 310.062 163.079 316.395 162.926 322.74C156.593 322.74 150.259 322.74 143.926 322.74C143.926 320.407 143.926 318.073 143.926 315.74C143.926 311.74 143.926 307.74 143.926 303.74Z" fill="#FDE241"/>
<path opacity="0.741" fill-rule="evenodd" clip-rule="evenodd" d="M143.926 302.74C143.926 303.073 143.926 303.407 143.926 303.74C137.593 303.74 131.259 303.74 124.926 303.74C124.926 316.74 124.926 329.74 124.926 342.74C130.926 342.74 136.926 342.74 142.926 342.74C142.926 343.073 142.926 343.407 142.926 343.74C136.593 343.74 130.259 343.74 123.926 343.74C124.249 329.828 123.916 315.994 122.926 302.24C129.866 302.624 136.866 302.791 143.926 302.74Z" fill="#717A9A"/>
<path fill-rule="evenodd" clip-rule="evenodd" d="M188.926 283.74C194.259 283.74 199.593 283.74 204.926 283.74C204.926 287.073 204.926 290.407 204.926 293.74C203.947 296.865 203.613 300.198 203.926 303.74C197.584 303.574 191.251 303.74 184.926 304.24C183.982 306.959 183.649 309.792 183.926 312.74C182.944 316.202 182.611 319.869 182.926 323.74C181.926 323.74 180.926 323.74 179.926 323.74C174.593 323.74 169.259 323.74 163.926 323.74C163.926 330.073 163.926 336.407 163.926 342.74C163.593 342.74 163.259 342.74 162.926 342.74C156.593 342.74 150.259 342.74 143.926 342.74C143.926 336.073 143.926 329.407 143.926 322.74C150.259 322.74 156.593 322.74 162.926 322.74C163.079 316.395 163.412 310.062 163.926 303.74C161.593 303.74 159.259 303.74 156.926 303.74C159.033 302.772 161.367 302.438 163.926 302.74C165.259 302.74 166.593 302.74 167.926 302.74C173.066 303.728 178.4 304.061 183.926 303.74C183.926 297.073 183.926 290.407 183.926 283.74C185.593 283.74 187.259 283.74 188.926 283.74Z" fill="#D78806"/>
<path fill-rule="evenodd" clip-rule="evenodd" d="M143.926 303.74C143.926 307.74 143.926 311.74 143.926 315.74C142.091 315.118 140.924 313.784 140.426 311.74C139.511 312.568 138.845 313.568 138.426 314.74C136.593 314.573 134.759 314.407 132.926 314.24C133.259 314.573 133.593 314.907 133.926 315.24C133.01 315.614 132.176 316.114 131.426 316.74C130.951 320.809 130.618 324.809 130.426 328.74C131.341 327.912 132.007 326.912 132.426 325.74C132.759 326.073 133.093 326.407 133.426 326.74C134.962 331.512 136.795 336.179 138.926 340.74C140.375 341.412 141.708 342.079 142.926 342.74C136.926 342.74 130.926 342.74 124.926 342.74C124.926 329.74 124.926 316.74 124.926 303.74C131.259 303.74 137.593 303.74 143.926 303.74Z" fill="#253154"/>
<path opacity="0.016" fill-rule="evenodd" clip-rule="evenodd" d="M205.926 324.74C207.259 325.407 207.259 325.407 205.926 324.74Z" fill="#9AA3C1"/>
<path fill-rule="evenodd" clip-rule="evenodd" d="M179.926 323.74C180.994 324.674 182.327 325.008 183.926 324.74C184.178 330.228 183.511 335.562 181.926 340.74C178.244 340.575 174.578 340.741 170.926 341.24C175.259 341.573 179.593 341.907 183.926 342.24C177.268 342.74 170.601 342.906 163.926 342.74C163.926 336.407 163.926 330.073 163.926 323.74C169.259 323.74 174.593 323.74 179.926 323.74Z" fill="#2E2A54"/>
<path fill-rule="evenodd" clip-rule="evenodd" d="M143.926 315.74C143.926 318.073 143.926 320.407 143.926 322.74C143.926 329.407 143.926 336.073 143.926 342.74C150.259 342.74 156.593 342.74 162.926 342.74C160.392 344.438 157.558 345.771 154.426 346.74C151.605 346.245 148.605 345.245 145.426 343.74C144.415 344.296 143.582 344.962 142.926 345.74C142.926 345.073 142.926 344.407 142.926 343.74C142.926 343.407 142.926 343.073 142.926 342.74C141.708 342.079 140.375 341.412 138.926 340.74C136.795 336.179 134.962 331.512 133.426 326.74C133.093 326.407 132.759 326.073 132.426 325.74C132.007 326.912 131.341 327.912 130.426 328.74C130.618 324.809 130.951 320.809 131.426 316.74C132.176 316.114 133.01 315.614 133.926 315.24C133.593 314.907 133.259 314.573 132.926 314.24C134.759 314.407 136.593 314.573 138.426 314.74C138.845 313.568 139.511 312.568 140.426 311.74C140.924 313.784 142.091 315.118 143.926 315.74Z" fill="#2E2F5B"/>
<path fill-rule="evenodd" clip-rule="evenodd" d="M220.926 283.74C221.926 283.74 222.926 283.74 223.926 283.74C223.926 290.407 223.926 297.073 223.926 303.74C217.926 303.74 211.926 303.74 205.926 303.74C205.926 310.74 205.926 317.74 205.926 324.74C198.926 324.74 191.926 324.74 184.926 324.74C184.926 331.073 184.926 337.407 184.926 343.74C177.739 343.415 170.739 343.749 163.926 344.74C163.724 347.19 164.057 349.523 164.926 351.74C164.259 351.74 163.926 352.073 163.926 352.74C163.926 355.74 163.926 358.74 163.926 361.74C156.926 361.74 149.926 361.74 142.926 361.74C142.926 356.407 142.926 351.073 142.926 345.74C143.582 344.962 144.415 344.296 145.426 343.74C148.605 345.245 151.605 346.245 154.426 346.74C157.558 345.771 160.392 344.438 162.926 342.74C163.259 342.74 163.593 342.74 163.926 342.74C170.601 342.906 177.268 342.74 183.926 342.24C179.593 341.907 175.259 341.573 170.926 341.24C174.578 340.741 178.244 340.575 181.926 340.74C183.511 335.562 184.178 330.228 183.926 324.74C182.327 325.008 180.994 324.674 179.926 323.74C180.926 323.74 181.926 323.74 182.926 323.74C182.611 319.869 182.944 316.202 183.926 312.74C183.926 316.407 183.926 320.073 183.926 323.74C186.283 323.903 188.616 323.737 190.926 323.24C190.259 322.907 189.593 322.573 188.926 322.24C190.785 321.556 192.452 320.556 193.926 319.24C193.593 318.907 193.259 318.573 192.926 318.24C195.371 316.703 197.704 314.536 199.926 311.74C199.1 310.789 198.934 309.789 199.426 308.74C201.626 307.589 203.126 305.922 203.926 303.74C203.613 300.198 203.947 296.865 204.926 293.74C204.764 295.767 204.931 297.767 205.426 299.74C210.66 294.262 215.827 288.929 220.926 283.74Z" fill="#353657"/>
<path opacity="0.025" fill-rule="evenodd" clip-rule="evenodd" d="M123.926 343.74C130.259 343.74 136.593 343.74 142.926 343.74C142.926 344.407 142.926 345.073 142.926 345.74C142.926 351.073 142.926 356.407 142.926 361.74C142.259 361.74 141.926 362.073 141.926 362.74C140.937 357.265 140.604 351.598 140.926 345.74C135.25 345.906 129.583 345.739 123.926 345.24C122.688 344.55 122.688 344.05 123.926 343.74Z" fill="#CACAEC"/>
<path opacity="0.024" fill-rule="evenodd" clip-rule="evenodd" d="M163.926 344.741C170.739 343.75 177.739 343.416 184.926 343.741C185.037 344.358 185.37 344.858 185.926 345.241C178.513 346.037 171.18 345.871 163.926 344.741Z" fill="#C5C8EA"/>
<path opacity="0.365" fill-rule="evenodd" clip-rule="evenodd" d="M164.926 351.74C166.091 352.736 166.758 354.069 166.926 355.74C165.819 357.3 165.819 358.8 166.926 360.24C165.917 360.595 165.25 361.428 164.926 362.74C157.593 362.74 150.259 362.74 142.926 362.74C142.926 362.407 142.926 362.073 142.926 361.74C149.926 361.74 156.926 361.74 163.926 361.74C163.926 358.74 163.926 355.74 163.926 352.74C164.593 352.74 164.926 352.407 164.926 351.74Z" fill="#9FA8C4"/>
<path opacity="0.016" fill-rule="evenodd" clip-rule="evenodd" d="M141.926 362.74C142.259 362.74 142.593 362.74 142.926 362.74C142.741 363.41 142.407 363.41 141.926 362.74Z" fill="#C1CCE3"/>
<path opacity="0.016" fill-rule="evenodd" clip-rule="evenodd" d="M164.926 362.74C166.259 363.407 166.259 363.407 164.926 362.74Z" fill="#ADB8CE"/>
</svg>
