<svg width="305" height="311" viewBox="0 0 305 311" fill="none" xmlns="http://www.w3.org/2000/svg">
<path opacity="0.018" fill-rule="evenodd" clip-rule="evenodd" d="M240.143 2.75122C214.143 2.75122 188.143 2.75122 162.143 2.75122C162.032 2.13422 161.699 1.63422 161.143 1.25122C174.31 1.08422 187.476 0.918221 200.643 0.751221C214.16 0.752221 227.327 1.41822 240.143 2.75122Z" fill="#CCD8F9"/>
<path opacity="0.012" fill-rule="evenodd" clip-rule="evenodd" d="M242.143 1.75122C243.476 2.41822 243.476 2.41822 242.143 1.75122Z" fill="#808DA5"/>
<path fill-rule="evenodd" clip-rule="evenodd" d="M162.143 2.75122C162.143 9.41822 162.143 16.0842 162.143 22.7512C188.476 22.7512 214.81 22.7512 241.143 22.7512C241.143 16.0842 241.143 9.41822 241.143 2.75122C241.476 2.75122 241.81 2.75122 242.143 2.75122C241.977 9.09322 242.143 15.4262 242.643 21.7512C249.431 22.7922 256.264 22.7922 263.143 21.7512C264.441 29.4752 264.441 37.1422 263.143 44.7512C262.152 51.2302 261.819 57.8972 262.143 64.7512C255.642 64.1032 249.142 63.4362 242.643 62.7512C241.586 56.1372 242.086 49.8042 244.143 43.7512C250.143 43.7512 256.143 43.7512 262.143 43.7512C262.143 37.0842 262.143 30.4182 262.143 23.7512C255.476 23.7512 248.81 23.7512 242.143 23.7512C242.143 30.4182 242.143 37.0842 242.143 43.7512C235.476 43.7512 228.81 43.7512 222.143 43.7512C222.143 40.7512 222.143 37.7512 222.143 34.7512C222.143 31.0842 222.143 27.4182 222.143 23.7512C202.143 23.7512 182.143 23.7512 162.143 23.7512C161.81 23.7512 161.476 23.7512 161.143 23.7512C161.307 21.0642 161.14 18.3972 160.643 15.7512C159.625 16.9572 159.125 16.6242 159.143 14.7512C159.461 13.6042 160.127 12.7702 161.143 12.2512C158.585 10.8712 158.585 9.37122 161.143 7.75122C159.364 6.05822 158.864 4.05822 159.643 1.75122C160.314 2.50322 161.147 2.83722 162.143 2.75122Z" fill="#A3AFC5"/>
<path fill-rule="evenodd" clip-rule="evenodd" d="M162.143 2.75122C188.143 2.75122 214.143 2.75122 240.143 2.75122C240.476 2.75122 240.81 2.75122 241.143 2.75122C241.143 9.41822 241.143 16.0842 241.143 22.7512C214.81 22.7512 188.476 22.7512 162.143 22.7512C162.143 16.0842 162.143 9.41822 162.143 2.75122Z" fill="#25324E"/>
<path opacity="0.307" fill-rule="evenodd" clip-rule="evenodd" d="M141.143 23.7513C141.143 30.0843 141.143 36.4183 141.143 42.7513C140.81 42.7513 140.476 42.7513 140.143 42.7513C140.436 36.3583 140.103 30.0243 139.143 23.7513C139.613 22.7883 140.28 22.7883 141.143 23.7513Z" fill="#A7B2D1"/>
<path fill-rule="evenodd" clip-rule="evenodd" d="M141.143 23.7512C145.81 23.7512 150.476 23.7512 155.143 23.7512C156.908 24.7122 158.908 25.0462 161.143 24.7512C161.143 30.7512 161.143 36.7512 161.143 42.7512C154.476 42.7512 147.81 42.7512 141.143 42.7512C141.143 36.4182 141.143 30.0842 141.143 23.7512Z" fill="#273046"/>
<path fill-rule="evenodd" clip-rule="evenodd" d="M244.143 43.7512C243.476 43.7512 242.81 43.7512 242.143 43.7512C242.143 37.0842 242.143 30.4182 242.143 23.7512C248.81 23.7512 255.476 23.7512 262.143 23.7512C262.143 30.4182 262.143 37.0842 262.143 43.7512C256.143 43.7512 250.143 43.7512 244.143 43.7512Z" fill="#25334D"/>
<path fill-rule="evenodd" clip-rule="evenodd" d="M162.143 23.7512C182.143 23.7512 202.143 23.7512 222.143 23.7512C222.143 27.4182 222.143 31.0842 222.143 34.7512C220.519 34.6112 219.353 35.2782 218.643 36.7512C215.018 33.7642 211.018 32.4312 206.643 32.7512C206.143 32.2512 205.643 31.7512 205.143 31.2512C203.143 31.0842 201.143 30.9182 199.143 30.7512C192.908 31.7902 186.741 31.7902 180.643 30.7512C175.563 31.7072 171.063 33.8742 167.143 37.2512C167.476 37.5842 167.81 37.9182 168.143 38.2512C165.246 39.9662 163.912 42.4662 164.143 45.7512C163.143 45.7512 162.143 45.7512 161.143 45.7512C161.331 47.3542 160.831 48.6882 159.643 49.7512C158.496 48.7932 157.496 49.1262 156.643 50.7512C155.085 49.9062 154.085 50.5722 153.643 52.7512C153.31 52.4182 152.976 52.0842 152.643 51.7512C152.325 53.3122 151.492 54.4792 150.143 55.2512C150.476 55.5842 150.81 55.9182 151.143 56.2512C150.327 58.1742 149.66 60.1742 149.143 62.2512C149.548 63.1962 150.215 63.8632 151.143 64.2512C150.81 64.5842 150.476 64.9182 150.143 65.2512C150.761 69.5892 151.927 73.7562 153.643 77.7512C155.226 77.7582 156.892 77.4252 158.643 76.7512C159.495 77.8222 160.328 78.8222 161.143 79.7512C161.143 80.7512 161.143 81.7512 161.143 82.7512C157.93 82.4412 154.93 82.7742 152.143 83.7512C148.476 83.7512 144.81 83.7512 141.143 83.7512C141.143 70.4182 141.143 57.0842 141.143 43.7512C148.143 43.7512 155.143 43.7512 162.143 43.7512C162.143 37.0842 162.143 30.4182 162.143 23.7512Z" fill="#DFE0E8"/>
<path opacity="0.01" fill-rule="evenodd" clip-rule="evenodd" d="M283.143 43.7512C284.476 44.4182 284.476 44.4182 283.143 43.7512Z" fill="#6D7699"/>
<path fill-rule="evenodd" clip-rule="evenodd" d="M222.143 34.7512C222.143 37.7512 222.143 40.7512 222.143 43.7512C208.674 43.6902 195.007 43.8572 181.143 44.2512C180.476 46.2512 179.81 48.2512 179.143 50.2512C179.769 51.0012 180.269 51.8352 180.643 52.7512C181.142 56.4032 181.308 60.0692 181.143 63.7512C181.143 64.0842 181.143 64.4182 181.143 64.7512C180.315 71.2382 179.815 77.9052 179.643 84.7512C179.144 79.7622 178.977 74.7622 179.143 69.7512C179.326 67.3152 178.659 65.1482 177.143 63.2512C171.87 63.5902 166.536 63.7572 161.143 63.7512C161.143 69.0842 161.143 74.4182 161.143 79.7512C160.328 78.8222 159.495 77.8222 158.643 76.7512C156.892 77.4252 155.226 77.7582 153.643 77.7512C151.927 73.7562 150.761 69.5892 150.143 65.2512C150.476 64.9182 150.81 64.5842 151.143 64.2512C150.215 63.8632 149.548 63.1962 149.143 62.2512C149.66 60.1742 150.327 58.1742 151.143 56.2512C150.81 55.9182 150.476 55.5842 150.143 55.2512C151.492 54.4792 152.325 53.3122 152.643 51.7512C152.976 52.0842 153.31 52.4182 153.643 52.7512C154.085 50.5722 155.085 49.9062 156.643 50.7512C157.496 49.1262 158.496 48.7932 159.643 49.7512C160.831 48.6882 161.331 47.3542 161.143 45.7512C162.143 45.7512 163.143 45.7512 164.143 45.7512C163.912 42.4662 165.246 39.9662 168.143 38.2512C167.81 37.9182 167.476 37.5842 167.143 37.2512C171.063 33.8742 175.563 31.7072 180.643 30.7512C186.741 31.7902 192.908 31.7902 199.143 30.7512C201.143 30.9182 203.143 31.0842 205.143 31.2512C205.643 31.7512 206.143 32.2512 206.643 32.7512C211.018 32.4312 215.018 33.7642 218.643 36.7512C219.353 35.2782 220.519 34.6112 222.143 34.7512Z" fill="#DFDCD8"/>
<path opacity="0.12" fill-rule="evenodd" clip-rule="evenodd" d="M303.143 63.7513C302.476 63.7513 302.143 64.0843 302.143 64.7513C295.81 64.7513 289.476 64.7513 283.143 64.7513C283.143 64.4183 283.143 64.0843 283.143 63.7513C289.901 62.5083 296.568 62.5083 303.143 63.7513Z" fill="#AAB5D8"/>
<path opacity="0.012" fill-rule="evenodd" clip-rule="evenodd" d="M303.143 63.7512C304.476 64.4182 304.476 64.4182 303.143 63.7512Z" fill="#7D849B"/>
<path fill-rule="evenodd" clip-rule="evenodd" d="M179.143 69.7512C178.306 75.0182 177.139 80.3512 175.643 85.7512C174.754 84.3632 174.254 84.5292 174.143 86.2512C176.193 88.0212 178.527 89.3552 181.143 90.2512C179.284 92.2322 176.951 93.2322 174.143 93.2512C176.019 94.2682 178.019 95.1022 180.143 95.7512C179.431 97.2972 178.265 98.2972 176.643 98.7512C171.329 97.2572 166.996 94.9242 163.643 91.7512C163.365 92.6672 162.865 93.3332 162.143 93.7512C162.143 90.4182 162.143 87.0842 162.143 83.7512C158.81 83.7512 155.476 83.7512 152.143 83.7512C154.93 82.7742 157.93 82.4412 161.143 82.7512C161.143 81.7512 161.143 80.7512 161.143 79.7512C161.143 74.4182 161.143 69.0842 161.143 63.7512C166.536 63.7572 171.87 63.5902 177.143 63.2512C178.659 65.1482 179.326 67.3152 179.143 69.7512Z" fill="#C2C6CA"/>
<path fill-rule="evenodd" clip-rule="evenodd" d="M181.143 64.7512C194.476 64.7512 207.81 64.7512 221.143 64.7512C221.143 70.7512 221.143 76.7512 221.143 82.7512C219.673 81.1002 218.34 79.2662 217.143 77.2512C212.927 76.5912 208.76 75.0912 204.643 72.7512C198.916 73.7442 196.582 76.7442 197.643 81.7512C199.802 82.4062 201.302 83.7392 202.143 85.7512C195.143 85.7512 188.143 85.7512 181.143 85.7512C181.143 78.7512 181.143 71.7512 181.143 64.7512Z" fill="#26324E"/>
<path fill-rule="evenodd" clip-rule="evenodd" d="M155.143 23.7512C157.143 23.7512 159.143 23.7512 161.143 23.7512C161.476 23.7512 161.81 23.7512 162.143 23.7512C162.143 30.4182 162.143 37.0842 162.143 43.7512C155.143 43.7512 148.143 43.7512 141.143 43.7512C141.143 57.0842 141.143 70.4182 141.143 83.7512C141.143 90.4182 141.143 97.0842 141.143 103.751C147.81 103.751 154.476 103.751 161.143 103.751C161.143 107.084 161.143 110.418 161.143 113.751C160.81 113.751 160.476 113.751 160.143 113.751C160.143 110.751 160.143 107.751 160.143 104.751C153.81 104.751 147.476 104.751 141.143 104.751C141.143 111.084 141.143 117.418 141.143 123.751C140.28 124.714 139.613 124.714 139.143 123.751C140.452 117.622 140.452 111.622 139.143 105.751C139.143 105.084 138.81 104.751 138.143 104.751C132.143 104.751 126.143 104.751 120.143 104.751C120.143 84.4182 120.143 64.0842 120.143 43.7512C120.143 43.0842 119.81 42.7512 119.143 42.7512C125.895 42.6552 132.895 42.6552 140.143 42.7512C140.476 42.7512 140.81 42.7512 141.143 42.7512C147.81 42.7512 154.476 42.7512 161.143 42.7512C161.143 36.7512 161.143 30.7512 161.143 24.7512C158.908 25.0462 156.908 24.7122 155.143 23.7512Z" fill="#5C657E"/>
<path opacity="0.064" fill-rule="evenodd" clip-rule="evenodd" d="M119.142 42.7512C119.809 42.7512 120.142 43.0842 120.142 43.7512C120.142 64.0842 120.142 84.4182 120.142 104.751C119.475 104.751 119.142 105.084 119.142 105.751C117.809 84.7512 117.809 63.7512 119.142 42.7512Z" fill="#BEC9E9"/>
<path fill-rule="evenodd" clip-rule="evenodd" d="M222.143 43.7513C228.81 43.7513 235.476 43.7513 242.143 43.7513C242.81 43.7513 243.476 43.7513 244.143 43.7513C242.086 49.8043 241.586 56.1373 242.643 62.7513C249.142 63.4363 255.642 64.1033 262.143 64.7513C268.476 64.7513 274.81 64.7513 281.143 64.7513C274.998 65.7413 268.665 66.0743 262.143 65.7513C261.145 91.9123 260.812 118.246 261.143 144.751C254.289 144.427 247.622 144.76 241.143 145.751C237.538 146.114 234.038 146.114 230.643 145.751C228.324 147.122 225.824 147.789 223.143 147.751C224.491 146.65 225.991 145.65 227.643 144.751C230.175 139.277 233.341 134.277 237.143 129.751C243.067 128.537 245.067 125.203 243.143 119.751C243.694 107.248 244.527 94.9143 245.643 82.7513C242.113 82.2833 238.613 81.1163 235.143 79.2513C232.665 77.0383 230.998 74.7043 230.143 72.2513C227.852 73.0623 226.018 72.2283 224.643 69.7513C224.451 67.6743 223.951 65.6743 223.143 63.7513C215.324 58.1163 207.49 56.7833 199.643 59.7513C196.017 58.4403 192.517 58.7733 189.143 60.7513C188.257 61.5763 187.924 62.5763 188.143 63.7513C185.81 63.7513 183.476 63.7513 181.143 63.7513C181.308 60.0693 181.142 56.4033 180.643 52.7513C180.269 51.8353 179.769 51.0013 179.143 50.2513C179.81 48.2513 180.476 46.2513 181.143 44.2513C195.007 43.8573 208.674 43.6903 222.143 43.7513Z" fill="#C1C8D0"/>
<path fill-rule="evenodd" clip-rule="evenodd" d="M121.143 43.7512C127.476 43.7512 133.81 43.7512 140.143 43.7512C140.143 63.7512 140.143 83.7512 140.143 103.751C133.81 103.751 127.476 103.751 121.143 103.751C121.143 83.7512 121.143 63.7512 121.143 43.7512Z" fill="#23304D"/>
<path fill-rule="evenodd" clip-rule="evenodd" d="M141.143 83.7512C144.81 83.7512 148.476 83.7512 152.143 83.7512C155.476 83.7512 158.81 83.7512 162.143 83.7512C162.143 87.0842 162.143 90.4182 162.143 93.7512C161.614 97.6022 162.281 101.102 164.143 104.251C176.804 104.291 189.47 104.125 202.143 103.751C202.143 110.418 202.143 117.084 202.143 123.751C194.476 123.751 186.81 123.751 179.143 123.751C173.143 123.751 167.143 123.751 161.143 123.751C161.143 120.418 161.143 117.084 161.143 113.751C161.143 110.418 161.143 107.084 161.143 103.751C154.476 103.751 147.81 103.751 141.143 103.751C141.143 97.0842 141.143 90.4182 141.143 83.7512Z" fill="#9EACC6"/>
<path fill-rule="evenodd" clip-rule="evenodd" d="M181.143 64.7512C181.143 71.7512 181.143 78.7512 181.143 85.7512C188.143 85.7512 195.143 85.7512 202.143 85.7512C202.143 91.7512 202.143 97.7512 202.143 103.751C189.47 104.125 176.804 104.291 164.143 104.251C162.281 101.102 161.614 97.6022 162.143 93.7512C162.865 93.3332 163.365 92.6672 163.643 91.7512C166.996 94.9242 171.329 97.2572 176.643 98.7512C178.265 98.2972 179.431 97.2972 180.143 95.7512C178.019 95.1022 176.019 94.2682 174.143 93.2512C176.951 93.2322 179.284 92.2322 181.143 90.2512C178.527 89.3552 176.193 88.0212 174.143 86.2512C174.254 84.5292 174.754 84.3632 175.643 85.7512C177.139 80.3512 178.306 75.0182 179.143 69.7512C178.977 74.7622 179.144 79.7622 179.643 84.7512C179.815 77.9052 180.315 71.2382 181.143 64.7512Z" fill="#B9C3D3"/>
<path opacity="0.518" fill-rule="evenodd" clip-rule="evenodd" d="M302.143 64.7512C302.476 64.7512 302.81 64.7512 303.143 64.7512C302.817 99.1282 303.15 133.461 304.143 167.751C297.324 167.84 290.324 167.84 283.143 167.751C283.143 167.418 283.143 167.084 283.143 166.751C289.476 166.751 295.81 166.751 302.143 166.751C302.143 132.751 302.143 98.7512 302.143 64.7512Z" fill="#828BB0"/>
<path fill-rule="evenodd" clip-rule="evenodd" d="M262.143 65.7512C262.143 71.7512 262.143 77.7512 262.143 83.7512C264.476 83.7512 266.81 83.7512 269.143 83.7512C269.301 90.3742 270.301 96.8742 272.143 103.251C271.177 106.486 269.844 109.486 268.143 112.251C270.799 114.937 270.799 117.604 268.143 120.251C268.548 121.196 269.215 121.863 270.143 122.251C269.476 122.584 268.81 122.918 268.143 123.251C269.159 123.77 269.825 124.604 270.143 125.751C268.337 132.228 267.004 138.562 266.143 144.751C264.499 144.537 262.999 144.871 261.643 145.751C261.397 149.141 260.897 152.474 260.143 155.751C256.635 159.333 252.635 162.166 248.143 164.251C249.024 164.959 249.69 165.793 250.143 166.751C247.143 166.751 244.143 166.751 241.143 166.751C240.234 172.729 240.068 178.729 240.643 184.751C247.575 185.401 254.409 186.068 261.143 186.751C248.143 186.751 235.143 186.751 222.143 186.751C223.142 180.093 223.309 173.426 222.643 166.751C228.719 165.775 234.885 165.441 241.143 165.751C241.143 159.084 241.143 152.418 241.143 145.751C247.622 144.76 254.289 144.427 261.143 144.751C260.812 118.246 261.145 91.9122 262.143 65.7512Z" fill="#9DAAB9"/>
<path opacity="0.023" fill-rule="evenodd" clip-rule="evenodd" d="M120.143 104.751C126.143 104.751 132.143 104.751 138.143 104.751C138.81 104.751 139.143 105.084 139.143 105.751C132.476 107.084 125.81 107.084 119.143 105.751C119.81 105.751 120.143 105.418 120.143 104.751Z" fill="#C3CDEA"/>
<path fill-rule="evenodd" clip-rule="evenodd" d="M263.143 44.7512C263.143 51.0842 263.143 57.4182 263.143 63.7512C269.476 63.7512 275.81 63.7512 282.143 63.7512C282.143 57.4182 282.143 51.0842 282.143 44.7512C282.476 44.7512 282.81 44.7512 283.143 44.7512C283.143 51.0842 283.143 57.4182 283.143 63.7512C283.143 64.0842 283.143 64.4182 283.143 64.7512C283.143 65.4182 283.143 66.0842 283.143 66.7512C283.143 99.4182 283.143 132.084 283.143 164.751C283.143 165.418 283.143 166.084 283.143 166.751C283.143 167.084 283.143 167.418 283.143 167.751C283.143 174.084 283.143 180.418 283.143 186.751C282.81 186.751 282.476 186.751 282.143 186.751C282.143 180.084 282.143 173.418 282.143 166.751C282.475 132.58 282.141 98.5802 281.143 64.7512C274.81 64.7512 268.476 64.7512 262.143 64.7512C261.819 57.8972 262.152 51.2302 263.143 44.7512Z" fill="#3E5071"/>
<path fill-rule="evenodd" clip-rule="evenodd" d="M263.143 44.7512C269.476 44.7512 275.81 44.7512 282.143 44.7512C282.143 51.0842 282.143 57.4182 282.143 63.7512C275.81 63.7512 269.476 63.7512 263.143 63.7512C263.143 57.4182 263.143 51.0842 263.143 44.7512Z" fill="#1E2F4F"/>
<path fill-rule="evenodd" clip-rule="evenodd" d="M160.143 113.751C160.143 117.084 160.143 120.418 160.143 123.751C159.492 124.342 158.825 125.008 158.143 125.751C156.947 125.405 156.947 124.905 158.143 124.251C152.486 123.752 146.819 123.585 141.143 123.751C141.143 117.418 141.143 111.084 141.143 104.751C147.476 104.751 153.81 104.751 160.143 104.751C160.143 107.751 160.143 110.751 160.143 113.751Z" fill="#23314E"/>
<path fill-rule="evenodd" clip-rule="evenodd" d="M221.142 82.7512C223.028 85.3502 225.694 86.3502 229.142 85.7512C228.585 89.6682 230.085 93.0012 233.642 95.7512C234.539 98.7412 235.373 101.741 236.142 104.751C234.62 114.267 229.287 120.267 220.142 122.751C219.414 125.463 218.581 128.13 217.642 130.751C216.975 132.084 216.309 132.084 215.642 130.751C214.249 134.639 211.749 137.305 208.142 138.751C208.345 140.641 207.679 142.141 206.142 143.251C194.142 143.918 182.142 143.918 170.142 143.251C164.002 140.529 162.668 136.362 166.142 130.751C170.301 129.083 174.968 128.083 180.142 127.751C184.725 127.926 189.392 128.259 194.142 128.751C196.279 127.383 198.612 126.383 201.142 125.751C193.653 125.084 186.32 124.418 179.142 123.751C186.809 123.751 194.475 123.751 202.142 123.751C202.142 117.084 202.142 110.418 202.142 103.751C202.142 97.7512 202.142 91.7512 202.142 85.7512C201.301 83.7392 199.801 82.4062 197.642 81.7512C196.581 76.7442 198.915 73.7442 204.642 72.7512C208.759 75.0912 212.926 76.5912 217.142 77.2512C218.339 79.2662 219.672 81.1002 221.142 82.7512Z" fill="#1D355B"/>
<path opacity="0.016" fill-rule="evenodd" clip-rule="evenodd" d="M21.1423 124.751C20.4753 123.418 20.4753 123.418 21.1423 124.751Z" fill="#909CB9"/>
<path fill-rule="evenodd" clip-rule="evenodd" d="M223.143 147.751C219.468 148.005 216.634 149.671 214.643 152.751C213.627 151.617 212.96 151.95 212.643 153.751C212.31 153.418 211.976 153.084 211.643 152.751C210.725 154.883 209.392 155.55 207.643 154.751C207.326 156.552 206.659 156.885 205.643 155.751C204.702 157.312 203.535 158.646 202.143 159.751C201.467 158.649 200.801 157.649 200.143 156.751C200.143 153.418 200.143 150.084 200.143 146.751C200.81 146.751 201.143 146.418 201.143 145.751C208.143 145.751 215.143 145.751 222.143 145.751C222.143 138.418 222.143 131.084 222.143 123.751C228.81 123.751 235.476 123.751 242.143 123.751C242.143 110.084 242.143 96.4181 242.143 82.7511C235.143 82.7511 228.143 82.7511 221.143 82.7511C221.143 76.7511 221.143 70.7511 221.143 64.7511C207.81 64.7511 194.476 64.7511 181.143 64.7511C181.143 64.4181 181.143 64.0841 181.143 63.7511C183.476 63.7511 185.81 63.7511 188.143 63.7511C187.924 62.5761 188.257 61.5761 189.143 60.7511C192.517 58.7731 196.017 58.4401 199.643 59.7511C207.49 56.7831 215.324 58.1161 223.143 63.7511C223.951 65.6741 224.451 67.6741 224.643 69.7511C226.018 72.2281 227.852 73.0621 230.143 72.2511C230.998 74.7041 232.665 77.0381 235.143 79.2511C238.613 81.1161 242.113 82.2831 245.643 82.7511C244.527 94.9141 243.694 107.248 243.143 119.751C245.067 125.203 243.067 128.537 237.143 129.751C233.341 134.277 230.175 139.277 227.643 144.751C225.991 145.65 224.491 146.65 223.143 147.751Z" fill="#C3CADE"/>
<path fill-rule="evenodd" clip-rule="evenodd" d="M283.143 64.7512C289.476 64.7512 295.81 64.7512 302.143 64.7512C302.143 98.7512 302.143 132.751 302.143 166.751C295.81 166.751 289.476 166.751 283.143 166.751C283.143 166.084 283.143 165.418 283.143 164.751C289.052 165.706 295.052 166.04 301.143 165.751C301.143 132.418 301.143 99.0842 301.143 65.7512C295.052 65.4622 289.052 65.7962 283.143 66.7512C283.143 66.0842 283.143 65.4182 283.143 64.7512Z" fill="#03122E"/>
<path fill-rule="evenodd" clip-rule="evenodd" d="M21.1426 125.751C44.4756 125.751 67.8096 125.751 91.1426 125.751C91.9056 126.519 92.9056 127.019 94.1426 127.251C72.4756 127.584 50.8096 127.918 29.1426 128.251C27.4626 128.598 26.4626 129.598 26.1426 131.251C26.0156 133.97 26.5156 136.804 27.6426 139.751C29.0616 140.711 30.5616 141.544 32.1426 142.251C51.4756 142.918 70.8096 142.918 90.1426 142.251C92.7446 141.316 94.2446 139.483 94.6426 136.751C95.1586 139.502 96.3256 141.835 98.1426 143.751C98.7286 143.542 99.2286 143.208 99.6426 142.751C100.142 137.094 100.309 131.427 100.143 125.751C101.134 132.23 101.467 138.897 101.143 145.751C74.8096 145.751 48.4756 145.751 22.1426 145.751C21.8176 152.938 22.1516 159.938 23.1426 166.751C29.4756 166.751 35.8096 166.751 42.1426 166.751C42.1426 173.418 42.1426 180.084 42.1426 186.751C35.1426 186.751 28.1426 186.751 21.1426 186.751C21.1426 186.084 21.1426 185.418 21.1426 184.751C21.1426 184.418 21.1426 184.084 21.1426 183.751C21.1426 178.418 21.1426 173.084 21.1426 167.751C14.998 166.761 8.66468 166.428 2.14258 166.751C2.14258 160.084 2.14258 153.418 2.14258 146.751C8.66468 147.074 14.998 146.741 21.1426 145.751C21.1426 139.418 21.1426 133.084 21.1426 126.751C21.1426 126.418 21.1426 126.084 21.1426 125.751Z" fill="#1F2E4B"/>
<path fill-rule="evenodd" clip-rule="evenodd" d="M91.1423 125.751C94.1423 125.751 97.1423 125.751 100.142 125.751C100.308 131.427 100.141 137.094 99.6423 142.751C99.2283 143.208 98.7283 143.542 98.1423 143.751C96.3253 141.835 95.1583 139.502 94.6423 136.751C94.2443 139.483 92.7443 141.316 90.1423 142.251C70.8093 142.918 51.4753 142.918 32.1423 142.251C30.5613 141.544 29.0613 140.711 27.6423 139.751C26.5153 136.804 26.0153 133.97 26.1423 131.251C26.4623 129.598 27.4623 128.598 29.1423 128.251C50.8093 127.918 72.4753 127.584 94.1423 127.251C92.9053 127.019 91.9053 126.519 91.1423 125.751Z" fill="#203457"/>
<path fill-rule="evenodd" clip-rule="evenodd" d="M281.143 64.7512C282.141 98.5802 282.475 132.58 282.143 166.751C275.81 166.751 269.476 166.751 263.143 166.751C258.81 166.751 254.476 166.751 250.143 166.751C249.69 165.793 249.024 164.959 248.143 164.251C252.635 162.166 256.635 159.333 260.143 155.751C260.897 152.474 261.397 149.141 261.643 145.751C262.999 144.871 264.499 144.537 266.143 144.751C267.004 138.562 268.337 132.228 270.143 125.751C269.825 124.604 269.159 123.77 268.143 123.251C268.81 122.918 269.476 122.584 270.143 122.251C269.215 121.863 268.548 121.196 268.143 120.251C270.799 117.604 270.799 114.937 268.143 112.251C269.844 109.486 271.177 106.486 272.143 103.251C270.301 96.8742 269.301 90.3742 269.143 83.7512C266.81 83.7512 264.476 83.7512 262.143 83.7512C262.143 77.7512 262.143 71.7512 262.143 65.7512C268.665 66.0742 274.998 65.7412 281.143 64.7512Z" fill="#92A4C0"/>
<path opacity="0.017" fill-rule="evenodd" clip-rule="evenodd" d="M21.1428 126.751C21.1428 133.084 21.1428 139.418 21.1428 145.751C20.8098 145.751 20.4758 145.751 20.1428 145.751C19.0168 139.165 18.8508 132.498 19.6428 125.751C20.0258 126.307 20.5258 126.64 21.1428 126.751Z" fill="#CDD8FC"/>
<path fill-rule="evenodd" clip-rule="evenodd" d="M283.143 164.751C283.143 132.084 283.143 99.4182 283.143 66.7512C289.052 65.7962 295.052 65.4622 301.143 65.7512C301.143 99.0842 301.143 132.418 301.143 165.751C295.052 166.04 289.052 165.706 283.143 164.751Z" fill="#223356"/>
<path fill-rule="evenodd" clip-rule="evenodd" d="M221.143 82.7512C228.143 82.7512 235.143 82.7512 242.143 82.7512C242.143 96.4182 242.143 110.084 242.143 123.751C235.476 123.751 228.81 123.751 222.143 123.751C222.143 131.084 222.143 138.418 222.143 145.751C215.143 145.751 208.143 145.751 201.143 145.751C187.81 145.751 174.476 145.751 161.143 145.751C161.143 138.418 161.143 131.084 161.143 123.751C167.143 123.751 173.143 123.751 179.143 123.751C186.321 124.418 193.654 125.084 201.143 125.751C198.613 126.383 196.28 127.383 194.143 128.751C189.393 128.259 184.726 127.926 180.143 127.751C174.969 128.083 170.302 129.083 166.143 130.751C162.669 136.362 164.003 140.529 170.143 143.251C182.143 143.918 194.143 143.918 206.143 143.251C207.68 142.141 208.346 140.641 208.143 138.751C211.75 137.305 214.25 134.639 215.643 130.751C216.31 132.084 216.976 132.084 217.643 130.751C218.582 128.13 219.415 125.463 220.143 122.751C229.288 120.267 234.621 114.267 236.143 104.751C235.374 101.741 234.54 98.7412 233.643 95.7512C230.086 93.0012 228.586 89.6682 229.143 85.7512C225.695 86.3502 223.029 85.3502 221.143 82.7512Z" fill="#1D2E4C"/>
<path opacity="0.016" fill-rule="evenodd" clip-rule="evenodd" d="M1.1426 145.751C0.475903 144.418 0.475903 144.418 1.1426 145.751Z" fill="#909CBB"/>
<path opacity="0.996" fill-rule="evenodd" clip-rule="evenodd" d="M21.1426 125.751C21.1426 125.418 21.1426 125.084 21.1426 124.751C48.8506 124.768 76.3506 124.768 103.643 124.751C102.642 127.875 102.142 131.875 102.143 136.751C102.167 139.672 102.5 142.505 103.143 145.251C120.14 145.751 137.14 145.918 154.143 145.751C143.656 146.745 132.989 147.079 122.143 146.751C122.143 153.751 122.143 160.751 122.143 167.751C123.476 167.751 124.81 167.751 126.143 167.751C125.075 168.685 123.742 169.019 122.143 168.751C122.465 174.609 122.132 180.276 121.143 185.751C95.1426 185.751 69.1426 185.751 43.1426 185.751C42.8196 179.561 43.1526 173.561 44.1426 167.751C56.4806 167.918 68.8136 167.751 81.1426 167.251C82.4666 162.318 82.4666 157.485 81.1426 152.751C80.9036 150.784 81.2366 148.95 82.1426 147.251C62.4786 146.751 42.8116 146.584 23.1426 146.751C23.1426 153.418 23.1426 160.084 23.1426 166.751C22.1516 159.938 21.8176 152.938 22.1426 145.751C48.4756 145.751 74.8096 145.751 101.143 145.751C101.467 138.897 101.134 132.23 100.143 125.751C97.1426 125.751 94.1426 125.751 91.1426 125.751C67.8096 125.751 44.4756 125.751 21.1426 125.751Z" fill="#9AAAC0"/>
<path fill-rule="evenodd" clip-rule="evenodd" d="M160.143 113.751C160.476 113.751 160.81 113.751 161.143 113.751C161.143 117.084 161.143 120.418 161.143 123.751C161.143 131.084 161.143 138.418 161.143 145.751C174.476 145.751 187.81 145.751 201.143 145.751C201.143 146.418 200.81 146.751 200.143 146.751C193.81 146.751 187.476 146.751 181.143 146.751C181.308 149.769 181.141 152.769 180.643 155.751C179.33 154.678 177.83 154.011 176.143 153.751C172.799 154.375 169.632 155.375 166.643 156.751C164.115 156.693 162.115 155.693 160.643 153.751C159.603 157.784 160.269 161.45 162.643 164.751C164.32 163.735 165.986 162.735 167.643 161.751C171.485 162.331 175.152 162.331 178.643 161.751C179.143 162.751 179.643 163.751 180.143 164.751C173.322 165.418 166.655 166.084 160.143 166.751C148.729 166.44 137.395 166.774 126.143 167.751C124.81 167.751 123.476 167.751 122.143 167.751C122.143 160.751 122.143 153.751 122.143 146.751C132.989 147.079 143.656 146.745 154.143 145.751C156.143 145.751 158.143 145.751 160.143 145.751C160.143 138.418 160.143 131.084 160.143 123.751C160.143 120.418 160.143 117.084 160.143 113.751Z" fill="#7B91AB"/>
<path fill-rule="evenodd" clip-rule="evenodd" d="M81.1426 152.751C81.1426 153.751 81.1426 154.751 81.1426 155.751C78.9206 156.073 77.0866 155.406 75.6426 153.751C75.0166 156.242 74.1836 156.242 73.1426 153.751C70.8626 152.94 68.3626 152.94 65.6426 153.751C64.8386 152.447 63.6716 151.78 62.1426 151.751C59.0776 152.222 56.2446 153.222 53.6426 154.751C51.8806 154.307 52.0476 153.807 54.1426 153.251C52.5986 152.064 50.9316 151.731 49.1426 152.251C50.0036 154.572 49.0036 155.738 46.1426 155.751C44.9226 157.832 44.2566 159.832 44.1426 161.751C45.0066 163.448 46.3396 164.614 48.1426 165.251C46.7846 166.185 45.4506 167.019 44.1426 167.751C43.1526 173.561 42.8196 179.561 43.1426 185.751C69.1426 185.751 95.1426 185.751 121.143 185.751C121.143 186.084 121.143 186.418 121.143 186.751C94.8096 186.751 68.4756 186.751 42.1426 186.751C42.1426 180.084 42.1426 173.418 42.1426 166.751C35.8096 166.751 29.4756 166.751 23.1426 166.751C23.1426 160.084 23.1426 153.418 23.1426 146.751C42.8116 146.584 62.4786 146.751 82.1426 147.251C81.2366 148.95 80.9036 150.784 81.1426 152.751Z" fill="#B6C1DB"/>
<path opacity="0.72" fill-rule="evenodd" clip-rule="evenodd" d="M1.14258 145.751C7.47588 145.751 13.8093 145.751 20.1426 145.751C20.4756 145.751 20.8096 145.751 21.1426 145.751C14.998 146.741 8.66468 147.074 2.14258 146.751C2.14258 153.418 2.14258 160.084 2.14258 166.751C8.66468 166.428 14.998 166.761 21.1426 167.751C20.8096 167.751 20.4756 167.751 20.1426 167.751C13.3906 167.666 6.72388 167.832 0.142578 168.251C1.12338 160.838 1.45678 153.338 1.14258 145.751Z" fill="#717E9F"/>
<path fill-rule="evenodd" clip-rule="evenodd" d="M81.1426 152.751C82.4666 157.485 82.4666 162.318 81.1426 167.251C68.8136 167.751 56.4806 167.918 44.1426 167.751C45.4506 167.019 46.7846 166.185 48.1426 165.251C46.3396 164.614 45.0066 163.448 44.1426 161.751C44.2566 159.832 44.9226 157.832 46.1426 155.751C49.0036 155.738 50.0036 154.572 49.1426 152.251C50.9316 151.731 52.5986 152.064 54.1426 153.251C52.0476 153.807 51.8806 154.307 53.6426 154.751C56.2446 153.222 59.0776 152.222 62.1426 151.751C63.6716 151.78 64.8386 152.447 65.6426 153.751C68.3626 152.94 70.8626 152.94 73.1426 153.751C74.1836 156.242 75.0166 156.242 75.6426 153.751C77.0866 155.406 78.9206 156.073 81.1426 155.751C81.1426 154.751 81.1426 153.751 81.1426 152.751Z" fill="#B7C1CF"/>
<path fill-rule="evenodd" clip-rule="evenodd" d="M200.143 146.751C200.143 150.084 200.143 153.418 200.143 156.751C200.143 160.084 200.143 163.418 200.143 166.751C186.81 166.751 173.476 166.751 160.143 166.751C166.655 166.084 173.322 165.418 180.143 164.751C179.643 163.751 179.143 162.751 178.643 161.751C175.152 162.331 171.485 162.331 167.643 161.751C165.986 162.735 164.32 163.735 162.643 164.751C160.269 161.45 159.603 157.784 160.643 153.751C162.115 155.693 164.115 156.693 166.643 156.751C169.632 155.375 172.799 154.375 176.143 153.751C177.83 154.011 179.33 154.678 180.643 155.751C181.141 152.769 181.308 149.769 181.143 146.751C187.476 146.751 193.81 146.751 200.143 146.751Z" fill="#92A1B5"/>
<path fill-rule="evenodd" clip-rule="evenodd" d="M241.143 145.751C241.143 152.418 241.143 159.084 241.143 165.751C234.885 165.441 228.719 165.775 222.643 166.751C223.309 173.426 223.142 180.093 222.143 186.751C215.476 186.751 208.81 186.751 202.143 186.751C188.476 186.751 174.81 186.751 161.143 186.751C154.476 186.751 147.81 186.751 141.143 186.751C134.476 186.751 127.81 186.751 121.143 186.751C121.143 186.418 121.143 186.084 121.143 185.751C122.132 180.276 122.465 174.609 122.143 168.751C123.742 169.019 125.075 168.685 126.143 167.751C137.395 166.774 148.729 166.44 160.143 166.751C173.476 166.751 186.81 166.751 200.143 166.751C200.143 163.418 200.143 160.084 200.143 156.751C200.801 157.649 201.467 158.649 202.143 159.751C203.535 158.646 204.702 157.312 205.643 155.751C206.659 156.885 207.326 156.552 207.643 154.751C209.392 155.55 210.725 154.883 211.643 152.751C211.976 153.084 212.31 153.418 212.643 153.751C212.96 151.95 213.627 151.617 214.643 152.751C216.634 149.671 219.468 148.005 223.143 147.751C225.824 147.789 228.324 147.122 230.643 145.751C234.038 146.114 237.538 146.114 241.143 145.751Z" fill="#C0C9D2"/>
<path fill-rule="evenodd" clip-rule="evenodd" d="M250.143 166.751C254.476 166.751 258.81 166.751 263.143 166.751C263.143 173.418 263.143 180.084 263.143 186.751C263.143 187.084 263.143 187.418 263.143 187.751C263.467 194.601 263.134 201.271 262.143 207.751C262.468 200.561 262.134 193.561 261.143 186.751C254.409 186.068 247.575 185.401 240.643 184.751C240.068 178.729 240.234 172.729 241.143 166.751C244.143 166.751 247.143 166.751 250.143 166.751Z" fill="#7C92B2"/>
<path opacity="0.014" fill-rule="evenodd" clip-rule="evenodd" d="M20.1426 167.751C20.4756 167.751 20.8096 167.751 21.1426 167.751C21.1426 173.084 21.1426 178.418 21.1426 183.751C19.8336 181.68 19.1676 179.18 19.1426 176.251C19.1906 173.332 19.5236 170.499 20.1426 167.751Z" fill="#D1D8F8"/>
<path fill-rule="evenodd" clip-rule="evenodd" d="M263.143 166.751C269.476 166.751 275.81 166.751 282.143 166.751C282.143 173.418 282.143 180.084 282.143 186.751C275.81 186.751 269.476 186.751 263.143 186.751C263.143 180.084 263.143 173.418 263.143 166.751Z" fill="#1E2F4D"/>
<path opacity="0.01" fill-rule="evenodd" clip-rule="evenodd" d="M21.1423 184.751C21.1423 185.418 21.1423 186.084 21.1423 186.751C18.4753 186.084 18.4753 185.418 21.1423 184.751Z" fill="#D4D8EF"/>
<path opacity="0.076" fill-rule="evenodd" clip-rule="evenodd" d="M21.1426 186.751C28.1426 186.751 35.1426 186.751 42.1426 186.751C42.1426 187.084 42.1426 187.418 42.1426 187.751C34.8886 188.881 27.5556 189.047 20.1426 188.251C20.6986 187.868 21.0316 187.368 21.1426 186.751Z" fill="#BEC7E8"/>
<path opacity="0.058" fill-rule="evenodd" clip-rule="evenodd" d="M263.143 187.751C263.143 187.418 263.143 187.084 263.143 186.751C269.476 186.751 275.81 186.751 282.143 186.751C282.476 186.751 282.81 186.751 283.143 186.751C283.254 187.368 283.587 187.868 284.143 188.251C277.063 189.046 270.063 188.879 263.143 187.751Z" fill="#BDC7E4"/>
<path fill-rule="evenodd" clip-rule="evenodd" d="M202.143 186.751C208.81 186.751 215.476 186.751 222.143 186.751C235.143 186.751 248.143 186.751 261.143 186.751C262.134 193.561 262.468 200.561 262.143 207.751C255.289 207.431 248.622 207.761 242.143 208.751C242.143 228.751 242.143 248.751 242.143 268.751C235.81 268.751 229.476 268.751 223.143 268.751C222.81 268.751 222.476 268.751 222.143 268.751C222.151 248.411 221.818 228.081 221.143 207.751C215.143 207.751 209.143 207.751 203.143 207.751C201.856 206.381 201.19 204.551 201.143 202.251C201.775 197.101 202.108 191.931 202.143 186.751Z" fill="#1D3458"/>
<path fill-rule="evenodd" clip-rule="evenodd" d="M42.1426 186.751C68.4756 186.751 94.8096 186.751 121.143 186.751C127.81 186.751 134.476 186.751 141.143 186.751C141.143 193.421 141.143 200.081 141.143 206.751C141.143 207.081 141.143 207.421 141.143 207.751C140.81 207.751 140.476 207.751 140.143 207.751C108.494 205.761 76.4936 205.091 44.1426 205.751C43.9526 200.881 43.2866 196.211 42.1426 191.751C41.2376 190.549 41.2376 189.215 42.1426 187.751C42.1426 187.418 42.1426 187.084 42.1426 186.751Z" fill="#223556"/>
<path fill-rule="evenodd" clip-rule="evenodd" d="M141.143 186.751C147.81 186.751 154.476 186.751 161.143 186.751C161.143 193.421 161.143 200.081 161.143 206.751C154.476 206.751 147.81 206.751 141.143 206.751C141.143 200.081 141.143 193.421 141.143 186.751Z" fill="#8192A9"/>
<path fill-rule="evenodd" clip-rule="evenodd" d="M42.1426 191.751C43.2866 196.211 43.9526 200.881 44.1426 205.751C76.4936 205.091 108.494 205.761 140.143 207.751C107.476 207.751 74.8096 207.751 42.1426 207.751C42.1426 202.421 42.1426 197.081 42.1426 191.751Z" fill="#05152F"/>
<path opacity="0.109" fill-rule="evenodd" clip-rule="evenodd" d="M42.1426 207.751C74.8096 207.751 107.476 207.751 140.143 207.751C140.254 208.371 140.587 208.871 141.143 209.251C107.81 209.921 74.4756 209.921 41.1426 209.251C41.6986 208.871 42.0316 208.371 42.1426 207.751Z" fill="#B9C3E6"/>
<path opacity="0.024" fill-rule="evenodd" clip-rule="evenodd" d="M242.143 208.751C248.622 207.761 255.289 207.431 262.143 207.751C262.254 208.371 262.587 208.871 263.143 209.251C256.063 210.041 249.063 209.881 242.143 208.751Z" fill="#B9C9F2"/>
<path fill-rule="evenodd" clip-rule="evenodd" d="M161.143 186.751C174.81 186.751 188.476 186.751 202.143 186.751C202.108 191.931 201.775 197.101 201.143 202.251C201.19 204.551 201.856 206.381 203.143 207.751C203.143 208.751 203.143 209.751 203.143 210.751C205.553 211.171 207.386 212.501 208.643 214.751C208.976 214.421 209.31 214.081 209.643 213.751C213.585 217.691 216.751 222.191 219.143 227.251C216.743 227.441 214.409 227.941 212.143 228.751C212.885 229.541 213.718 230.201 214.643 230.751C215.441 234.141 216.441 237.481 217.643 240.751C217.669 245.311 217.836 249.811 218.143 254.251C216.871 257.111 216.537 259.941 217.143 262.751C215.269 262.341 213.603 263.181 212.143 265.251C212.476 265.581 212.81 265.921 213.143 266.251C211.143 266.581 209.143 266.921 207.143 267.251C206.587 267.631 206.254 268.131 206.143 268.751C205.143 268.751 204.143 268.751 203.143 268.751C202.81 268.751 202.476 268.751 202.143 268.751C203.465 254.991 203.465 241.321 202.143 227.751C195.81 227.751 189.476 227.751 183.143 227.751C183.143 234.081 183.143 240.421 183.143 246.751C182.81 246.751 182.476 246.751 182.143 246.751C182.143 240.421 182.143 234.081 182.143 227.751C161.476 227.751 140.81 227.751 120.143 227.751C119.18 226.891 119.18 226.221 120.143 225.751C133.668 226.321 147.334 226.481 161.143 226.251C161.666 223.601 161.999 220.601 162.143 217.251C162.015 214.541 161.348 212.041 160.143 209.751C153.802 207.871 147.469 207.211 141.143 207.751C141.143 207.421 141.143 207.081 141.143 206.751C147.81 206.751 154.476 206.751 161.143 206.751C161.143 200.081 161.143 193.421 161.143 186.751Z" fill="#98A8BB"/>
<path fill-rule="evenodd" clip-rule="evenodd" d="M203.143 207.751C209.143 207.751 215.143 207.751 221.143 207.751C221.818 228.081 222.151 248.411 222.143 268.751C216.81 268.751 211.476 268.751 206.143 268.751C206.254 268.131 206.587 267.631 207.143 267.251C209.143 266.921 211.143 266.581 213.143 266.251C212.81 265.921 212.476 265.581 212.143 265.251C213.603 263.181 215.269 262.341 217.143 262.751C216.537 259.941 216.871 257.111 218.143 254.251C217.836 249.811 217.669 245.311 217.643 240.751C216.441 237.481 215.441 234.141 214.643 230.751C213.718 230.201 212.885 229.541 212.143 228.751C214.409 227.941 216.743 227.441 219.143 227.251C216.751 222.191 213.585 217.691 209.643 213.751C209.31 214.081 208.976 214.421 208.643 214.751C207.386 212.501 205.553 211.171 203.143 210.751C203.143 209.751 203.143 208.751 203.143 207.751Z" fill="#9CAFD1"/>
<path fill-rule="evenodd" clip-rule="evenodd" d="M120.143 227.751C140.81 227.751 161.476 227.751 182.143 227.751C182.143 234.081 182.143 240.421 182.143 246.751C168.476 246.751 154.81 246.751 141.143 246.751C141.44 254.171 141.107 261.501 140.143 268.751C133.476 268.751 126.81 268.751 120.143 268.751C120.143 255.081 120.143 241.421 120.143 227.751Z" fill="#233150"/>
<path fill-rule="evenodd" clip-rule="evenodd" d="M202.143 227.751C202.143 234.081 202.143 240.421 202.143 246.751C195.81 246.751 189.476 246.751 183.143 246.751C183.143 240.421 183.143 234.081 183.143 227.751C189.476 227.751 195.81 227.751 202.143 227.751Z" fill="#E6EAEC"/>
<path opacity="0.401" fill-rule="evenodd" clip-rule="evenodd" d="M120.143 227.751C120.143 241.421 120.143 255.081 120.143 268.751C119.28 269.711 118.613 269.711 118.143 268.751C118.793 254.961 119.46 241.291 120.143 227.751Z" fill="#99A6C9"/>
<path fill-rule="evenodd" clip-rule="evenodd" d="M202.143 227.751C203.465 241.321 203.465 254.991 202.143 268.751C201.476 268.751 200.81 268.751 200.143 268.751C187.81 268.751 175.476 268.751 163.143 268.751C163.143 272.081 163.143 275.421 163.143 278.751C163.453 281.961 163.12 284.961 162.143 287.751C162.143 281.421 162.143 275.081 162.143 268.751C155.143 268.751 148.143 268.751 141.143 268.751C141.143 272.081 141.143 275.421 141.143 278.751C139.81 279.421 139.81 280.081 141.143 280.751C141.143 283.421 141.143 286.081 141.143 288.751C140.476 288.751 140.143 289.081 140.143 289.751C138.936 283.031 138.936 276.031 140.143 268.751C141.107 261.501 141.44 254.171 141.143 246.751C154.81 246.751 168.476 246.751 182.143 246.751C182.476 246.751 182.81 246.751 183.143 246.751C189.476 246.751 195.81 246.751 202.143 246.751C202.143 240.421 202.143 234.081 202.143 227.751Z" fill="#CDD2DC"/>
<path fill-rule="evenodd" clip-rule="evenodd" d="M162.143 287.751C162.143 288.081 162.143 288.421 162.143 288.751C155.143 288.751 148.143 288.751 141.143 288.751C141.143 286.081 141.143 283.421 141.143 280.751C141.143 280.081 141.143 279.421 141.143 278.751C141.143 275.421 141.143 272.081 141.143 268.751C148.143 268.751 155.143 268.751 162.143 268.751C162.143 275.081 162.143 281.421 162.143 287.751Z" fill="#29354E"/>
<path fill-rule="evenodd" clip-rule="evenodd" d="M203.143 268.751C204.143 268.751 205.143 268.751 206.143 268.751C211.476 268.751 216.81 268.751 222.143 268.751C222.143 275.421 222.143 282.081 222.143 288.751C215.81 288.751 209.476 288.751 203.143 288.751C203.143 282.081 203.143 275.421 203.143 268.751Z" fill="#202F4B"/>
<path fill-rule="evenodd" clip-rule="evenodd" d="M200.143 268.751C201.924 272.771 201.09 276.101 197.643 278.751C197.31 278.421 196.976 278.081 196.643 277.751C195.31 279.081 193.976 280.421 192.643 281.751C190.864 280.771 189.198 281.101 187.643 282.751C187.31 282.421 186.976 282.081 186.643 281.751C185.069 283.101 183.236 283.761 181.143 283.751C178.588 282.841 176.255 282.841 174.143 283.751C171.799 282.911 169.799 281.581 168.143 279.751C166.215 280.961 164.548 280.631 163.143 278.751C163.143 275.421 163.143 272.081 163.143 268.751C175.476 268.751 187.81 268.751 200.143 268.751Z" fill="#A1ACBE"/>
<path opacity="0.111" fill-rule="evenodd" clip-rule="evenodd" d="M222.143 268.751C222.476 268.751 222.81 268.751 223.143 268.751C224.273 276.001 224.439 283.341 223.643 290.751C223.26 290.191 222.76 289.861 222.143 289.751C222.143 289.421 222.143 289.081 222.143 288.751C222.143 282.081 222.143 275.421 222.143 268.751Z" fill="#B1BCDB"/>
<path fill-rule="evenodd" clip-rule="evenodd" d="M200.143 268.751C200.81 268.751 201.476 268.751 202.143 268.751C202.143 275.421 202.143 282.081 202.143 288.751C188.81 288.751 175.476 288.751 162.143 288.751C162.143 288.421 162.143 288.081 162.143 287.751C163.12 284.961 163.453 281.961 163.143 278.751C164.548 280.631 166.215 280.961 168.143 279.751C169.799 281.581 171.799 282.911 174.143 283.751C176.255 282.841 178.588 282.841 181.143 283.751C183.236 283.761 185.069 283.101 186.643 281.751C186.976 282.081 187.31 282.421 187.643 282.751C189.198 281.101 190.864 280.771 192.643 281.751C193.976 280.421 195.31 279.081 196.643 277.751C196.976 278.081 197.31 278.421 197.643 278.751C201.09 276.101 201.924 272.771 200.143 268.751Z" fill="#9DADCD"/>
<path fill-rule="evenodd" clip-rule="evenodd" d="M202.143 268.751C202.476 268.751 202.81 268.751 203.143 268.751C203.143 275.421 203.143 282.081 203.143 288.751C209.476 288.751 215.81 288.751 222.143 288.751C222.143 289.081 222.143 289.421 222.143 289.751C216.143 289.751 210.143 289.751 204.143 289.751C203.81 289.751 203.476 289.751 203.143 289.751C189.476 289.751 175.81 289.751 162.143 289.751C162.143 289.421 162.143 289.081 162.143 288.751C175.476 288.751 188.81 288.751 202.143 288.751C202.143 282.081 202.143 275.421 202.143 268.751Z" fill="#4E5D7D"/>
<path opacity="0.016" fill-rule="evenodd" clip-rule="evenodd" d="M140.143 289.751C140.476 289.751 140.81 289.751 141.143 289.751C140.958 290.421 140.624 290.421 140.143 289.751Z" fill="#B8C4DC"/>
<path opacity="0.494" fill-rule="evenodd" clip-rule="evenodd" d="M141.143 289.751C141.143 289.421 141.143 289.081 141.143 288.751C148.143 288.751 155.143 288.751 162.143 288.751C162.143 289.081 162.143 289.421 162.143 289.751C162.143 296.081 162.143 302.421 162.143 308.751C175.81 308.751 189.476 308.751 203.143 308.751C203.143 302.421 203.143 296.081 203.143 289.751C203.476 289.751 203.81 289.751 204.143 289.751C204.204 297.031 204.204 304.031 204.143 310.751C189.81 309.421 175.476 309.421 161.143 310.751C161.054 303.931 161.054 296.931 161.143 289.751C154.476 289.751 147.81 289.751 141.143 289.751Z" fill="#8A97BB"/>
<path fill-rule="evenodd" clip-rule="evenodd" d="M162.143 289.751C175.81 289.751 189.476 289.751 203.143 289.751C203.143 296.081 203.143 302.421 203.143 308.751C189.476 308.751 175.81 308.751 162.143 308.751C162.143 302.421 162.143 296.081 162.143 289.751Z" fill="#1E3253"/>
</svg>
